<?xml version="1.0" encoding="utf-8" standalone="no"?>
<!DOCTYPE svg PUBLIC "-//W3C//DTD SVG 1.1//EN"
  "http://www.w3.org/Graphics/SVG/1.1/DTD/svg11.dtd">
<svg xmlns:xlink="http://www.w3.org/1999/xlink" width="460.8pt" height="345.6pt" viewBox="0 0 460.8 345.6" xmlns="http://www.w3.org/2000/svg" version="1.1">
 <metadata>
  <rdf:RDF xmlns:dc="http://purl.org/dc/elements/1.1/" xmlns:cc="http://creativecommons.org/ns#" xmlns:rdf="http://www.w3.org/1999/02/22-rdf-syntax-ns#">
   <cc:Work>
    <dc:type rdf:resource="http://purl.org/dc/dcmitype/StillImage"/>
    <dc:date>2025-01-03T15:20:03.131616</dc:date>
    <dc:format>image/svg+xml</dc:format>
    <dc:creator>
     <cc:Agent>
      <dc:title>Matplotlib v3.6.2, https://matplotlib.org/</dc:title>
     </cc:Agent>
    </dc:creator>
   </cc:Work>
  </rdf:RDF>
 </metadata>
 <defs>
  <style type="text/css">*{stroke-linejoin: round; stroke-linecap: butt}</style>
 </defs>
 <g id="figure_1">
  <g id="patch_1">
   <path d="M 0 345.6 
L 460.8 345.6 
L 460.8 0 
L 0 0 
z
" style="fill: #ffffff"/>
  </g>
  <g id="axes_1">
   <g id="patch_2">
    <path d="M 57.6 307.584 
L 414.72 307.584 
L 414.72 41.472 
L 57.6 41.472 
z
" style="fill: #ffffff"/>
   </g>
   <g id="matplotlib.axis_1">
    <g id="xtick_1">
     <g id="line2d_1">
      <defs>
       <path id="mc6ac5a7d52" d="M 0 0 
L 0 3.5 
" style="stroke: #000000; stroke-width: 0.8"/>
      </defs>
      <g>
       <use xlink:href="#mc6ac5a7d52" x="73.858313" y="307.584" style="stroke: #000000; stroke-width: 0.8"/>
      </g>
     </g>
     <g id="text_1">
      <!-- 0 -->
      <g transform="translate(70.677063 322.182437) scale(0.1 -0.1)">
       <defs>
        <path id="DejaVuSans-30" d="M 2034 4250 
Q 1547 4250 1301 3770 
Q 1056 3291 1056 2328 
Q 1056 1369 1301 889 
Q 1547 409 2034 409 
Q 2525 409 2770 889 
Q 3016 1369 3016 2328 
Q 3016 3291 2770 3770 
Q 2525 4250 2034 4250 
z
M 2034 4750 
Q 2819 4750 3233 4129 
Q 3647 3509 3647 2328 
Q 3647 1150 3233 529 
Q 2819 -91 2034 -91 
Q 1250 -91 836 529 
Q 422 1150 422 2328 
Q 422 3509 836 4129 
Q 1250 4750 2034 4750 
z
" transform="scale(0.015625)"/>
       </defs>
       <use xlink:href="#DejaVuSans-30"/>
      </g>
     </g>
    </g>
    <g id="xtick_2">
     <g id="line2d_2">
      <g>
       <use xlink:href="#mc6ac5a7d52" x="132.887125" y="307.584" style="stroke: #000000; stroke-width: 0.8"/>
      </g>
     </g>
     <g id="text_2">
      <!-- 200 -->
      <g transform="translate(123.343375 322.182437) scale(0.1 -0.1)">
       <defs>
        <path id="DejaVuSans-32" d="M 1228 531 
L 3431 531 
L 3431 0 
L 469 0 
L 469 531 
Q 828 903 1448 1529 
Q 2069 2156 2228 2338 
Q 2531 2678 2651 2914 
Q 2772 3150 2772 3378 
Q 2772 3750 2511 3984 
Q 2250 4219 1831 4219 
Q 1534 4219 1204 4116 
Q 875 4013 500 3803 
L 500 4441 
Q 881 4594 1212 4672 
Q 1544 4750 1819 4750 
Q 2544 4750 2975 4387 
Q 3406 4025 3406 3419 
Q 3406 3131 3298 2873 
Q 3191 2616 2906 2266 
Q 2828 2175 2409 1742 
Q 1991 1309 1228 531 
z
" transform="scale(0.015625)"/>
       </defs>
       <use xlink:href="#DejaVuSans-32"/>
       <use xlink:href="#DejaVuSans-30" x="63.623047"/>
       <use xlink:href="#DejaVuSans-30" x="127.246094"/>
      </g>
     </g>
    </g>
    <g id="xtick_3">
     <g id="line2d_3">
      <g>
       <use xlink:href="#mc6ac5a7d52" x="191.915937" y="307.584" style="stroke: #000000; stroke-width: 0.8"/>
      </g>
     </g>
     <g id="text_3">
      <!-- 400 -->
      <g transform="translate(182.372187 322.182437) scale(0.1 -0.1)">
       <defs>
        <path id="DejaVuSans-34" d="M 2419 4116 
L 825 1625 
L 2419 1625 
L 2419 4116 
z
M 2253 4666 
L 3047 4666 
L 3047 1625 
L 3713 1625 
L 3713 1100 
L 3047 1100 
L 3047 0 
L 2419 0 
L 2419 1100 
L 313 1100 
L 313 1709 
L 2253 4666 
z
" transform="scale(0.015625)"/>
       </defs>
       <use xlink:href="#DejaVuSans-34"/>
       <use xlink:href="#DejaVuSans-30" x="63.623047"/>
       <use xlink:href="#DejaVuSans-30" x="127.246094"/>
      </g>
     </g>
    </g>
    <g id="xtick_4">
     <g id="line2d_4">
      <g>
       <use xlink:href="#mc6ac5a7d52" x="250.94475" y="307.584" style="stroke: #000000; stroke-width: 0.8"/>
      </g>
     </g>
     <g id="text_4">
      <!-- 600 -->
      <g transform="translate(241.401 322.182437) scale(0.1 -0.1)">
       <defs>
        <path id="DejaVuSans-36" d="M 2113 2584 
Q 1688 2584 1439 2293 
Q 1191 2003 1191 1497 
Q 1191 994 1439 701 
Q 1688 409 2113 409 
Q 2538 409 2786 701 
Q 3034 994 3034 1497 
Q 3034 2003 2786 2293 
Q 2538 2584 2113 2584 
z
M 3366 4563 
L 3366 3988 
Q 3128 4100 2886 4159 
Q 2644 4219 2406 4219 
Q 1781 4219 1451 3797 
Q 1122 3375 1075 2522 
Q 1259 2794 1537 2939 
Q 1816 3084 2150 3084 
Q 2853 3084 3261 2657 
Q 3669 2231 3669 1497 
Q 3669 778 3244 343 
Q 2819 -91 2113 -91 
Q 1303 -91 875 529 
Q 447 1150 447 2328 
Q 447 3434 972 4092 
Q 1497 4750 2381 4750 
Q 2619 4750 2861 4703 
Q 3103 4656 3366 4563 
z
" transform="scale(0.015625)"/>
       </defs>
       <use xlink:href="#DejaVuSans-36"/>
       <use xlink:href="#DejaVuSans-30" x="63.623047"/>
       <use xlink:href="#DejaVuSans-30" x="127.246094"/>
      </g>
     </g>
    </g>
    <g id="xtick_5">
     <g id="line2d_5">
      <g>
       <use xlink:href="#mc6ac5a7d52" x="309.973562" y="307.584" style="stroke: #000000; stroke-width: 0.8"/>
      </g>
     </g>
     <g id="text_5">
      <!-- 800 -->
      <g transform="translate(300.429812 322.182437) scale(0.1 -0.1)">
       <defs>
        <path id="DejaVuSans-38" d="M 2034 2216 
Q 1584 2216 1326 1975 
Q 1069 1734 1069 1313 
Q 1069 891 1326 650 
Q 1584 409 2034 409 
Q 2484 409 2743 651 
Q 3003 894 3003 1313 
Q 3003 1734 2745 1975 
Q 2488 2216 2034 2216 
z
M 1403 2484 
Q 997 2584 770 2862 
Q 544 3141 544 3541 
Q 544 4100 942 4425 
Q 1341 4750 2034 4750 
Q 2731 4750 3128 4425 
Q 3525 4100 3525 3541 
Q 3525 3141 3298 2862 
Q 3072 2584 2669 2484 
Q 3125 2378 3379 2068 
Q 3634 1759 3634 1313 
Q 3634 634 3220 271 
Q 2806 -91 2034 -91 
Q 1263 -91 848 271 
Q 434 634 434 1313 
Q 434 1759 690 2068 
Q 947 2378 1403 2484 
z
M 1172 3481 
Q 1172 3119 1398 2916 
Q 1625 2713 2034 2713 
Q 2441 2713 2670 2916 
Q 2900 3119 2900 3481 
Q 2900 3844 2670 4047 
Q 2441 4250 2034 4250 
Q 1625 4250 1398 4047 
Q 1172 3844 1172 3481 
z
" transform="scale(0.015625)"/>
       </defs>
       <use xlink:href="#DejaVuSans-38"/>
       <use xlink:href="#DejaVuSans-30" x="63.623047"/>
       <use xlink:href="#DejaVuSans-30" x="127.246094"/>
      </g>
     </g>
    </g>
    <g id="xtick_6">
     <g id="line2d_6">
      <g>
       <use xlink:href="#mc6ac5a7d52" x="369.002374" y="307.584" style="stroke: #000000; stroke-width: 0.8"/>
      </g>
     </g>
     <g id="text_6">
      <!-- 1000 -->
      <g transform="translate(356.277374 322.182437) scale(0.1 -0.1)">
       <defs>
        <path id="DejaVuSans-31" d="M 794 531 
L 1825 531 
L 1825 4091 
L 703 3866 
L 703 4441 
L 1819 4666 
L 2450 4666 
L 2450 531 
L 3481 531 
L 3481 0 
L 794 0 
L 794 531 
z
" transform="scale(0.015625)"/>
       </defs>
       <use xlink:href="#DejaVuSans-31"/>
       <use xlink:href="#DejaVuSans-30" x="63.623047"/>
       <use xlink:href="#DejaVuSans-30" x="127.246094"/>
       <use xlink:href="#DejaVuSans-30" x="190.869141"/>
      </g>
     </g>
    </g>
    <g id="text_7">
     <!-- T -->
     <g transform="translate(233.106094 335.860562) scale(0.1 -0.1)">
      <defs>
       <path id="DejaVuSans-54" d="M -19 4666 
L 3928 4666 
L 3928 4134 
L 2272 4134 
L 2272 0 
L 1638 0 
L 1638 4134 
L -19 4134 
L -19 4666 
z
" transform="scale(0.015625)"/>
      </defs>
      <use xlink:href="#DejaVuSans-54"/>
     </g>
    </g>
   </g>
   <g id="matplotlib.axis_2">
    <g id="ytick_1">
     <g id="line2d_7">
      <defs>
       <path id="me073b41362" d="M 0 0 
L -3.5 0 
" style="stroke: #000000; stroke-width: 0.8"/>
      </defs>
      <g>
       <use xlink:href="#me073b41362" x="57.6" y="296.760904" style="stroke: #000000; stroke-width: 0.8"/>
      </g>
     </g>
     <g id="text_8">
      <!-- 2.0 -->
      <g transform="translate(34.696875 300.560122) scale(0.1 -0.1)">
       <defs>
        <path id="DejaVuSans-2e" d="M 684 794 
L 1344 794 
L 1344 0 
L 684 0 
L 684 794 
z
" transform="scale(0.015625)"/>
       </defs>
       <use xlink:href="#DejaVuSans-32"/>
       <use xlink:href="#DejaVuSans-2e" x="63.623047"/>
       <use xlink:href="#DejaVuSans-30" x="95.410156"/>
      </g>
     </g>
    </g>
    <g id="ytick_2">
     <g id="line2d_8">
      <g>
       <use xlink:href="#me073b41362" x="57.6" y="264.3966" style="stroke: #000000; stroke-width: 0.8"/>
      </g>
     </g>
     <g id="text_9">
      <!-- 2.5 -->
      <g transform="translate(34.696875 268.195819) scale(0.1 -0.1)">
       <defs>
        <path id="DejaVuSans-35" d="M 691 4666 
L 3169 4666 
L 3169 4134 
L 1269 4134 
L 1269 2991 
Q 1406 3038 1543 3061 
Q 1681 3084 1819 3084 
Q 2600 3084 3056 2656 
Q 3513 2228 3513 1497 
Q 3513 744 3044 326 
Q 2575 -91 1722 -91 
Q 1428 -91 1123 -41 
Q 819 9 494 109 
L 494 744 
Q 775 591 1075 516 
Q 1375 441 1709 441 
Q 2250 441 2565 725 
Q 2881 1009 2881 1497 
Q 2881 1984 2565 2268 
Q 2250 2553 1709 2553 
Q 1456 2553 1204 2497 
Q 953 2441 691 2322 
L 691 4666 
z
" transform="scale(0.015625)"/>
       </defs>
       <use xlink:href="#DejaVuSans-32"/>
       <use xlink:href="#DejaVuSans-2e" x="63.623047"/>
       <use xlink:href="#DejaVuSans-35" x="95.410156"/>
      </g>
     </g>
    </g>
    <g id="ytick_3">
     <g id="line2d_9">
      <g>
       <use xlink:href="#me073b41362" x="57.6" y="232.032297" style="stroke: #000000; stroke-width: 0.8"/>
      </g>
     </g>
     <g id="text_10">
      <!-- 3.0 -->
      <g transform="translate(34.696875 235.831516) scale(0.1 -0.1)">
       <defs>
        <path id="DejaVuSans-33" d="M 2597 2516 
Q 3050 2419 3304 2112 
Q 3559 1806 3559 1356 
Q 3559 666 3084 287 
Q 2609 -91 1734 -91 
Q 1441 -91 1130 -33 
Q 819 25 488 141 
L 488 750 
Q 750 597 1062 519 
Q 1375 441 1716 441 
Q 2309 441 2620 675 
Q 2931 909 2931 1356 
Q 2931 1769 2642 2001 
Q 2353 2234 1838 2234 
L 1294 2234 
L 1294 2753 
L 1863 2753 
Q 2328 2753 2575 2939 
Q 2822 3125 2822 3475 
Q 2822 3834 2567 4026 
Q 2313 4219 1838 4219 
Q 1578 4219 1281 4162 
Q 984 4106 628 3988 
L 628 4550 
Q 988 4650 1302 4700 
Q 1616 4750 1894 4750 
Q 2613 4750 3031 4423 
Q 3450 4097 3450 3541 
Q 3450 3153 3228 2886 
Q 3006 2619 2597 2516 
z
" transform="scale(0.015625)"/>
       </defs>
       <use xlink:href="#DejaVuSans-33"/>
       <use xlink:href="#DejaVuSans-2e" x="63.623047"/>
       <use xlink:href="#DejaVuSans-30" x="95.410156"/>
      </g>
     </g>
    </g>
    <g id="ytick_4">
     <g id="line2d_10">
      <g>
       <use xlink:href="#me073b41362" x="57.6" y="199.667994" style="stroke: #000000; stroke-width: 0.8"/>
      </g>
     </g>
     <g id="text_11">
      <!-- 3.5 -->
      <g transform="translate(34.696875 203.467213) scale(0.1 -0.1)">
       <use xlink:href="#DejaVuSans-33"/>
       <use xlink:href="#DejaVuSans-2e" x="63.623047"/>
       <use xlink:href="#DejaVuSans-35" x="95.410156"/>
      </g>
     </g>
    </g>
    <g id="ytick_5">
     <g id="line2d_11">
      <g>
       <use xlink:href="#me073b41362" x="57.6" y="167.303691" style="stroke: #000000; stroke-width: 0.8"/>
      </g>
     </g>
     <g id="text_12">
      <!-- 4.0 -->
      <g transform="translate(34.696875 171.102909) scale(0.1 -0.1)">
       <use xlink:href="#DejaVuSans-34"/>
       <use xlink:href="#DejaVuSans-2e" x="63.623047"/>
       <use xlink:href="#DejaVuSans-30" x="95.410156"/>
      </g>
     </g>
    </g>
    <g id="ytick_6">
     <g id="line2d_12">
      <g>
       <use xlink:href="#me073b41362" x="57.6" y="134.939387" style="stroke: #000000; stroke-width: 0.8"/>
      </g>
     </g>
     <g id="text_13">
      <!-- 4.5 -->
      <g transform="translate(34.696875 138.738606) scale(0.1 -0.1)">
       <use xlink:href="#DejaVuSans-34"/>
       <use xlink:href="#DejaVuSans-2e" x="63.623047"/>
       <use xlink:href="#DejaVuSans-35" x="95.410156"/>
      </g>
     </g>
    </g>
    <g id="ytick_7">
     <g id="line2d_13">
      <g>
       <use xlink:href="#me073b41362" x="57.6" y="102.575084" style="stroke: #000000; stroke-width: 0.8"/>
      </g>
     </g>
     <g id="text_14">
      <!-- 5.0 -->
      <g transform="translate(34.696875 106.374303) scale(0.1 -0.1)">
       <use xlink:href="#DejaVuSans-35"/>
       <use xlink:href="#DejaVuSans-2e" x="63.623047"/>
       <use xlink:href="#DejaVuSans-30" x="95.410156"/>
      </g>
     </g>
    </g>
    <g id="ytick_8">
     <g id="line2d_14">
      <g>
       <use xlink:href="#me073b41362" x="57.6" y="70.210781" style="stroke: #000000; stroke-width: 0.8"/>
      </g>
     </g>
     <g id="text_15">
      <!-- 5.5 -->
      <g transform="translate(34.696875 74.01) scale(0.1 -0.1)">
       <use xlink:href="#DejaVuSans-35"/>
       <use xlink:href="#DejaVuSans-2e" x="63.623047"/>
       <use xlink:href="#DejaVuSans-35" x="95.410156"/>
      </g>
     </g>
    </g>
    <g id="text_16">
     <!-- G -->
     <g transform="translate(28.617188 178.402219) rotate(-90) scale(0.1 -0.1)">
      <defs>
       <path id="DejaVuSans-47" d="M 3809 666 
L 3809 1919 
L 2778 1919 
L 2778 2438 
L 4434 2438 
L 4434 434 
Q 4069 175 3628 42 
Q 3188 -91 2688 -91 
Q 1594 -91 976 548 
Q 359 1188 359 2328 
Q 359 3472 976 4111 
Q 1594 4750 2688 4750 
Q 3144 4750 3555 4637 
Q 3966 4525 4313 4306 
L 4313 3634 
Q 3963 3931 3569 4081 
Q 3175 4231 2741 4231 
Q 1884 4231 1454 3753 
Q 1025 3275 1025 2328 
Q 1025 1384 1454 906 
Q 1884 428 2741 428 
Q 3075 428 3337 486 
Q 3600 544 3809 666 
z
" transform="scale(0.015625)"/>
      </defs>
      <use xlink:href="#DejaVuSans-47"/>
     </g>
    </g>
   </g>
   <g id="line2d_15">
    <path d="M 73.832727 289.377177 
L 74.239819 256.657247 
L 74.931875 228.262353 
L 75.21684 218.10789 
L 77.140349 177.113947 
L 77.415136 174.105227 
L 78.697476 153.23215 
L 79.73556 144.017927 
L 80.346198 133.675435 
L 80.651517 132.735194 
L 81.078963 128.410143 
L 81.343573 124.461181 
L 81.832083 120.88831 
L 82.015275 117.127409 
L 82.890522 109.041457 
L 83.297614 106.972946 
L 83.704707 103.212045 
L 83.847188 98.134814 
L 84.172862 98.134814 
L 84.783499 91.365161 
L 85.190591 88.92056 
L 85.190591 88.92056 
L 86.472931 77.449797 
L 86.737541 76.885647 
L 87.470306 69.551875 
L 87.816335 68.235544 
L 88.447327 64.098553 
L 88.793354 62.970283 
L 89.79073 53.568 
L 90.136758 128.974293 
L 90.401368 152.66803 
L 91.419098 193.850018 
L 92.111153 210.021938 
L 93.006757 227.134083 
L 93.780231 236.160276 
L 94.024485 238.604861 
L 94.757252 243.494048 
L 94.920089 245.938649 
L 95.367889 248.759324 
L 95.571436 251.203925 
L 95.856399 253.084376 
L 96.548456 255.717022 
L 97.464414 260.794253 
L 98.095405 262.298613 
L 98.482142 264.555154 
L 98.746752 266.81171 
L 99.072425 266.247575 
L 99.113135 266.43562 
L 99.499872 266.81171 
L 99.825546 267.751935 
L 100.090156 268.128025 
L 100.456537 267.93998 
L 101.046821 270.760671 
L 101.453914 271.136761 
L 101.718524 272.453077 
L 101.983134 272.265032 
L 102.166324 272.453077 
L 102.451288 273.581347 
L 102.715898 273.957437 
L 102.980508 273.769392 
L 103.367245 274.145482 
L 103.591146 275.273752 
L 103.937173 275.273752 
L 104.62923 275.837903 
L 104.873486 276.966173 
L 105.239867 277.154218 
L 105.545187 278.094443 
L 105.952278 278.470533 
L 106.298573 289.377177 
L 106.705666 256.657247 
L 107.397723 228.262353 
L 107.682687 218.10789 
L 109.606196 177.113947 
L 109.880982 174.105227 
L 111.163323 153.23215 
L 112.201407 144.017927 
L 112.812042 133.675435 
L 113.117364 132.735194 
L 113.544809 128.410143 
L 113.809419 124.461181 
L 114.297931 120.88831 
L 114.481122 117.127409 
L 115.356367 109.041457 
L 115.76346 106.972946 
L 116.170553 103.212045 
L 116.313036 98.134814 
L 116.63871 98.134814 
L 117.249345 91.365161 
L 117.656438 88.92056 
L 117.656438 88.92056 
L 118.938776 77.449797 
L 119.203386 76.885647 
L 119.936153 69.551875 
L 120.282183 68.235544 
L 120.913174 64.098553 
L 121.259199 62.970283 
L 122.256575 53.568 
L 122.602605 128.974293 
L 122.867215 152.66803 
L 123.884943 193.850018 
L 124.577002 210.021938 
L 125.472604 227.134083 
L 126.246078 236.160276 
L 126.490332 238.604861 
L 127.223098 243.494048 
L 127.385933 245.938649 
L 127.833738 248.759324 
L 128.03728 251.203925 
L 128.322246 253.084376 
L 129.014305 255.717022 
L 129.930262 260.794253 
L 130.561254 262.298613 
L 130.947991 264.555154 
L 131.212601 266.81171 
L 131.53827 266.247575 
L 131.578982 266.43562 
L 131.965719 266.81171 
L 132.291392 267.751935 
L 132.556003 268.128025 
L 132.922384 267.93998 
L 133.512667 270.760671 
L 133.91976 271.136761 
L 134.18437 272.453077 
L 134.44898 272.265032 
L 134.632171 272.453077 
L 134.917132 273.581347 
L 135.181743 273.957437 
L 135.446353 273.769392 
L 135.83309 274.145482 
L 136.056992 275.273752 
L 136.403022 275.273752 
L 137.095076 275.837903 
L 137.339335 276.966173 
L 137.705716 277.154218 
L 138.011034 278.094443 
L 138.418122 278.470533 
L 138.764422 289.377177 
L 139.171511 256.657247 
L 139.86357 228.262353 
L 140.148531 218.10789 
L 142.072043 177.113947 
L 142.346831 174.105227 
L 143.629169 153.23215 
L 144.667254 144.017927 
L 145.277889 133.675435 
L 145.583211 132.735194 
L 146.010655 128.410143 
L 146.275265 124.461181 
L 146.763778 120.88831 
L 146.946969 117.127409 
L 147.822214 109.041457 
L 148.229307 106.972946 
L 148.6364 103.212045 
L 148.778883 98.134814 
L 149.104557 98.134814 
L 149.715192 91.365161 
L 150.122285 88.92056 
L 150.122285 88.92056 
L 151.404623 77.449797 
L 151.669233 76.885647 
L 152.401995 69.551875 
L 152.748029 68.235544 
L 153.37902 64.098553 
L 153.725045 62.970283 
L 154.722427 53.568 
L 155.068452 128.974293 
L 155.333062 152.66803 
L 156.35079 193.850018 
L 157.042849 210.021938 
L 157.93845 227.134083 
L 158.711924 236.160276 
L 158.956178 238.604861 
L 159.688941 243.494048 
L 159.85178 245.938649 
L 160.299585 248.759324 
L 160.503127 251.203925 
L 160.788093 253.084376 
L 161.480152 255.717022 
L 162.396109 260.794253 
L 163.0271 262.298613 
L 163.413837 264.555154 
L 163.678447 266.81171 
L 164.004116 266.247575 
L 164.044828 266.43562 
L 164.431566 266.81171 
L 164.757244 267.751935 
L 165.021854 268.128025 
L 165.388226 267.93998 
L 165.978514 270.760671 
L 166.385607 271.136761 
L 166.650217 272.453077 
L 166.914827 272.265032 
L 167.098022 272.453077 
L 167.382979 273.581347 
L 167.647589 273.957437 
L 167.912199 273.769392 
L 168.298936 274.145482 
L 168.522834 275.273752 
L 168.868868 275.273752 
L 169.560919 275.837903 
L 169.805182 276.966173 
L 170.171563 277.154218 
L 170.476885 278.094443 
L 170.883969 278.470533 
L 171.230264 289.377177 
L 171.637357 256.657247 
L 172.329416 228.262353 
L 172.614382 218.10789 
L 174.53789 177.113947 
L 174.812678 174.105227 
L 176.095016 153.23215 
L 177.1331 144.017927 
L 177.743735 133.675435 
L 178.049057 132.735194 
L 178.476507 128.410143 
L 178.741117 124.461181 
L 179.229625 120.88831 
L 179.412811 117.127409 
L 180.288065 109.041457 
L 180.695158 106.972946 
L 181.102251 103.212045 
L 181.244725 98.134814 
L 181.570403 98.134814 
L 182.181038 91.365161 
L 182.588131 88.92056 
L 182.588131 88.92056 
L 183.87047 77.449797 
L 184.13508 76.885647 
L 184.867842 69.551875 
L 185.213876 68.235544 
L 185.844867 64.098553 
L 186.190892 62.970283 
L 187.188273 53.568 
L 187.534298 128.974293 
L 187.798908 152.66803 
L 188.816637 193.850018 
L 189.508696 210.021938 
L 190.404297 227.134083 
L 191.177771 236.160276 
L 191.422025 238.604861 
L 192.154787 243.494048 
L 192.317626 245.938649 
L 192.765431 248.759324 
L 192.968973 251.203925 
L 193.25394 253.084376 
L 193.945999 255.717022 
L 194.861956 260.794253 
L 195.492947 262.298613 
L 195.879684 264.555154 
L 196.144294 266.81171 
L 196.469963 266.247575 
L 196.510675 266.43562 
L 196.897412 266.81171 
L 197.22309 267.751935 
L 197.4877 268.128025 
L 197.854072 267.93998 
L 198.444361 270.760671 
L 198.851454 271.136761 
L 199.116064 272.453077 
L 199.380674 272.265032 
L 199.563869 272.453077 
L 199.848826 273.581347 
L 200.113436 273.957437 
L 200.378046 273.769392 
L 200.764783 274.145482 
L 200.988681 275.273752 
L 201.334715 275.273752 
L 202.026765 275.837903 
L 202.271028 276.966173 
L 202.637409 277.154218 
L 202.942731 278.094443 
L 203.349816 278.470533 
L 203.696111 289.377177 
L 204.103204 256.657247 
L 204.795263 228.262353 
L 205.080229 218.10789 
L 207.003736 177.113947 
L 207.278525 174.105227 
L 208.560863 153.23215 
L 209.598947 144.017927 
L 210.209582 133.675435 
L 210.514904 132.735194 
L 210.942353 128.410143 
L 211.206963 124.461181 
L 211.695471 120.88831 
L 211.878657 117.127409 
L 212.753912 109.041457 
L 213.161005 106.972946 
L 213.568098 103.212045 
L 213.710572 98.134814 
L 214.03625 98.134814 
L 214.646885 91.365161 
L 215.053978 88.92056 
L 215.053978 88.92056 
L 216.336316 77.449797 
L 216.600926 76.885647 
L 217.333689 69.551875 
L 217.679723 68.235544 
L 218.310714 64.098553 
L 218.656739 62.970283 
L 219.65412 53.568 
L 220.000145 128.974293 
L 220.264755 152.66803 
L 221.282483 193.850018 
L 221.974542 210.021938 
L 222.870144 227.134083 
L 223.643618 236.160276 
L 223.887872 238.604861 
L 224.620634 243.494048 
L 224.783473 245.938649 
L 225.231278 248.759324 
L 225.43482 251.203925 
L 225.719786 253.084376 
L 226.411836 255.717022 
L 227.327802 260.794253 
L 227.958785 262.298613 
L 228.345531 264.555154 
L 228.610141 266.81171 
L 228.935819 266.247575 
L 228.976513 266.43562 
L 229.363259 266.81171 
L 229.688937 267.751935 
L 229.953547 268.128025 
L 230.319919 267.93998 
L 230.910207 270.760671 
L 231.317309 271.136761 
L 231.581901 272.453077 
L 231.846529 272.265032 
L 232.029715 272.453077 
L 232.314681 273.581347 
L 232.579292 273.957437 
L 232.843902 273.769392 
L 233.23063 274.145482 
L 233.454528 275.273752 
L 233.800562 275.273752 
L 234.492612 275.837903 
L 234.736866 276.966173 
L 235.103256 277.154218 
L 235.408578 278.094443 
L 235.815662 278.470533 
L 236.161966 289.377177 
L 236.569051 256.657247 
L 237.261101 228.262353 
L 237.546067 218.10789 
L 239.469583 177.113947 
L 239.744371 174.105227 
L 241.026709 153.23215 
L 242.064794 144.017927 
L 242.675438 133.675435 
L 242.980742 132.735194 
L 243.4082 128.410143 
L 243.67281 124.461181 
L 244.161318 120.88831 
L 244.344504 117.127409 
L 245.219758 109.041457 
L 245.626842 106.972946 
L 246.033944 103.212045 
L 246.176418 98.134814 
L 246.502097 98.134814 
L 247.112741 91.365161 
L 247.519825 88.92056 
L 247.519825 88.92056 
L 248.802163 77.449797 
L 249.066773 76.885647 
L 249.799535 69.551875 
L 250.145569 68.235544 
L 250.776569 64.098553 
L 251.122585 62.970283 
L 252.119958 53.568 
L 252.465992 128.974293 
L 252.730602 152.66803 
L 253.74833 193.850018 
L 254.44038 210.021938 
L 255.33599 227.134083 
L 256.109464 236.160276 
L 256.353718 238.604861 
L 257.086481 243.494048 
L 257.249329 245.938649 
L 257.697125 248.759324 
L 257.900667 251.203925 
L 258.185633 253.084376 
L 258.877683 255.717022 
L 259.793649 260.794253 
L 260.424631 262.298613 
L 260.811377 264.555154 
L 261.075987 266.81171 
L 261.401665 266.247575 
L 261.442359 266.43562 
L 261.829106 266.81171 
L 262.154784 267.751935 
L 262.419394 268.128025 
L 262.785766 267.93998 
L 263.376054 270.760671 
L 263.783156 271.136761 
L 264.047748 272.453077 
L 264.312376 272.265032 
L 264.495562 272.453077 
L 264.780528 273.581347 
L 265.045138 273.957437 
L 265.309748 273.769392 
L 265.696476 274.145482 
L 265.920374 275.273752 
L 266.266408 275.273752 
L 266.958459 275.837903 
L 267.202713 276.966173 
L 267.569103 277.154218 
L 267.874425 278.094443 
L 268.281509 278.470533 
L 268.627813 289.377177 
L 269.034897 256.657247 
L 269.726947 228.262353 
L 270.011913 218.10789 
L 271.93543 177.113947 
L 272.210218 174.105227 
L 273.492556 153.23215 
L 274.53064 144.017927 
L 275.141284 133.675435 
L 275.446588 132.735194 
L 275.874047 128.410143 
L 276.138657 124.461181 
L 276.627165 120.88831 
L 276.810351 117.127409 
L 277.685605 109.041457 
L 278.092689 106.972946 
L 278.499791 103.212045 
L 278.642265 98.134814 
L 278.967943 98.134814 
L 279.578587 91.365161 
L 279.985671 88.92056 
L 279.985671 88.92056 
L 281.26801 77.449797 
L 281.53262 76.885647 
L 282.265382 69.551875 
L 282.611416 68.235544 
L 283.242416 64.098553 
L 283.588432 62.970283 
L 284.585804 53.568 
L 284.931838 128.974293 
L 285.196448 152.66803 
L 286.214177 193.850018 
L 286.906227 210.021938 
L 287.801837 227.134083 
L 288.575311 236.160276 
L 288.819565 238.604861 
L 289.552327 243.494048 
L 289.715175 245.938649 
L 290.162971 248.759324 
L 290.366513 251.203925 
L 290.65148 253.084376 
L 291.34353 255.717022 
L 292.259496 260.794253 
L 292.890478 262.298613 
L 293.277224 264.555154 
L 293.541834 266.81171 
L 293.867512 266.247575 
L 293.908206 266.43562 
L 294.294952 266.81171 
L 294.62063 267.751935 
L 294.88524 268.128025 
L 295.251612 267.93998 
L 295.841901 270.760671 
L 296.249003 271.136761 
L 296.513595 272.453077 
L 296.778223 272.265032 
L 296.961409 272.453077 
L 297.246375 273.581347 
L 297.510985 273.957437 
L 297.775595 273.769392 
L 298.162323 274.145482 
L 298.386221 275.273752 
L 298.732255 275.273752 
L 299.424305 275.837903 
L 299.668559 276.966173 
L 300.034949 277.154218 
L 300.340271 278.094443 
L 300.747356 278.470533 
L 301.09366 289.377177 
L 301.500744 256.657247 
L 302.192794 228.262353 
L 302.47776 218.10789 
L 304.401276 177.113947 
L 304.676065 174.105227 
L 305.958403 153.23215 
L 306.996487 144.017927 
L 307.607131 133.675435 
L 307.912435 132.735194 
L 308.339893 128.410143 
L 308.604503 124.461181 
L 309.093011 120.88831 
L 309.276197 117.127409 
L 310.151452 109.041457 
L 310.558536 106.972946 
L 310.965638 103.212045 
L 311.108112 98.134814 
L 311.43379 98.134814 
L 312.044434 91.365161 
L 312.451518 88.92056 
L 312.451518 88.92056 
L 313.733856 77.449797 
L 313.998466 76.885647 
L 314.731229 69.551875 
L 315.077263 68.235544 
L 315.708263 64.098553 
L 316.054279 62.970283 
L 317.051651 53.568 
L 317.397685 128.974293 
L 317.662295 152.66803 
L 318.680023 193.850018 
L 319.372073 210.021938 
L 320.267684 227.134083 
L 321.041158 236.160276 
L 321.285412 238.604861 
L 322.018174 243.494048 
L 322.181022 245.938649 
L 322.628818 248.759324 
L 322.83236 251.203925 
L 323.117326 253.084376 
L 323.809376 255.717022 
L 324.725343 260.794253 
L 325.356325 262.298613 
L 325.743071 264.555154 
L 326.007681 266.81171 
L 326.333359 266.247575 
L 326.374053 266.43562 
L 326.760799 266.81171 
L 327.086477 267.751935 
L 327.351087 268.128025 
L 327.717459 267.93998 
L 328.307747 270.760671 
L 328.714849 271.136761 
L 328.979441 272.453077 
L 329.244069 272.265032 
L 329.427255 272.453077 
L 329.712222 273.581347 
L 329.976832 273.957437 
L 330.241442 273.769392 
L 330.62817 274.145482 
L 330.852068 275.273752 
L 331.198102 275.273752 
L 331.890152 275.837903 
L 332.134406 276.966173 
L 332.500796 277.154218 
L 332.806118 278.094443 
L 333.213202 278.470533 
L 333.559506 289.377177 
L 333.966591 256.657247 
L 334.658641 228.262353 
L 334.943607 218.10789 
L 336.867123 177.113947 
L 337.141911 174.105227 
L 338.424249 153.23215 
L 339.462334 144.017927 
L 340.072978 133.675435 
L 340.378282 132.735194 
L 340.80574 128.410143 
L 341.07035 124.461181 
L 341.558858 120.88831 
L 341.742044 117.127409 
L 342.617298 109.041457 
L 343.024382 106.972946 
L 343.431484 103.212045 
L 343.573958 98.134814 
L 343.899637 98.134814 
L 344.510281 91.365161 
L 344.917365 88.92056 
L 344.917365 88.92056 
L 346.199703 77.449797 
L 346.464313 76.885647 
L 347.197075 69.551875 
L 347.543109 68.235544 
L 348.174109 64.098553 
L 348.520125 62.970283 
L 349.517498 53.568 
L 349.863532 128.974293 
L 350.128142 152.66803 
L 351.14587 193.850018 
L 351.83792 210.021938 
L 352.73353 227.134083 
L 353.507004 236.160276 
L 353.751258 238.604861 
L 354.484021 243.494048 
L 354.646869 245.938649 
L 355.094665 248.759324 
L 355.298207 251.203925 
L 355.583173 253.084376 
L 356.275223 255.717022 
L 357.191189 260.794253 
L 357.822171 262.298613 
L 358.208917 264.555154 
L 358.473527 266.81171 
L 358.799205 266.247575 
L 358.839899 266.43562 
L 359.226646 266.81171 
L 359.552324 267.751935 
L 359.816934 268.128025 
L 360.183306 267.93998 
L 360.773594 270.760671 
L 361.180696 271.136761 
L 361.445288 272.453077 
L 361.709916 272.265032 
L 361.893102 272.453077 
L 362.178068 273.581347 
L 362.442678 273.957437 
L 362.707288 273.769392 
L 363.094016 274.145482 
L 363.317914 275.273752 
L 363.663948 275.273752 
L 364.355999 275.837903 
L 364.600253 276.966173 
L 364.966643 277.154218 
L 365.271965 278.094443 
L 365.679049 278.470533 
L 366.025353 289.377177 
L 366.432437 256.657247 
L 367.124487 228.262353 
L 367.409453 218.10789 
L 369.33297 177.113947 
L 369.607758 174.105227 
L 370.890096 153.23215 
L 371.92818 144.017927 
L 372.538824 133.675435 
L 372.844128 132.735194 
L 373.271587 128.410143 
L 373.536197 124.461181 
L 374.024705 120.88831 
L 374.207891 117.127409 
L 375.083145 109.041457 
L 375.490229 106.972946 
L 375.897331 103.212045 
L 376.039805 98.134814 
L 376.365483 98.134814 
L 376.976127 91.365161 
L 377.383211 88.92056 
L 377.383211 88.92056 
L 378.665568 77.449797 
L 378.93016 76.885647 
L 379.66294 69.551875 
L 380.008956 68.235544 
L 380.639956 64.098553 
L 380.985972 62.970283 
L 381.983344 53.568 
L 382.329396 128.974293 
L 382.593988 152.66803 
L 383.611717 193.850018 
L 384.303785 210.021938 
L 385.199377 227.134083 
L 385.972869 236.160276 
L 386.217105 238.604861 
L 386.949885 243.494048 
L 387.112697 245.938649 
L 387.560493 248.759324 
L 387.764053 251.203925 
L 388.049038 253.084376 
L 388.74107 255.717022 
L 389.657018 260.794253 
L 390.288018 262.298613 
L 390.674746 264.555154 
L 390.939374 266.81171 
L 391.265034 266.247575 
L 391.305746 266.43562 
L 391.69251 266.81171 
L 392.01817 267.751935 
L 392.282762 268.128025 
L 392.64917 267.93998 
L 393.239423 270.760671 
L 393.646543 271.136761 
L 393.911135 272.453077 
L 394.175763 272.265032 
L 394.358931 272.453077 
L 394.643915 273.581347 
L 394.908507 273.957437 
L 395.173135 273.769392 
L 395.559863 274.145482 
L 395.783779 275.273752 
L 396.129795 275.273752 
L 396.821863 275.837903 
L 397.066099 276.966173 
L 397.432471 277.154218 
L 397.737811 278.094443 
L 398.144896 278.470533 
L 398.144896 278.470533 
" clip-path="url(#pfe5a616853)" style="fill: none; stroke: #000000; stroke-width: 2; stroke-linecap: square"/>
   </g>
   <g id="line2d_16">
    <path d="M 73.858313 295.488 
L 74.478116 258.896889 
L 74.50763 258.939945 
L 75.127433 228.684864 
L 75.156947 229.000489 
L 75.77675 204.106891 
L 75.806264 204.644281 
L 75.835778 203.65779 
L 76.426066 183.956919 
L 76.455581 184.676136 
L 76.485095 183.680878 
L 77.075383 167.464605 
L 77.104898 168.332606 
L 77.163927 166.83195 
L 77.7247 153.938742 
L 77.754215 154.928768 
L 77.813244 153.668797 
L 78.344503 143.481617 
L 78.403532 143.948049 
L 78.698676 138.093174 
L 78.72819 139.226197 
L 78.787219 138.248301 
L 79.229935 131.745785 
L 79.347993 129.702923 
L 79.377507 131.100552 
L 79.613622 127.309929 
L 79.672651 126.358854 
L 79.702165 127.597745 
L 79.908766 124.504392 
L 79.997309 123.159511 
L 80.026824 124.427261 
L 80.085853 123.715205 
L 80.321968 120.263788 
L 80.351483 121.557649 
L 80.410511 120.897199 
L 80.646627 117.642917 
L 80.676141 118.96042 
L 80.73517 118.346577 
L 80.971285 115.270571 
L 81.000799 116.609433 
L 81.089343 115.661877 
L 81.295943 113.123323 
L 81.325458 114.481599 
L 81.414001 113.591082 
L 81.620602 111.180248 
L 81.650116 112.556055 
L 81.738659 111.717484 
L 81.94526 109.421529 
L 81.974775 110.813232 
L 82.063318 110.021174 
L 82.269919 107.829419 
L 82.299433 109.235474 
L 82.387976 108.485702 
L 82.594577 106.388301 
L 82.624091 107.807351 
L 82.712635 107.095912 
L 82.919236 105.083977 
L 82.94875 106.514786 
L 83.037293 105.838009 
L 83.243894 103.903421 
L 83.273409 105.34491 
L 83.361952 104.699492 
L 83.568552 102.834968 
L 83.598067 104.286055 
L 83.68661 103.669033 
L 83.893211 101.867813 
L 83.922725 103.327666 
L 84.011268 102.736385 
L 84.217869 100.992512 
L 84.247384 102.460266 
L 84.335927 101.706697 
L 84.542528 100.026098 
L 84.572042 101.691481 
L 84.660585 101.14409 
L 84.867186 99.498028 
L 84.8967 100.97924 
L 84.985245 100.450955 
L 85.191844 98.847548 
L 85.22136 100.334594 
L 85.309903 99.823562 
L 85.516504 98.258798 
L 85.546018 99.751183 
L 85.634561 99.255831 
L 85.841162 97.725852 
L 85.870677 99.223052 
L 85.95922 98.741836 
L 86.165821 97.243525 
L 86.195335 98.745077 
L 86.283878 98.2767 
L 86.490479 96.80697 
L 86.519993 98.312504 
L 86.608537 97.855732 
L 86.815137 96.411867 
L 86.844652 97.920827 
L 86.933195 97.47455 
L 87.139796 96.054142 
L 87.16931 97.566466 
L 87.257853 97.129695 
L 87.464454 95.730492 
L 87.493969 97.245624 
L 87.582512 96.817434 
L 87.789113 95.437367 
L 87.818627 96.955277 
L 87.90717 96.534895 
L 88.113771 95.172205 
L 88.143285 96.692554 
L 88.231829 96.279271 
L 88.438429 94.932323 
L 88.467944 96.454832 
L 88.556487 96.047907 
L 88.763088 94.715187 
L 88.792602 96.239579 
L 88.881145 95.838427 
L 89.087746 94.518515 
L 89.11726 96.044759 
L 89.205804 95.648854 
L 89.412404 94.34064 
L 89.441919 95.868427 
L 89.530462 95.477183 
L 89.737063 94.179494 
L 89.766577 95.708732 
L 89.85512 95.321777 
L 90.061721 94.033688 
L 91.419385 158.879396 
L 92.304817 188.811614 
L 93.190249 211.617797 
L 94.075681 228.99444 
L 94.961114 242.234262 
L 95.846546 252.321964 
L 96.731978 260.008044 
L 97.61741 265.864309 
L 98.502842 270.326401 
L 99.417788 273.824409 
L 100.332735 276.465712 
L 101.247681 278.459839 
L 102.192143 280.007395 
L 103.195633 281.22721 
L 104.258151 282.168145 
L 105.409212 282.894306 
L 106.32416 283.313808 
L 107.26862 234.156134 
L 107.298134 234.422406 
L 108.242596 197.573495 
L 108.27211 198.169837 
L 108.301624 197.241742 
L 108.891912 178.604727 
L 108.921426 179.372216 
L 108.95094 178.61374 
L 109.541228 163.064969 
L 109.570745 163.972678 
L 109.629772 162.550295 
L 110.190547 150.334512 
L 110.220061 151.35707 
L 110.279089 150.161236 
L 110.780835 141.103931 
L 111.164521 135.420449 
L 111.194037 136.577609 
L 111.253065 135.647307 
L 111.489181 131.361331 
L 111.518695 132.555004 
L 111.754809 128.662618 
L 111.813837 127.687284 
L 111.843353 128.914168 
L 112.049953 125.73998 
L 112.138497 124.362012 
L 112.227041 124.698255 
L 112.463157 121.178102 
L 112.492669 122.652677 
L 112.581213 121.543019 
L 112.787813 118.642974 
L 112.817329 119.951434 
L 112.876357 119.319812 
L 113.112473 116.175779 
L 113.141985 117.506524 
L 113.230529 116.534925 
L 113.437129 113.942727 
L 113.466645 115.293627 
L 113.555189 114.381319 
L 113.761789 111.921718 
L 113.791306 113.290889 
L 113.879845 112.24688 
L 114.08645 109.918239 
L 114.115961 111.494361 
L 114.204505 110.684 
L 114.411105 108.451565 
L 114.440622 109.852034 
L 114.529166 109.085717 
L 114.735766 106.951526 
L 114.765277 108.365513 
L 114.853821 107.639075 
L 115.060421 105.593682 
L 115.089938 107.019892 
L 115.178482 106.329534 
L 115.385082 104.364761 
L 115.414598 105.802082 
L 115.503137 104.958881 
L 115.709742 103.078369 
L 115.739254 104.71619 
L 115.827798 104.087655 
L 116.034398 102.260693 
L 116.063914 103.716997 
L 116.152458 103.115253 
L 116.359058 101.348077 
L 116.38857 102.812621 
L 116.477114 102.235168 
L 116.683714 100.522068 
L 116.71323 101.99405 
L 116.801774 101.438511 
L 117.008374 99.774363 
L 117.03789 101.253074 
L 117.12643 100.717412 
L 117.333034 99.097648 
L 117.362546 100.582501 
L 117.45109 100.064833 
L 117.65769 98.485193 
L 117.687206 99.975603 
L 117.77575 99.474201 
L 117.98235 97.930827 
L 118.011862 99.426175 
L 118.100406 98.939588 
L 118.307006 97.429055 
L 118.336522 98.929032 
L 118.425066 98.455686 
L 118.631666 96.974938 
L 118.661183 98.478928 
L 118.749722 98.017681 
L 118.956327 96.563847 
L 118.985838 98.071571 
L 119.074382 97.621282 
L 119.280982 96.191831 
L 119.310499 97.70292 
L 119.399043 97.262507 
L 119.605643 95.855063 
L 119.635154 97.369238 
L 119.723698 96.937807 
L 119.930298 95.550363 
L 119.959815 97.067317 
L 120.048359 96.643972 
L 120.254959 95.274585 
L 120.284475 96.794007 
L 120.373014 96.377978 
L 120.579619 95.024918 
L 120.609131 96.546531 
L 120.697675 96.137138 
L 120.904275 94.798924 
L 120.933791 96.322544 
L 121.022335 95.919169 
L 121.228935 94.594351 
L 121.258447 96.119792 
L 121.346991 95.721849 
L 121.553591 94.409099 
L 121.583107 95.936269 
L 121.671651 95.543264 
L 121.878251 94.241533 
L 121.907767 95.770246 
L 121.996307 95.381686 
L 122.202911 94.089862 
L 122.232423 95.61981 
L 122.320967 95.235232 
L 122.527567 93.952482 
L 123.885232 158.825938 
L 124.770664 188.770888 
L 125.656096 211.586809 
L 126.541528 228.970921 
L 127.42696 242.216236 
L 128.312392 252.30829 
L 129.197825 259.997751 
L 130.083257 265.856561 
L 130.968689 270.320583 
L 131.883633 273.81998 
L 132.798581 276.462194 
L 133.71353 278.457231 
L 134.65799 280.005527 
L 135.661478 281.225852 
L 136.723998 282.167173 
L 137.904574 282.909106 
L 138.790007 283.31333 
L 139.734467 234.155748 
L 139.763978 234.42202 
L 140.708443 197.573186 
L 140.737955 198.169529 
L 140.767471 197.241434 
L 141.357759 178.604465 
L 141.387271 179.371954 
L 141.416787 178.613477 
L 142.007075 163.064722 
L 142.036591 163.972431 
L 142.095619 162.550048 
L 142.656391 150.334265 
L 142.685907 151.356823 
L 142.744935 150.160989 
L 143.246679 141.103684 
L 143.630367 135.420202 
L 143.659884 136.577393 
L 143.718911 135.647091 
L 143.955028 131.361115 
L 143.984539 132.554819 
L 144.220655 128.662433 
L 144.279683 127.687099 
L 144.3092 128.913983 
L 144.5158 125.739795 
L 144.604344 124.361827 
L 144.633855 125.618712 
L 144.810944 123.086701 
L 144.928999 121.352057 
L 144.958516 122.636103 
L 145.017544 121.956239 
L 145.25366 118.627881 
L 145.283176 119.936495 
L 145.342204 119.305121 
L 145.57832 116.162137 
L 145.607832 117.492974 
L 145.696376 116.521714 
L 145.902976 113.930412 
L 145.932492 115.281435 
L 146.021036 114.369498 
L 146.227636 111.910483 
L 146.257148 113.279716 
L 146.345692 112.421545 
L 146.552292 110.082194 
L 146.581808 111.46794 
L 146.670352 110.658104 
L 146.876952 108.427243 
L 146.906468 109.827897 
L 146.995008 109.062198 
L 147.201612 106.929426 
L 147.231124 108.343599 
L 147.319668 107.617778 
L 147.526268 105.573805 
L 147.555784 107.0002 
L 147.644328 106.310367 
L 147.850928 104.346705 
L 147.88044 105.78418 
L 147.968984 105.126972 
L 148.175584 103.236151 
L 148.2051 104.683658 
L 148.293644 104.055925 
L 148.500244 102.230816 
L 148.529761 103.687397 
L 148.6183 103.086456 
L 148.824905 101.320977 
L 148.854416 102.785769 
L 148.94296 102.209025 
L 149.14956 100.497499 
L 149.179077 101.969729 
L 149.267621 101.414869 
L 149.474216 99.752233 
L 149.503732 101.231191 
L 149.592281 100.696146 
L 149.798876 99.077524 
L 149.828393 100.562562 
L 149.916932 100.04545 
L 150.123537 98.466952 
L 150.153053 99.957454 
L 150.241593 99.456577 
L 150.448197 97.914314 
L 150.477713 99.409816 
L 150.566253 98.738101 
L 150.772857 97.240006 
L 150.802364 98.930606 
L 150.890913 98.45723 
L 151.097508 96.976358 
L 151.127025 98.480347 
L 151.215573 98.01907 
L 151.422169 96.565205 
L 151.451685 98.072899 
L 151.540225 97.622547 
L 151.746829 96.193004 
L 151.776345 97.704093 
L 151.864885 97.263649 
L 152.071489 95.856143 
L 152.101006 97.370318 
L 152.189545 96.753327 
L 152.39615 95.377211 
L 152.425657 97.084508 
L 152.514205 96.66067 
L 152.720801 95.290264 
L 152.750317 96.809409 
L 152.838866 96.392947 
L 153.045461 95.039023 
L 153.074977 96.560482 
L 153.163517 96.150688 
L 153.370121 94.81164 
L 153.399638 96.335106 
L 153.488177 95.931361 
L 153.694782 94.60574 
L 153.724298 96.131058 
L 153.812837 95.547308 
L 154.019442 94.245329 
L 154.048949 95.962812 
L 154.137498 95.569037 
L 154.344093 94.2657 
L 154.373609 95.794104 
L 154.462158 95.404897 
L 154.668753 94.111684 
L 154.69827 95.641539 
L 154.786809 95.256405 
L 154.993414 93.972297 
L 156.351078 158.838716 
L 157.23651 188.780502 
L 158.121943 211.593985 
L 159.007375 228.976214 
L 159.892807 242.220357 
L 160.778239 252.311531 
L 161.663671 260.000174 
L 162.549103 265.858491 
L 163.434536 270.322002 
L 164.349484 273.821091 
L 165.264423 276.463043 
L 166.179372 278.457879 
L 167.123836 280.006021 
L 168.127324 281.226161 
L 169.189845 282.167374 
L 170.370421 282.909245 
L 171.255853 283.313438 
L 172.200309 234.15584 
L 172.229825 234.422113 
L 173.17429 197.573248 
L 173.203806 198.169591 
L 173.233313 197.241495 
L 173.823601 178.604526 
L 173.853117 179.372016 
L 173.882634 178.613539 
L 174.472922 163.064784 
L 174.502438 163.972492 
L 174.561461 162.55011 
L 175.122242 150.334327 
L 175.151749 151.356885 
L 175.210782 150.161051 
L 175.71253 141.103746 
L 176.096214 135.420264 
L 176.12573 136.577455 
L 176.184754 135.647153 
L 176.420874 131.361177 
L 176.450391 132.554881 
L 176.686502 128.662495 
L 176.745535 127.687161 
L 176.775042 128.914045 
L 176.981646 125.739857 
L 177.070186 124.361889 
L 177.099702 125.618773 
L 177.27679 123.086732 
L 177.394846 121.352088 
L 177.424362 122.636134 
L 177.483395 121.95627 
L 177.719506 118.627911 
L 177.749023 119.936526 
L 177.808046 119.305151 
L 178.044167 116.162168 
L 178.073683 117.493005 
L 178.162222 116.521745 
L 178.368827 113.930443 
L 178.398334 115.281466 
L 178.486883 114.369528 
L 178.693478 111.910514 
L 178.722994 113.279747 
L 178.811543 112.421576 
L 179.018138 110.082225 
L 179.047655 111.467971 
L 179.136194 110.658135 
L 179.342799 108.427274 
L 179.372315 109.827928 
L 179.460855 109.062229 
L 179.667459 106.929457 
L 179.696975 108.34363 
L 179.785515 107.617809 
L 179.992119 105.573835 
L 180.021626 107.000231 
L 180.110175 106.310398 
L 180.31677 104.346735 
L 180.346287 105.784211 
L 180.434835 105.127003 
L 180.641431 103.236182 
L 180.670947 104.683689 
L 180.759487 104.055956 
L 180.966091 102.230847 
L 180.995607 103.687428 
L 181.084147 103.086486 
L 181.290751 101.321008 
L 181.320268 102.7858 
L 181.408807 102.209056 
L 181.615412 100.49753 
L 181.644919 101.96976 
L 181.733467 101.4149 
L 181.940063 99.752263 
L 181.969579 101.231222 
L 182.058128 100.696177 
L 182.264723 99.077554 
L 182.294239 100.562593 
L 182.382779 100.045481 
L 182.589383 98.466983 
L 182.6189 99.957485 
L 182.707439 99.456608 
L 182.914044 97.914345 
L 182.94356 99.409847 
L 183.032099 98.923631 
L 183.238704 97.414085 
L 183.268211 98.914093 
L 183.35676 98.44118 
L 183.563355 96.961265 
L 183.592871 98.465285 
L 183.68142 98.00444 
L 183.888015 96.551408 
L 183.917532 98.059133 
L 184.006071 97.609121 
L 184.212676 96.180411 
L 184.242192 97.691531 
L 184.330732 97.251426 
L 184.537336 95.844692 
L 184.566852 97.358898 
L 184.655392 96.927683 
L 184.861996 95.540826 
L 184.891503 97.05781 
L 184.980052 96.634651 
L 185.186647 95.265819 
L 185.216164 96.785272 
L 185.304712 96.36949 
L 185.511308 95.017016 
L 185.540824 96.53863 
L 185.629364 96.129453 
L 185.835968 94.791671 
L 185.865484 96.315445 
L 185.954024 95.912225 
L 186.160628 94.587746 
L 186.190145 96.113372 
L 186.278684 95.715615 
L 186.485289 94.403266 
L 186.514796 95.930435 
L 186.603344 95.537585 
L 186.80994 94.236193 
L 186.839456 95.764906 
L 186.928005 95.376501 
L 187.1346 94.085016 
L 187.164116 95.615026 
L 187.252656 95.230602 
L 187.45926 93.94813 
L 188.816925 158.822944 
L 189.702357 188.768588 
L 190.587789 211.585127 
L 191.473221 228.969578 
L 192.358654 242.215218 
L 193.244086 252.307534 
L 194.129518 259.99718 
L 195.01495 265.856129 
L 195.900382 270.320197 
L 196.815322 273.81964 
L 197.73027 276.461901 
L 198.645218 278.457014 
L 199.589683 280.005342 
L 200.593171 281.225744 
L 201.655691 282.167065 
L 202.836268 282.909044 
L 203.7217 283.313268 
L 204.666155 234.155701 
L 204.695672 234.421974 
L 205.640136 197.57314 
L 205.669644 198.169483 
L 205.69916 197.241387 
L 206.289448 178.604449 
L 206.318964 179.371938 
L 206.34848 178.613462 
L 206.938768 163.064722 
L 206.968285 163.972431 
L 207.027308 162.550048 
L 207.58808 150.334265 
L 207.617596 151.356823 
L 207.676629 150.160989 
L 208.178368 141.103684 
L 208.562061 135.420202 
L 208.591577 136.577393 
L 208.6506 135.647091 
L 208.886721 131.361115 
L 208.916228 132.554819 
L 209.152349 128.662433 
L 209.211372 127.687099 
L 209.240888 128.913983 
L 209.447493 125.739795 
L 209.536032 124.361827 
L 209.565549 125.618712 
L 209.742637 123.086701 
L 209.860693 121.352057 
L 209.890209 122.636103 
L 209.949232 121.956239 
L 210.185353 118.627881 
L 210.214869 119.936495 
L 210.273893 119.305121 
L 210.510013 116.162137 
L 210.539521 117.492974 
L 210.628069 116.521714 
L 210.834665 113.930412 
L 210.864181 115.281435 
L 210.952729 114.369498 
L 211.159325 111.910483 
L 211.188841 113.279716 
L 211.277381 112.421545 
L 211.483985 110.082194 
L 211.513501 111.46794 
L 211.602041 110.658104 
L 211.808645 108.427243 
L 211.838162 109.827897 
L 211.926701 109.062198 
L 212.133306 106.929426 
L 212.162813 108.343599 
L 212.251361 107.617778 
L 212.457957 105.573805 
L 212.487473 107.0002 
L 212.576022 106.310367 
L 212.782617 104.346705 
L 212.812133 105.78418 
L 212.900673 105.126972 
L 213.107277 103.236151 
L 213.136794 104.683658 
L 213.225333 104.055925 
L 213.431938 102.230816 
L 213.461454 103.687397 
L 213.549994 103.086456 
L 213.756598 101.320977 
L 213.786105 102.785769 
L 213.874654 102.209025 
L 214.081249 100.497499 
L 214.110765 101.969729 
L 214.199314 101.414869 
L 214.405909 99.752233 
L 214.435426 101.231191 
L 214.523965 100.696146 
L 214.73057 99.077524 
L 214.760086 100.562562 
L 214.848626 100.04545 
L 215.05523 98.466952 
L 215.084746 99.957454 
L 215.173286 99.456577 
L 215.37989 97.914314 
L 215.409398 99.409816 
L 215.497946 98.9236 
L 215.704542 97.414054 
L 215.734058 98.914063 
L 215.822606 98.441149 
L 216.029202 96.961234 
L 216.058718 98.465254 
L 216.147258 98.004409 
L 216.353862 96.551408 
L 216.383378 98.059133 
L 216.471918 97.609121 
L 216.678522 96.180411 
L 216.708039 97.691531 
L 216.796578 97.251426 
L 217.003183 95.844692 
L 217.03269 97.358898 
L 217.121238 96.927683 
L 217.327834 95.540826 
L 217.35735 97.05781 
L 217.445899 96.634651 
L 217.652494 95.265819 
L 217.68201 96.785272 
L 217.77055 96.36949 
L 217.977154 95.017016 
L 218.006671 96.53863 
L 218.09521 96.129453 
L 218.301815 94.791671 
L 218.331331 96.315445 
L 218.419871 95.912225 
L 218.626475 94.587746 
L 218.655982 96.113372 
L 218.744531 95.715615 
L 218.951126 94.403266 
L 218.980642 95.930435 
L 219.069191 95.537585 
L 219.275786 94.236193 
L 219.305303 95.764906 
L 219.393842 95.376501 
L 219.600447 94.085016 
L 219.629963 95.615026 
L 219.718503 95.230602 
L 219.925107 93.94813 
L 221.282772 158.822944 
L 222.168204 188.768588 
L 223.053636 211.585127 
L 223.939068 228.969578 
L 224.8245 242.215218 
L 225.709932 252.307534 
L 226.595365 259.99718 
L 227.480797 265.856129 
L 228.366229 270.320197 
L 229.281168 273.81964 
L 230.196126 276.461901 
L 231.111065 278.457014 
L 232.05553 280.005342 
L 233.059009 281.225744 
L 234.121538 282.167065 
L 235.302114 282.909044 
L 236.187547 283.313268 
L 237.132011 233.981546 
L 237.161518 234.438301 
L 237.191026 233.182991 
L 237.781314 208.58727 
L 237.810839 209.084259 
L 237.840346 208.057704 
L 238.430634 187.627448 
L 238.460159 188.31353 
L 238.489667 187.285417 
L 239.079955 170.471567 
L 239.109462 171.312438 
L 239.138987 170.626679 
L 239.729275 156.40214 
L 239.758783 157.369943 
L 239.817815 156.066175 
L 240.378596 144.701772 
L 240.408103 145.964058 
L 240.467135 144.865141 
L 240.909852 137.701929 
L 241.264028 132.956897 
L 241.529647 130.181856 
L 241.677219 127.708982 
L 241.706744 128.93565 
L 241.913331 125.760073 
L 242.001888 124.38155 
L 242.031395 125.638249 
L 242.208475 123.105127 
L 242.326539 121.369866 
L 242.356047 122.653727 
L 242.415079 121.973555 
L 242.651191 118.643961 
L 242.680716 119.952421 
L 242.739748 119.3208 
L 242.97586 116.176767 
L 243.005367 117.507512 
L 243.093907 116.535851 
L 243.300511 113.943622 
L 243.330036 115.294522 
L 243.418576 114.382214 
L 243.625181 111.922551 
L 243.654688 113.291692 
L 243.743227 112.43312 
L 243.949832 110.093336 
L 243.979339 111.478959 
L 244.067897 110.669123 
L 244.274483 108.437491 
L 244.304008 109.838052 
L 244.392548 109.072137 
L 244.599152 106.938717 
L 244.62866 108.352828 
L 244.717199 107.626729 
L 244.923804 105.582169 
L 244.953329 107.008503 
L 245.041868 106.318454 
L 245.248473 104.354328 
L 245.27798 105.791742 
L 245.36652 105.134318 
L 245.573124 103.243034 
L 245.602631 104.690448 
L 245.691189 104.062561 
L 245.897775 102.237143 
L 245.927301 103.693694 
L 246.01584 103.092567 
L 246.222445 101.32678 
L 246.251952 102.79151 
L 246.340491 102.21455 
L 246.547096 100.502715 
L 246.576621 101.974883 
L 246.665161 101.4199 
L 246.871765 99.756893 
L 246.901272 101.23579 
L 246.989812 100.700622 
L 247.196416 99.081876 
L 247.225924 100.566853 
L 247.314481 100.049617 
L 247.521068 98.470841 
L 247.550593 99.961312 
L 247.639133 99.460281 
L 247.845737 97.917648 
L 247.875244 99.413119 
L 247.963784 98.926871 
L 248.170388 97.41711 
L 248.199913 98.917087 
L 248.288453 98.444081 
L 248.495058 96.964042 
L 248.524565 98.468063 
L 248.613104 98.007125 
L 248.819709 96.553877 
L 248.849216 98.061602 
L 248.937774 97.611559 
L 249.14436 96.182664 
L 249.173885 97.693784 
L 249.262425 97.253587 
L 249.469029 95.84676 
L 249.498537 97.360966 
L 249.587076 96.92972 
L 249.793681 95.542802 
L 249.823206 97.059755 
L 249.911745 96.636596 
L 250.11835 95.26764 
L 250.147857 96.787093 
L 250.236397 96.37128 
L 250.443001 95.018621 
L 250.472508 96.540235 
L 250.561066 96.130996 
L 250.767652 94.793152 
L 250.797178 96.316896 
L 250.885717 95.913675 
L 251.092322 94.589196 
L 251.121829 96.114792 
L 251.210368 95.717004 
L 251.416973 94.404593 
L 251.446498 95.931762 
L 251.535038 95.538882 
L 251.741642 94.237459 
L 251.771149 95.766172 
L 251.859689 95.377705 
L 252.066293 94.086158 
L 252.095801 95.616168 
L 252.184358 95.231713 
L 252.390945 93.949118 
L 253.748618 158.823747 
L 254.63405 188.769237 
L 255.519483 211.585528 
L 256.404915 228.969902 
L 257.290347 242.21548 
L 258.175779 252.307704 
L 259.061211 259.997288 
L 259.946643 265.856206 
L 260.832076 270.320258 
L 261.747015 273.819686 
L 262.661972 276.461916 
L 263.576912 278.45703 
L 264.521376 280.005357 
L 265.524855 281.225744 
L 266.587385 282.167065 
L 267.767961 282.909044 
L 268.653393 283.313268 
L 269.597858 234.155701 
L 269.627365 234.421974 
L 270.57183 197.57314 
L 270.601337 198.169483 
L 270.630862 197.241387 
L 271.22115 178.604449 
L 271.250657 179.371938 
L 271.280165 178.613462 
L 271.870453 163.064722 
L 271.899978 163.972431 
L 271.95901 162.550048 
L 272.519773 150.334265 
L 272.549298 151.356823 
L 272.608313 150.160989 
L 273.110061 141.103684 
L 273.493745 135.420202 
L 273.52327 136.577393 
L 273.582303 135.647091 
L 273.818414 131.361115 
L 273.847922 132.554819 
L 274.084033 128.662433 
L 274.143066 127.687099 
L 274.172591 128.913983 
L 274.379177 125.739795 
L 274.467735 124.361827 
L 274.497242 125.618712 
L 274.674321 123.086701 
L 274.792386 121.352057 
L 274.821893 122.636103 
L 274.880926 121.956239 
L 275.117037 118.627881 
L 275.146563 119.936495 
L 275.205595 119.305121 
L 275.441707 116.162137 
L 275.471214 117.492974 
L 275.559753 116.521714 
L 275.766358 113.930412 
L 275.795883 115.281435 
L 275.884423 114.369498 
L 276.091027 111.910483 
L 276.120534 113.279716 
L 276.209074 112.421545 
L 276.415678 110.082194 
L 276.445186 111.46794 
L 276.533743 110.658104 
L 276.74033 108.427243 
L 276.769855 109.827897 
L 276.858395 109.062198 
L 277.064999 106.929426 
L 277.094506 108.343599 
L 277.183046 107.617778 
L 277.38965 105.573805 
L 277.419175 107.0002 
L 277.507715 106.310367 
L 277.71432 104.346705 
L 277.743827 105.78418 
L 277.832366 105.126972 
L 278.038971 103.236151 
L 278.068478 104.683658 
L 278.157036 104.055925 
L 278.363622 102.230816 
L 278.393147 103.687397 
L 278.481687 103.086456 
L 278.688291 101.320977 
L 278.717799 102.785769 
L 278.806338 102.209025 
L 279.012943 100.497499 
L 279.042468 101.969729 
L 279.131007 101.414869 
L 279.337612 99.752233 
L 279.367119 101.231191 
L 279.455659 100.696146 
L 279.662263 99.077524 
L 279.69177 100.562562 
L 279.780328 100.04545 
L 279.986914 98.466952 
L 280.01644 99.957454 
L 280.104979 99.456577 
L 280.311584 97.914314 
L 280.341091 99.409816 
L 280.42963 98.9236 
L 280.636235 97.414054 
L 280.66576 98.914063 
L 280.7543 98.441149 
L 280.960904 96.961234 
L 280.990411 98.465254 
L 281.078951 98.004409 
L 281.285555 96.551408 
L 281.315063 98.059133 
L 281.40362 97.609121 
L 281.610207 96.180411 
L 281.639732 97.691531 
L 281.728272 97.251426 
L 281.934876 95.844692 
L 281.964383 97.358898 
L 282.052923 96.927683 
L 282.259527 95.540826 
L 282.289052 97.05781 
L 282.377592 96.634651 
L 282.584197 95.265819 
L 282.613704 96.785272 
L 282.702243 96.36949 
L 282.908848 95.017016 
L 282.938355 96.53863 
L 283.026913 96.129453 
L 283.233499 94.791671 
L 283.263024 96.315445 
L 283.351564 95.912225 
L 283.558168 94.587746 
L 283.587676 96.113372 
L 283.676215 95.715615 
L 283.88282 94.403266 
L 283.912345 95.930435 
L 284.000884 95.537585 
L 284.207489 94.236193 
L 284.236996 95.764906 
L 284.325536 95.376501 
L 284.53214 94.085016 
L 284.561647 95.615026 
L 284.650205 95.230602 
L 284.856791 93.94813 
L 286.214465 158.822944 
L 287.099897 188.768588 
L 287.985329 211.585127 
L 288.870761 228.969578 
L 289.756194 242.215218 
L 290.641626 252.307534 
L 291.527058 259.99718 
L 292.41249 265.856129 
L 293.297922 270.320197 
L 294.212862 273.81964 
L 295.127819 276.461901 
L 296.042758 278.457014 
L 296.987223 280.005342 
L 297.990702 281.225744 
L 299.053231 282.167065 
L 300.233808 282.909044 
L 301.11924 283.313268 
L 302.063705 234.155701 
L 302.093212 234.421974 
L 303.037676 197.57314 
L 303.067184 198.169483 
L 303.096709 197.241387 
L 303.686997 178.604449 
L 303.716504 179.371938 
L 303.746011 178.613462 
L 304.336299 163.064722 
L 304.365825 163.972431 
L 304.424857 162.550048 
L 304.98562 150.334265 
L 305.015145 151.356823 
L 305.07416 150.160989 
L 305.575908 141.103684 
L 305.959592 135.420202 
L 305.989117 136.577393 
L 306.048149 135.647091 
L 306.284261 131.361115 
L 306.313768 132.554819 
L 306.54988 128.662433 
L 306.608912 127.687099 
L 306.638437 128.913983 
L 306.845024 125.739795 
L 306.933582 124.361827 
L 306.963089 125.618712 
L 307.140168 123.086701 
L 307.258233 121.352057 
L 307.28774 122.636103 
L 307.346772 121.956239 
L 307.582884 118.627881 
L 307.612409 119.936495 
L 307.671442 119.305121 
L 307.907553 116.162137 
L 307.937061 117.492974 
L 308.0256 116.521714 
L 308.232205 113.930412 
L 308.26173 115.281435 
L 308.350269 114.369498 
L 308.556874 111.910483 
L 308.586381 113.279716 
L 308.674921 112.421545 
L 308.881525 110.082194 
L 308.911032 111.46794 
L 308.99959 110.658104 
L 309.206176 108.427243 
L 309.235702 109.827897 
L 309.324241 109.062198 
L 309.530846 106.929426 
L 309.560353 108.343599 
L 309.648892 107.617778 
L 309.855497 105.573805 
L 309.885022 107.0002 
L 309.973562 106.310367 
L 310.180166 104.346705 
L 310.209673 105.78418 
L 310.298213 105.126972 
L 310.504817 103.236151 
L 310.534325 104.683658 
L 310.622882 104.055925 
L 310.829469 102.230816 
L 310.858994 103.687397 
L 310.947534 103.086456 
L 311.154138 101.320977 
L 311.183645 102.785769 
L 311.272185 102.209025 
L 311.478789 100.497499 
L 311.508314 101.969729 
L 311.596854 101.414869 
L 311.803459 99.752233 
L 311.832966 101.231191 
L 311.921505 100.696146 
L 312.12811 99.077524 
L 312.157617 100.562562 
L 312.246175 100.04545 
L 312.452761 98.466952 
L 312.482286 99.957454 
L 312.570826 99.456577 
L 312.77743 97.914314 
L 312.806938 99.409816 
L 312.895477 98.9236 
L 313.102082 97.414054 
L 313.131607 98.914063 
L 313.220146 98.441149 
L 313.426751 96.961234 
L 313.456258 98.465254 
L 313.544798 98.004409 
L 313.751402 96.551408 
L 313.780909 98.059133 
L 313.869467 97.609121 
L 314.076053 96.180411 
L 314.105579 97.691531 
L 314.194118 97.251426 
L 314.400723 95.844692 
L 314.43023 97.358898 
L 314.518769 96.927683 
L 314.725374 95.540826 
L 314.754899 97.05781 
L 314.843439 96.634651 
L 315.050043 95.265819 
L 315.07955 96.785272 
L 315.16809 96.36949 
L 315.374694 95.017016 
L 315.404202 96.53863 
L 315.492759 96.129453 
L 315.699346 94.791671 
L 315.728871 96.315445 
L 315.817411 95.912225 
L 316.024015 94.587746 
L 316.053522 96.113372 
L 316.142062 95.715615 
L 316.348666 94.403266 
L 316.378173 95.930435 
L 316.466731 95.537585 
L 316.673318 94.236193 
L 316.702843 95.764906 
L 316.791382 95.376501 
L 316.997987 94.085016 
L 317.027494 95.615026 
L 317.116034 95.230602 
L 317.322638 93.94813 
L 318.680312 158.822944 
L 319.565744 188.768588 
L 320.451176 211.585127 
L 321.336608 228.969578 
L 322.22204 242.215218 
L 323.107472 252.307534 
L 323.992905 259.99718 
L 324.878337 265.856129 
L 325.763769 270.320197 
L 326.678708 273.81964 
L 327.593648 276.461901 
L 328.508605 278.457014 
L 329.45307 280.005342 
L 330.456549 281.225744 
L 331.519078 282.167065 
L 332.699654 282.909044 
L 333.585087 283.313268 
L 334.529533 234.155701 
L 334.559058 234.421974 
L 335.503523 197.57314 
L 335.53303 198.169483 
L 335.562537 197.241387 
L 336.152826 178.604449 
L 336.182351 179.371938 
L 336.211858 178.613462 
L 336.802146 163.064722 
L 336.831671 163.972431 
L 336.890686 162.550048 
L 337.451467 150.334265 
L 337.480974 151.356823 
L 337.540006 150.160989 
L 338.041755 141.103684 
L 338.425438 135.420202 
L 338.454964 136.577393 
L 338.513978 135.647091 
L 338.750108 131.361115 
L 338.779615 132.554819 
L 339.015726 128.662433 
L 339.074759 127.687099 
L 339.104266 128.913983 
L 339.310871 125.739795 
L 339.39941 124.361827 
L 339.428935 125.618712 
L 339.606015 123.086701 
L 339.724079 121.352057 
L 339.753587 122.636103 
L 339.812619 121.956239 
L 340.048731 118.627881 
L 340.078256 119.936495 
L 340.13727 119.305121 
L 340.3734 116.162137 
L 340.402907 117.492974 
L 340.491447 116.521714 
L 340.698051 113.930412 
L 340.727558 115.281435 
L 340.816116 114.369498 
L 341.022703 111.910483 
L 341.052228 113.279716 
L 341.140767 112.421545 
L 341.347372 110.082194 
L 341.376879 111.46794 
L 341.465419 110.658104 
L 341.672023 108.427243 
L 341.701548 109.827897 
L 341.790088 109.062198 
L 341.996692 106.929426 
L 342.0262 108.343599 
L 342.114739 107.617778 
L 342.321344 105.573805 
L 342.350851 107.0002 
L 342.439408 106.310367 
L 342.645995 104.346705 
L 342.67552 105.78418 
L 342.76406 105.126972 
L 342.970664 103.236151 
L 343.000171 104.683658 
L 343.088711 104.055925 
L 343.295315 102.230816 
L 343.324841 103.687397 
L 343.41338 103.086456 
L 343.619985 101.320977 
L 343.649492 102.785769 
L 343.738031 102.209025 
L 343.944636 100.497499 
L 343.974143 101.969729 
L 344.062701 101.414869 
L 344.269287 99.752233 
L 344.298812 101.231191 
L 344.387352 100.696146 
L 344.593956 99.077524 
L 344.623464 100.562562 
L 344.712003 100.04545 
L 344.918608 98.466952 
L 344.948133 99.957454 
L 345.036673 99.456577 
L 345.243277 97.914314 
L 345.272784 99.409816 
L 345.361324 98.9236 
L 345.567928 97.414054 
L 345.597435 98.914063 
L 345.685993 98.441149 
L 345.89258 96.961234 
L 345.922105 98.465254 
L 346.010644 98.004409 
L 346.217249 96.551408 
L 346.246756 98.059133 
L 346.335296 97.609121 
L 346.5419 96.180411 
L 346.571425 97.691531 
L 346.659965 97.251426 
L 346.866569 95.844692 
L 346.896077 97.358898 
L 346.984616 96.927683 
L 347.191221 95.540826 
L 347.220728 97.05781 
L 347.309285 96.634651 
L 347.515872 95.265819 
L 347.545397 96.785272 
L 347.633937 96.36949 
L 347.840541 95.017016 
L 347.870048 96.53863 
L 347.958588 96.129453 
L 348.165192 94.791671 
L 348.194718 96.315445 
L 348.283257 95.912225 
L 348.489862 94.587746 
L 348.519369 96.113372 
L 348.607908 95.715615 
L 348.814513 94.403266 
L 348.84402 95.930435 
L 348.932578 95.537585 
L 349.139164 94.236193 
L 349.168689 95.764906 
L 349.257229 95.376501 
L 349.463833 94.085016 
L 349.493341 95.615026 
L 349.58188 95.230602 
L 349.788485 93.94813 
L 351.146158 158.822944 
L 352.03159 188.768588 
L 352.917023 211.585127 
L 353.802455 228.969578 
L 354.687887 242.215218 
L 355.573319 252.307534 
L 356.458751 259.99718 
L 357.344183 265.856129 
L 358.229616 270.320197 
L 359.144555 273.81964 
L 360.059494 276.461901 
L 360.974452 278.457014 
L 361.918916 280.005342 
L 362.922395 281.225744 
L 363.984925 282.167065 
L 365.165501 282.909044 
L 366.050933 283.313268 
L 366.99538 234.155701 
L 367.024905 234.421974 
L 367.96937 197.57314 
L 367.998877 198.169483 
L 368.028384 197.241387 
L 368.618672 178.604449 
L 368.648197 179.371938 
L 368.677705 178.613462 
L 369.267993 163.064722 
L 369.297518 163.972431 
L 369.356532 162.550048 
L 369.917313 150.334265 
L 369.94682 151.356823 
L 370.005853 150.160989 
L 370.507601 141.103684 
L 370.891285 135.420202 
L 370.92081 136.577393 
L 370.979825 135.647091 
L 371.215954 131.361115 
L 371.245462 132.554819 
L 371.481573 128.662433 
L 371.540606 127.687099 
L 371.570113 128.913983 
L 371.776717 125.739795 
L 371.865257 124.361827 
L 371.894782 125.618712 
L 372.071861 123.086701 
L 372.189926 121.352057 
L 372.219433 122.636103 
L 372.278466 121.956239 
L 372.514577 118.627881 
L 372.544103 119.936495 
L 372.603117 119.305121 
L 372.839247 116.162137 
L 372.868754 117.492974 
L 372.957293 116.521714 
L 373.163898 113.930412 
L 373.193405 115.281435 
L 373.281963 114.369498 
L 373.488549 111.910483 
L 373.518074 113.279716 
L 373.606614 112.421545 
L 373.813218 110.082194 
L 373.842726 111.46794 
L 373.931265 110.658104 
L 374.13787 108.427243 
L 374.167395 109.827897 
L 374.255935 109.062198 
L 374.462539 106.929426 
L 374.492046 108.343599 
L 374.580586 107.617778 
L 374.78719 105.573805 
L 374.816697 107.0002 
L 374.905255 106.310367 
L 375.111842 104.346705 
L 375.141367 105.78418 
L 375.229906 105.126972 
L 375.436511 103.236151 
L 375.466018 104.683658 
L 375.554558 104.055925 
L 375.761162 102.230816 
L 375.790687 103.687397 
L 375.879227 103.086456 
L 376.085831 101.320977 
L 376.115339 102.785769 
L 376.203896 102.209025 
L 376.410483 100.497499 
L 376.43999 101.969729 
L 376.528547 101.414869 
L 376.735134 99.752233 
L 376.764641 101.231191 
L 376.853199 100.696146 
L 377.059785 99.077524 
L 377.089328 100.562562 
L 377.17785 99.859921 
L 377.384472 98.292843 
L 377.41398 99.973905 
L 377.502501 99.472534 
L 377.709124 97.929222 
L 377.738631 99.42457 
L 377.827188 98.938014 
L 378.033775 97.427604 
L 378.063282 98.927581 
L 378.15184 98.454297 
L 378.358426 96.97358 
L 378.387933 98.47757 
L 378.476491 98.016354 
L 378.683077 96.562581 
L 378.712621 98.070306 
L 378.801142 97.434487 
L 379.007765 96.016518 
L 379.037272 97.717951 
L 379.125794 97.277137 
L 379.332416 95.868798 
L 379.361923 97.382695 
L 379.450481 96.950863 
L 379.657067 95.562648 
L 379.686574 97.079323 
L 379.775132 96.655578 
L 379.981719 95.285449 
L 380.011226 96.804594 
L 380.099783 96.388225 
L 380.30637 95.034547 
L 380.335913 96.55613 
L 380.424435 95.960961 
L 380.631057 94.633549 
L 380.660564 96.347637 
L 380.749086 95.943584 
L 380.955708 94.617222 
L 380.985216 96.142539 
L 381.073773 95.74398 
L 381.28036 94.429933 
L 381.309867 95.956825 
L 381.398424 95.563234 
L 381.605011 94.260268 
L 381.634518 95.788672 
L 381.723076 95.399588 
L 381.929662 94.106684 
L 381.959205 95.636631 
L 382.047727 95.066092 
L 382.254349 93.793682 
L 383.139782 139.220919 
L 384.025214 173.83326 
L 384.910646 200.205415 
L 385.796078 220.299074 
L 386.68151 235.608934 
L 387.566942 247.274116 
L 388.452375 256.16211 
L 389.337807 262.934 
L 390.223239 268.093997 
L 391.108671 272.025288 
L 392.023611 275.107112 
L 392.93855 277.434102 
L 393.882997 279.240013 
L 394.856986 280.627442 
L 395.860483 281.682793 
L 396.952502 282.515932 
L 398.192129 283.177956 
L 398.487273 283.301802 
L 398.487273 283.301802 
" clip-path="url(#pfe5a616853)" style="fill: none; stroke-dasharray: 5.55,2.4; stroke-dashoffset: 0; stroke: #ff0000; stroke-width: 1.5"/>
   </g>
   <g id="patch_3">
    <path d="M 57.6 307.584 
L 57.6 41.472 
" style="fill: none; stroke: #000000; stroke-width: 0.8; stroke-linejoin: miter; stroke-linecap: square"/>
   </g>
   <g id="patch_4">
    <path d="M 414.72 307.584 
L 414.72 41.472 
" style="fill: none; stroke: #000000; stroke-width: 0.8; stroke-linejoin: miter; stroke-linecap: square"/>
   </g>
   <g id="patch_5">
    <path d="M 57.6 307.584 
L 414.72 307.584 
" style="fill: none; stroke: #000000; stroke-width: 0.8; stroke-linejoin: miter; stroke-linecap: square"/>
   </g>
   <g id="patch_6">
    <path d="M 57.6 41.472 
L 414.72 41.472 
" style="fill: none; stroke: #000000; stroke-width: 0.8; stroke-linejoin: miter; stroke-linecap: square"/>
   </g>
   <g id="text_17">
    <!-- Optimized vs Observed -->
    <g transform="translate(166.088437 35.472) scale(0.12 -0.12)">
     <defs>
      <path id="DejaVuSans-4f" d="M 2522 4238 
Q 1834 4238 1429 3725 
Q 1025 3213 1025 2328 
Q 1025 1447 1429 934 
Q 1834 422 2522 422 
Q 3209 422 3611 934 
Q 4013 1447 4013 2328 
Q 4013 3213 3611 3725 
Q 3209 4238 2522 4238 
z
M 2522 4750 
Q 3503 4750 4090 4092 
Q 4678 3434 4678 2328 
Q 4678 1225 4090 567 
Q 3503 -91 2522 -91 
Q 1538 -91 948 565 
Q 359 1222 359 2328 
Q 359 3434 948 4092 
Q 1538 4750 2522 4750 
z
" transform="scale(0.015625)"/>
      <path id="DejaVuSans-70" d="M 1159 525 
L 1159 -1331 
L 581 -1331 
L 581 3500 
L 1159 3500 
L 1159 2969 
Q 1341 3281 1617 3432 
Q 1894 3584 2278 3584 
Q 2916 3584 3314 3078 
Q 3713 2572 3713 1747 
Q 3713 922 3314 415 
Q 2916 -91 2278 -91 
Q 1894 -91 1617 61 
Q 1341 213 1159 525 
z
M 3116 1747 
Q 3116 2381 2855 2742 
Q 2594 3103 2138 3103 
Q 1681 3103 1420 2742 
Q 1159 2381 1159 1747 
Q 1159 1113 1420 752 
Q 1681 391 2138 391 
Q 2594 391 2855 752 
Q 3116 1113 3116 1747 
z
" transform="scale(0.015625)"/>
      <path id="DejaVuSans-74" d="M 1172 4494 
L 1172 3500 
L 2356 3500 
L 2356 3053 
L 1172 3053 
L 1172 1153 
Q 1172 725 1289 603 
Q 1406 481 1766 481 
L 2356 481 
L 2356 0 
L 1766 0 
Q 1100 0 847 248 
Q 594 497 594 1153 
L 594 3053 
L 172 3053 
L 172 3500 
L 594 3500 
L 594 4494 
L 1172 4494 
z
" transform="scale(0.015625)"/>
      <path id="DejaVuSans-69" d="M 603 3500 
L 1178 3500 
L 1178 0 
L 603 0 
L 603 3500 
z
M 603 4863 
L 1178 4863 
L 1178 4134 
L 603 4134 
L 603 4863 
z
" transform="scale(0.015625)"/>
      <path id="DejaVuSans-6d" d="M 3328 2828 
Q 3544 3216 3844 3400 
Q 4144 3584 4550 3584 
Q 5097 3584 5394 3201 
Q 5691 2819 5691 2113 
L 5691 0 
L 5113 0 
L 5113 2094 
Q 5113 2597 4934 2840 
Q 4756 3084 4391 3084 
Q 3944 3084 3684 2787 
Q 3425 2491 3425 1978 
L 3425 0 
L 2847 0 
L 2847 2094 
Q 2847 2600 2669 2842 
Q 2491 3084 2119 3084 
Q 1678 3084 1418 2786 
Q 1159 2488 1159 1978 
L 1159 0 
L 581 0 
L 581 3500 
L 1159 3500 
L 1159 2956 
Q 1356 3278 1631 3431 
Q 1906 3584 2284 3584 
Q 2666 3584 2933 3390 
Q 3200 3197 3328 2828 
z
" transform="scale(0.015625)"/>
      <path id="DejaVuSans-7a" d="M 353 3500 
L 3084 3500 
L 3084 2975 
L 922 459 
L 3084 459 
L 3084 0 
L 275 0 
L 275 525 
L 2438 3041 
L 353 3041 
L 353 3500 
z
" transform="scale(0.015625)"/>
      <path id="DejaVuSans-65" d="M 3597 1894 
L 3597 1613 
L 953 1613 
Q 991 1019 1311 708 
Q 1631 397 2203 397 
Q 2534 397 2845 478 
Q 3156 559 3463 722 
L 3463 178 
Q 3153 47 2828 -22 
Q 2503 -91 2169 -91 
Q 1331 -91 842 396 
Q 353 884 353 1716 
Q 353 2575 817 3079 
Q 1281 3584 2069 3584 
Q 2775 3584 3186 3129 
Q 3597 2675 3597 1894 
z
M 3022 2063 
Q 3016 2534 2758 2815 
Q 2500 3097 2075 3097 
Q 1594 3097 1305 2825 
Q 1016 2553 972 2059 
L 3022 2063 
z
" transform="scale(0.015625)"/>
      <path id="DejaVuSans-64" d="M 2906 2969 
L 2906 4863 
L 3481 4863 
L 3481 0 
L 2906 0 
L 2906 525 
Q 2725 213 2448 61 
Q 2172 -91 1784 -91 
Q 1150 -91 751 415 
Q 353 922 353 1747 
Q 353 2572 751 3078 
Q 1150 3584 1784 3584 
Q 2172 3584 2448 3432 
Q 2725 3281 2906 2969 
z
M 947 1747 
Q 947 1113 1208 752 
Q 1469 391 1925 391 
Q 2381 391 2643 752 
Q 2906 1113 2906 1747 
Q 2906 2381 2643 2742 
Q 2381 3103 1925 3103 
Q 1469 3103 1208 2742 
Q 947 2381 947 1747 
z
" transform="scale(0.015625)"/>
      <path id="DejaVuSans-20" transform="scale(0.015625)"/>
      <path id="DejaVuSans-76" d="M 191 3500 
L 800 3500 
L 1894 563 
L 2988 3500 
L 3597 3500 
L 2284 0 
L 1503 0 
L 191 3500 
z
" transform="scale(0.015625)"/>
      <path id="DejaVuSans-73" d="M 2834 3397 
L 2834 2853 
Q 2591 2978 2328 3040 
Q 2066 3103 1784 3103 
Q 1356 3103 1142 2972 
Q 928 2841 928 2578 
Q 928 2378 1081 2264 
Q 1234 2150 1697 2047 
L 1894 2003 
Q 2506 1872 2764 1633 
Q 3022 1394 3022 966 
Q 3022 478 2636 193 
Q 2250 -91 1575 -91 
Q 1294 -91 989 -36 
Q 684 19 347 128 
L 347 722 
Q 666 556 975 473 
Q 1284 391 1588 391 
Q 1994 391 2212 530 
Q 2431 669 2431 922 
Q 2431 1156 2273 1281 
Q 2116 1406 1581 1522 
L 1381 1569 
Q 847 1681 609 1914 
Q 372 2147 372 2553 
Q 372 3047 722 3315 
Q 1072 3584 1716 3584 
Q 2034 3584 2315 3537 
Q 2597 3491 2834 3397 
z
" transform="scale(0.015625)"/>
      <path id="DejaVuSans-62" d="M 3116 1747 
Q 3116 2381 2855 2742 
Q 2594 3103 2138 3103 
Q 1681 3103 1420 2742 
Q 1159 2381 1159 1747 
Q 1159 1113 1420 752 
Q 1681 391 2138 391 
Q 2594 391 2855 752 
Q 3116 1113 3116 1747 
z
M 1159 2969 
Q 1341 3281 1617 3432 
Q 1894 3584 2278 3584 
Q 2916 3584 3314 3078 
Q 3713 2572 3713 1747 
Q 3713 922 3314 415 
Q 2916 -91 2278 -91 
Q 1894 -91 1617 61 
Q 1341 213 1159 525 
L 1159 0 
L 581 0 
L 581 4863 
L 1159 4863 
L 1159 2969 
z
" transform="scale(0.015625)"/>
      <path id="DejaVuSans-72" d="M 2631 2963 
Q 2534 3019 2420 3045 
Q 2306 3072 2169 3072 
Q 1681 3072 1420 2755 
Q 1159 2438 1159 1844 
L 1159 0 
L 581 0 
L 581 3500 
L 1159 3500 
L 1159 2956 
Q 1341 3275 1631 3429 
Q 1922 3584 2338 3584 
Q 2397 3584 2469 3576 
Q 2541 3569 2628 3553 
L 2631 2963 
z
" transform="scale(0.015625)"/>
     </defs>
     <use xlink:href="#DejaVuSans-4f"/>
     <use xlink:href="#DejaVuSans-70" x="78.710938"/>
     <use xlink:href="#DejaVuSans-74" x="142.1875"/>
     <use xlink:href="#DejaVuSans-69" x="181.396484"/>
     <use xlink:href="#DejaVuSans-6d" x="209.179688"/>
     <use xlink:href="#DejaVuSans-69" x="306.591797"/>
     <use xlink:href="#DejaVuSans-7a" x="334.375"/>
     <use xlink:href="#DejaVuSans-65" x="386.865234"/>
     <use xlink:href="#DejaVuSans-64" x="448.388672"/>
     <use xlink:href="#DejaVuSans-20" x="511.865234"/>
     <use xlink:href="#DejaVuSans-76" x="543.652344"/>
     <use xlink:href="#DejaVuSans-73" x="602.832031"/>
     <use xlink:href="#DejaVuSans-20" x="654.931641"/>
     <use xlink:href="#DejaVuSans-4f" x="686.71875"/>
     <use xlink:href="#DejaVuSans-62" x="765.429688"/>
     <use xlink:href="#DejaVuSans-73" x="828.90625"/>
     <use xlink:href="#DejaVuSans-65" x="881.005859"/>
     <use xlink:href="#DejaVuSans-72" x="942.529297"/>
     <use xlink:href="#DejaVuSans-76" x="983.642578"/>
     <use xlink:href="#DejaVuSans-65" x="1042.822266"/>
     <use xlink:href="#DejaVuSans-64" x="1104.345703"/>
    </g>
   </g>
   <g id="legend_1">
    <g id="patch_7">
     <path d="M 324.5325 78.82825 
L 407.72 78.82825 
Q 409.72 78.82825 409.72 76.82825 
L 409.72 48.472 
Q 409.72 46.472 407.72 46.472 
L 324.5325 46.472 
Q 322.5325 46.472 322.5325 48.472 
L 322.5325 76.82825 
Q 322.5325 78.82825 324.5325 78.82825 
z
" style="fill: #ffffff; opacity: 0.8; stroke: #cccccc; stroke-linejoin: miter"/>
    </g>
    <g id="line2d_17">
     <path d="M 326.5325 54.570437 
L 336.5325 54.570437 
L 346.5325 54.570437 
" style="fill: none; stroke: #000000; stroke-width: 2; stroke-linecap: square"/>
    </g>
    <g id="text_18">
     <!-- Observed -->
     <g transform="translate(354.5325 58.070437) scale(0.1 -0.1)">
      <use xlink:href="#DejaVuSans-4f"/>
      <use xlink:href="#DejaVuSans-62" x="78.710938"/>
      <use xlink:href="#DejaVuSans-73" x="142.1875"/>
      <use xlink:href="#DejaVuSans-65" x="194.287109"/>
      <use xlink:href="#DejaVuSans-72" x="255.810547"/>
      <use xlink:href="#DejaVuSans-76" x="296.923828"/>
      <use xlink:href="#DejaVuSans-65" x="356.103516"/>
      <use xlink:href="#DejaVuSans-64" x="417.626953"/>
     </g>
    </g>
    <g id="line2d_18">
     <path d="M 326.5325 69.248562 
L 336.5325 69.248562 
L 346.5325 69.248562 
" style="fill: none; stroke-dasharray: 5.55,2.4; stroke-dashoffset: 0; stroke: #ff0000; stroke-width: 1.5"/>
    </g>
    <g id="text_19">
     <!-- Optimized -->
     <g transform="translate(354.5325 72.748562) scale(0.1 -0.1)">
      <use xlink:href="#DejaVuSans-4f"/>
      <use xlink:href="#DejaVuSans-70" x="78.710938"/>
      <use xlink:href="#DejaVuSans-74" x="142.1875"/>
      <use xlink:href="#DejaVuSans-69" x="181.396484"/>
      <use xlink:href="#DejaVuSans-6d" x="209.179688"/>
      <use xlink:href="#DejaVuSans-69" x="306.591797"/>
      <use xlink:href="#DejaVuSans-7a" x="334.375"/>
      <use xlink:href="#DejaVuSans-65" x="386.865234"/>
      <use xlink:href="#DejaVuSans-64" x="448.388672"/>
     </g>
    </g>
   </g>
  </g>
 </g>
 <defs>
  <clipPath id="pfe5a616853">
   <rect x="57.6" y="41.472" width="357.12" height="266.112"/>
  </clipPath>
 </defs>
</svg>
