<?xml version="1.0" encoding="utf-8" standalone="no"?>
<!DOCTYPE svg PUBLIC "-//W3C//DTD SVG 1.1//EN"
  "http://www.w3.org/Graphics/SVG/1.1/DTD/svg11.dtd">
<svg xmlns:xlink="http://www.w3.org/1999/xlink" width="460.8pt" height="345.6pt" viewBox="0 0 460.8 345.6" xmlns="http://www.w3.org/2000/svg" version="1.1">
 <metadata>
  <rdf:RDF xmlns:dc="http://purl.org/dc/elements/1.1/" xmlns:cc="http://creativecommons.org/ns#" xmlns:rdf="http://www.w3.org/1999/02/22-rdf-syntax-ns#">
   <cc:Work>
    <dc:type rdf:resource="http://purl.org/dc/dcmitype/StillImage"/>
    <dc:date>2025-01-03T16:22:10.496255</dc:date>
    <dc:format>image/svg+xml</dc:format>
    <dc:creator>
     <cc:Agent>
      <dc:title>Matplotlib v3.6.2, https://matplotlib.org/</dc:title>
     </cc:Agent>
    </dc:creator>
   </cc:Work>
  </rdf:RDF>
 </metadata>
 <defs>
  <style type="text/css">*{stroke-linejoin: round; stroke-linecap: butt}</style>
 </defs>
 <g id="figure_1">
  <g id="patch_1">
   <path d="M 0 345.6 
L 460.8 345.6 
L 460.8 0 
L 0 0 
z
" style="fill: #ffffff"/>
  </g>
  <g id="axes_1">
   <g id="patch_2">
    <path d="M 57.6 307.584 
L 414.72 307.584 
L 414.72 41.472 
L 57.6 41.472 
z
" style="fill: #ffffff"/>
   </g>
   <g id="matplotlib.axis_1">
    <g id="xtick_1">
     <g id="line2d_1">
      <defs>
       <path id="maefef23027" d="M 0 0 
L 0 3.5 
" style="stroke: #000000; stroke-width: 0.8"/>
      </defs>
      <g>
       <use xlink:href="#maefef23027" x="73.858313" y="307.584" style="stroke: #000000; stroke-width: 0.8"/>
      </g>
     </g>
     <g id="text_1">
      <!-- 0 -->
      <g transform="translate(70.677063 322.182437) scale(0.1 -0.1)">
       <defs>
        <path id="DejaVuSans-30" d="M 2034 4250 
Q 1547 4250 1301 3770 
Q 1056 3291 1056 2328 
Q 1056 1369 1301 889 
Q 1547 409 2034 409 
Q 2525 409 2770 889 
Q 3016 1369 3016 2328 
Q 3016 3291 2770 3770 
Q 2525 4250 2034 4250 
z
M 2034 4750 
Q 2819 4750 3233 4129 
Q 3647 3509 3647 2328 
Q 3647 1150 3233 529 
Q 2819 -91 2034 -91 
Q 1250 -91 836 529 
Q 422 1150 422 2328 
Q 422 3509 836 4129 
Q 1250 4750 2034 4750 
z
" transform="scale(0.015625)"/>
       </defs>
       <use xlink:href="#DejaVuSans-30"/>
      </g>
     </g>
    </g>
    <g id="xtick_2">
     <g id="line2d_2">
      <g>
       <use xlink:href="#maefef23027" x="132.887125" y="307.584" style="stroke: #000000; stroke-width: 0.8"/>
      </g>
     </g>
     <g id="text_2">
      <!-- 200 -->
      <g transform="translate(123.343375 322.182437) scale(0.1 -0.1)">
       <defs>
        <path id="DejaVuSans-32" d="M 1228 531 
L 3431 531 
L 3431 0 
L 469 0 
L 469 531 
Q 828 903 1448 1529 
Q 2069 2156 2228 2338 
Q 2531 2678 2651 2914 
Q 2772 3150 2772 3378 
Q 2772 3750 2511 3984 
Q 2250 4219 1831 4219 
Q 1534 4219 1204 4116 
Q 875 4013 500 3803 
L 500 4441 
Q 881 4594 1212 4672 
Q 1544 4750 1819 4750 
Q 2544 4750 2975 4387 
Q 3406 4025 3406 3419 
Q 3406 3131 3298 2873 
Q 3191 2616 2906 2266 
Q 2828 2175 2409 1742 
Q 1991 1309 1228 531 
z
" transform="scale(0.015625)"/>
       </defs>
       <use xlink:href="#DejaVuSans-32"/>
       <use xlink:href="#DejaVuSans-30" x="63.623047"/>
       <use xlink:href="#DejaVuSans-30" x="127.246094"/>
      </g>
     </g>
    </g>
    <g id="xtick_3">
     <g id="line2d_3">
      <g>
       <use xlink:href="#maefef23027" x="191.915937" y="307.584" style="stroke: #000000; stroke-width: 0.8"/>
      </g>
     </g>
     <g id="text_3">
      <!-- 400 -->
      <g transform="translate(182.372187 322.182437) scale(0.1 -0.1)">
       <defs>
        <path id="DejaVuSans-34" d="M 2419 4116 
L 825 1625 
L 2419 1625 
L 2419 4116 
z
M 2253 4666 
L 3047 4666 
L 3047 1625 
L 3713 1625 
L 3713 1100 
L 3047 1100 
L 3047 0 
L 2419 0 
L 2419 1100 
L 313 1100 
L 313 1709 
L 2253 4666 
z
" transform="scale(0.015625)"/>
       </defs>
       <use xlink:href="#DejaVuSans-34"/>
       <use xlink:href="#DejaVuSans-30" x="63.623047"/>
       <use xlink:href="#DejaVuSans-30" x="127.246094"/>
      </g>
     </g>
    </g>
    <g id="xtick_4">
     <g id="line2d_4">
      <g>
       <use xlink:href="#maefef23027" x="250.94475" y="307.584" style="stroke: #000000; stroke-width: 0.8"/>
      </g>
     </g>
     <g id="text_4">
      <!-- 600 -->
      <g transform="translate(241.401 322.182437) scale(0.1 -0.1)">
       <defs>
        <path id="DejaVuSans-36" d="M 2113 2584 
Q 1688 2584 1439 2293 
Q 1191 2003 1191 1497 
Q 1191 994 1439 701 
Q 1688 409 2113 409 
Q 2538 409 2786 701 
Q 3034 994 3034 1497 
Q 3034 2003 2786 2293 
Q 2538 2584 2113 2584 
z
M 3366 4563 
L 3366 3988 
Q 3128 4100 2886 4159 
Q 2644 4219 2406 4219 
Q 1781 4219 1451 3797 
Q 1122 3375 1075 2522 
Q 1259 2794 1537 2939 
Q 1816 3084 2150 3084 
Q 2853 3084 3261 2657 
Q 3669 2231 3669 1497 
Q 3669 778 3244 343 
Q 2819 -91 2113 -91 
Q 1303 -91 875 529 
Q 447 1150 447 2328 
Q 447 3434 972 4092 
Q 1497 4750 2381 4750 
Q 2619 4750 2861 4703 
Q 3103 4656 3366 4563 
z
" transform="scale(0.015625)"/>
       </defs>
       <use xlink:href="#DejaVuSans-36"/>
       <use xlink:href="#DejaVuSans-30" x="63.623047"/>
       <use xlink:href="#DejaVuSans-30" x="127.246094"/>
      </g>
     </g>
    </g>
    <g id="xtick_5">
     <g id="line2d_5">
      <g>
       <use xlink:href="#maefef23027" x="309.973562" y="307.584" style="stroke: #000000; stroke-width: 0.8"/>
      </g>
     </g>
     <g id="text_5">
      <!-- 800 -->
      <g transform="translate(300.429812 322.182437) scale(0.1 -0.1)">
       <defs>
        <path id="DejaVuSans-38" d="M 2034 2216 
Q 1584 2216 1326 1975 
Q 1069 1734 1069 1313 
Q 1069 891 1326 650 
Q 1584 409 2034 409 
Q 2484 409 2743 651 
Q 3003 894 3003 1313 
Q 3003 1734 2745 1975 
Q 2488 2216 2034 2216 
z
M 1403 2484 
Q 997 2584 770 2862 
Q 544 3141 544 3541 
Q 544 4100 942 4425 
Q 1341 4750 2034 4750 
Q 2731 4750 3128 4425 
Q 3525 4100 3525 3541 
Q 3525 3141 3298 2862 
Q 3072 2584 2669 2484 
Q 3125 2378 3379 2068 
Q 3634 1759 3634 1313 
Q 3634 634 3220 271 
Q 2806 -91 2034 -91 
Q 1263 -91 848 271 
Q 434 634 434 1313 
Q 434 1759 690 2068 
Q 947 2378 1403 2484 
z
M 1172 3481 
Q 1172 3119 1398 2916 
Q 1625 2713 2034 2713 
Q 2441 2713 2670 2916 
Q 2900 3119 2900 3481 
Q 2900 3844 2670 4047 
Q 2441 4250 2034 4250 
Q 1625 4250 1398 4047 
Q 1172 3844 1172 3481 
z
" transform="scale(0.015625)"/>
       </defs>
       <use xlink:href="#DejaVuSans-38"/>
       <use xlink:href="#DejaVuSans-30" x="63.623047"/>
       <use xlink:href="#DejaVuSans-30" x="127.246094"/>
      </g>
     </g>
    </g>
    <g id="xtick_6">
     <g id="line2d_6">
      <g>
       <use xlink:href="#maefef23027" x="369.002374" y="307.584" style="stroke: #000000; stroke-width: 0.8"/>
      </g>
     </g>
     <g id="text_6">
      <!-- 1000 -->
      <g transform="translate(356.277374 322.182437) scale(0.1 -0.1)">
       <defs>
        <path id="DejaVuSans-31" d="M 794 531 
L 1825 531 
L 1825 4091 
L 703 3866 
L 703 4441 
L 1819 4666 
L 2450 4666 
L 2450 531 
L 3481 531 
L 3481 0 
L 794 0 
L 794 531 
z
" transform="scale(0.015625)"/>
       </defs>
       <use xlink:href="#DejaVuSans-31"/>
       <use xlink:href="#DejaVuSans-30" x="63.623047"/>
       <use xlink:href="#DejaVuSans-30" x="127.246094"/>
       <use xlink:href="#DejaVuSans-30" x="190.869141"/>
      </g>
     </g>
    </g>
    <g id="text_7">
     <!-- T -->
     <g transform="translate(233.106094 335.860562) scale(0.1 -0.1)">
      <defs>
       <path id="DejaVuSans-54" d="M -19 4666 
L 3928 4666 
L 3928 4134 
L 2272 4134 
L 2272 0 
L 1638 0 
L 1638 4134 
L -19 4134 
L -19 4666 
z
" transform="scale(0.015625)"/>
      </defs>
      <use xlink:href="#DejaVuSans-54"/>
     </g>
    </g>
   </g>
   <g id="matplotlib.axis_2">
    <g id="ytick_1">
     <g id="line2d_7">
      <defs>
       <path id="mbb31c93add" d="M 0 0 
L -3.5 0 
" style="stroke: #000000; stroke-width: 0.8"/>
      </defs>
      <g>
       <use xlink:href="#mbb31c93add" x="57.6" y="298.394019" style="stroke: #000000; stroke-width: 0.8"/>
      </g>
     </g>
     <g id="text_8">
      <!-- 2.0 -->
      <g transform="translate(34.696875 302.193238) scale(0.1 -0.1)">
       <defs>
        <path id="DejaVuSans-2e" d="M 684 794 
L 1344 794 
L 1344 0 
L 684 0 
L 684 794 
z
" transform="scale(0.015625)"/>
       </defs>
       <use xlink:href="#DejaVuSans-32"/>
       <use xlink:href="#DejaVuSans-2e" x="63.623047"/>
       <use xlink:href="#DejaVuSans-30" x="95.410156"/>
      </g>
     </g>
    </g>
    <g id="ytick_2">
     <g id="line2d_8">
      <g>
       <use xlink:href="#mbb31c93add" x="57.6" y="265.812379" style="stroke: #000000; stroke-width: 0.8"/>
      </g>
     </g>
     <g id="text_9">
      <!-- 2.5 -->
      <g transform="translate(34.696875 269.611598) scale(0.1 -0.1)">
       <defs>
        <path id="DejaVuSans-35" d="M 691 4666 
L 3169 4666 
L 3169 4134 
L 1269 4134 
L 1269 2991 
Q 1406 3038 1543 3061 
Q 1681 3084 1819 3084 
Q 2600 3084 3056 2656 
Q 3513 2228 3513 1497 
Q 3513 744 3044 326 
Q 2575 -91 1722 -91 
Q 1428 -91 1123 -41 
Q 819 9 494 109 
L 494 744 
Q 775 591 1075 516 
Q 1375 441 1709 441 
Q 2250 441 2565 725 
Q 2881 1009 2881 1497 
Q 2881 1984 2565 2268 
Q 2250 2553 1709 2553 
Q 1456 2553 1204 2497 
Q 953 2441 691 2322 
L 691 4666 
z
" transform="scale(0.015625)"/>
       </defs>
       <use xlink:href="#DejaVuSans-32"/>
       <use xlink:href="#DejaVuSans-2e" x="63.623047"/>
       <use xlink:href="#DejaVuSans-35" x="95.410156"/>
      </g>
     </g>
    </g>
    <g id="ytick_3">
     <g id="line2d_9">
      <g>
       <use xlink:href="#mbb31c93add" x="57.6" y="233.23074" style="stroke: #000000; stroke-width: 0.8"/>
      </g>
     </g>
     <g id="text_10">
      <!-- 3.0 -->
      <g transform="translate(34.696875 237.029959) scale(0.1 -0.1)">
       <defs>
        <path id="DejaVuSans-33" d="M 2597 2516 
Q 3050 2419 3304 2112 
Q 3559 1806 3559 1356 
Q 3559 666 3084 287 
Q 2609 -91 1734 -91 
Q 1441 -91 1130 -33 
Q 819 25 488 141 
L 488 750 
Q 750 597 1062 519 
Q 1375 441 1716 441 
Q 2309 441 2620 675 
Q 2931 909 2931 1356 
Q 2931 1769 2642 2001 
Q 2353 2234 1838 2234 
L 1294 2234 
L 1294 2753 
L 1863 2753 
Q 2328 2753 2575 2939 
Q 2822 3125 2822 3475 
Q 2822 3834 2567 4026 
Q 2313 4219 1838 4219 
Q 1578 4219 1281 4162 
Q 984 4106 628 3988 
L 628 4550 
Q 988 4650 1302 4700 
Q 1616 4750 1894 4750 
Q 2613 4750 3031 4423 
Q 3450 4097 3450 3541 
Q 3450 3153 3228 2886 
Q 3006 2619 2597 2516 
z
" transform="scale(0.015625)"/>
       </defs>
       <use xlink:href="#DejaVuSans-33"/>
       <use xlink:href="#DejaVuSans-2e" x="63.623047"/>
       <use xlink:href="#DejaVuSans-30" x="95.410156"/>
      </g>
     </g>
    </g>
    <g id="ytick_4">
     <g id="line2d_10">
      <g>
       <use xlink:href="#mbb31c93add" x="57.6" y="200.6491" style="stroke: #000000; stroke-width: 0.8"/>
      </g>
     </g>
     <g id="text_11">
      <!-- 3.5 -->
      <g transform="translate(34.696875 204.448319) scale(0.1 -0.1)">
       <use xlink:href="#DejaVuSans-33"/>
       <use xlink:href="#DejaVuSans-2e" x="63.623047"/>
       <use xlink:href="#DejaVuSans-35" x="95.410156"/>
      </g>
     </g>
    </g>
    <g id="ytick_5">
     <g id="line2d_11">
      <g>
       <use xlink:href="#mbb31c93add" x="57.6" y="168.067461" style="stroke: #000000; stroke-width: 0.8"/>
      </g>
     </g>
     <g id="text_12">
      <!-- 4.0 -->
      <g transform="translate(34.696875 171.86668) scale(0.1 -0.1)">
       <use xlink:href="#DejaVuSans-34"/>
       <use xlink:href="#DejaVuSans-2e" x="63.623047"/>
       <use xlink:href="#DejaVuSans-30" x="95.410156"/>
      </g>
     </g>
    </g>
    <g id="ytick_6">
     <g id="line2d_12">
      <g>
       <use xlink:href="#mbb31c93add" x="57.6" y="135.485821" style="stroke: #000000; stroke-width: 0.8"/>
      </g>
     </g>
     <g id="text_13">
      <!-- 4.5 -->
      <g transform="translate(34.696875 139.28504) scale(0.1 -0.1)">
       <use xlink:href="#DejaVuSans-34"/>
       <use xlink:href="#DejaVuSans-2e" x="63.623047"/>
       <use xlink:href="#DejaVuSans-35" x="95.410156"/>
      </g>
     </g>
    </g>
    <g id="ytick_7">
     <g id="line2d_13">
      <g>
       <use xlink:href="#mbb31c93add" x="57.6" y="102.904182" style="stroke: #000000; stroke-width: 0.8"/>
      </g>
     </g>
     <g id="text_14">
      <!-- 5.0 -->
      <g transform="translate(34.696875 106.703401) scale(0.1 -0.1)">
       <use xlink:href="#DejaVuSans-35"/>
       <use xlink:href="#DejaVuSans-2e" x="63.623047"/>
       <use xlink:href="#DejaVuSans-30" x="95.410156"/>
      </g>
     </g>
    </g>
    <g id="ytick_8">
     <g id="line2d_14">
      <g>
       <use xlink:href="#mbb31c93add" x="57.6" y="70.322542" style="stroke: #000000; stroke-width: 0.8"/>
      </g>
     </g>
     <g id="text_15">
      <!-- 5.5 -->
      <g transform="translate(34.696875 74.121761) scale(0.1 -0.1)">
       <use xlink:href="#DejaVuSans-35"/>
       <use xlink:href="#DejaVuSans-2e" x="63.623047"/>
       <use xlink:href="#DejaVuSans-35" x="95.410156"/>
      </g>
     </g>
    </g>
    <g id="text_16">
     <!-- G -->
     <g transform="translate(28.617188 178.402219) rotate(-90) scale(0.1 -0.1)">
      <defs>
       <path id="DejaVuSans-47" d="M 3809 666 
L 3809 1919 
L 2778 1919 
L 2778 2438 
L 4434 2438 
L 4434 434 
Q 4069 175 3628 42 
Q 3188 -91 2688 -91 
Q 1594 -91 976 548 
Q 359 1188 359 2328 
Q 359 3472 976 4111 
Q 1594 4750 2688 4750 
Q 3144 4750 3555 4637 
Q 3966 4525 4313 4306 
L 4313 3634 
Q 3963 3931 3569 4081 
Q 3175 4231 2741 4231 
Q 1884 4231 1454 3753 
Q 1025 3275 1025 2328 
Q 1025 1384 1454 906 
Q 1884 428 2741 428 
Q 3075 428 3337 486 
Q 3600 544 3809 666 
z
" transform="scale(0.015625)"/>
      </defs>
      <use xlink:href="#DejaVuSans-47"/>
     </g>
    </g>
   </g>
   <g id="line2d_15">
    <path d="M 73.832727 290.960708 
L 74.239819 258.021053 
L 74.931875 229.435479 
L 75.21684 219.212826 
L 77.140349 177.943596 
L 77.415136 174.914671 
L 78.697476 153.901425 
L 79.73556 144.625326 
L 80.346198 134.213381 
L 80.651517 133.266826 
L 81.078963 128.912731 
L 81.343573 124.937251 
L 81.832083 121.340387 
L 82.015275 117.55423 
L 82.890522 109.413978 
L 83.297614 107.331577 
L 83.704707 103.54542 
L 83.847188 98.434094 
L 84.172862 98.434094 
L 84.783499 91.618981 
L 85.190591 89.157964 
L 85.190591 89.157964 
L 86.472931 77.610171 
L 86.737541 77.042232 
L 87.470306 69.659211 
L 87.816335 68.334041 
L 88.447327 64.169269 
L 88.793354 63.033422 
L 89.79073 53.568 
L 90.136758 129.48067 
L 90.401368 153.333517 
L 91.419098 194.792055 
L 92.111153 211.072574 
L 93.006757 228.299632 
L 93.780231 237.386439 
L 94.024485 239.84744 
L 94.757252 244.769459 
L 94.920089 247.230477 
L 95.367889 250.070094 
L 95.571436 252.531111 
L 95.856399 254.424189 
L 96.548456 257.074514 
L 97.464414 262.185841 
L 98.095405 263.700304 
L 98.482142 265.971998 
L 98.746752 268.243707 
L 99.072425 267.675783 
L 99.113135 267.865091 
L 99.499872 268.243707 
L 99.825546 269.190246 
L 100.090156 269.568862 
L 100.456537 269.379554 
L 101.046821 272.219187 
L 101.453914 272.597802 
L 101.718524 273.922957 
L 101.983134 273.733649 
L 102.166324 273.922957 
L 102.451288 275.058804 
L 102.715898 275.43742 
L 102.980508 275.248112 
L 103.367245 275.626728 
L 103.591146 276.762574 
L 103.937173 276.762574 
L 104.62923 277.330513 
L 104.873486 278.46636 
L 105.239867 278.655668 
L 105.545187 279.602207 
L 105.952278 279.980823 
L 106.298573 290.960708 
L 106.705666 258.021053 
L 107.397723 229.435479 
L 107.682687 219.212826 
L 109.606196 177.943596 
L 109.880982 174.914671 
L 111.163323 153.901425 
L 112.201407 144.625326 
L 112.812042 134.213381 
L 113.117364 133.266826 
L 113.544809 128.912731 
L 113.809419 124.937251 
L 114.297931 121.340387 
L 114.481122 117.55423 
L 115.356367 109.413978 
L 115.76346 107.331577 
L 116.170553 103.54542 
L 116.313036 98.434094 
L 116.63871 98.434094 
L 117.249345 91.618981 
L 117.656438 89.157964 
L 117.656438 89.157964 
L 118.938776 77.610171 
L 119.203386 77.042232 
L 119.936153 69.659211 
L 120.282183 68.334041 
L 120.913174 64.169269 
L 121.259199 63.033422 
L 122.256575 53.568 
L 122.602605 129.48067 
L 122.867215 153.333517 
L 123.884943 194.792055 
L 124.577002 211.072574 
L 125.472604 228.299632 
L 126.246078 237.386439 
L 126.490332 239.84744 
L 127.223098 244.769459 
L 127.385933 247.230477 
L 127.833738 250.070094 
L 128.03728 252.531111 
L 128.322246 254.424189 
L 129.014305 257.074514 
L 129.930262 262.185841 
L 130.561254 263.700304 
L 130.947991 265.971998 
L 131.212601 268.243707 
L 131.53827 267.675783 
L 131.578982 267.865091 
L 131.965719 268.243707 
L 132.291392 269.190246 
L 132.556003 269.568862 
L 132.922384 269.379554 
L 133.512667 272.219187 
L 133.91976 272.597802 
L 134.18437 273.922957 
L 134.44898 273.733649 
L 134.632171 273.922957 
L 134.917132 275.058804 
L 135.181743 275.43742 
L 135.446353 275.248112 
L 135.83309 275.626728 
L 136.056992 276.762574 
L 136.403022 276.762574 
L 137.095076 277.330513 
L 137.339335 278.46636 
L 137.705716 278.655668 
L 138.011034 279.602207 
L 138.418122 279.980823 
L 138.764422 290.960708 
L 139.171511 258.021053 
L 139.86357 229.435479 
L 140.148531 219.212826 
L 142.072043 177.943596 
L 142.346831 174.914671 
L 143.629169 153.901425 
L 144.667254 144.625326 
L 145.277889 134.213381 
L 145.583211 133.266826 
L 146.010655 128.912731 
L 146.275265 124.937251 
L 146.763778 121.340387 
L 146.946969 117.55423 
L 147.822214 109.413978 
L 148.229307 107.331577 
L 148.6364 103.54542 
L 148.778883 98.434094 
L 149.104557 98.434094 
L 149.715192 91.618981 
L 150.122285 89.157964 
L 150.122285 89.157964 
L 151.404623 77.610171 
L 151.669233 77.042232 
L 152.401995 69.659211 
L 152.748029 68.334041 
L 153.37902 64.169269 
L 153.725045 63.033422 
L 154.722427 53.568 
L 155.068452 129.48067 
L 155.333062 153.333517 
L 156.35079 194.792055 
L 157.042849 211.072574 
L 157.93845 228.299632 
L 158.711924 237.386439 
L 158.956178 239.84744 
L 159.688941 244.769459 
L 159.85178 247.230477 
L 160.299585 250.070094 
L 160.503127 252.531111 
L 160.788093 254.424189 
L 161.480152 257.074514 
L 162.396109 262.185841 
L 163.0271 263.700304 
L 163.413837 265.971998 
L 163.678447 268.243707 
L 164.004116 267.675783 
L 164.044828 267.865091 
L 164.431566 268.243707 
L 164.757244 269.190246 
L 165.021854 269.568862 
L 165.388226 269.379554 
L 165.978514 272.219187 
L 166.385607 272.597802 
L 166.650217 273.922957 
L 166.914827 273.733649 
L 167.098022 273.922957 
L 167.382979 275.058804 
L 167.647589 275.43742 
L 167.912199 275.248112 
L 168.298936 275.626728 
L 168.522834 276.762574 
L 168.868868 276.762574 
L 169.560919 277.330513 
L 169.805182 278.46636 
L 170.171563 278.655668 
L 170.476885 279.602207 
L 170.883969 279.980823 
L 171.230264 290.960708 
L 171.637357 258.021053 
L 172.329416 229.435479 
L 172.614382 219.212826 
L 174.53789 177.943596 
L 174.812678 174.914671 
L 176.095016 153.901425 
L 177.1331 144.625326 
L 177.743735 134.213381 
L 178.049057 133.266826 
L 178.476507 128.912731 
L 178.741117 124.937251 
L 179.229625 121.340387 
L 179.412811 117.55423 
L 180.288065 109.413978 
L 180.695158 107.331577 
L 181.102251 103.54542 
L 181.244725 98.434094 
L 181.570403 98.434094 
L 182.181038 91.618981 
L 182.588131 89.157964 
L 182.588131 89.157964 
L 183.87047 77.610171 
L 184.13508 77.042232 
L 184.867842 69.659211 
L 185.213876 68.334041 
L 185.844867 64.169269 
L 186.190892 63.033422 
L 187.188273 53.568 
L 187.534298 129.48067 
L 187.798908 153.333517 
L 188.816637 194.792055 
L 189.508696 211.072574 
L 190.404297 228.299632 
L 191.177771 237.386439 
L 191.422025 239.84744 
L 192.154787 244.769459 
L 192.317626 247.230477 
L 192.765431 250.070094 
L 192.968973 252.531111 
L 193.25394 254.424189 
L 193.945999 257.074514 
L 194.861956 262.185841 
L 195.492947 263.700304 
L 195.879684 265.971998 
L 196.144294 268.243707 
L 196.469963 267.675783 
L 196.510675 267.865091 
L 196.897412 268.243707 
L 197.22309 269.190246 
L 197.4877 269.568862 
L 197.854072 269.379554 
L 198.444361 272.219187 
L 198.851454 272.597802 
L 199.116064 273.922957 
L 199.380674 273.733649 
L 199.563869 273.922957 
L 199.848826 275.058804 
L 200.113436 275.43742 
L 200.378046 275.248112 
L 200.764783 275.626728 
L 200.988681 276.762574 
L 201.334715 276.762574 
L 202.026765 277.330513 
L 202.271028 278.46636 
L 202.637409 278.655668 
L 202.942731 279.602207 
L 203.349816 279.980823 
L 203.696111 290.960708 
L 204.103204 258.021053 
L 204.795263 229.435479 
L 205.080229 219.212826 
L 207.003736 177.943596 
L 207.278525 174.914671 
L 208.560863 153.901425 
L 209.598947 144.625326 
L 210.209582 134.213381 
L 210.514904 133.266826 
L 210.942353 128.912731 
L 211.206963 124.937251 
L 211.695471 121.340387 
L 211.878657 117.55423 
L 212.753912 109.413978 
L 213.161005 107.331577 
L 213.568098 103.54542 
L 213.710572 98.434094 
L 214.03625 98.434094 
L 214.646885 91.618981 
L 215.053978 89.157964 
L 215.053978 89.157964 
L 216.336316 77.610171 
L 216.600926 77.042232 
L 217.333689 69.659211 
L 217.679723 68.334041 
L 218.310714 64.169269 
L 218.656739 63.033422 
L 219.65412 53.568 
L 220.000145 129.48067 
L 220.264755 153.333517 
L 221.282483 194.792055 
L 221.974542 211.072574 
L 222.870144 228.299632 
L 223.643618 237.386439 
L 223.887872 239.84744 
L 224.620634 244.769459 
L 224.783473 247.230477 
L 225.231278 250.070094 
L 225.43482 252.531111 
L 225.719786 254.424189 
L 226.411836 257.074514 
L 227.327802 262.185841 
L 227.958785 263.700304 
L 228.345531 265.971998 
L 228.610141 268.243707 
L 228.935819 267.675783 
L 228.976513 267.865091 
L 229.363259 268.243707 
L 229.688937 269.190246 
L 229.953547 269.568862 
L 230.319919 269.379554 
L 230.910207 272.219187 
L 231.317309 272.597802 
L 231.581901 273.922957 
L 231.846529 273.733649 
L 232.029715 273.922957 
L 232.314681 275.058804 
L 232.579292 275.43742 
L 232.843902 275.248112 
L 233.23063 275.626728 
L 233.454528 276.762574 
L 233.800562 276.762574 
L 234.492612 277.330513 
L 234.736866 278.46636 
L 235.103256 278.655668 
L 235.408578 279.602207 
L 235.815662 279.980823 
L 236.161966 290.960708 
L 236.569051 258.021053 
L 237.261101 229.435479 
L 237.546067 219.212826 
L 239.469583 177.943596 
L 239.744371 174.914671 
L 241.026709 153.901425 
L 242.064794 144.625326 
L 242.675438 134.213381 
L 242.980742 133.266826 
L 243.4082 128.912731 
L 243.67281 124.937251 
L 244.161318 121.340387 
L 244.344504 117.55423 
L 245.219758 109.413978 
L 245.626842 107.331577 
L 246.033944 103.54542 
L 246.176418 98.434094 
L 246.502097 98.434094 
L 247.112741 91.618981 
L 247.519825 89.157964 
L 247.519825 89.157964 
L 248.802163 77.610171 
L 249.066773 77.042232 
L 249.799535 69.659211 
L 250.145569 68.334041 
L 250.776569 64.169269 
L 251.122585 63.033422 
L 252.119958 53.568 
L 252.465992 129.48067 
L 252.730602 153.333517 
L 253.74833 194.792055 
L 254.44038 211.072574 
L 255.33599 228.299632 
L 256.109464 237.386439 
L 256.353718 239.84744 
L 257.086481 244.769459 
L 257.249329 247.230477 
L 257.697125 250.070094 
L 257.900667 252.531111 
L 258.185633 254.424189 
L 258.877683 257.074514 
L 259.793649 262.185841 
L 260.424631 263.700304 
L 260.811377 265.971998 
L 261.075987 268.243707 
L 261.401665 267.675783 
L 261.442359 267.865091 
L 261.829106 268.243707 
L 262.154784 269.190246 
L 262.419394 269.568862 
L 262.785766 269.379554 
L 263.376054 272.219187 
L 263.783156 272.597802 
L 264.047748 273.922957 
L 264.312376 273.733649 
L 264.495562 273.922957 
L 264.780528 275.058804 
L 265.045138 275.43742 
L 265.309748 275.248112 
L 265.696476 275.626728 
L 265.920374 276.762574 
L 266.266408 276.762574 
L 266.958459 277.330513 
L 267.202713 278.46636 
L 267.569103 278.655668 
L 267.874425 279.602207 
L 268.281509 279.980823 
L 268.627813 290.960708 
L 269.034897 258.021053 
L 269.726947 229.435479 
L 270.011913 219.212826 
L 271.93543 177.943596 
L 272.210218 174.914671 
L 273.492556 153.901425 
L 274.53064 144.625326 
L 275.141284 134.213381 
L 275.446588 133.266826 
L 275.874047 128.912731 
L 276.138657 124.937251 
L 276.627165 121.340387 
L 276.810351 117.55423 
L 277.685605 109.413978 
L 278.092689 107.331577 
L 278.499791 103.54542 
L 278.642265 98.434094 
L 278.967943 98.434094 
L 279.578587 91.618981 
L 279.985671 89.157964 
L 279.985671 89.157964 
L 281.26801 77.610171 
L 281.53262 77.042232 
L 282.265382 69.659211 
L 282.611416 68.334041 
L 283.242416 64.169269 
L 283.588432 63.033422 
L 284.585804 53.568 
L 284.931838 129.48067 
L 285.196448 153.333517 
L 286.214177 194.792055 
L 286.906227 211.072574 
L 287.801837 228.299632 
L 288.575311 237.386439 
L 288.819565 239.84744 
L 289.552327 244.769459 
L 289.715175 247.230477 
L 290.162971 250.070094 
L 290.366513 252.531111 
L 290.65148 254.424189 
L 291.34353 257.074514 
L 292.259496 262.185841 
L 292.890478 263.700304 
L 293.277224 265.971998 
L 293.541834 268.243707 
L 293.867512 267.675783 
L 293.908206 267.865091 
L 294.294952 268.243707 
L 294.62063 269.190246 
L 294.88524 269.568862 
L 295.251612 269.379554 
L 295.841901 272.219187 
L 296.249003 272.597802 
L 296.513595 273.922957 
L 296.778223 273.733649 
L 296.961409 273.922957 
L 297.246375 275.058804 
L 297.510985 275.43742 
L 297.775595 275.248112 
L 298.162323 275.626728 
L 298.386221 276.762574 
L 298.732255 276.762574 
L 299.424305 277.330513 
L 299.668559 278.46636 
L 300.034949 278.655668 
L 300.340271 279.602207 
L 300.747356 279.980823 
L 301.09366 290.960708 
L 301.500744 258.021053 
L 302.192794 229.435479 
L 302.47776 219.212826 
L 304.401276 177.943596 
L 304.676065 174.914671 
L 305.958403 153.901425 
L 306.996487 144.625326 
L 307.607131 134.213381 
L 307.912435 133.266826 
L 308.339893 128.912731 
L 308.604503 124.937251 
L 309.093011 121.340387 
L 309.276197 117.55423 
L 310.151452 109.413978 
L 310.558536 107.331577 
L 310.965638 103.54542 
L 311.108112 98.434094 
L 311.43379 98.434094 
L 312.044434 91.618981 
L 312.451518 89.157964 
L 312.451518 89.157964 
L 313.733856 77.610171 
L 313.998466 77.042232 
L 314.731229 69.659211 
L 315.077263 68.334041 
L 315.708263 64.169269 
L 316.054279 63.033422 
L 317.051651 53.568 
L 317.397685 129.48067 
L 317.662295 153.333517 
L 318.680023 194.792055 
L 319.372073 211.072574 
L 320.267684 228.299632 
L 321.041158 237.386439 
L 321.285412 239.84744 
L 322.018174 244.769459 
L 322.181022 247.230477 
L 322.628818 250.070094 
L 322.83236 252.531111 
L 323.117326 254.424189 
L 323.809376 257.074514 
L 324.725343 262.185841 
L 325.356325 263.700304 
L 325.743071 265.971998 
L 326.007681 268.243707 
L 326.333359 267.675783 
L 326.374053 267.865091 
L 326.760799 268.243707 
L 327.086477 269.190246 
L 327.351087 269.568862 
L 327.717459 269.379554 
L 328.307747 272.219187 
L 328.714849 272.597802 
L 328.979441 273.922957 
L 329.244069 273.733649 
L 329.427255 273.922957 
L 329.712222 275.058804 
L 329.976832 275.43742 
L 330.241442 275.248112 
L 330.62817 275.626728 
L 330.852068 276.762574 
L 331.198102 276.762574 
L 331.890152 277.330513 
L 332.134406 278.46636 
L 332.500796 278.655668 
L 332.806118 279.602207 
L 333.213202 279.980823 
L 333.559506 290.960708 
L 333.966591 258.021053 
L 334.658641 229.435479 
L 334.943607 219.212826 
L 336.867123 177.943596 
L 337.141911 174.914671 
L 338.424249 153.901425 
L 339.462334 144.625326 
L 340.072978 134.213381 
L 340.378282 133.266826 
L 340.80574 128.912731 
L 341.07035 124.937251 
L 341.558858 121.340387 
L 341.742044 117.55423 
L 342.617298 109.413978 
L 343.024382 107.331577 
L 343.431484 103.54542 
L 343.573958 98.434094 
L 343.899637 98.434094 
L 344.510281 91.618981 
L 344.917365 89.157964 
L 344.917365 89.157964 
L 346.199703 77.610171 
L 346.464313 77.042232 
L 347.197075 69.659211 
L 347.543109 68.334041 
L 348.174109 64.169269 
L 348.520125 63.033422 
L 349.517498 53.568 
L 349.863532 129.48067 
L 350.128142 153.333517 
L 351.14587 194.792055 
L 351.83792 211.072574 
L 352.73353 228.299632 
L 353.507004 237.386439 
L 353.751258 239.84744 
L 354.484021 244.769459 
L 354.646869 247.230477 
L 355.094665 250.070094 
L 355.298207 252.531111 
L 355.583173 254.424189 
L 356.275223 257.074514 
L 357.191189 262.185841 
L 357.822171 263.700304 
L 358.208917 265.971998 
L 358.473527 268.243707 
L 358.799205 267.675783 
L 358.839899 267.865091 
L 359.226646 268.243707 
L 359.552324 269.190246 
L 359.816934 269.568862 
L 360.183306 269.379554 
L 360.773594 272.219187 
L 361.180696 272.597802 
L 361.445288 273.922957 
L 361.709916 273.733649 
L 361.893102 273.922957 
L 362.178068 275.058804 
L 362.442678 275.43742 
L 362.707288 275.248112 
L 363.094016 275.626728 
L 363.317914 276.762574 
L 363.663948 276.762574 
L 364.355999 277.330513 
L 364.600253 278.46636 
L 364.966643 278.655668 
L 365.271965 279.602207 
L 365.679049 279.980823 
L 366.025353 290.960708 
L 366.432437 258.021053 
L 367.124487 229.435479 
L 367.409453 219.212826 
L 369.33297 177.943596 
L 369.607758 174.914671 
L 370.890096 153.901425 
L 371.92818 144.625326 
L 372.538824 134.213381 
L 372.844128 133.266826 
L 373.271587 128.912731 
L 373.536197 124.937251 
L 374.024705 121.340387 
L 374.207891 117.55423 
L 375.083145 109.413978 
L 375.490229 107.331577 
L 375.897331 103.54542 
L 376.039805 98.434094 
L 376.365483 98.434094 
L 376.976127 91.618981 
L 377.383211 89.157964 
L 377.383211 89.157964 
L 378.665568 77.610171 
L 378.93016 77.042232 
L 379.66294 69.659211 
L 380.008956 68.334041 
L 380.639956 64.169269 
L 380.985972 63.033422 
L 381.983344 53.568 
L 382.329396 129.48067 
L 382.593988 153.333517 
L 383.611717 194.792055 
L 384.303785 211.072574 
L 385.199377 228.299632 
L 385.972869 237.386439 
L 386.217105 239.84744 
L 386.949885 244.769459 
L 387.112697 247.230477 
L 387.560493 250.070094 
L 387.764053 252.531111 
L 388.049038 254.424189 
L 388.74107 257.074514 
L 389.657018 262.185841 
L 390.288018 263.700304 
L 390.674746 265.971998 
L 390.939374 268.243707 
L 391.265034 267.675783 
L 391.305746 267.865091 
L 391.69251 268.243707 
L 392.01817 269.190246 
L 392.282762 269.568862 
L 392.64917 269.379554 
L 393.239423 272.219187 
L 393.646543 272.597802 
L 393.911135 273.922957 
L 394.175763 273.733649 
L 394.358931 273.922957 
L 394.643915 275.058804 
L 394.908507 275.43742 
L 395.173135 275.248112 
L 395.559863 275.626728 
L 395.783779 276.762574 
L 396.129795 276.762574 
L 396.821863 277.330513 
L 397.066099 278.46636 
L 397.432471 278.655668 
L 397.737811 279.602207 
L 398.144896 279.980823 
L 398.144896 279.980823 
" clip-path="url(#p040bf636a4)" style="fill: none; stroke: #000000; stroke-width: 2; stroke-linecap: square"/>
   </g>
   <g id="line2d_16">
    <path d="M 73.858313 295.488 
L 74.537145 258.630645 
L 75.127433 230.741245 
L 75.156947 231.034256 
L 75.77675 206.487021 
L 75.806264 206.98598 
L 75.835778 206.005991 
L 76.426066 186.367647 
L 76.455581 187.037441 
L 76.485095 186.043361 
L 77.075383 169.703432 
L 77.104898 170.514713 
L 77.134412 169.844375 
L 77.7247 155.87582 
L 77.754215 156.80457 
L 77.813244 155.517991 
L 78.374017 144.413538 
L 78.403532 145.439544 
L 78.46256 144.345148 
L 78.934791 136.594791 
L 79.347993 130.619189 
L 79.377507 131.945788 
L 79.436536 131.079524 
L 79.672651 127.049233 
L 79.702165 128.222678 
L 79.908766 125.021084 
L 79.997309 123.630413 
L 80.026824 124.832879 
L 80.233425 121.827724 
L 80.321968 120.517686 
L 80.351483 121.746594 
L 80.410511 121.052782 
L 80.646627 117.683677 
L 80.676141 118.936667 
L 80.73517 118.290395 
L 80.971285 115.103467 
L 81.000799 116.378238 
L 81.059828 115.775218 
L 81.295943 112.754092 
L 81.325458 114.048936 
L 81.414001 113.115805 
L 81.620602 110.615077 
L 81.650116 111.928067 
L 81.738659 111.048411 
L 81.94526 108.667622 
L 81.974775 109.997174 
L 82.063318 109.166301 
L 82.269919 106.894545 
L 82.299433 108.239105 
L 82.387976 107.452665 
L 82.594577 105.280216 
L 82.624091 106.638479 
L 82.712635 105.892464 
L 82.919236 103.810405 
L 82.94875 105.181158 
L 83.037293 104.471933 
L 83.243894 102.472215 
L 83.273409 103.854341 
L 83.361952 103.178643 
L 83.568552 101.253902 
L 83.598067 102.646375 
L 83.68661 102.001191 
L 83.893211 100.144622 
L 83.922725 101.54651 
L 84.011268 100.929073 
L 84.217869 99.134618 
L 84.247384 100.545082 
L 84.335927 99.772625 
L 84.542528 98.045224 
L 84.572042 99.648367 
L 84.660585 99.078905 
L 84.867186 97.391619 
L 84.8967 98.816904 
L 84.985245 98.268323 
L 85.191844 96.628049 
L 85.22136 98.059766 
L 85.309903 97.530388 
L 85.516504 95.932869 
L 85.546018 97.370521 
L 85.634561 96.858605 
L 85.841162 95.300051 
L 85.870677 96.743047 
L 85.95922 96.246978 
L 86.165821 94.723878 
L 86.195335 96.171846 
L 86.283878 95.690225 
L 86.490479 94.199378 
L 86.519993 95.651696 
L 86.608537 95.183188 
L 86.815137 93.721673 
L 86.844652 95.17803 
L 86.933195 94.721454 
L 87.139796 93.286723 
L 87.16931 94.746809 
L 87.257853 94.30114 
L 87.464454 92.890707 
L 87.493969 94.354211 
L 87.582512 93.918422 
L 87.789113 92.530175 
L 87.818627 93.996724 
L 87.90717 93.569978 
L 88.113771 92.201928 
L 88.143285 93.671242 
L 88.231829 93.25273 
L 88.438429 91.903075 
L 88.467944 93.374937 
L 88.556487 92.963851 
L 88.763088 91.630913 
L 88.792602 93.105106 
L 88.881145 92.700917 
L 89.087746 91.383236 
L 89.11726 92.85951 
L 89.205804 92.461506 
L 89.412404 91.157775 
L 89.441919 92.635976 
L 89.530462 92.243658 
L 89.737063 90.952543 
L 91.065212 152.107592 
L 91.980158 183.408137 
L 92.895105 207.438128 
L 93.810051 225.886342 
L 94.724997 240.049115 
L 95.639944 250.922002 
L 96.554892 259.269335 
L 97.469838 265.677759 
L 98.384784 270.597525 
L 99.29973 274.374484 
L 100.244193 277.355465 
L 101.188653 279.624626 
L 102.162629 281.398589 
L 103.166117 282.772434 
L 104.228635 283.852226 
L 105.379698 284.702457 
L 106.32416 285.217091 
L 107.26862 237.187017 
L 107.298134 237.425326 
L 108.242596 200.808175 
L 108.27211 201.355358 
L 108.301624 200.423158 
L 108.891912 181.66012 
L 108.921426 182.369888 
L 108.95094 181.598892 
L 109.541228 165.787409 
L 109.570745 166.631922 
L 109.629772 165.179138 
L 110.190547 152.629668 
L 110.220061 153.585917 
L 110.279089 152.353777 
L 110.810349 142.337102 
L 110.869377 142.771399 
L 111.164521 136.989937 
L 111.194037 138.07902 
L 111.253065 137.109068 
L 111.636753 131.844524 
L 111.813837 128.757991 
L 111.902381 129.084964 
L 112.256553 124.950581 
L 112.463157 121.764306 
L 112.492669 123.1661 
L 112.551697 122.448331 
L 112.787813 118.98719 
L 112.817329 120.229056 
L 112.876357 119.56094 
L 113.112473 116.29021 
L 113.141985 117.555007 
L 113.201017 116.93207 
L 113.437129 113.8346 
L 113.466645 115.120215 
L 113.555189 114.159895 
L 113.761789 111.598763 
L 113.791306 112.903363 
L 113.850333 112.177204 
L 114.08645 109.393408 
L 114.115961 110.900227 
L 114.204505 110.046641 
L 114.411105 107.723864 
L 114.440622 109.061401 
L 114.529166 108.254175 
L 114.735766 106.035304 
L 114.765277 107.387165 
L 114.853821 106.622259 
L 115.060421 104.497941 
L 115.089938 105.862884 
L 115.178482 105.136414 
L 115.385082 103.098197 
L 115.414598 104.474978 
L 115.503137 103.603215 
L 115.709742 101.653834 
L 115.739254 103.226339 
L 115.827798 102.566519 
L 116.034398 100.677201 
L 116.063914 102.074521 
L 116.152458 101.443816 
L 116.359058 99.619563 
L 116.38857 101.025894 
L 116.477114 100.421632 
L 116.683714 98.656571 
L 116.71323 100.071074 
L 116.801774 99.490924 
L 117.008374 97.779774 
L 117.03789 99.201734 
L 117.12643 98.643521 
L 117.333034 96.981589 
L 117.362546 98.410354 
L 117.45109 97.87212 
L 117.65769 96.254778 
L 117.687206 97.689695 
L 117.77575 97.169701 
L 117.98235 95.593062 
L 118.011862 97.033604 
L 118.100406 96.530202 
L 118.307006 94.990664 
L 118.336522 96.436302 
L 118.425066 95.947939 
L 118.631666 94.442146 
L 118.661183 95.892444 
L 118.749722 95.417753 
L 118.956327 93.942659 
L 118.985838 95.397152 
L 119.074382 94.935045 
L 119.280982 93.487916 
L 119.310499 94.946324 
L 119.399043 94.49559 
L 119.605643 93.073971 
L 119.635154 94.535922 
L 119.723698 94.095596 
L 119.930298 92.697127 
L 119.959815 94.162215 
L 120.048359 93.731305 
L 120.254959 92.353933 
L 120.284475 93.821974 
L 120.373014 93.39964 
L 120.579619 92.041502 
L 120.609131 93.512183 
L 120.697675 93.09771 
L 120.904275 91.757035 
L 120.933791 93.23014 
L 121.022335 92.822752 
L 121.228935 91.498079 
L 121.258447 92.97339 
L 121.346991 92.572496 
L 121.553591 91.262333 
L 121.583107 92.739634 
L 121.671651 92.344643 
L 121.878251 91.047748 
L 121.907767 92.526882 
L 121.996307 92.137266 
L 122.202911 90.852335 
L 123.53106 152.039481 
L 124.446003 183.355967 
L 125.360952 207.397982 
L 126.275896 225.855332 
L 127.190844 240.025314 
L 128.105792 250.903701 
L 129.020736 259.255384 
L 129.935685 265.667225 
L 130.850629 270.589539 
L 131.765577 274.368363 
L 132.710037 277.350788 
L 133.654497 279.621022 
L 134.628474 281.395885 
L 135.631962 282.770461 
L 136.694482 283.850812 
L 137.845542 284.701462 
L 138.790007 285.216315 
L 139.734467 237.186458 
L 139.763978 237.424766 
L 140.708443 200.807724 
L 140.737955 201.354907 
L 140.767471 200.422708 
L 141.357759 181.659778 
L 141.387271 182.369546 
L 141.416787 181.59855 
L 142.007075 165.78716 
L 142.036591 166.631673 
L 142.095619 165.178889 
L 142.656391 152.629482 
L 142.685907 153.585731 
L 142.744935 152.353591 
L 143.276195 142.336947 
L 143.335223 142.771244 
L 143.630367 136.989813 
L 143.659884 138.078896 
L 143.718911 137.108944 
L 144.1026 131.844431 
L 144.279683 128.757929 
L 144.368228 129.084902 
L 144.604344 125.18614 
L 144.633855 126.3754 
L 144.84046 123.28085 
L 144.928999 121.934147 
L 144.958516 123.150999 
L 145.135604 120.673917 
L 145.25366 118.973332 
L 145.283176 120.215384 
L 145.342204 119.547485 
L 145.57832 116.277595 
L 145.607832 117.542392 
L 145.66686 116.919672 
L 145.902976 113.823103 
L 145.932492 115.10878 
L 146.021036 114.148896 
L 146.227636 111.588043 
L 146.257148 112.892768 
L 146.345692 111.988565 
L 146.552292 109.553337 
L 146.581808 110.875338 
L 146.670352 110.022218 
L 146.876952 107.700933 
L 146.906468 109.038656 
L 146.995008 108.23202 
L 147.201612 106.014454 
L 147.231124 107.366502 
L 147.319668 106.602093 
L 147.526268 104.478925 
L 147.555784 105.844023 
L 147.644328 105.117988 
L 147.850928 103.08089 
L 147.88044 104.457858 
L 147.968984 103.766872 
L 148.175584 101.808045 
L 148.2051 103.195826 
L 148.293644 102.536783 
L 148.500244 100.649081 
L 148.529761 102.046711 
L 148.6183 101.41669 
L 148.824905 99.59399 
L 148.854416 101.00057 
L 148.94296 100.396929 
L 149.14956 98.633329 
L 149.179077 100.048019 
L 149.267621 99.468427 
L 149.474216 97.758676 
L 149.503732 99.180822 
L 149.592281 98.623137 
L 149.798876 96.962293 
L 149.828393 98.391183 
L 149.916932 97.853477 
L 150.123537 96.237284 
L 150.153053 97.672357 
L 150.241593 97.152797 
L 150.448197 95.577153 
L 150.477713 97.017819 
L 150.566253 96.334416 
L 150.772857 94.80625 
L 150.802364 96.436923 
L 150.890913 95.94856 
L 151.097508 94.442767 
L 151.127025 95.893065 
L 151.215573 95.418374 
L 151.422169 93.943249 
L 151.451685 95.397742 
L 151.540225 94.935635 
L 151.746829 93.488413 
L 151.776345 94.946821 
L 151.864885 94.496087 
L 152.071489 93.074437 
L 152.101006 94.536388 
L 152.189545 93.915688 
L 152.39615 92.527627 
L 152.425657 94.177658 
L 152.514205 93.746313 
L 152.720801 92.368102 
L 152.750317 93.835988 
L 152.838866 93.413311 
L 153.045461 92.054366 
L 153.074977 93.524954 
L 153.163517 93.110108 
L 153.370121 91.76878 
L 153.399638 93.241793 
L 153.488177 92.834093 
L 153.694782 91.508705 
L 153.724298 92.983924 
L 153.812837 92.402437 
L 154.019442 91.102187 
L 154.048949 92.764305 
L 154.137498 92.368724 
L 154.344093 91.070058 
L 154.373609 92.549005 
L 154.462158 92.158831 
L 154.668753 90.872283 
L 155.996902 152.052843 
L 156.91185 183.366221 
L 157.826798 207.406015 
L 158.741747 225.861469 
L 159.656686 240.030021 
L 160.571635 250.907398 
L 161.486583 259.258134 
L 162.401531 265.668981 
L 163.31648 270.590844 
L 164.231419 274.369372 
L 165.175884 277.351643 
L 166.120348 279.621674 
L 167.09432 281.396414 
L 168.097808 282.770896 
L 169.160329 283.851061 
L 170.311389 284.701618 
L 171.255853 285.216439 
L 172.200309 237.186535 
L 172.229825 237.424844 
L 173.17429 200.807786 
L 173.203806 201.354969 
L 173.233313 200.42277 
L 173.823601 181.65984 
L 173.853117 182.369608 
L 173.882634 181.598612 
L 174.472922 165.787222 
L 174.502438 166.631735 
L 174.561461 165.178951 
L 175.122242 152.629544 
L 175.151749 153.585793 
L 175.210782 152.353653 
L 175.742038 142.336978 
L 175.80107 142.771275 
L 176.096214 136.989813 
L 176.12573 138.078896 
L 176.184754 137.108944 
L 176.568446 131.844431 
L 176.745535 128.757929 
L 176.834074 129.084902 
L 177.070186 125.18614 
L 177.099702 126.3754 
L 177.306306 123.28085 
L 177.394846 121.934147 
L 177.424362 123.150999 
L 177.601451 120.673917 
L 177.719506 118.973332 
L 177.749023 120.215384 
L 177.808046 119.547485 
L 178.044167 116.277595 
L 178.073683 117.542392 
L 178.132706 116.919672 
L 178.368827 113.823103 
L 178.398334 115.10878 
L 178.486883 114.148896 
L 178.693478 111.588043 
L 178.722994 112.892768 
L 178.811543 111.988565 
L 179.018138 109.553337 
L 179.047655 110.875338 
L 179.136194 110.022218 
L 179.342799 107.700933 
L 179.372315 109.038656 
L 179.460855 108.23202 
L 179.667459 106.014454 
L 179.696975 107.366502 
L 179.785515 106.602093 
L 179.992119 104.478925 
L 180.021626 105.844023 
L 180.110175 105.117988 
L 180.31677 103.08089 
L 180.346287 104.457858 
L 180.434835 103.766872 
L 180.641431 101.808045 
L 180.670947 103.195826 
L 180.759487 102.536783 
L 180.966091 100.649081 
L 180.995607 102.046711 
L 181.084147 101.41669 
L 181.290751 99.59399 
L 181.320268 101.00057 
L 181.408807 100.396929 
L 181.615412 98.633329 
L 181.644919 100.048019 
L 181.733467 99.468427 
L 181.940063 97.758676 
L 181.969579 99.180822 
L 182.058128 98.623137 
L 182.264723 96.962293 
L 182.294239 98.391183 
L 182.382779 97.853477 
L 182.589383 96.237284 
L 182.6189 97.672357 
L 182.707439 97.152797 
L 182.914044 95.577153 
L 182.94356 97.017819 
L 183.032099 96.514759 
L 183.238704 94.976123 
L 183.268211 96.421915 
L 183.35676 95.933925 
L 183.563355 94.428971 
L 183.592871 95.879425 
L 183.68142 95.405137 
L 183.888015 93.930789 
L 183.917532 95.385438 
L 184.006071 94.92361 
L 184.212676 93.477134 
L 184.242192 94.935666 
L 184.330732 94.485243 
L 184.537336 93.064183 
L 184.566852 94.526134 
L 184.655392 94.086088 
L 184.861996 92.688085 
L 184.891503 94.153329 
L 184.980052 93.722636 
L 185.186647 92.34573 
L 185.216164 93.813833 
L 185.304712 93.391747 
L 185.511308 92.033982 
L 185.540824 93.504726 
L 185.629364 93.090408 
L 185.835968 91.75023 
L 185.865484 93.223367 
L 185.954024 92.816165 
L 186.160628 91.491833 
L 186.190145 92.967176 
L 186.278684 92.566468 
L 186.485289 91.256585 
L 186.514796 92.733947 
L 186.603344 92.339081 
L 186.80994 91.042435 
L 186.839456 92.521599 
L 186.928005 92.13214 
L 187.1346 90.847581 
L 188.462748 152.036188 
L 189.377697 183.353512 
L 190.292645 207.39604 
L 191.207594 225.853887 
L 192.122533 240.02418 
L 193.037481 250.902846 
L 193.95243 259.254778 
L 194.867378 265.666728 
L 195.782317 270.58912 
L 196.697266 274.368021 
L 197.64173 277.35054 
L 198.586186 279.620866 
L 199.560167 281.395746 
L 200.563655 282.770352 
L 201.626175 283.85075 
L 202.777235 284.7014 
L 203.7217 285.216283 
L 204.666155 237.186427 
L 204.695672 237.424735 
L 205.640136 200.807693 
L 205.669644 201.354876 
L 205.69916 200.422677 
L 206.289448 181.659762 
L 206.318964 182.369531 
L 206.34848 181.598535 
L 206.938768 165.787129 
L 206.968285 166.631642 
L 207.027308 165.178858 
L 207.58808 152.629482 
L 207.617596 153.585731 
L 207.676629 152.353591 
L 208.207884 142.336947 
L 208.266917 142.771244 
L 208.562061 136.989813 
L 208.591577 138.078896 
L 208.6506 137.108944 
L 209.034293 131.844431 
L 209.211372 128.757929 
L 209.299921 129.084902 
L 209.536032 125.18614 
L 209.565549 126.3754 
L 209.772153 123.28085 
L 209.860693 121.934147 
L 209.890209 123.150999 
L 210.067297 120.673917 
L 210.185353 118.973332 
L 210.214869 120.215384 
L 210.273893 119.547485 
L 210.510013 116.277595 
L 210.539521 117.542392 
L 210.598553 116.919672 
L 210.834665 113.823103 
L 210.864181 115.10878 
L 210.952729 114.148896 
L 211.159325 111.588043 
L 211.188841 112.892768 
L 211.277381 111.988565 
L 211.483985 109.553337 
L 211.513501 110.875338 
L 211.602041 110.022218 
L 211.808645 107.700933 
L 211.838162 109.038656 
L 211.926701 108.23202 
L 212.133306 106.014454 
L 212.162813 107.366502 
L 212.251361 106.602093 
L 212.457957 104.478925 
L 212.487473 105.844023 
L 212.576022 105.117988 
L 212.782617 103.08089 
L 212.812133 104.457858 
L 212.900673 103.766872 
L 213.107277 101.808045 
L 213.136794 103.195826 
L 213.225333 102.536783 
L 213.431938 100.649081 
L 213.461454 102.046711 
L 213.549994 101.41669 
L 213.756598 99.59399 
L 213.786105 101.00057 
L 213.874654 100.396929 
L 214.081249 98.633329 
L 214.110765 100.048019 
L 214.199314 99.468427 
L 214.405909 97.758676 
L 214.435426 99.180822 
L 214.523965 98.623137 
L 214.73057 96.962293 
L 214.760086 98.391183 
L 214.848626 97.853477 
L 215.05523 96.237284 
L 215.084746 97.672357 
L 215.173286 97.152797 
L 215.37989 95.577153 
L 215.409398 97.017819 
L 215.497946 96.514759 
L 215.704542 94.976123 
L 215.734058 96.421915 
L 215.822606 95.933925 
L 216.029202 94.428971 
L 216.058718 95.879425 
L 216.147258 95.405137 
L 216.353862 93.930789 
L 216.383378 95.385438 
L 216.471918 94.92361 
L 216.678522 93.477134 
L 216.708039 94.935666 
L 216.796578 94.485243 
L 217.003183 93.064183 
L 217.03269 94.526134 
L 217.121238 94.086088 
L 217.327834 92.688085 
L 217.35735 94.153329 
L 217.445899 93.722636 
L 217.652494 92.34573 
L 217.68201 93.813833 
L 217.77055 93.391747 
L 217.977154 92.033982 
L 218.006671 93.504726 
L 218.09521 93.090408 
L 218.301815 91.75023 
L 218.331331 93.223367 
L 218.419871 92.816165 
L 218.626475 91.491833 
L 218.655982 92.967176 
L 218.744531 92.566468 
L 218.951126 91.256585 
L 218.980642 92.733947 
L 219.069191 92.339081 
L 219.275786 91.042435 
L 219.305303 92.521599 
L 219.393842 92.13214 
L 219.600447 90.847581 
L 220.928595 152.036188 
L 221.843543 183.353512 
L 222.758492 207.39604 
L 223.673431 225.853887 
L 224.58838 240.02418 
L 225.503328 250.902846 
L 226.418267 259.254778 
L 227.333225 265.666728 
L 228.248164 270.58912 
L 229.163122 274.368021 
L 230.107568 277.35054 
L 231.052033 279.620866 
L 232.026005 281.395746 
L 233.029502 282.770352 
L 234.092013 283.85075 
L 235.243082 284.7014 
L 236.187547 285.216283 
L 237.132011 237.016384 
L 237.161518 237.439557 
L 238.105983 200.818895 
L 238.13549 201.365938 
L 238.165015 200.433645 
L 238.755304 181.499119 
L 238.784811 182.39369 
L 238.814318 181.622507 
L 239.404606 165.807388 
L 239.434131 166.651746 
L 239.493164 165.19862 
L 240.053927 152.646323 
L 240.083452 153.602417 
L 240.142466 152.188069 
L 240.614707 143.610226 
L 241.027898 137.014981 
L 241.057424 138.103785 
L 241.116456 137.133366 
L 241.50014 131.866305 
L 241.677219 128.778716 
L 241.765759 129.105161 
L 242.001888 125.205063 
L 242.031395 126.394168 
L 242.238 123.298561 
L 242.326539 121.951423 
L 242.356047 123.168182 
L 242.533144 120.690199 
L 242.651191 118.989055 
L 242.680716 120.23092 
L 242.739748 119.562773 
L 242.97586 116.291857 
L 243.005367 117.556654 
L 243.0644 116.933717 
L 243.300511 113.836122 
L 243.330036 115.121737 
L 243.418576 114.161356 
L 243.625181 111.600223 
L 243.654688 112.904824 
L 243.743227 112.000621 
L 243.949832 109.56471 
L 243.979339 110.886618 
L 244.067897 110.03328 
L 244.274483 107.711342 
L 244.304008 109.048972 
L 244.392548 108.242025 
L 244.599152 106.0239 
L 244.62866 107.375886 
L 244.717199 106.611197 
L 244.923804 104.487532 
L 244.953329 105.852537 
L 245.041868 105.126378 
L 245.248473 103.08872 
L 245.27798 104.465595 
L 245.36652 103.774392 
L 245.573124 101.815037 
L 245.602631 103.202724 
L 245.691189 102.543495 
L 245.897775 100.655575 
L 245.927301 102.053112 
L 246.01584 101.422904 
L 246.222445 99.599832 
L 246.251952 101.00635 
L 246.340491 100.402553 
L 246.547096 98.638642 
L 246.576621 100.053332 
L 246.665161 99.473616 
L 246.871765 97.763554 
L 246.901272 99.185639 
L 246.989812 98.62786 
L 247.196416 96.96683 
L 247.225924 98.395719 
L 247.314481 97.85792 
L 247.521068 96.241479 
L 247.550593 97.676489 
L 247.639133 97.156775 
L 247.845737 95.580944 
L 247.875244 97.02161 
L 247.963784 96.518457 
L 248.170388 94.979572 
L 248.199913 96.425364 
L 248.288453 95.937312 
L 248.495058 94.432047 
L 248.524565 95.88247 
L 248.613104 95.408151 
L 248.819709 93.933586 
L 248.849216 95.388234 
L 248.937774 94.926376 
L 249.14436 93.479744 
L 249.173885 94.938276 
L 249.262425 94.487791 
L 249.469029 93.066576 
L 249.498537 94.528526 
L 249.587076 94.088357 
L 249.793681 92.690322 
L 249.823206 94.155535 
L 249.911745 93.72478 
L 250.11835 92.347781 
L 250.147857 93.815853 
L 250.236397 93.393674 
L 250.443001 92.035815 
L 250.472508 93.506528 
L 250.561066 93.09218 
L 250.767652 91.751877 
L 250.797178 93.225014 
L 250.885717 92.817749 
L 251.092322 91.493325 
L 251.121829 92.968667 
L 251.210368 92.567897 
L 251.416973 91.257952 
L 251.446498 92.735314 
L 251.535038 92.340448 
L 251.741642 91.04374 
L 251.771149 92.522904 
L 251.859689 92.133445 
L 252.066293 90.848824 
L 253.394442 152.036996 
L 254.309381 183.354102 
L 255.224338 207.396522 
L 256.139278 225.854213 
L 257.054235 240.024459 
L 257.969175 250.903095 
L 258.884114 259.254918 
L 259.799071 265.666837 
L 260.714011 270.589197 
L 261.628968 274.368099 
L 262.573415 277.350586 
L 263.517879 279.620882 
L 264.491851 281.395761 
L 265.495348 282.770367 
L 266.55786 283.850766 
L 267.708929 284.701416 
L 268.653393 285.216283 
L 269.597858 237.186427 
L 269.627365 237.424735 
L 270.57183 200.807693 
L 270.601337 201.354876 
L 270.630862 200.422677 
L 271.22115 181.659762 
L 271.250657 182.369531 
L 271.280165 181.598535 
L 271.870453 165.787129 
L 271.899978 166.631642 
L 271.95901 165.178858 
L 272.519773 152.629482 
L 272.549298 153.585731 
L 272.608313 152.353591 
L 273.139587 142.336947 
L 273.198601 142.771244 
L 273.493745 136.989813 
L 273.52327 138.078896 
L 273.582303 137.108944 
L 273.965986 131.844431 
L 274.143066 128.757929 
L 274.231605 129.084902 
L 274.467735 125.18614 
L 274.497242 126.3754 
L 274.703846 123.28085 
L 274.792386 121.934147 
L 274.821893 123.150999 
L 274.998991 120.673917 
L 275.117037 118.973332 
L 275.146563 120.215384 
L 275.205595 119.547485 
L 275.441707 116.277595 
L 275.471214 117.542392 
L 275.530246 116.919672 
L 275.766358 113.823103 
L 275.795883 115.10878 
L 275.884423 114.148896 
L 276.091027 111.588043 
L 276.120534 112.892768 
L 276.209074 111.988565 
L 276.415678 109.553337 
L 276.445186 110.875338 
L 276.533743 110.022218 
L 276.74033 107.700933 
L 276.769855 109.038656 
L 276.858395 108.23202 
L 277.064999 106.014454 
L 277.094506 107.366502 
L 277.183046 106.602093 
L 277.38965 104.478925 
L 277.419175 105.844023 
L 277.507715 105.117988 
L 277.71432 103.08089 
L 277.743827 104.457858 
L 277.832366 103.766872 
L 278.038971 101.808045 
L 278.068478 103.195826 
L 278.157036 102.536783 
L 278.363622 100.649081 
L 278.393147 102.046711 
L 278.481687 101.41669 
L 278.688291 99.59399 
L 278.717799 101.00057 
L 278.806338 100.396929 
L 279.012943 98.633329 
L 279.042468 100.048019 
L 279.131007 99.468427 
L 279.337612 97.758676 
L 279.367119 99.180822 
L 279.455659 98.623137 
L 279.662263 96.962293 
L 279.69177 98.391183 
L 279.780328 97.853477 
L 279.986914 96.237284 
L 280.01644 97.672357 
L 280.104979 97.152797 
L 280.311584 95.577153 
L 280.341091 97.017819 
L 280.42963 96.514759 
L 280.636235 94.976123 
L 280.66576 96.421915 
L 280.7543 95.933925 
L 280.960904 94.428971 
L 280.990411 95.879425 
L 281.078951 95.405137 
L 281.285555 93.930789 
L 281.315063 95.385438 
L 281.40362 94.92361 
L 281.610207 93.477134 
L 281.639732 94.935666 
L 281.728272 94.485243 
L 281.934876 93.064183 
L 281.964383 94.526134 
L 282.052923 94.086088 
L 282.259527 92.688085 
L 282.289052 94.153329 
L 282.377592 93.722636 
L 282.584197 92.34573 
L 282.613704 93.813833 
L 282.702243 93.391747 
L 282.908848 92.033982 
L 282.938355 93.504726 
L 283.026913 93.090408 
L 283.233499 91.75023 
L 283.263024 93.223367 
L 283.351564 92.816165 
L 283.558168 91.491833 
L 283.587676 92.967176 
L 283.676215 92.566468 
L 283.88282 91.256585 
L 283.912345 92.733947 
L 284.000884 92.339081 
L 284.207489 91.042435 
L 284.236996 92.521599 
L 284.325536 92.13214 
L 284.53214 90.847581 
L 285.860288 152.036188 
L 286.775228 183.353512 
L 287.690185 207.39604 
L 288.605125 225.853887 
L 289.520082 240.02418 
L 290.435021 250.902846 
L 291.349961 259.254778 
L 292.264918 265.666728 
L 293.179857 270.58912 
L 294.094815 274.368021 
L 295.039261 277.35054 
L 295.983726 279.620866 
L 296.957698 281.395746 
L 297.961195 282.770352 
L 299.023706 283.85075 
L 300.174775 284.7014 
L 301.11924 285.216283 
L 302.063705 237.186427 
L 302.093212 237.424735 
L 303.037676 200.807693 
L 303.067184 201.354876 
L 303.096709 200.422677 
L 303.686997 181.659762 
L 303.716504 182.369531 
L 303.746011 181.598535 
L 304.336299 165.787129 
L 304.365825 166.631642 
L 304.424857 165.178858 
L 304.98562 152.629482 
L 305.015145 153.585731 
L 305.07416 152.353591 
L 305.605433 142.336947 
L 305.664448 142.771244 
L 305.959592 136.989813 
L 305.989117 138.078896 
L 306.048149 137.108944 
L 306.431833 131.844431 
L 306.608912 128.757929 
L 306.697452 129.084902 
L 306.933582 125.18614 
L 306.963089 126.3754 
L 307.169693 123.28085 
L 307.258233 121.934147 
L 307.28774 123.150999 
L 307.464837 120.673917 
L 307.582884 118.973332 
L 307.612409 120.215384 
L 307.671442 119.547485 
L 307.907553 116.277595 
L 307.937061 117.542392 
L 307.996093 116.919672 
L 308.232205 113.823103 
L 308.26173 115.10878 
L 308.350269 114.148896 
L 308.556874 111.588043 
L 308.586381 112.892768 
L 308.674921 111.988565 
L 308.881525 109.553337 
L 308.911032 110.875338 
L 308.99959 110.022218 
L 309.206176 107.700933 
L 309.235702 109.038656 
L 309.324241 108.23202 
L 309.530846 106.014454 
L 309.560353 107.366502 
L 309.648892 106.602093 
L 309.855497 104.478925 
L 309.885022 105.844023 
L 309.973562 105.117988 
L 310.180166 103.08089 
L 310.209673 104.457858 
L 310.298213 103.766872 
L 310.504817 101.808045 
L 310.534325 103.195826 
L 310.622882 102.536783 
L 310.829469 100.649081 
L 310.858994 102.046711 
L 310.947534 101.41669 
L 311.154138 99.59399 
L 311.183645 101.00057 
L 311.272185 100.396929 
L 311.478789 98.633329 
L 311.508314 100.048019 
L 311.596854 99.468427 
L 311.803459 97.758676 
L 311.832966 99.180822 
L 311.921505 98.623137 
L 312.12811 96.962293 
L 312.157617 98.391183 
L 312.246175 97.853477 
L 312.452761 96.237284 
L 312.482286 97.672357 
L 312.570826 97.152797 
L 312.77743 95.577153 
L 312.806938 97.017819 
L 312.895477 96.514759 
L 313.102082 94.976123 
L 313.131607 96.421915 
L 313.220146 95.933925 
L 313.426751 94.428971 
L 313.456258 95.879425 
L 313.544798 95.405137 
L 313.751402 93.930789 
L 313.780909 95.385438 
L 313.869467 94.92361 
L 314.076053 93.477134 
L 314.105579 94.935666 
L 314.194118 94.485243 
L 314.400723 93.064183 
L 314.43023 94.526134 
L 314.518769 94.086088 
L 314.725374 92.688085 
L 314.754899 94.153329 
L 314.843439 93.722636 
L 315.050043 92.34573 
L 315.07955 93.813833 
L 315.16809 93.391747 
L 315.374694 92.033982 
L 315.404202 93.504726 
L 315.492759 93.090408 
L 315.699346 91.75023 
L 315.728871 93.223367 
L 315.817411 92.816165 
L 316.024015 91.491833 
L 316.053522 92.967176 
L 316.142062 92.566468 
L 316.348666 91.256585 
L 316.378173 92.733947 
L 316.466731 92.339081 
L 316.673318 91.042435 
L 316.702843 92.521599 
L 316.791382 92.13214 
L 316.997987 90.847581 
L 318.326135 152.036188 
L 319.241074 183.353512 
L 320.156032 207.39604 
L 321.070971 225.853887 
L 321.985911 240.02418 
L 322.900868 250.902846 
L 323.815807 259.254778 
L 324.730765 265.666728 
L 325.645704 270.58912 
L 326.560644 274.368021 
L 327.505108 277.35054 
L 328.449573 279.620866 
L 329.423545 281.395746 
L 330.427042 282.770352 
L 331.489553 283.85075 
L 332.640622 284.7014 
L 333.585087 285.216283 
L 334.529533 237.186427 
L 334.559058 237.424735 
L 335.503523 200.807693 
L 335.53303 201.354876 
L 335.562537 200.422677 
L 336.152826 181.659762 
L 336.182351 182.369531 
L 336.211858 181.598535 
L 336.802146 165.787129 
L 336.831671 166.631642 
L 336.890686 165.178858 
L 337.451467 152.629482 
L 337.480974 153.585731 
L 337.540006 152.353591 
L 338.071262 142.336947 
L 338.130294 142.771244 
L 338.425438 136.989813 
L 338.454964 138.078896 
L 338.513978 137.108944 
L 338.89768 131.844431 
L 339.074759 128.757929 
L 339.163299 129.084902 
L 339.39941 125.18614 
L 339.428935 126.3754 
L 339.63554 123.28085 
L 339.724079 121.934147 
L 339.753587 123.150999 
L 339.930684 120.673917 
L 340.048731 118.973332 
L 340.078256 120.215384 
L 340.13727 119.547485 
L 340.3734 116.277595 
L 340.402907 117.542392 
L 340.46194 116.919672 
L 340.698051 113.823103 
L 340.727558 115.10878 
L 340.816116 114.148896 
L 341.022703 111.588043 
L 341.052228 112.892768 
L 341.140767 111.988565 
L 341.347372 109.553337 
L 341.376879 110.875338 
L 341.465419 110.022218 
L 341.672023 107.700933 
L 341.701548 109.038656 
L 341.790088 108.23202 
L 341.996692 106.014454 
L 342.0262 107.366502 
L 342.114739 106.602093 
L 342.321344 104.478925 
L 342.350851 105.844023 
L 342.439408 105.117988 
L 342.645995 103.08089 
L 342.67552 104.457858 
L 342.76406 103.766872 
L 342.970664 101.808045 
L 343.000171 103.195826 
L 343.088711 102.536783 
L 343.295315 100.649081 
L 343.324841 102.046711 
L 343.41338 101.41669 
L 343.619985 99.59399 
L 343.649492 101.00057 
L 343.738031 100.396929 
L 343.944636 98.633329 
L 343.974143 100.048019 
L 344.062701 99.468427 
L 344.269287 97.758676 
L 344.298812 99.180822 
L 344.387352 98.623137 
L 344.593956 96.962293 
L 344.623464 98.391183 
L 344.712003 97.853477 
L 344.918608 96.237284 
L 344.948133 97.672357 
L 345.036673 97.152797 
L 345.243277 95.577153 
L 345.272784 97.017819 
L 345.361324 96.514759 
L 345.567928 94.976123 
L 345.597435 96.421915 
L 345.685993 95.933925 
L 345.89258 94.428971 
L 345.922105 95.879425 
L 346.010644 95.405137 
L 346.217249 93.930789 
L 346.246756 95.385438 
L 346.335296 94.92361 
L 346.5419 93.477134 
L 346.571425 94.935666 
L 346.659965 94.485243 
L 346.866569 93.064183 
L 346.896077 94.526134 
L 346.984616 94.086088 
L 347.191221 92.688085 
L 347.220728 94.153329 
L 347.309285 93.722636 
L 347.515872 92.34573 
L 347.545397 93.813833 
L 347.633937 93.391747 
L 347.840541 92.033982 
L 347.870048 93.504726 
L 347.958588 93.090408 
L 348.165192 91.75023 
L 348.194718 93.223367 
L 348.283257 92.816165 
L 348.489862 91.491833 
L 348.519369 92.967176 
L 348.607908 92.566468 
L 348.814513 91.256585 
L 348.84402 92.733947 
L 348.932578 92.339081 
L 349.139164 91.042435 
L 349.168689 92.521599 
L 349.257229 92.13214 
L 349.463833 90.847581 
L 350.791982 152.036188 
L 351.706921 183.353512 
L 352.621878 207.39604 
L 353.536818 225.853887 
L 354.451757 240.02418 
L 355.366715 250.902846 
L 356.281654 259.254778 
L 357.196611 265.666728 
L 358.111551 270.58912 
L 359.02649 274.368021 
L 359.970955 277.35054 
L 360.915419 279.620866 
L 361.889391 281.395746 
L 362.892888 282.770352 
L 363.9554 283.85075 
L 365.106469 284.7014 
L 366.050933 285.216283 
L 366.99538 237.186427 
L 367.024905 237.424735 
L 367.96937 200.807693 
L 367.998877 201.354876 
L 368.028384 200.422677 
L 368.618672 181.659762 
L 368.648197 182.369531 
L 368.677705 181.598535 
L 369.267993 165.787129 
L 369.297518 166.631642 
L 369.356532 165.178858 
L 369.917313 152.629482 
L 369.94682 153.585731 
L 370.005853 152.353591 
L 370.537109 142.336947 
L 370.596141 142.771244 
L 370.891285 136.989813 
L 370.92081 138.078896 
L 370.979825 137.108944 
L 371.363526 131.844431 
L 371.540606 128.757929 
L 371.629145 129.084902 
L 371.865257 125.18614 
L 371.894782 126.3754 
L 372.101387 123.28085 
L 372.189926 121.934147 
L 372.219433 123.150999 
L 372.396531 120.673917 
L 372.514577 118.973332 
L 372.544103 120.215384 
L 372.603117 119.547485 
L 372.839247 116.277595 
L 372.868754 117.542392 
L 372.927786 116.919672 
L 373.163898 113.823103 
L 373.193405 115.10878 
L 373.281963 114.148896 
L 373.488549 111.588043 
L 373.518074 112.892768 
L 373.606614 111.988565 
L 373.813218 109.553337 
L 373.842726 110.875338 
L 373.931265 110.022218 
L 374.13787 107.700933 
L 374.167395 109.038656 
L 374.255935 108.23202 
L 374.462539 106.014454 
L 374.492046 107.366502 
L 374.580586 106.602093 
L 374.78719 104.478925 
L 374.816697 105.844023 
L 374.905255 105.117988 
L 375.111842 103.08089 
L 375.141367 104.457858 
L 375.229906 103.766872 
L 375.436511 101.808045 
L 375.466018 103.195826 
L 375.554558 102.536783 
L 375.761162 100.649081 
L 375.790687 102.046711 
L 375.879227 101.41669 
L 376.085831 99.59399 
L 376.115339 101.00057 
L 376.203896 100.396929 
L 376.410483 98.633329 
L 376.43999 100.048019 
L 376.528547 99.468427 
L 376.735134 97.758676 
L 376.764641 99.180822 
L 376.853199 98.623137 
L 377.059785 96.962293 
L 377.089328 98.391183 
L 377.17785 97.673103 
L 377.384472 96.067319 
L 377.41398 97.687303 
L 377.502501 97.167339 
L 377.709124 95.590887 
L 377.738631 97.031429 
L 377.827188 96.528058 
L 378.033775 94.988614 
L 378.063282 96.434251 
L 378.15184 95.945981 
L 378.358426 94.44025 
L 378.387933 95.890548 
L 378.476491 95.415982 
L 378.683077 93.941012 
L 378.712621 95.395505 
L 378.801142 94.753055 
L 379.007765 93.316521 
L 379.037272 94.959778 
L 379.125794 94.508733 
L 379.332416 93.086307 
L 379.361923 94.548133 
L 379.450481 94.107466 
L 379.657067 92.708251 
L 379.686574 94.173308 
L 379.775132 93.742118 
L 379.981719 92.364125 
L 380.011226 93.832072 
L 380.099783 93.40949 
L 380.30637 92.05073 
L 380.335913 93.52135 
L 380.424435 92.926254 
L 380.631057 91.595459 
L 380.660564 93.253382 
L 380.749086 92.845466 
L 380.955708 91.519425 
L 380.985216 92.99455 
L 381.073773 92.593128 
L 381.28036 91.281785 
L 381.309867 92.758929 
L 381.398424 92.363442 
L 381.605011 91.065491 
L 381.634518 92.544469 
L 381.723076 92.154418 
L 381.929662 90.868554 
L 383.25781 151.923395 
L 384.172786 183.26682 
L 385.087725 207.329546 
L 386.002665 225.80282 
L 386.917604 239.984982 
L 387.832543 250.872784 
L 388.747519 259.23166 
L 389.662458 265.649032 
L 390.577397 270.575603 
L 391.492337 274.357658 
L 392.436819 277.342647 
L 393.381266 279.614823 
L 394.355256 281.391193 
L 395.358717 282.766965 
L 396.421264 283.848233 
L 397.572297 284.699614 
L 398.487273 285.200841 
L 398.487273 285.200841 
" clip-path="url(#p040bf636a4)" style="fill: none; stroke-dasharray: 5.55,2.4; stroke-dashoffset: 0; stroke: #ff0000; stroke-width: 1.5"/>
   </g>
   <g id="patch_3">
    <path d="M 57.6 307.584 
L 57.6 41.472 
" style="fill: none; stroke: #000000; stroke-width: 0.8; stroke-linejoin: miter; stroke-linecap: square"/>
   </g>
   <g id="patch_4">
    <path d="M 414.72 307.584 
L 414.72 41.472 
" style="fill: none; stroke: #000000; stroke-width: 0.8; stroke-linejoin: miter; stroke-linecap: square"/>
   </g>
   <g id="patch_5">
    <path d="M 57.6 307.584 
L 414.72 307.584 
" style="fill: none; stroke: #000000; stroke-width: 0.8; stroke-linejoin: miter; stroke-linecap: square"/>
   </g>
   <g id="patch_6">
    <path d="M 57.6 41.472 
L 414.72 41.472 
" style="fill: none; stroke: #000000; stroke-width: 0.8; stroke-linejoin: miter; stroke-linecap: square"/>
   </g>
   <g id="text_17">
    <!-- Optimized vs Observed -->
    <g transform="translate(166.088437 35.472) scale(0.12 -0.12)">
     <defs>
      <path id="DejaVuSans-4f" d="M 2522 4238 
Q 1834 4238 1429 3725 
Q 1025 3213 1025 2328 
Q 1025 1447 1429 934 
Q 1834 422 2522 422 
Q 3209 422 3611 934 
Q 4013 1447 4013 2328 
Q 4013 3213 3611 3725 
Q 3209 4238 2522 4238 
z
M 2522 4750 
Q 3503 4750 4090 4092 
Q 4678 3434 4678 2328 
Q 4678 1225 4090 567 
Q 3503 -91 2522 -91 
Q 1538 -91 948 565 
Q 359 1222 359 2328 
Q 359 3434 948 4092 
Q 1538 4750 2522 4750 
z
" transform="scale(0.015625)"/>
      <path id="DejaVuSans-70" d="M 1159 525 
L 1159 -1331 
L 581 -1331 
L 581 3500 
L 1159 3500 
L 1159 2969 
Q 1341 3281 1617 3432 
Q 1894 3584 2278 3584 
Q 2916 3584 3314 3078 
Q 3713 2572 3713 1747 
Q 3713 922 3314 415 
Q 2916 -91 2278 -91 
Q 1894 -91 1617 61 
Q 1341 213 1159 525 
z
M 3116 1747 
Q 3116 2381 2855 2742 
Q 2594 3103 2138 3103 
Q 1681 3103 1420 2742 
Q 1159 2381 1159 1747 
Q 1159 1113 1420 752 
Q 1681 391 2138 391 
Q 2594 391 2855 752 
Q 3116 1113 3116 1747 
z
" transform="scale(0.015625)"/>
      <path id="DejaVuSans-74" d="M 1172 4494 
L 1172 3500 
L 2356 3500 
L 2356 3053 
L 1172 3053 
L 1172 1153 
Q 1172 725 1289 603 
Q 1406 481 1766 481 
L 2356 481 
L 2356 0 
L 1766 0 
Q 1100 0 847 248 
Q 594 497 594 1153 
L 594 3053 
L 172 3053 
L 172 3500 
L 594 3500 
L 594 4494 
L 1172 4494 
z
" transform="scale(0.015625)"/>
      <path id="DejaVuSans-69" d="M 603 3500 
L 1178 3500 
L 1178 0 
L 603 0 
L 603 3500 
z
M 603 4863 
L 1178 4863 
L 1178 4134 
L 603 4134 
L 603 4863 
z
" transform="scale(0.015625)"/>
      <path id="DejaVuSans-6d" d="M 3328 2828 
Q 3544 3216 3844 3400 
Q 4144 3584 4550 3584 
Q 5097 3584 5394 3201 
Q 5691 2819 5691 2113 
L 5691 0 
L 5113 0 
L 5113 2094 
Q 5113 2597 4934 2840 
Q 4756 3084 4391 3084 
Q 3944 3084 3684 2787 
Q 3425 2491 3425 1978 
L 3425 0 
L 2847 0 
L 2847 2094 
Q 2847 2600 2669 2842 
Q 2491 3084 2119 3084 
Q 1678 3084 1418 2786 
Q 1159 2488 1159 1978 
L 1159 0 
L 581 0 
L 581 3500 
L 1159 3500 
L 1159 2956 
Q 1356 3278 1631 3431 
Q 1906 3584 2284 3584 
Q 2666 3584 2933 3390 
Q 3200 3197 3328 2828 
z
" transform="scale(0.015625)"/>
      <path id="DejaVuSans-7a" d="M 353 3500 
L 3084 3500 
L 3084 2975 
L 922 459 
L 3084 459 
L 3084 0 
L 275 0 
L 275 525 
L 2438 3041 
L 353 3041 
L 353 3500 
z
" transform="scale(0.015625)"/>
      <path id="DejaVuSans-65" d="M 3597 1894 
L 3597 1613 
L 953 1613 
Q 991 1019 1311 708 
Q 1631 397 2203 397 
Q 2534 397 2845 478 
Q 3156 559 3463 722 
L 3463 178 
Q 3153 47 2828 -22 
Q 2503 -91 2169 -91 
Q 1331 -91 842 396 
Q 353 884 353 1716 
Q 353 2575 817 3079 
Q 1281 3584 2069 3584 
Q 2775 3584 3186 3129 
Q 3597 2675 3597 1894 
z
M 3022 2063 
Q 3016 2534 2758 2815 
Q 2500 3097 2075 3097 
Q 1594 3097 1305 2825 
Q 1016 2553 972 2059 
L 3022 2063 
z
" transform="scale(0.015625)"/>
      <path id="DejaVuSans-64" d="M 2906 2969 
L 2906 4863 
L 3481 4863 
L 3481 0 
L 2906 0 
L 2906 525 
Q 2725 213 2448 61 
Q 2172 -91 1784 -91 
Q 1150 -91 751 415 
Q 353 922 353 1747 
Q 353 2572 751 3078 
Q 1150 3584 1784 3584 
Q 2172 3584 2448 3432 
Q 2725 3281 2906 2969 
z
M 947 1747 
Q 947 1113 1208 752 
Q 1469 391 1925 391 
Q 2381 391 2643 752 
Q 2906 1113 2906 1747 
Q 2906 2381 2643 2742 
Q 2381 3103 1925 3103 
Q 1469 3103 1208 2742 
Q 947 2381 947 1747 
z
" transform="scale(0.015625)"/>
      <path id="DejaVuSans-20" transform="scale(0.015625)"/>
      <path id="DejaVuSans-76" d="M 191 3500 
L 800 3500 
L 1894 563 
L 2988 3500 
L 3597 3500 
L 2284 0 
L 1503 0 
L 191 3500 
z
" transform="scale(0.015625)"/>
      <path id="DejaVuSans-73" d="M 2834 3397 
L 2834 2853 
Q 2591 2978 2328 3040 
Q 2066 3103 1784 3103 
Q 1356 3103 1142 2972 
Q 928 2841 928 2578 
Q 928 2378 1081 2264 
Q 1234 2150 1697 2047 
L 1894 2003 
Q 2506 1872 2764 1633 
Q 3022 1394 3022 966 
Q 3022 478 2636 193 
Q 2250 -91 1575 -91 
Q 1294 -91 989 -36 
Q 684 19 347 128 
L 347 722 
Q 666 556 975 473 
Q 1284 391 1588 391 
Q 1994 391 2212 530 
Q 2431 669 2431 922 
Q 2431 1156 2273 1281 
Q 2116 1406 1581 1522 
L 1381 1569 
Q 847 1681 609 1914 
Q 372 2147 372 2553 
Q 372 3047 722 3315 
Q 1072 3584 1716 3584 
Q 2034 3584 2315 3537 
Q 2597 3491 2834 3397 
z
" transform="scale(0.015625)"/>
      <path id="DejaVuSans-62" d="M 3116 1747 
Q 3116 2381 2855 2742 
Q 2594 3103 2138 3103 
Q 1681 3103 1420 2742 
Q 1159 2381 1159 1747 
Q 1159 1113 1420 752 
Q 1681 391 2138 391 
Q 2594 391 2855 752 
Q 3116 1113 3116 1747 
z
M 1159 2969 
Q 1341 3281 1617 3432 
Q 1894 3584 2278 3584 
Q 2916 3584 3314 3078 
Q 3713 2572 3713 1747 
Q 3713 922 3314 415 
Q 2916 -91 2278 -91 
Q 1894 -91 1617 61 
Q 1341 213 1159 525 
L 1159 0 
L 581 0 
L 581 4863 
L 1159 4863 
L 1159 2969 
z
" transform="scale(0.015625)"/>
      <path id="DejaVuSans-72" d="M 2631 2963 
Q 2534 3019 2420 3045 
Q 2306 3072 2169 3072 
Q 1681 3072 1420 2755 
Q 1159 2438 1159 1844 
L 1159 0 
L 581 0 
L 581 3500 
L 1159 3500 
L 1159 2956 
Q 1341 3275 1631 3429 
Q 1922 3584 2338 3584 
Q 2397 3584 2469 3576 
Q 2541 3569 2628 3553 
L 2631 2963 
z
" transform="scale(0.015625)"/>
     </defs>
     <use xlink:href="#DejaVuSans-4f"/>
     <use xlink:href="#DejaVuSans-70" x="78.710938"/>
     <use xlink:href="#DejaVuSans-74" x="142.1875"/>
     <use xlink:href="#DejaVuSans-69" x="181.396484"/>
     <use xlink:href="#DejaVuSans-6d" x="209.179688"/>
     <use xlink:href="#DejaVuSans-69" x="306.591797"/>
     <use xlink:href="#DejaVuSans-7a" x="334.375"/>
     <use xlink:href="#DejaVuSans-65" x="386.865234"/>
     <use xlink:href="#DejaVuSans-64" x="448.388672"/>
     <use xlink:href="#DejaVuSans-20" x="511.865234"/>
     <use xlink:href="#DejaVuSans-76" x="543.652344"/>
     <use xlink:href="#DejaVuSans-73" x="602.832031"/>
     <use xlink:href="#DejaVuSans-20" x="654.931641"/>
     <use xlink:href="#DejaVuSans-4f" x="686.71875"/>
     <use xlink:href="#DejaVuSans-62" x="765.429688"/>
     <use xlink:href="#DejaVuSans-73" x="828.90625"/>
     <use xlink:href="#DejaVuSans-65" x="881.005859"/>
     <use xlink:href="#DejaVuSans-72" x="942.529297"/>
     <use xlink:href="#DejaVuSans-76" x="983.642578"/>
     <use xlink:href="#DejaVuSans-65" x="1042.822266"/>
     <use xlink:href="#DejaVuSans-64" x="1104.345703"/>
    </g>
   </g>
   <g id="legend_1">
    <g id="patch_7">
     <path d="M 324.5325 78.82825 
L 407.72 78.82825 
Q 409.72 78.82825 409.72 76.82825 
L 409.72 48.472 
Q 409.72 46.472 407.72 46.472 
L 324.5325 46.472 
Q 322.5325 46.472 322.5325 48.472 
L 322.5325 76.82825 
Q 322.5325 78.82825 324.5325 78.82825 
z
" style="fill: #ffffff; opacity: 0.8; stroke: #cccccc; stroke-linejoin: miter"/>
    </g>
    <g id="line2d_17">
     <path d="M 326.5325 54.570437 
L 336.5325 54.570437 
L 346.5325 54.570437 
" style="fill: none; stroke: #000000; stroke-width: 2; stroke-linecap: square"/>
    </g>
    <g id="text_18">
     <!-- Observed -->
     <g transform="translate(354.5325 58.070437) scale(0.1 -0.1)">
      <use xlink:href="#DejaVuSans-4f"/>
      <use xlink:href="#DejaVuSans-62" x="78.710938"/>
      <use xlink:href="#DejaVuSans-73" x="142.1875"/>
      <use xlink:href="#DejaVuSans-65" x="194.287109"/>
      <use xlink:href="#DejaVuSans-72" x="255.810547"/>
      <use xlink:href="#DejaVuSans-76" x="296.923828"/>
      <use xlink:href="#DejaVuSans-65" x="356.103516"/>
      <use xlink:href="#DejaVuSans-64" x="417.626953"/>
     </g>
    </g>
    <g id="line2d_18">
     <path d="M 326.5325 69.248562 
L 336.5325 69.248562 
L 346.5325 69.248562 
" style="fill: none; stroke-dasharray: 5.55,2.4; stroke-dashoffset: 0; stroke: #ff0000; stroke-width: 1.5"/>
    </g>
    <g id="text_19">
     <!-- Optimized -->
     <g transform="translate(354.5325 72.748562) scale(0.1 -0.1)">
      <use xlink:href="#DejaVuSans-4f"/>
      <use xlink:href="#DejaVuSans-70" x="78.710938"/>
      <use xlink:href="#DejaVuSans-74" x="142.1875"/>
      <use xlink:href="#DejaVuSans-69" x="181.396484"/>
      <use xlink:href="#DejaVuSans-6d" x="209.179688"/>
      <use xlink:href="#DejaVuSans-69" x="306.591797"/>
      <use xlink:href="#DejaVuSans-7a" x="334.375"/>
      <use xlink:href="#DejaVuSans-65" x="386.865234"/>
      <use xlink:href="#DejaVuSans-64" x="448.388672"/>
     </g>
    </g>
   </g>
  </g>
 </g>
 <defs>
  <clipPath id="p040bf636a4">
   <rect x="57.6" y="41.472" width="357.12" height="266.112"/>
  </clipPath>
 </defs>
</svg>
