<?xml version="1.0" encoding="utf-8" standalone="no"?>
<!DOCTYPE svg PUBLIC "-//W3C//DTD SVG 1.1//EN"
  "http://www.w3.org/Graphics/SVG/1.1/DTD/svg11.dtd">
<svg xmlns:xlink="http://www.w3.org/1999/xlink" width="460.8pt" height="345.6pt" viewBox="0 0 460.8 345.6" xmlns="http://www.w3.org/2000/svg" version="1.1">
 <metadata>
  <rdf:RDF xmlns:dc="http://purl.org/dc/elements/1.1/" xmlns:cc="http://creativecommons.org/ns#" xmlns:rdf="http://www.w3.org/1999/02/22-rdf-syntax-ns#">
   <cc:Work>
    <dc:type rdf:resource="http://purl.org/dc/dcmitype/StillImage"/>
    <dc:date>2025-01-03T16:32:03.419974</dc:date>
    <dc:format>image/svg+xml</dc:format>
    <dc:creator>
     <cc:Agent>
      <dc:title>Matplotlib v3.6.2, https://matplotlib.org/</dc:title>
     </cc:Agent>
    </dc:creator>
   </cc:Work>
  </rdf:RDF>
 </metadata>
 <defs>
  <style type="text/css">*{stroke-linejoin: round; stroke-linecap: butt}</style>
 </defs>
 <g id="figure_1">
  <g id="patch_1">
   <path d="M 0 345.6 
L 460.8 345.6 
L 460.8 0 
L 0 0 
z
" style="fill: #ffffff"/>
  </g>
  <g id="axes_1">
   <g id="patch_2">
    <path d="M 57.6 307.584 
L 414.72 307.584 
L 414.72 41.472 
L 57.6 41.472 
z
" style="fill: #ffffff"/>
   </g>
   <g id="matplotlib.axis_1">
    <g id="xtick_1">
     <g id="line2d_1">
      <defs>
       <path id="m5d5c8a7894" d="M 0 0 
L 0 3.5 
" style="stroke: #000000; stroke-width: 0.8"/>
      </defs>
      <g>
       <use xlink:href="#m5d5c8a7894" x="74.088382" y="307.584" style="stroke: #000000; stroke-width: 0.8"/>
      </g>
     </g>
     <g id="text_1">
      <!-- 0 -->
      <g transform="translate(70.907132 322.182437) scale(0.1 -0.1)">
       <defs>
        <path id="DejaVuSans-30" d="M 2034 4250 
Q 1547 4250 1301 3770 
Q 1056 3291 1056 2328 
Q 1056 1369 1301 889 
Q 1547 409 2034 409 
Q 2525 409 2770 889 
Q 3016 1369 3016 2328 
Q 3016 3291 2770 3770 
Q 2525 4250 2034 4250 
z
M 2034 4750 
Q 2819 4750 3233 4129 
Q 3647 3509 3647 2328 
Q 3647 1150 3233 529 
Q 2819 -91 2034 -91 
Q 1250 -91 836 529 
Q 422 1150 422 2328 
Q 422 3509 836 4129 
Q 1250 4750 2034 4750 
z
" transform="scale(0.015625)"/>
       </defs>
       <use xlink:href="#DejaVuSans-30"/>
      </g>
     </g>
    </g>
    <g id="xtick_2">
     <g id="line2d_2">
      <g>
       <use xlink:href="#m5d5c8a7894" x="133.069999" y="307.584" style="stroke: #000000; stroke-width: 0.8"/>
      </g>
     </g>
     <g id="text_2">
      <!-- 20 -->
      <g transform="translate(126.707499 322.182437) scale(0.1 -0.1)">
       <defs>
        <path id="DejaVuSans-32" d="M 1228 531 
L 3431 531 
L 3431 0 
L 469 0 
L 469 531 
Q 828 903 1448 1529 
Q 2069 2156 2228 2338 
Q 2531 2678 2651 2914 
Q 2772 3150 2772 3378 
Q 2772 3750 2511 3984 
Q 2250 4219 1831 4219 
Q 1534 4219 1204 4116 
Q 875 4013 500 3803 
L 500 4441 
Q 881 4594 1212 4672 
Q 1544 4750 1819 4750 
Q 2544 4750 2975 4387 
Q 3406 4025 3406 3419 
Q 3406 3131 3298 2873 
Q 3191 2616 2906 2266 
Q 2828 2175 2409 1742 
Q 1991 1309 1228 531 
z
" transform="scale(0.015625)"/>
       </defs>
       <use xlink:href="#DejaVuSans-32"/>
       <use xlink:href="#DejaVuSans-30" x="63.623047"/>
      </g>
     </g>
    </g>
    <g id="xtick_3">
     <g id="line2d_3">
      <g>
       <use xlink:href="#m5d5c8a7894" x="192.051615" y="307.584" style="stroke: #000000; stroke-width: 0.8"/>
      </g>
     </g>
     <g id="text_3">
      <!-- 40 -->
      <g transform="translate(185.689115 322.182437) scale(0.1 -0.1)">
       <defs>
        <path id="DejaVuSans-34" d="M 2419 4116 
L 825 1625 
L 2419 1625 
L 2419 4116 
z
M 2253 4666 
L 3047 4666 
L 3047 1625 
L 3713 1625 
L 3713 1100 
L 3047 1100 
L 3047 0 
L 2419 0 
L 2419 1100 
L 313 1100 
L 313 1709 
L 2253 4666 
z
" transform="scale(0.015625)"/>
       </defs>
       <use xlink:href="#DejaVuSans-34"/>
       <use xlink:href="#DejaVuSans-30" x="63.623047"/>
      </g>
     </g>
    </g>
    <g id="xtick_4">
     <g id="line2d_4">
      <g>
       <use xlink:href="#m5d5c8a7894" x="251.033232" y="307.584" style="stroke: #000000; stroke-width: 0.8"/>
      </g>
     </g>
     <g id="text_4">
      <!-- 60 -->
      <g transform="translate(244.670732 322.182437) scale(0.1 -0.1)">
       <defs>
        <path id="DejaVuSans-36" d="M 2113 2584 
Q 1688 2584 1439 2293 
Q 1191 2003 1191 1497 
Q 1191 994 1439 701 
Q 1688 409 2113 409 
Q 2538 409 2786 701 
Q 3034 994 3034 1497 
Q 3034 2003 2786 2293 
Q 2538 2584 2113 2584 
z
M 3366 4563 
L 3366 3988 
Q 3128 4100 2886 4159 
Q 2644 4219 2406 4219 
Q 1781 4219 1451 3797 
Q 1122 3375 1075 2522 
Q 1259 2794 1537 2939 
Q 1816 3084 2150 3084 
Q 2853 3084 3261 2657 
Q 3669 2231 3669 1497 
Q 3669 778 3244 343 
Q 2819 -91 2113 -91 
Q 1303 -91 875 529 
Q 447 1150 447 2328 
Q 447 3434 972 4092 
Q 1497 4750 2381 4750 
Q 2619 4750 2861 4703 
Q 3103 4656 3366 4563 
z
" transform="scale(0.015625)"/>
       </defs>
       <use xlink:href="#DejaVuSans-36"/>
       <use xlink:href="#DejaVuSans-30" x="63.623047"/>
      </g>
     </g>
    </g>
    <g id="xtick_5">
     <g id="line2d_5">
      <g>
       <use xlink:href="#m5d5c8a7894" x="310.014848" y="307.584" style="stroke: #000000; stroke-width: 0.8"/>
      </g>
     </g>
     <g id="text_5">
      <!-- 80 -->
      <g transform="translate(303.652348 322.182437) scale(0.1 -0.1)">
       <defs>
        <path id="DejaVuSans-38" d="M 2034 2216 
Q 1584 2216 1326 1975 
Q 1069 1734 1069 1313 
Q 1069 891 1326 650 
Q 1584 409 2034 409 
Q 2484 409 2743 651 
Q 3003 894 3003 1313 
Q 3003 1734 2745 1975 
Q 2488 2216 2034 2216 
z
M 1403 2484 
Q 997 2584 770 2862 
Q 544 3141 544 3541 
Q 544 4100 942 4425 
Q 1341 4750 2034 4750 
Q 2731 4750 3128 4425 
Q 3525 4100 3525 3541 
Q 3525 3141 3298 2862 
Q 3072 2584 2669 2484 
Q 3125 2378 3379 2068 
Q 3634 1759 3634 1313 
Q 3634 634 3220 271 
Q 2806 -91 2034 -91 
Q 1263 -91 848 271 
Q 434 634 434 1313 
Q 434 1759 690 2068 
Q 947 2378 1403 2484 
z
M 1172 3481 
Q 1172 3119 1398 2916 
Q 1625 2713 2034 2713 
Q 2441 2713 2670 2916 
Q 2900 3119 2900 3481 
Q 2900 3844 2670 4047 
Q 2441 4250 2034 4250 
Q 1625 4250 1398 4047 
Q 1172 3844 1172 3481 
z
" transform="scale(0.015625)"/>
       </defs>
       <use xlink:href="#DejaVuSans-38"/>
       <use xlink:href="#DejaVuSans-30" x="63.623047"/>
      </g>
     </g>
    </g>
    <g id="xtick_6">
     <g id="line2d_6">
      <g>
       <use xlink:href="#m5d5c8a7894" x="368.996465" y="307.584" style="stroke: #000000; stroke-width: 0.8"/>
      </g>
     </g>
     <g id="text_6">
      <!-- 100 -->
      <g transform="translate(359.452715 322.182437) scale(0.1 -0.1)">
       <defs>
        <path id="DejaVuSans-31" d="M 794 531 
L 1825 531 
L 1825 4091 
L 703 3866 
L 703 4441 
L 1819 4666 
L 2450 4666 
L 2450 531 
L 3481 531 
L 3481 0 
L 794 0 
L 794 531 
z
" transform="scale(0.015625)"/>
       </defs>
       <use xlink:href="#DejaVuSans-31"/>
       <use xlink:href="#DejaVuSans-30" x="63.623047"/>
       <use xlink:href="#DejaVuSans-30" x="127.246094"/>
      </g>
     </g>
    </g>
   </g>
   <g id="matplotlib.axis_2">
    <g id="ytick_1">
     <g id="line2d_7">
      <defs>
       <path id="m5a1ec75d5f" d="M 0 0 
L -3.5 0 
" style="stroke: #000000; stroke-width: 0.8"/>
      </defs>
      <g>
       <use xlink:href="#m5a1ec75d5f" x="57.6" y="303.063071" style="stroke: #000000; stroke-width: 0.8"/>
      </g>
     </g>
     <g id="text_7">
      <!-- 2.0 -->
      <g transform="translate(34.696875 306.86229) scale(0.1 -0.1)">
       <defs>
        <path id="DejaVuSans-2e" d="M 684 794 
L 1344 794 
L 1344 0 
L 684 0 
L 684 794 
z
" transform="scale(0.015625)"/>
       </defs>
       <use xlink:href="#DejaVuSans-32"/>
       <use xlink:href="#DejaVuSans-2e" x="63.623047"/>
       <use xlink:href="#DejaVuSans-30" x="95.410156"/>
      </g>
     </g>
    </g>
    <g id="ytick_2">
     <g id="line2d_8">
      <g>
       <use xlink:href="#m5a1ec75d5f" x="57.6" y="269.86007" style="stroke: #000000; stroke-width: 0.8"/>
      </g>
     </g>
     <g id="text_8">
      <!-- 2.5 -->
      <g transform="translate(34.696875 273.659289) scale(0.1 -0.1)">
       <defs>
        <path id="DejaVuSans-35" d="M 691 4666 
L 3169 4666 
L 3169 4134 
L 1269 4134 
L 1269 2991 
Q 1406 3038 1543 3061 
Q 1681 3084 1819 3084 
Q 2600 3084 3056 2656 
Q 3513 2228 3513 1497 
Q 3513 744 3044 326 
Q 2575 -91 1722 -91 
Q 1428 -91 1123 -41 
Q 819 9 494 109 
L 494 744 
Q 775 591 1075 516 
Q 1375 441 1709 441 
Q 2250 441 2565 725 
Q 2881 1009 2881 1497 
Q 2881 1984 2565 2268 
Q 2250 2553 1709 2553 
Q 1456 2553 1204 2497 
Q 953 2441 691 2322 
L 691 4666 
z
" transform="scale(0.015625)"/>
       </defs>
       <use xlink:href="#DejaVuSans-32"/>
       <use xlink:href="#DejaVuSans-2e" x="63.623047"/>
       <use xlink:href="#DejaVuSans-35" x="95.410156"/>
      </g>
     </g>
    </g>
    <g id="ytick_3">
     <g id="line2d_9">
      <g>
       <use xlink:href="#m5a1ec75d5f" x="57.6" y="236.65707" style="stroke: #000000; stroke-width: 0.8"/>
      </g>
     </g>
     <g id="text_9">
      <!-- 3.0 -->
      <g transform="translate(34.696875 240.456288) scale(0.1 -0.1)">
       <defs>
        <path id="DejaVuSans-33" d="M 2597 2516 
Q 3050 2419 3304 2112 
Q 3559 1806 3559 1356 
Q 3559 666 3084 287 
Q 2609 -91 1734 -91 
Q 1441 -91 1130 -33 
Q 819 25 488 141 
L 488 750 
Q 750 597 1062 519 
Q 1375 441 1716 441 
Q 2309 441 2620 675 
Q 2931 909 2931 1356 
Q 2931 1769 2642 2001 
Q 2353 2234 1838 2234 
L 1294 2234 
L 1294 2753 
L 1863 2753 
Q 2328 2753 2575 2939 
Q 2822 3125 2822 3475 
Q 2822 3834 2567 4026 
Q 2313 4219 1838 4219 
Q 1578 4219 1281 4162 
Q 984 4106 628 3988 
L 628 4550 
Q 988 4650 1302 4700 
Q 1616 4750 1894 4750 
Q 2613 4750 3031 4423 
Q 3450 4097 3450 3541 
Q 3450 3153 3228 2886 
Q 3006 2619 2597 2516 
z
" transform="scale(0.015625)"/>
       </defs>
       <use xlink:href="#DejaVuSans-33"/>
       <use xlink:href="#DejaVuSans-2e" x="63.623047"/>
       <use xlink:href="#DejaVuSans-30" x="95.410156"/>
      </g>
     </g>
    </g>
    <g id="ytick_4">
     <g id="line2d_10">
      <g>
       <use xlink:href="#m5a1ec75d5f" x="57.6" y="203.454069" style="stroke: #000000; stroke-width: 0.8"/>
      </g>
     </g>
     <g id="text_10">
      <!-- 3.5 -->
      <g transform="translate(34.696875 207.253288) scale(0.1 -0.1)">
       <use xlink:href="#DejaVuSans-33"/>
       <use xlink:href="#DejaVuSans-2e" x="63.623047"/>
       <use xlink:href="#DejaVuSans-35" x="95.410156"/>
      </g>
     </g>
    </g>
    <g id="ytick_5">
     <g id="line2d_11">
      <g>
       <use xlink:href="#m5a1ec75d5f" x="57.6" y="170.251068" style="stroke: #000000; stroke-width: 0.8"/>
      </g>
     </g>
     <g id="text_11">
      <!-- 4.0 -->
      <g transform="translate(34.696875 174.050287) scale(0.1 -0.1)">
       <use xlink:href="#DejaVuSans-34"/>
       <use xlink:href="#DejaVuSans-2e" x="63.623047"/>
       <use xlink:href="#DejaVuSans-30" x="95.410156"/>
      </g>
     </g>
    </g>
    <g id="ytick_6">
     <g id="line2d_12">
      <g>
       <use xlink:href="#m5a1ec75d5f" x="57.6" y="137.048068" style="stroke: #000000; stroke-width: 0.8"/>
      </g>
     </g>
     <g id="text_12">
      <!-- 4.5 -->
      <g transform="translate(34.696875 140.847287) scale(0.1 -0.1)">
       <use xlink:href="#DejaVuSans-34"/>
       <use xlink:href="#DejaVuSans-2e" x="63.623047"/>
       <use xlink:href="#DejaVuSans-35" x="95.410156"/>
      </g>
     </g>
    </g>
    <g id="ytick_7">
     <g id="line2d_13">
      <g>
       <use xlink:href="#m5a1ec75d5f" x="57.6" y="103.845067" style="stroke: #000000; stroke-width: 0.8"/>
      </g>
     </g>
     <g id="text_13">
      <!-- 5.0 -->
      <g transform="translate(34.696875 107.644286) scale(0.1 -0.1)">
       <use xlink:href="#DejaVuSans-35"/>
       <use xlink:href="#DejaVuSans-2e" x="63.623047"/>
       <use xlink:href="#DejaVuSans-30" x="95.410156"/>
      </g>
     </g>
    </g>
    <g id="ytick_8">
     <g id="line2d_14">
      <g>
       <use xlink:href="#m5a1ec75d5f" x="57.6" y="70.642067" style="stroke: #000000; stroke-width: 0.8"/>
      </g>
     </g>
     <g id="text_14">
      <!-- 5.5 -->
      <g transform="translate(34.696875 74.441285) scale(0.1 -0.1)">
       <use xlink:href="#DejaVuSans-35"/>
       <use xlink:href="#DejaVuSans-2e" x="63.623047"/>
       <use xlink:href="#DejaVuSans-35" x="95.410156"/>
      </g>
     </g>
    </g>
   </g>
   <g id="line2d_15">
    <defs>
     <path id="m3489c09c08" d="M 0 3 
C 0.795609 3 1.55874 2.683901 2.12132 2.12132 
C 2.683901 1.55874 3 0.795609 3 0 
C 3 -0.795609 2.683901 -1.55874 2.12132 -2.12132 
C 1.55874 -2.683901 0.795609 -3 0 -3 
C -0.795609 -3 -1.55874 -2.683901 -2.12132 -2.12132 
C -2.683901 -1.55874 -3 -0.795609 -3 0 
C -3 0.795609 -2.683901 1.55874 -2.12132 2.12132 
C -1.55874 2.683901 -0.795609 3 0 3 
z
" style="stroke: #1f77b4"/>
    </defs>
    <g clip-path="url(#p584f5dede8)">
     <use xlink:href="#m3489c09c08" x="73.832727" y="295.488" style="fill: #1f77b4; stroke: #1f77b4"/>
     <use xlink:href="#m3489c09c08" x="77.900392" y="261.920157" style="fill: #1f77b4; stroke: #1f77b4"/>
     <use xlink:href="#m3489c09c08" x="81.56129" y="245.136235" style="fill: #1f77b4; stroke: #1f77b4"/>
     <use xlink:href="#m3489c09c08" x="84.815421" y="232.78943" style="fill: #1f77b4; stroke: #1f77b4"/>
     <use xlink:href="#m3489c09c08" x="87.662785" y="222.371821" style="fill: #1f77b4; stroke: #1f77b4"/>
     <use xlink:href="#m3489c09c08" x="91.1203" y="214.462164" style="fill: #1f77b4; stroke: #1f77b4"/>
     <use xlink:href="#m3489c09c08" x="94.374432" y="205.973736" style="fill: #1f77b4; stroke: #1f77b4"/>
     <use xlink:href="#m3489c09c08" x="96.815031" y="200.379096" style="fill: #1f77b4; stroke: #1f77b4"/>
     <use xlink:href="#m3489c09c08" x="101.289461" y="193.24111" style="fill: #1f77b4; stroke: #1f77b4"/>
     <use xlink:href="#m3489c09c08" x="103.526676" y="186.296043" style="fill: #1f77b4; stroke: #1f77b4"/>
     <use xlink:href="#m3489c09c08" x="106.882498" y="180.315551" style="fill: #1f77b4; stroke: #1f77b4"/>
     <use xlink:href="#m3489c09c08" x="109.628173" y="177.228861" style="fill: #1f77b4; stroke: #1f77b4"/>
     <use xlink:href="#m3489c09c08" x="113.899221" y="169.897942" style="fill: #1f77b4; stroke: #1f77b4"/>
     <use xlink:href="#m3489c09c08" x="116.136434" y="165.46081" style="fill: #1f77b4; stroke: #1f77b4"/>
     <use xlink:href="#m3489c09c08" x="119.187183" y="159.287431" style="fill: #1f77b4; stroke: #1f77b4"/>
     <use xlink:href="#m3489c09c08" x="122.441314" y="155.814874" style="fill: #1f77b4; stroke: #1f77b4"/>
     <use xlink:href="#m3489c09c08" x="126.102213" y="152.535282" style="fill: #1f77b4; stroke: #1f77b4"/>
     <use xlink:href="#m3489c09c08" x="129.966491" y="148.676889" style="fill: #1f77b4; stroke: #1f77b4"/>
     <use xlink:href="#m3489c09c08" x="132.813856" y="146.361871" style="fill: #1f77b4; stroke: #1f77b4"/>
     <use xlink:href="#m3489c09c08" x="136.271374" y="139.802625" style="fill: #1f77b4; stroke: #1f77b4"/>
     <use xlink:href="#m3489c09c08" x="138.915354" y="135.751361" style="fill: #1f77b4; stroke: #1f77b4"/>
     <use xlink:href="#m3489c09c08" x="141.966105" y="134.786754" style="fill: #1f77b4; stroke: #1f77b4"/>
     <use xlink:href="#m3489c09c08" x="146.23715" y="130.349622" style="fill: #1f77b4; stroke: #1f77b4"/>
     <use xlink:href="#m3489c09c08" x="148.881135" y="126.298327" style="fill: #1f77b4; stroke: #1f77b4"/>
     <use xlink:href="#m3489c09c08" x="153.762327" y="122.632867" style="fill: #1f77b4; stroke: #1f77b4"/>
     <use xlink:href="#m3489c09c08" x="155.592779" y="118.774505" style="fill: #1f77b4; stroke: #1f77b4"/>
     <use xlink:href="#m3489c09c08" x="158.236758" y="116.266554" style="fill: #1f77b4; stroke: #1f77b4"/>
     <use xlink:href="#m3489c09c08" x="162.304423" y="112.986931" style="fill: #1f77b4; stroke: #1f77b4"/>
     <use xlink:href="#m3489c09c08" x="164.338255" y="110.479011" style="fill: #1f77b4; stroke: #1f77b4"/>
     <use xlink:href="#m3489c09c08" x="168.40592" y="108.356896" style="fill: #1f77b4; stroke: #1f77b4"/>
     <use xlink:href="#m3489c09c08" x="172.47359" y="104.498535" style="fill: #1f77b4; stroke: #1f77b4"/>
     <use xlink:href="#m3489c09c08" x="173.89727" y="99.28973" style="fill: #1f77b4; stroke: #1f77b4"/>
     <use xlink:href="#m3489c09c08" x="177.151402" y="99.28973" style="fill: #1f77b4; stroke: #1f77b4"/>
     <use xlink:href="#m3489c09c08" x="180.202148" y="95.045501" style="fill: #1f77b4; stroke: #1f77b4"/>
     <use xlink:href="#m3489c09c08" x="183.252893" y="92.344647" style="fill: #1f77b4; stroke: #1f77b4"/>
     <use xlink:href="#m3489c09c08" x="187.320558" y="89.836696" style="fill: #1f77b4; stroke: #1f77b4"/>
     <use xlink:href="#m3489c09c08" x="187.320558" y="89.836696" style="fill: #1f77b4; stroke: #1f77b4"/>
     <use xlink:href="#m3489c09c08" x="191.388223" y="85.785401" style="fill: #1f77b4; stroke: #1f77b4"/>
     <use xlink:href="#m3489c09c08" x="193.422061" y="83.277481" style="fill: #1f77b4; stroke: #1f77b4"/>
     <use xlink:href="#m3489c09c08" x="196.676192" y="80.576596" style="fill: #1f77b4; stroke: #1f77b4"/>
     <use xlink:href="#m3489c09c08" x="200.133699" y="78.068677" style="fill: #1f77b4; stroke: #1f77b4"/>
     <use xlink:href="#m3489c09c08" x="202.777684" y="77.489907" style="fill: #1f77b4; stroke: #1f77b4"/>
     <use xlink:href="#m3489c09c08" x="206.235202" y="73.824447" style="fill: #1f77b4; stroke: #1f77b4"/>
     <use xlink:href="#m3489c09c08" x="210.09948" y="69.966085" style="fill: #1f77b4; stroke: #1f77b4"/>
     <use xlink:href="#m3489c09c08" x="213.556998" y="68.615643" style="fill: #1f77b4; stroke: #1f77b4"/>
     <use xlink:href="#m3489c09c08" x="217.217891" y="65.91479" style="fill: #1f77b4; stroke: #1f77b4"/>
     <use xlink:href="#m3489c09c08" x="219.861876" y="64.371445" style="fill: #1f77b4; stroke: #1f77b4"/>
     <use xlink:href="#m3489c09c08" x="223.319382" y="63.213936" style="fill: #1f77b4; stroke: #1f77b4"/>
     <use xlink:href="#m3489c09c08" x="226.573514" y="59.934313" style="fill: #1f77b4; stroke: #1f77b4"/>
     <use xlink:href="#m3489c09c08" x="229.827646" y="56.847623" style="fill: #1f77b4; stroke: #1f77b4"/>
     <use xlink:href="#m3489c09c08" x="233.081778" y="54.146738" style="fill: #1f77b4; stroke: #1f77b4"/>
     <use xlink:href="#m3489c09c08" x="233.285164" y="53.568" style="fill: #1f77b4; stroke: #1f77b4"/>
     <use xlink:href="#m3489c09c08" x="236.742681" y="130.928392" style="fill: #1f77b4; stroke: #1f77b4"/>
     <use xlink:href="#m3489c09c08" x="239.386666" y="155.236135" style="fill: #1f77b4; stroke: #1f77b4"/>
     <use xlink:href="#m3489c09c08" x="243.454331" y="173.563402" style="fill: #1f77b4; stroke: #1f77b4"/>
     <use xlink:href="#m3489c09c08" x="245.894919" y="187.64647" style="fill: #1f77b4; stroke: #1f77b4"/>
     <use xlink:href="#m3489c09c08" x="249.555822" y="197.485324" style="fill: #1f77b4; stroke: #1f77b4"/>
     <use xlink:href="#m3489c09c08" x="253.01334" y="206.938342" style="fill: #1f77b4; stroke: #1f77b4"/>
     <use xlink:href="#m3489c09c08" x="256.470847" y="214.076328" style="fill: #1f77b4; stroke: #1f77b4"/>
     <use xlink:href="#m3489c09c08" x="259.724979" y="221.214313" style="fill: #1f77b4; stroke: #1f77b4"/>
     <use xlink:href="#m3489c09c08" x="263.182508" y="227.387708" style="fill: #1f77b4; stroke: #1f77b4"/>
     <use xlink:href="#m3489c09c08" x="265.41972" y="231.631922" style="fill: #1f77b4; stroke: #1f77b4"/>
     <use xlink:href="#m3489c09c08" x="269.894146" y="237.612398" style="fill: #1f77b4; stroke: #1f77b4"/>
     <use xlink:href="#m3489c09c08" x="273.148278" y="240.892022" style="fill: #1f77b4; stroke: #1f77b4"/>
     <use xlink:href="#m3489c09c08" x="275.588865" y="243.399957" style="fill: #1f77b4; stroke: #1f77b4"/>
     <use xlink:href="#m3489c09c08" x="279.249769" y="245.907908" style="fill: #1f77b4; stroke: #1f77b4"/>
     <use xlink:href="#m3489c09c08" x="282.910673" y="248.415843" style="fill: #1f77b4; stroke: #1f77b4"/>
     <use xlink:href="#m3489c09c08" x="284.537739" y="250.923794" style="fill: #1f77b4; stroke: #1f77b4"/>
     <use xlink:href="#m3489c09c08" x="289.012165" y="253.817565" style="fill: #1f77b4; stroke: #1f77b4"/>
     <use xlink:href="#m3489c09c08" x="291.046003" y="256.325516" style="fill: #1f77b4; stroke: #1f77b4"/>
     <use xlink:href="#m3489c09c08" x="293.893362" y="258.254697" style="fill: #1f77b4; stroke: #1f77b4"/>
     <use xlink:href="#m3489c09c08" x="297.350869" y="259.412206" style="fill: #1f77b4; stroke: #1f77b4"/>
     <use xlink:href="#m3489c09c08" x="300.808398" y="260.955567" style="fill: #1f77b4; stroke: #1f77b4"/>
     <use xlink:href="#m3489c09c08" x="303.655758" y="262.498911" style="fill: #1f77b4; stroke: #1f77b4"/>
     <use xlink:href="#m3489c09c08" x="306.706515" y="264.042256" style="fill: #1f77b4; stroke: #1f77b4"/>
     <use xlink:href="#m3489c09c08" x="309.960646" y="266.164371" style="fill: #1f77b4; stroke: #1f77b4"/>
     <use xlink:href="#m3489c09c08" x="313.011381" y="266.936043" style="fill: #1f77b4; stroke: #1f77b4"/>
     <use xlink:href="#m3489c09c08" x="316.265513" y="267.707716" style="fill: #1f77b4; stroke: #1f77b4"/>
     <use xlink:href="#m3489c09c08" x="320.129791" y="270.022733" style="fill: #1f77b4; stroke: #1f77b4"/>
     <use xlink:href="#m3489c09c08" x="322.773776" y="272.337766" style="fill: #1f77b4; stroke: #1f77b4"/>
     <use xlink:href="#m3489c09c08" x="326.027908" y="271.759011" style="fill: #1f77b4; stroke: #1f77b4"/>
     <use xlink:href="#m3489c09c08" x="326.43468" y="271.951929" style="fill: #1f77b4; stroke: #1f77b4"/>
     <use xlink:href="#m3489c09c08" x="330.298959" y="272.337766" style="fill: #1f77b4; stroke: #1f77b4"/>
     <use xlink:href="#m3489c09c08" x="333.55309" y="273.302356" style="fill: #1f77b4; stroke: #1f77b4"/>
     <use xlink:href="#m3489c09c08" x="336.197075" y="273.688192" style="fill: #1f77b4; stroke: #1f77b4"/>
     <use xlink:href="#m3489c09c08" x="339.857957" y="273.495274" style="fill: #1f77b4; stroke: #1f77b4"/>
     <use xlink:href="#m3489c09c08" x="342.705339" y="275.038619" style="fill: #1f77b4; stroke: #1f77b4"/>
     <use xlink:href="#m3489c09c08" x="345.756073" y="276.389061" style="fill: #1f77b4; stroke: #1f77b4"/>
     <use xlink:href="#m3489c09c08" x="349.823749" y="276.774898" style="fill: #1f77b4; stroke: #1f77b4"/>
     <use xlink:href="#m3489c09c08" x="352.467734" y="278.125324" style="fill: #1f77b4; stroke: #1f77b4"/>
     <use xlink:href="#m3489c09c08" x="355.111719" y="277.932406" style="fill: #1f77b4; stroke: #1f77b4"/>
     <use xlink:href="#m3489c09c08" x="356.94216" y="278.125324" style="fill: #1f77b4; stroke: #1f77b4"/>
     <use xlink:href="#m3489c09c08" x="359.789519" y="279.282833" style="fill: #1f77b4; stroke: #1f77b4"/>
     <use xlink:href="#m3489c09c08" x="362.433504" y="279.668669" style="fill: #1f77b4; stroke: #1f77b4"/>
     <use xlink:href="#m3489c09c08" x="365.077489" y="279.475751" style="fill: #1f77b4; stroke: #1f77b4"/>
     <use xlink:href="#m3489c09c08" x="368.941768" y="279.861587" style="fill: #1f77b4; stroke: #1f77b4"/>
     <use xlink:href="#m3489c09c08" x="371.178981" y="281.019096" style="fill: #1f77b4; stroke: #1f77b4"/>
     <use xlink:href="#m3489c09c08" x="374.636487" y="281.019096" style="fill: #1f77b4; stroke: #1f77b4"/>
     <use xlink:href="#m3489c09c08" x="378.907538" y="281.404948" style="fill: #1f77b4; stroke: #1f77b4"/>
     <use xlink:href="#m3489c09c08" x="381.551523" y="281.597866" style="fill: #1f77b4; stroke: #1f77b4"/>
     <use xlink:href="#m3489c09c08" x="383.992133" y="282.755374" style="fill: #1f77b4; stroke: #1f77b4"/>
     <use xlink:href="#m3489c09c08" x="387.653014" y="282.948292" style="fill: #1f77b4; stroke: #1f77b4"/>
     <use xlink:href="#m3489c09c08" x="390.703771" y="283.912883" style="fill: #1f77b4; stroke: #1f77b4"/>
     <use xlink:href="#m3489c09c08" x="394.771425" y="284.298719" style="fill: #1f77b4; stroke: #1f77b4"/>
    </g>
   </g>
   <g id="patch_3">
    <path d="M 57.6 307.584 
L 57.6 41.472 
" style="fill: none; stroke: #000000; stroke-width: 0.8; stroke-linejoin: miter; stroke-linecap: square"/>
   </g>
   <g id="patch_4">
    <path d="M 414.72 307.584 
L 414.72 41.472 
" style="fill: none; stroke: #000000; stroke-width: 0.8; stroke-linejoin: miter; stroke-linecap: square"/>
   </g>
   <g id="patch_5">
    <path d="M 57.6 307.584 
L 414.72 307.584 
" style="fill: none; stroke: #000000; stroke-width: 0.8; stroke-linejoin: miter; stroke-linecap: square"/>
   </g>
   <g id="patch_6">
    <path d="M 57.6 41.472 
L 414.72 41.472 
" style="fill: none; stroke: #000000; stroke-width: 0.8; stroke-linejoin: miter; stroke-linecap: square"/>
   </g>
  </g>
  <g id="axes_2">
   <g id="matplotlib.axis_3">
    <g id="ytick_9">
     <g id="line2d_16">
      <defs>
       <path id="m095cc9a1ec" d="M 0 0 
L 3.5 0 
" style="stroke: #000000; stroke-width: 0.8"/>
      </defs>
      <g>
       <use xlink:href="#m095cc9a1ec" x="414.72" y="295.488" style="stroke: #000000; stroke-width: 0.8"/>
      </g>
     </g>
     <g id="text_15">
      <!-- 0.0 -->
      <g transform="translate(421.72 299.287219) scale(0.1 -0.1)">
       <use xlink:href="#DejaVuSans-30"/>
       <use xlink:href="#DejaVuSans-2e" x="63.623047"/>
       <use xlink:href="#DejaVuSans-30" x="95.410156"/>
      </g>
     </g>
    </g>
    <g id="ytick_10">
     <g id="line2d_17">
      <g>
       <use xlink:href="#m095cc9a1ec" x="414.72" y="247.104" style="stroke: #000000; stroke-width: 0.8"/>
      </g>
     </g>
     <g id="text_16">
      <!-- 0.1 -->
      <g transform="translate(421.72 250.903219) scale(0.1 -0.1)">
       <use xlink:href="#DejaVuSans-30"/>
       <use xlink:href="#DejaVuSans-2e" x="63.623047"/>
       <use xlink:href="#DejaVuSans-31" x="95.410156"/>
      </g>
     </g>
    </g>
    <g id="ytick_11">
     <g id="line2d_18">
      <g>
       <use xlink:href="#m095cc9a1ec" x="414.72" y="198.72" style="stroke: #000000; stroke-width: 0.8"/>
      </g>
     </g>
     <g id="text_17">
      <!-- 0.2 -->
      <g transform="translate(421.72 202.519219) scale(0.1 -0.1)">
       <use xlink:href="#DejaVuSans-30"/>
       <use xlink:href="#DejaVuSans-2e" x="63.623047"/>
       <use xlink:href="#DejaVuSans-32" x="95.410156"/>
      </g>
     </g>
    </g>
    <g id="ytick_12">
     <g id="line2d_19">
      <g>
       <use xlink:href="#m095cc9a1ec" x="414.72" y="150.336" style="stroke: #000000; stroke-width: 0.8"/>
      </g>
     </g>
     <g id="text_18">
      <!-- 0.3 -->
      <g transform="translate(421.72 154.135219) scale(0.1 -0.1)">
       <use xlink:href="#DejaVuSans-30"/>
       <use xlink:href="#DejaVuSans-2e" x="63.623047"/>
       <use xlink:href="#DejaVuSans-33" x="95.410156"/>
      </g>
     </g>
    </g>
    <g id="ytick_13">
     <g id="line2d_20">
      <g>
       <use xlink:href="#m095cc9a1ec" x="414.72" y="101.952" style="stroke: #000000; stroke-width: 0.8"/>
      </g>
     </g>
     <g id="text_19">
      <!-- 0.4 -->
      <g transform="translate(421.72 105.751219) scale(0.1 -0.1)">
       <use xlink:href="#DejaVuSans-30"/>
       <use xlink:href="#DejaVuSans-2e" x="63.623047"/>
       <use xlink:href="#DejaVuSans-34" x="95.410156"/>
      </g>
     </g>
    </g>
    <g id="ytick_14">
     <g id="line2d_21">
      <g>
       <use xlink:href="#m095cc9a1ec" x="414.72" y="53.568" style="stroke: #000000; stroke-width: 0.8"/>
      </g>
     </g>
     <g id="text_20">
      <!-- 0.5 -->
      <g transform="translate(421.72 57.367219) scale(0.1 -0.1)">
       <use xlink:href="#DejaVuSans-30"/>
       <use xlink:href="#DejaVuSans-2e" x="63.623047"/>
       <use xlink:href="#DejaVuSans-35" x="95.410156"/>
      </g>
     </g>
    </g>
   </g>
   <g id="LineCollection_1">
    <path d="M 74.088382 53.568 
L 77.037463 53.568 
" clip-path="url(#p584f5dede8)" style="fill: none; stroke: #1f77b4; stroke-width: 1.5"/>
   </g>
   <g id="LineCollection_2">
    <path d="M 77.037463 295.488 
L 77.332371 295.488 
" clip-path="url(#p584f5dede8)" style="fill: none; stroke: #1f77b4; stroke-width: 1.5"/>
   </g>
   <g id="LineCollection_3">
    <path d="M 77.332371 53.568 
L 80.281452 53.568 
" clip-path="url(#p584f5dede8)" style="fill: none; stroke: #1f77b4; stroke-width: 1.5"/>
   </g>
   <g id="LineCollection_4">
    <path d="M 80.281452 295.488 
L 80.57636 295.488 
" clip-path="url(#p584f5dede8)" style="fill: none; stroke: #1f77b4; stroke-width: 1.5"/>
   </g>
   <g id="LineCollection_5">
    <path d="M 80.57636 53.568 
L 83.525441 53.568 
" clip-path="url(#p584f5dede8)" style="fill: none; stroke: #1f77b4; stroke-width: 1.5"/>
   </g>
   <g id="LineCollection_6">
    <path d="M 83.525441 295.488 
L 83.820349 295.488 
" clip-path="url(#p584f5dede8)" style="fill: none; stroke: #1f77b4; stroke-width: 1.5"/>
   </g>
   <g id="LineCollection_7">
    <path d="M 83.820349 53.568 
L 86.76943 53.568 
" clip-path="url(#p584f5dede8)" style="fill: none; stroke: #1f77b4; stroke-width: 1.5"/>
   </g>
   <g id="LineCollection_8">
    <path d="M 86.76943 295.488 
L 87.064338 295.488 
" clip-path="url(#p584f5dede8)" style="fill: none; stroke: #1f77b4; stroke-width: 1.5"/>
   </g>
   <g id="LineCollection_9">
    <path d="M 87.064338 53.568 
L 90.013419 53.568 
" clip-path="url(#p584f5dede8)" style="fill: none; stroke: #1f77b4; stroke-width: 1.5"/>
   </g>
   <g id="LineCollection_10">
    <path d="M 90.013419 295.488 
L 90.308327 295.488 
" clip-path="url(#p584f5dede8)" style="fill: none; stroke: #1f77b4; stroke-width: 1.5"/>
   </g>
   <g id="LineCollection_11">
    <path d="M 90.308327 53.568 
L 93.257408 53.568 
" clip-path="url(#p584f5dede8)" style="fill: none; stroke: #1f77b4; stroke-width: 1.5"/>
   </g>
   <g id="LineCollection_12">
    <path d="M 93.257408 295.488 
L 93.552316 295.488 
" clip-path="url(#p584f5dede8)" style="fill: none; stroke: #1f77b4; stroke-width: 1.5"/>
   </g>
   <g id="LineCollection_13">
    <path d="M 93.552316 53.568 
L 96.501397 53.568 
" clip-path="url(#p584f5dede8)" style="fill: none; stroke: #1f77b4; stroke-width: 1.5"/>
   </g>
   <g id="LineCollection_14">
    <path d="M 96.501397 295.488 
L 96.796305 295.488 
" clip-path="url(#p584f5dede8)" style="fill: none; stroke: #1f77b4; stroke-width: 1.5"/>
   </g>
   <g id="LineCollection_15">
    <path d="M 96.796305 53.568 
L 99.745385 53.568 
" clip-path="url(#p584f5dede8)" style="fill: none; stroke: #1f77b4; stroke-width: 1.5"/>
   </g>
   <g id="LineCollection_16">
    <path d="M 99.745385 295.488 
L 100.040293 295.488 
" clip-path="url(#p584f5dede8)" style="fill: none; stroke: #1f77b4; stroke-width: 1.5"/>
   </g>
   <g id="LineCollection_17">
    <path d="M 100.040293 53.568 
L 102.989374 53.568 
" clip-path="url(#p584f5dede8)" style="fill: none; stroke: #1f77b4; stroke-width: 1.5"/>
   </g>
   <g id="LineCollection_18">
    <path d="M 102.989374 295.488 
L 103.284282 295.488 
" clip-path="url(#p584f5dede8)" style="fill: none; stroke: #1f77b4; stroke-width: 1.5"/>
   </g>
   <g id="LineCollection_19">
    <path d="M 103.284282 53.568 
L 106.233363 53.568 
" clip-path="url(#p584f5dede8)" style="fill: none; stroke: #1f77b4; stroke-width: 1.5"/>
   </g>
   <g id="LineCollection_20">
    <path d="M 106.233363 295.488 
L 106.528271 295.488 
" clip-path="url(#p584f5dede8)" style="fill: none; stroke: #1f77b4; stroke-width: 1.5"/>
   </g>
   <g id="LineCollection_21">
    <path d="M 106.528271 53.568 
L 109.477352 53.568 
" clip-path="url(#p584f5dede8)" style="fill: none; stroke: #1f77b4; stroke-width: 1.5"/>
   </g>
   <g id="LineCollection_22">
    <path d="M 109.477352 295.488 
L 109.77226 295.488 
" clip-path="url(#p584f5dede8)" style="fill: none; stroke: #1f77b4; stroke-width: 1.5"/>
   </g>
   <g id="LineCollection_23">
    <path d="M 109.77226 53.568 
L 112.721341 53.568 
" clip-path="url(#p584f5dede8)" style="fill: none; stroke: #1f77b4; stroke-width: 1.5"/>
   </g>
   <g id="LineCollection_24">
    <path d="M 112.721341 295.488 
L 113.016249 295.488 
" clip-path="url(#p584f5dede8)" style="fill: none; stroke: #1f77b4; stroke-width: 1.5"/>
   </g>
   <g id="LineCollection_25">
    <path d="M 113.016249 53.568 
L 115.96533 53.568 
" clip-path="url(#p584f5dede8)" style="fill: none; stroke: #1f77b4; stroke-width: 1.5"/>
   </g>
   <g id="LineCollection_26">
    <path d="M 115.96533 295.488 
L 116.260238 295.488 
" clip-path="url(#p584f5dede8)" style="fill: none; stroke: #1f77b4; stroke-width: 1.5"/>
   </g>
   <g id="LineCollection_27">
    <path d="M 116.260238 53.568 
L 119.209319 53.568 
" clip-path="url(#p584f5dede8)" style="fill: none; stroke: #1f77b4; stroke-width: 1.5"/>
   </g>
   <g id="LineCollection_28">
    <path d="M 119.209319 295.488 
L 119.504227 295.488 
" clip-path="url(#p584f5dede8)" style="fill: none; stroke: #1f77b4; stroke-width: 1.5"/>
   </g>
   <g id="LineCollection_29">
    <path d="M 119.504227 53.568 
L 122.453308 53.568 
" clip-path="url(#p584f5dede8)" style="fill: none; stroke: #1f77b4; stroke-width: 1.5"/>
   </g>
   <g id="LineCollection_30">
    <path d="M 122.453308 295.488 
L 122.748216 295.488 
" clip-path="url(#p584f5dede8)" style="fill: none; stroke: #1f77b4; stroke-width: 1.5"/>
   </g>
   <g id="LineCollection_31">
    <path d="M 122.748216 53.568 
L 125.697297 53.568 
" clip-path="url(#p584f5dede8)" style="fill: none; stroke: #1f77b4; stroke-width: 1.5"/>
   </g>
   <g id="LineCollection_32">
    <path d="M 125.697297 295.488 
L 125.992205 295.488 
" clip-path="url(#p584f5dede8)" style="fill: none; stroke: #1f77b4; stroke-width: 1.5"/>
   </g>
   <g id="LineCollection_33">
    <path d="M 125.992205 53.568 
L 128.941286 53.568 
" clip-path="url(#p584f5dede8)" style="fill: none; stroke: #1f77b4; stroke-width: 1.5"/>
   </g>
   <g id="LineCollection_34">
    <path d="M 128.941286 295.488 
L 129.236194 295.488 
" clip-path="url(#p584f5dede8)" style="fill: none; stroke: #1f77b4; stroke-width: 1.5"/>
   </g>
   <g id="LineCollection_35">
    <path d="M 129.236194 53.568 
L 132.185274 53.568 
" clip-path="url(#p584f5dede8)" style="fill: none; stroke: #1f77b4; stroke-width: 1.5"/>
   </g>
   <g id="LineCollection_36">
    <path d="M 132.185274 295.488 
L 132.480183 295.488 
" clip-path="url(#p584f5dede8)" style="fill: none; stroke: #1f77b4; stroke-width: 1.5"/>
   </g>
   <g id="LineCollection_37">
    <path d="M 132.480183 53.568 
L 135.429263 53.568 
" clip-path="url(#p584f5dede8)" style="fill: none; stroke: #1f77b4; stroke-width: 1.5"/>
   </g>
   <g id="LineCollection_38">
    <path d="M 135.429263 295.488 
L 135.724171 295.488 
" clip-path="url(#p584f5dede8)" style="fill: none; stroke: #1f77b4; stroke-width: 1.5"/>
   </g>
   <g id="LineCollection_39">
    <path d="M 135.724171 53.568 
L 138.673252 53.568 
" clip-path="url(#p584f5dede8)" style="fill: none; stroke: #1f77b4; stroke-width: 1.5"/>
   </g>
   <g id="LineCollection_40">
    <path d="M 138.673252 295.488 
L 138.96816 295.488 
" clip-path="url(#p584f5dede8)" style="fill: none; stroke: #1f77b4; stroke-width: 1.5"/>
   </g>
   <g id="LineCollection_41">
    <path d="M 138.96816 53.568 
L 141.917241 53.568 
" clip-path="url(#p584f5dede8)" style="fill: none; stroke: #1f77b4; stroke-width: 1.5"/>
   </g>
   <g id="LineCollection_42">
    <path d="M 141.917241 295.488 
L 142.212149 295.488 
" clip-path="url(#p584f5dede8)" style="fill: none; stroke: #1f77b4; stroke-width: 1.5"/>
   </g>
   <g id="LineCollection_43">
    <path d="M 142.212149 53.568 
L 145.16123 53.568 
" clip-path="url(#p584f5dede8)" style="fill: none; stroke: #1f77b4; stroke-width: 1.5"/>
   </g>
   <g id="LineCollection_44">
    <path d="M 145.16123 295.488 
L 145.456138 295.488 
" clip-path="url(#p584f5dede8)" style="fill: none; stroke: #1f77b4; stroke-width: 1.5"/>
   </g>
   <g id="LineCollection_45">
    <path d="M 145.456138 53.568 
L 148.405219 53.568 
" clip-path="url(#p584f5dede8)" style="fill: none; stroke: #1f77b4; stroke-width: 1.5"/>
   </g>
   <g id="LineCollection_46">
    <path d="M 148.405219 295.488 
L 148.700127 295.488 
" clip-path="url(#p584f5dede8)" style="fill: none; stroke: #1f77b4; stroke-width: 1.5"/>
   </g>
   <g id="LineCollection_47">
    <path d="M 148.700127 53.568 
L 151.649208 53.568 
" clip-path="url(#p584f5dede8)" style="fill: none; stroke: #1f77b4; stroke-width: 1.5"/>
   </g>
   <g id="LineCollection_48">
    <path d="M 151.649208 295.488 
L 151.944116 295.488 
" clip-path="url(#p584f5dede8)" style="fill: none; stroke: #1f77b4; stroke-width: 1.5"/>
   </g>
   <g id="LineCollection_49">
    <path d="M 151.944116 53.568 
L 154.893197 53.568 
" clip-path="url(#p584f5dede8)" style="fill: none; stroke: #1f77b4; stroke-width: 1.5"/>
   </g>
   <g id="LineCollection_50">
    <path d="M 154.893197 295.488 
L 155.188105 295.488 
" clip-path="url(#p584f5dede8)" style="fill: none; stroke: #1f77b4; stroke-width: 1.5"/>
   </g>
   <g id="LineCollection_51">
    <path d="M 155.188105 53.568 
L 158.137186 53.568 
" clip-path="url(#p584f5dede8)" style="fill: none; stroke: #1f77b4; stroke-width: 1.5"/>
   </g>
   <g id="LineCollection_52">
    <path d="M 158.137186 295.488 
L 158.432094 295.488 
" clip-path="url(#p584f5dede8)" style="fill: none; stroke: #1f77b4; stroke-width: 1.5"/>
   </g>
   <g id="LineCollection_53">
    <path d="M 158.432094 53.568 
L 161.381175 53.568 
" clip-path="url(#p584f5dede8)" style="fill: none; stroke: #1f77b4; stroke-width: 1.5"/>
   </g>
   <g id="LineCollection_54">
    <path d="M 161.381175 295.488 
L 161.676083 295.488 
" clip-path="url(#p584f5dede8)" style="fill: none; stroke: #1f77b4; stroke-width: 1.5"/>
   </g>
   <g id="LineCollection_55">
    <path d="M 161.676083 53.568 
L 164.625164 53.568 
" clip-path="url(#p584f5dede8)" style="fill: none; stroke: #1f77b4; stroke-width: 1.5"/>
   </g>
   <g id="LineCollection_56">
    <path d="M 164.625164 295.488 
L 164.920072 295.488 
" clip-path="url(#p584f5dede8)" style="fill: none; stroke: #1f77b4; stroke-width: 1.5"/>
   </g>
   <g id="LineCollection_57">
    <path d="M 164.920072 53.568 
L 167.869152 53.568 
" clip-path="url(#p584f5dede8)" style="fill: none; stroke: #1f77b4; stroke-width: 1.5"/>
   </g>
   <g id="LineCollection_58">
    <path d="M 167.869152 295.488 
L 168.16406 295.488 
" clip-path="url(#p584f5dede8)" style="fill: none; stroke: #1f77b4; stroke-width: 1.5"/>
   </g>
   <g id="LineCollection_59">
    <path d="M 168.16406 53.568 
L 171.113141 53.568 
" clip-path="url(#p584f5dede8)" style="fill: none; stroke: #1f77b4; stroke-width: 1.5"/>
   </g>
   <g id="LineCollection_60">
    <path d="M 171.113141 295.488 
L 171.408049 295.488 
" clip-path="url(#p584f5dede8)" style="fill: none; stroke: #1f77b4; stroke-width: 1.5"/>
   </g>
   <g id="LineCollection_61">
    <path d="M 171.408049 53.568 
L 174.35713 53.568 
" clip-path="url(#p584f5dede8)" style="fill: none; stroke: #1f77b4; stroke-width: 1.5"/>
   </g>
   <g id="LineCollection_62">
    <path d="M 174.35713 295.488 
L 174.652038 295.488 
" clip-path="url(#p584f5dede8)" style="fill: none; stroke: #1f77b4; stroke-width: 1.5"/>
   </g>
   <g id="LineCollection_63">
    <path d="M 174.652038 53.568 
L 177.601119 53.568 
" clip-path="url(#p584f5dede8)" style="fill: none; stroke: #1f77b4; stroke-width: 1.5"/>
   </g>
   <g id="LineCollection_64">
    <path d="M 177.601119 295.488 
L 177.896027 295.488 
" clip-path="url(#p584f5dede8)" style="fill: none; stroke: #1f77b4; stroke-width: 1.5"/>
   </g>
   <g id="LineCollection_65">
    <path d="M 177.896027 53.568 
L 180.845108 53.568 
" clip-path="url(#p584f5dede8)" style="fill: none; stroke: #1f77b4; stroke-width: 1.5"/>
   </g>
   <g id="LineCollection_66">
    <path d="M 180.845108 295.488 
L 181.140016 295.488 
" clip-path="url(#p584f5dede8)" style="fill: none; stroke: #1f77b4; stroke-width: 1.5"/>
   </g>
   <g id="LineCollection_67">
    <path d="M 181.140016 53.568 
L 184.089097 53.568 
" clip-path="url(#p584f5dede8)" style="fill: none; stroke: #1f77b4; stroke-width: 1.5"/>
   </g>
   <g id="LineCollection_68">
    <path d="M 184.089097 295.488 
L 184.384005 295.488 
" clip-path="url(#p584f5dede8)" style="fill: none; stroke: #1f77b4; stroke-width: 1.5"/>
   </g>
   <g id="LineCollection_69">
    <path d="M 184.384005 53.568 
L 187.333086 53.568 
" clip-path="url(#p584f5dede8)" style="fill: none; stroke: #1f77b4; stroke-width: 1.5"/>
   </g>
   <g id="LineCollection_70">
    <path d="M 187.333086 295.488 
L 187.627994 295.488 
" clip-path="url(#p584f5dede8)" style="fill: none; stroke: #1f77b4; stroke-width: 1.5"/>
   </g>
   <g id="LineCollection_71">
    <path d="M 187.627994 53.568 
L 190.577075 53.568 
" clip-path="url(#p584f5dede8)" style="fill: none; stroke: #1f77b4; stroke-width: 1.5"/>
   </g>
   <g id="LineCollection_72">
    <path d="M 190.577075 295.488 
L 190.871983 295.488 
" clip-path="url(#p584f5dede8)" style="fill: none; stroke: #1f77b4; stroke-width: 1.5"/>
   </g>
   <g id="LineCollection_73">
    <path d="M 190.871983 53.568 
L 193.821064 53.568 
" clip-path="url(#p584f5dede8)" style="fill: none; stroke: #1f77b4; stroke-width: 1.5"/>
   </g>
   <g id="LineCollection_74">
    <path d="M 193.821064 295.488 
L 194.115972 295.488 
" clip-path="url(#p584f5dede8)" style="fill: none; stroke: #1f77b4; stroke-width: 1.5"/>
   </g>
   <g id="LineCollection_75">
    <path d="M 194.115972 53.568 
L 197.065053 53.568 
" clip-path="url(#p584f5dede8)" style="fill: none; stroke: #1f77b4; stroke-width: 1.5"/>
   </g>
   <g id="LineCollection_76">
    <path d="M 197.065053 295.488 
L 197.359961 295.488 
" clip-path="url(#p584f5dede8)" style="fill: none; stroke: #1f77b4; stroke-width: 1.5"/>
   </g>
   <g id="LineCollection_77">
    <path d="M 197.359961 53.568 
L 200.309041 53.568 
" clip-path="url(#p584f5dede8)" style="fill: none; stroke: #1f77b4; stroke-width: 1.5"/>
   </g>
   <g id="LineCollection_78">
    <path d="M 200.309041 295.488 
L 200.60395 295.488 
" clip-path="url(#p584f5dede8)" style="fill: none; stroke: #1f77b4; stroke-width: 1.5"/>
   </g>
   <g id="LineCollection_79">
    <path d="M 200.60395 53.568 
L 203.55303 53.568 
" clip-path="url(#p584f5dede8)" style="fill: none; stroke: #1f77b4; stroke-width: 1.5"/>
   </g>
   <g id="LineCollection_80">
    <path d="M 203.55303 295.488 
L 203.847938 295.488 
" clip-path="url(#p584f5dede8)" style="fill: none; stroke: #1f77b4; stroke-width: 1.5"/>
   </g>
   <g id="LineCollection_81">
    <path d="M 203.847938 53.568 
L 206.797019 53.568 
" clip-path="url(#p584f5dede8)" style="fill: none; stroke: #1f77b4; stroke-width: 1.5"/>
   </g>
   <g id="LineCollection_82">
    <path d="M 206.797019 295.488 
L 207.091927 295.488 
" clip-path="url(#p584f5dede8)" style="fill: none; stroke: #1f77b4; stroke-width: 1.5"/>
   </g>
   <g id="LineCollection_83">
    <path d="M 207.091927 53.568 
L 210.041008 53.568 
" clip-path="url(#p584f5dede8)" style="fill: none; stroke: #1f77b4; stroke-width: 1.5"/>
   </g>
   <g id="LineCollection_84">
    <path d="M 210.041008 295.488 
L 210.335916 295.488 
" clip-path="url(#p584f5dede8)" style="fill: none; stroke: #1f77b4; stroke-width: 1.5"/>
   </g>
   <g id="LineCollection_85">
    <path d="M 210.335916 53.568 
L 213.284997 53.568 
" clip-path="url(#p584f5dede8)" style="fill: none; stroke: #1f77b4; stroke-width: 1.5"/>
   </g>
   <g id="LineCollection_86">
    <path d="M 213.284997 295.488 
L 213.579905 295.488 
" clip-path="url(#p584f5dede8)" style="fill: none; stroke: #1f77b4; stroke-width: 1.5"/>
   </g>
   <g id="LineCollection_87">
    <path d="M 213.579905 53.568 
L 216.528986 53.568 
" clip-path="url(#p584f5dede8)" style="fill: none; stroke: #1f77b4; stroke-width: 1.5"/>
   </g>
   <g id="LineCollection_88">
    <path d="M 216.528986 295.488 
L 216.823894 295.488 
" clip-path="url(#p584f5dede8)" style="fill: none; stroke: #1f77b4; stroke-width: 1.5"/>
   </g>
   <g id="LineCollection_89">
    <path d="M 216.823894 53.568 
L 219.772975 53.568 
" clip-path="url(#p584f5dede8)" style="fill: none; stroke: #1f77b4; stroke-width: 1.5"/>
   </g>
   <g id="LineCollection_90">
    <path d="M 219.772975 295.488 
L 220.067883 295.488 
" clip-path="url(#p584f5dede8)" style="fill: none; stroke: #1f77b4; stroke-width: 1.5"/>
   </g>
   <g id="LineCollection_91">
    <path d="M 220.067883 53.568 
L 223.016964 53.568 
" clip-path="url(#p584f5dede8)" style="fill: none; stroke: #1f77b4; stroke-width: 1.5"/>
   </g>
   <g id="LineCollection_92">
    <path d="M 223.016964 295.488 
L 223.311872 295.488 
" clip-path="url(#p584f5dede8)" style="fill: none; stroke: #1f77b4; stroke-width: 1.5"/>
   </g>
   <g id="LineCollection_93">
    <path d="M 223.311872 53.568 
L 226.260953 53.568 
" clip-path="url(#p584f5dede8)" style="fill: none; stroke: #1f77b4; stroke-width: 1.5"/>
   </g>
   <g id="LineCollection_94">
    <path d="M 226.260953 295.488 
L 226.555861 295.488 
" clip-path="url(#p584f5dede8)" style="fill: none; stroke: #1f77b4; stroke-width: 1.5"/>
   </g>
   <g id="LineCollection_95">
    <path d="M 226.555861 53.568 
L 229.504942 53.568 
" clip-path="url(#p584f5dede8)" style="fill: none; stroke: #1f77b4; stroke-width: 1.5"/>
   </g>
   <g id="LineCollection_96">
    <path d="M 229.504942 295.488 
L 229.79985 295.488 
" clip-path="url(#p584f5dede8)" style="fill: none; stroke: #1f77b4; stroke-width: 1.5"/>
   </g>
   <g id="LineCollection_97">
    <path d="M 229.79985 53.568 
L 232.748931 53.568 
" clip-path="url(#p584f5dede8)" style="fill: none; stroke: #1f77b4; stroke-width: 1.5"/>
   </g>
   <g id="LineCollection_98">
    <path d="M 232.748931 295.488 
L 233.043839 295.488 
" clip-path="url(#p584f5dede8)" style="fill: none; stroke: #1f77b4; stroke-width: 1.5"/>
   </g>
   <g id="LineCollection_99">
    <path d="M 239.531816 295.488 
L 398.487273 295.488 
" clip-path="url(#p584f5dede8)" style="fill: none; stroke: #1f77b4; stroke-width: 1.5"/>
   </g>
   <g id="patch_7">
    <path d="M 57.6 307.584 
L 57.6 41.472 
" style="fill: none; stroke: #000000; stroke-width: 0.8; stroke-linejoin: miter; stroke-linecap: square"/>
   </g>
   <g id="patch_8">
    <path d="M 414.72 307.584 
L 414.72 41.472 
" style="fill: none; stroke: #000000; stroke-width: 0.8; stroke-linejoin: miter; stroke-linecap: square"/>
   </g>
   <g id="patch_9">
    <path d="M 57.6 307.584 
L 414.72 307.584 
" style="fill: none; stroke: #000000; stroke-width: 0.8; stroke-linejoin: miter; stroke-linecap: square"/>
   </g>
   <g id="patch_10">
    <path d="M 57.6 41.472 
L 414.72 41.472 
" style="fill: none; stroke: #000000; stroke-width: 0.8; stroke-linejoin: miter; stroke-linecap: square"/>
   </g>
  </g>
 </g>
 <defs>
  <clipPath id="p584f5dede8">
   <rect x="57.6" y="41.472" width="357.12" height="266.112"/>
  </clipPath>
 </defs>
</svg>
