<?xml version="1.0" encoding="utf-8" standalone="no"?>
<!DOCTYPE svg PUBLIC "-//W3C//DTD SVG 1.1//EN"
  "http://www.w3.org/Graphics/SVG/1.1/DTD/svg11.dtd">
<svg xmlns:xlink="http://www.w3.org/1999/xlink" width="460.8pt" height="345.6pt" viewBox="0 0 460.8 345.6" xmlns="http://www.w3.org/2000/svg" version="1.1">
 <metadata>
  <rdf:RDF xmlns:dc="http://purl.org/dc/elements/1.1/" xmlns:cc="http://creativecommons.org/ns#" xmlns:rdf="http://www.w3.org/1999/02/22-rdf-syntax-ns#">
   <cc:Work>
    <dc:type rdf:resource="http://purl.org/dc/dcmitype/StillImage"/>
    <dc:date>2025-04-27T20:51:32.659120</dc:date>
    <dc:format>image/svg+xml</dc:format>
    <dc:creator>
     <cc:Agent>
      <dc:title>Matplotlib v3.6.2, https://matplotlib.org/</dc:title>
     </cc:Agent>
    </dc:creator>
   </cc:Work>
  </rdf:RDF>
 </metadata>
 <defs>
  <style type="text/css">*{stroke-linejoin: round; stroke-linecap: butt}</style>
 </defs>
 <g id="figure_1">
  <g id="patch_1">
   <path d="M 0 345.6 
L 460.8 345.6 
L 460.8 0 
L 0 0 
z
" style="fill: #ffffff"/>
  </g>
  <g id="axes_1">
   <g id="patch_2">
    <path d="M 57.6 307.584 
L 414.72 307.584 
L 414.72 41.472 
L 57.6 41.472 
z
" style="fill: #ffffff"/>
   </g>
   <g id="matplotlib.axis_1">
    <g id="xtick_1">
     <g id="line2d_1">
      <defs>
       <path id="m2e48b742ff" d="M 0 0 
L 0 3.5 
" style="stroke: #000000; stroke-width: 0.8"/>
      </defs>
      <g>
       <use xlink:href="#m2e48b742ff" x="73.832727" y="307.584" style="stroke: #000000; stroke-width: 0.8"/>
      </g>
     </g>
     <g id="text_1">
      <!-- 0.0 -->
      <g transform="translate(65.881165 322.182437) scale(0.1 -0.1)">
       <defs>
        <path id="DejaVuSans-30" d="M 2034 4250 
Q 1547 4250 1301 3770 
Q 1056 3291 1056 2328 
Q 1056 1369 1301 889 
Q 1547 409 2034 409 
Q 2525 409 2770 889 
Q 3016 1369 3016 2328 
Q 3016 3291 2770 3770 
Q 2525 4250 2034 4250 
z
M 2034 4750 
Q 2819 4750 3233 4129 
Q 3647 3509 3647 2328 
Q 3647 1150 3233 529 
Q 2819 -91 2034 -91 
Q 1250 -91 836 529 
Q 422 1150 422 2328 
Q 422 3509 836 4129 
Q 1250 4750 2034 4750 
z
" transform="scale(0.015625)"/>
        <path id="DejaVuSans-2e" d="M 684 794 
L 1344 794 
L 1344 0 
L 684 0 
L 684 794 
z
" transform="scale(0.015625)"/>
       </defs>
       <use xlink:href="#DejaVuSans-30"/>
       <use xlink:href="#DejaVuSans-2e" x="63.623047"/>
       <use xlink:href="#DejaVuSans-30" x="95.410156"/>
      </g>
     </g>
    </g>
    <g id="xtick_2">
     <g id="line2d_2">
      <g>
       <use xlink:href="#m2e48b742ff" x="114.414545" y="307.584" style="stroke: #000000; stroke-width: 0.8"/>
      </g>
     </g>
     <g id="text_2">
      <!-- 2.5 -->
      <g transform="translate(106.462983 322.182437) scale(0.1 -0.1)">
       <defs>
        <path id="DejaVuSans-32" d="M 1228 531 
L 3431 531 
L 3431 0 
L 469 0 
L 469 531 
Q 828 903 1448 1529 
Q 2069 2156 2228 2338 
Q 2531 2678 2651 2914 
Q 2772 3150 2772 3378 
Q 2772 3750 2511 3984 
Q 2250 4219 1831 4219 
Q 1534 4219 1204 4116 
Q 875 4013 500 3803 
L 500 4441 
Q 881 4594 1212 4672 
Q 1544 4750 1819 4750 
Q 2544 4750 2975 4387 
Q 3406 4025 3406 3419 
Q 3406 3131 3298 2873 
Q 3191 2616 2906 2266 
Q 2828 2175 2409 1742 
Q 1991 1309 1228 531 
z
" transform="scale(0.015625)"/>
        <path id="DejaVuSans-35" d="M 691 4666 
L 3169 4666 
L 3169 4134 
L 1269 4134 
L 1269 2991 
Q 1406 3038 1543 3061 
Q 1681 3084 1819 3084 
Q 2600 3084 3056 2656 
Q 3513 2228 3513 1497 
Q 3513 744 3044 326 
Q 2575 -91 1722 -91 
Q 1428 -91 1123 -41 
Q 819 9 494 109 
L 494 744 
Q 775 591 1075 516 
Q 1375 441 1709 441 
Q 2250 441 2565 725 
Q 2881 1009 2881 1497 
Q 2881 1984 2565 2268 
Q 2250 2553 1709 2553 
Q 1456 2553 1204 2497 
Q 953 2441 691 2322 
L 691 4666 
z
" transform="scale(0.015625)"/>
       </defs>
       <use xlink:href="#DejaVuSans-32"/>
       <use xlink:href="#DejaVuSans-2e" x="63.623047"/>
       <use xlink:href="#DejaVuSans-35" x="95.410156"/>
      </g>
     </g>
    </g>
    <g id="xtick_3">
     <g id="line2d_3">
      <g>
       <use xlink:href="#m2e48b742ff" x="154.996364" y="307.584" style="stroke: #000000; stroke-width: 0.8"/>
      </g>
     </g>
     <g id="text_3">
      <!-- 5.0 -->
      <g transform="translate(147.044801 322.182437) scale(0.1 -0.1)">
       <use xlink:href="#DejaVuSans-35"/>
       <use xlink:href="#DejaVuSans-2e" x="63.623047"/>
       <use xlink:href="#DejaVuSans-30" x="95.410156"/>
      </g>
     </g>
    </g>
    <g id="xtick_4">
     <g id="line2d_4">
      <g>
       <use xlink:href="#m2e48b742ff" x="195.578182" y="307.584" style="stroke: #000000; stroke-width: 0.8"/>
      </g>
     </g>
     <g id="text_4">
      <!-- 7.5 -->
      <g transform="translate(187.626619 322.182437) scale(0.1 -0.1)">
       <defs>
        <path id="DejaVuSans-37" d="M 525 4666 
L 3525 4666 
L 3525 4397 
L 1831 0 
L 1172 0 
L 2766 4134 
L 525 4134 
L 525 4666 
z
" transform="scale(0.015625)"/>
       </defs>
       <use xlink:href="#DejaVuSans-37"/>
       <use xlink:href="#DejaVuSans-2e" x="63.623047"/>
       <use xlink:href="#DejaVuSans-35" x="95.410156"/>
      </g>
     </g>
    </g>
    <g id="xtick_5">
     <g id="line2d_5">
      <g>
       <use xlink:href="#m2e48b742ff" x="236.16" y="307.584" style="stroke: #000000; stroke-width: 0.8"/>
      </g>
     </g>
     <g id="text_5">
      <!-- 10.0 -->
      <g transform="translate(225.027188 322.182437) scale(0.1 -0.1)">
       <defs>
        <path id="DejaVuSans-31" d="M 794 531 
L 1825 531 
L 1825 4091 
L 703 3866 
L 703 4441 
L 1819 4666 
L 2450 4666 
L 2450 531 
L 3481 531 
L 3481 0 
L 794 0 
L 794 531 
z
" transform="scale(0.015625)"/>
       </defs>
       <use xlink:href="#DejaVuSans-31"/>
       <use xlink:href="#DejaVuSans-30" x="63.623047"/>
       <use xlink:href="#DejaVuSans-2e" x="127.246094"/>
       <use xlink:href="#DejaVuSans-30" x="159.033203"/>
      </g>
     </g>
    </g>
    <g id="xtick_6">
     <g id="line2d_6">
      <g>
       <use xlink:href="#m2e48b742ff" x="276.741818" y="307.584" style="stroke: #000000; stroke-width: 0.8"/>
      </g>
     </g>
     <g id="text_6">
      <!-- 12.5 -->
      <g transform="translate(265.609006 322.182437) scale(0.1 -0.1)">
       <use xlink:href="#DejaVuSans-31"/>
       <use xlink:href="#DejaVuSans-32" x="63.623047"/>
       <use xlink:href="#DejaVuSans-2e" x="127.246094"/>
       <use xlink:href="#DejaVuSans-35" x="159.033203"/>
      </g>
     </g>
    </g>
    <g id="xtick_7">
     <g id="line2d_7">
      <g>
       <use xlink:href="#m2e48b742ff" x="317.323636" y="307.584" style="stroke: #000000; stroke-width: 0.8"/>
      </g>
     </g>
     <g id="text_7">
      <!-- 15.0 -->
      <g transform="translate(306.190824 322.182437) scale(0.1 -0.1)">
       <use xlink:href="#DejaVuSans-31"/>
       <use xlink:href="#DejaVuSans-35" x="63.623047"/>
       <use xlink:href="#DejaVuSans-2e" x="127.246094"/>
       <use xlink:href="#DejaVuSans-30" x="159.033203"/>
      </g>
     </g>
    </g>
    <g id="xtick_8">
     <g id="line2d_8">
      <g>
       <use xlink:href="#m2e48b742ff" x="357.905455" y="307.584" style="stroke: #000000; stroke-width: 0.8"/>
      </g>
     </g>
     <g id="text_8">
      <!-- 17.5 -->
      <g transform="translate(346.772642 322.182437) scale(0.1 -0.1)">
       <use xlink:href="#DejaVuSans-31"/>
       <use xlink:href="#DejaVuSans-37" x="63.623047"/>
       <use xlink:href="#DejaVuSans-2e" x="127.246094"/>
       <use xlink:href="#DejaVuSans-35" x="159.033203"/>
      </g>
     </g>
    </g>
    <g id="xtick_9">
     <g id="line2d_9">
      <g>
       <use xlink:href="#m2e48b742ff" x="398.487273" y="307.584" style="stroke: #000000; stroke-width: 0.8"/>
      </g>
     </g>
     <g id="text_9">
      <!-- 20.0 -->
      <g transform="translate(387.35446 322.182437) scale(0.1 -0.1)">
       <use xlink:href="#DejaVuSans-32"/>
       <use xlink:href="#DejaVuSans-30" x="63.623047"/>
       <use xlink:href="#DejaVuSans-2e" x="127.246094"/>
       <use xlink:href="#DejaVuSans-30" x="159.033203"/>
      </g>
     </g>
    </g>
   </g>
   <g id="matplotlib.axis_2">
    <g id="ytick_1">
     <g id="line2d_10">
      <defs>
       <path id="m129a4b2547" d="M 0 0 
L -3.5 0 
" style="stroke: #000000; stroke-width: 0.8"/>
      </defs>
      <g>
       <use xlink:href="#m129a4b2547" x="57.6" y="295.488" style="stroke: #000000; stroke-width: 0.8"/>
      </g>
     </g>
     <g id="text_10">
      <!-- 0 -->
      <g transform="translate(44.2375 299.287219) scale(0.1 -0.1)">
       <use xlink:href="#DejaVuSans-30"/>
      </g>
     </g>
    </g>
    <g id="ytick_2">
     <g id="line2d_11">
      <g>
       <use xlink:href="#m129a4b2547" x="57.6" y="252.670301" style="stroke: #000000; stroke-width: 0.8"/>
      </g>
     </g>
     <g id="text_11">
      <!-- 20 -->
      <g transform="translate(37.875 256.46952) scale(0.1 -0.1)">
       <use xlink:href="#DejaVuSans-32"/>
       <use xlink:href="#DejaVuSans-30" x="63.623047"/>
      </g>
     </g>
    </g>
    <g id="ytick_3">
     <g id="line2d_12">
      <g>
       <use xlink:href="#m129a4b2547" x="57.6" y="209.852602" style="stroke: #000000; stroke-width: 0.8"/>
      </g>
     </g>
     <g id="text_12">
      <!-- 40 -->
      <g transform="translate(37.875 213.651821) scale(0.1 -0.1)">
       <defs>
        <path id="DejaVuSans-34" d="M 2419 4116 
L 825 1625 
L 2419 1625 
L 2419 4116 
z
M 2253 4666 
L 3047 4666 
L 3047 1625 
L 3713 1625 
L 3713 1100 
L 3047 1100 
L 3047 0 
L 2419 0 
L 2419 1100 
L 313 1100 
L 313 1709 
L 2253 4666 
z
" transform="scale(0.015625)"/>
       </defs>
       <use xlink:href="#DejaVuSans-34"/>
       <use xlink:href="#DejaVuSans-30" x="63.623047"/>
      </g>
     </g>
    </g>
    <g id="ytick_4">
     <g id="line2d_13">
      <g>
       <use xlink:href="#m129a4b2547" x="57.6" y="167.034903" style="stroke: #000000; stroke-width: 0.8"/>
      </g>
     </g>
     <g id="text_13">
      <!-- 60 -->
      <g transform="translate(37.875 170.834121) scale(0.1 -0.1)">
       <defs>
        <path id="DejaVuSans-36" d="M 2113 2584 
Q 1688 2584 1439 2293 
Q 1191 2003 1191 1497 
Q 1191 994 1439 701 
Q 1688 409 2113 409 
Q 2538 409 2786 701 
Q 3034 994 3034 1497 
Q 3034 2003 2786 2293 
Q 2538 2584 2113 2584 
z
M 3366 4563 
L 3366 3988 
Q 3128 4100 2886 4159 
Q 2644 4219 2406 4219 
Q 1781 4219 1451 3797 
Q 1122 3375 1075 2522 
Q 1259 2794 1537 2939 
Q 1816 3084 2150 3084 
Q 2853 3084 3261 2657 
Q 3669 2231 3669 1497 
Q 3669 778 3244 343 
Q 2819 -91 2113 -91 
Q 1303 -91 875 529 
Q 447 1150 447 2328 
Q 447 3434 972 4092 
Q 1497 4750 2381 4750 
Q 2619 4750 2861 4703 
Q 3103 4656 3366 4563 
z
" transform="scale(0.015625)"/>
       </defs>
       <use xlink:href="#DejaVuSans-36"/>
       <use xlink:href="#DejaVuSans-30" x="63.623047"/>
      </g>
     </g>
    </g>
    <g id="ytick_5">
     <g id="line2d_14">
      <g>
       <use xlink:href="#m129a4b2547" x="57.6" y="124.217204" style="stroke: #000000; stroke-width: 0.8"/>
      </g>
     </g>
     <g id="text_14">
      <!-- 80 -->
      <g transform="translate(37.875 128.016422) scale(0.1 -0.1)">
       <defs>
        <path id="DejaVuSans-38" d="M 2034 2216 
Q 1584 2216 1326 1975 
Q 1069 1734 1069 1313 
Q 1069 891 1326 650 
Q 1584 409 2034 409 
Q 2484 409 2743 651 
Q 3003 894 3003 1313 
Q 3003 1734 2745 1975 
Q 2488 2216 2034 2216 
z
M 1403 2484 
Q 997 2584 770 2862 
Q 544 3141 544 3541 
Q 544 4100 942 4425 
Q 1341 4750 2034 4750 
Q 2731 4750 3128 4425 
Q 3525 4100 3525 3541 
Q 3525 3141 3298 2862 
Q 3072 2584 2669 2484 
Q 3125 2378 3379 2068 
Q 3634 1759 3634 1313 
Q 3634 634 3220 271 
Q 2806 -91 2034 -91 
Q 1263 -91 848 271 
Q 434 634 434 1313 
Q 434 1759 690 2068 
Q 947 2378 1403 2484 
z
M 1172 3481 
Q 1172 3119 1398 2916 
Q 1625 2713 2034 2713 
Q 2441 2713 2670 2916 
Q 2900 3119 2900 3481 
Q 2900 3844 2670 4047 
Q 2441 4250 2034 4250 
Q 1625 4250 1398 4047 
Q 1172 3844 1172 3481 
z
" transform="scale(0.015625)"/>
       </defs>
       <use xlink:href="#DejaVuSans-38"/>
       <use xlink:href="#DejaVuSans-30" x="63.623047"/>
      </g>
     </g>
    </g>
    <g id="ytick_6">
     <g id="line2d_15">
      <g>
       <use xlink:href="#m129a4b2547" x="57.6" y="81.399504" style="stroke: #000000; stroke-width: 0.8"/>
      </g>
     </g>
     <g id="text_15">
      <!-- 100 -->
      <g transform="translate(31.5125 85.198723) scale(0.1 -0.1)">
       <use xlink:href="#DejaVuSans-31"/>
       <use xlink:href="#DejaVuSans-30" x="63.623047"/>
       <use xlink:href="#DejaVuSans-30" x="127.246094"/>
      </g>
     </g>
    </g>
   </g>
   <g id="line2d_16">
    <path d="M 73.832727 295.488 
L 80.45833 295.488 
L 87.083933 295.488 
L 93.709536 226.979681 
L 100.335139 209.852602 
L 106.960742 199.148177 
L 113.586345 190.584637 
L 120.211948 184.161982 
L 126.837551 177.739327 
L 133.463154 171.316673 
L 140.088757 167.034903 
L 146.71436 160.612248 
L 153.339963 156.330478 
L 159.965566 152.048708 
L 166.591169 147.766938 
L 173.216772 143.485168 
L 179.842375 141.344283 
L 186.467978 134.921628 
L 193.093581 132.780743 
L 199.719184 130.639858 
L 206.344787 126.358088 
L 212.97039 124.217204 
L 219.595993 119.935434 
L 226.221596 117.794549 
L 232.847199 113.512779 
L 239.472801 109.231009 
L 246.098404 109.231009 
L 252.724007 104.949239 
L 259.34961 102.808354 
L 265.975213 98.526584 
L 272.600816 98.526584 
L 279.226419 96.385699 
L 285.852022 92.103929 
L 292.477625 89.963044 
L 299.103228 87.822159 
L 305.728831 85.681274 
L 312.354434 83.540389 
L 318.980037 81.399504 
L 325.60564 79.258619 
L 332.231243 77.117735 
L 338.856846 74.97685 
L 345.482449 72.835965 
L 352.108052 70.69508 
L 358.733655 68.554195 
L 365.359258 68.554195 
L 371.984861 64.272425 
L 378.610464 62.13154 
L 385.236067 59.990655 
L 391.86167 57.84977 
L 398.487273 53.568 
" clip-path="url(#pb5246a881e)" style="fill: none; stroke-dasharray: 5.55,2.4; stroke-dashoffset: 0; stroke: #1f77b4; stroke-width: 1.5"/>
    <defs>
     <path id="mede67d4d82" d="M 0 3 
C 0.795609 3 1.55874 2.683901 2.12132 2.12132 
C 2.683901 1.55874 3 0.795609 3 0 
C 3 -0.795609 2.683901 -1.55874 2.12132 -2.12132 
C 1.55874 -2.683901 0.795609 -3 0 -3 
C -0.795609 -3 -1.55874 -2.683901 -2.12132 -2.12132 
C -2.683901 -1.55874 -3 -0.795609 -3 0 
C -3 0.795609 -2.683901 1.55874 -2.12132 2.12132 
C -1.55874 2.683901 -0.795609 3 0 3 
z
" style="stroke: #1f77b4"/>
    </defs>
    <g clip-path="url(#pb5246a881e)">
     <use xlink:href="#mede67d4d82" x="73.832727" y="295.488" style="fill: #1f77b4; stroke: #1f77b4"/>
     <use xlink:href="#mede67d4d82" x="80.45833" y="295.488" style="fill: #1f77b4; stroke: #1f77b4"/>
     <use xlink:href="#mede67d4d82" x="87.083933" y="295.488" style="fill: #1f77b4; stroke: #1f77b4"/>
     <use xlink:href="#mede67d4d82" x="93.709536" y="226.979681" style="fill: #1f77b4; stroke: #1f77b4"/>
     <use xlink:href="#mede67d4d82" x="100.335139" y="209.852602" style="fill: #1f77b4; stroke: #1f77b4"/>
     <use xlink:href="#mede67d4d82" x="106.960742" y="199.148177" style="fill: #1f77b4; stroke: #1f77b4"/>
     <use xlink:href="#mede67d4d82" x="113.586345" y="190.584637" style="fill: #1f77b4; stroke: #1f77b4"/>
     <use xlink:href="#mede67d4d82" x="120.211948" y="184.161982" style="fill: #1f77b4; stroke: #1f77b4"/>
     <use xlink:href="#mede67d4d82" x="126.837551" y="177.739327" style="fill: #1f77b4; stroke: #1f77b4"/>
     <use xlink:href="#mede67d4d82" x="133.463154" y="171.316673" style="fill: #1f77b4; stroke: #1f77b4"/>
     <use xlink:href="#mede67d4d82" x="140.088757" y="167.034903" style="fill: #1f77b4; stroke: #1f77b4"/>
     <use xlink:href="#mede67d4d82" x="146.71436" y="160.612248" style="fill: #1f77b4; stroke: #1f77b4"/>
     <use xlink:href="#mede67d4d82" x="153.339963" y="156.330478" style="fill: #1f77b4; stroke: #1f77b4"/>
     <use xlink:href="#mede67d4d82" x="159.965566" y="152.048708" style="fill: #1f77b4; stroke: #1f77b4"/>
     <use xlink:href="#mede67d4d82" x="166.591169" y="147.766938" style="fill: #1f77b4; stroke: #1f77b4"/>
     <use xlink:href="#mede67d4d82" x="173.216772" y="143.485168" style="fill: #1f77b4; stroke: #1f77b4"/>
     <use xlink:href="#mede67d4d82" x="179.842375" y="141.344283" style="fill: #1f77b4; stroke: #1f77b4"/>
     <use xlink:href="#mede67d4d82" x="186.467978" y="134.921628" style="fill: #1f77b4; stroke: #1f77b4"/>
     <use xlink:href="#mede67d4d82" x="193.093581" y="132.780743" style="fill: #1f77b4; stroke: #1f77b4"/>
     <use xlink:href="#mede67d4d82" x="199.719184" y="130.639858" style="fill: #1f77b4; stroke: #1f77b4"/>
     <use xlink:href="#mede67d4d82" x="206.344787" y="126.358088" style="fill: #1f77b4; stroke: #1f77b4"/>
     <use xlink:href="#mede67d4d82" x="212.97039" y="124.217204" style="fill: #1f77b4; stroke: #1f77b4"/>
     <use xlink:href="#mede67d4d82" x="219.595993" y="119.935434" style="fill: #1f77b4; stroke: #1f77b4"/>
     <use xlink:href="#mede67d4d82" x="226.221596" y="117.794549" style="fill: #1f77b4; stroke: #1f77b4"/>
     <use xlink:href="#mede67d4d82" x="232.847199" y="113.512779" style="fill: #1f77b4; stroke: #1f77b4"/>
     <use xlink:href="#mede67d4d82" x="239.472801" y="109.231009" style="fill: #1f77b4; stroke: #1f77b4"/>
     <use xlink:href="#mede67d4d82" x="246.098404" y="109.231009" style="fill: #1f77b4; stroke: #1f77b4"/>
     <use xlink:href="#mede67d4d82" x="252.724007" y="104.949239" style="fill: #1f77b4; stroke: #1f77b4"/>
     <use xlink:href="#mede67d4d82" x="259.34961" y="102.808354" style="fill: #1f77b4; stroke: #1f77b4"/>
     <use xlink:href="#mede67d4d82" x="265.975213" y="98.526584" style="fill: #1f77b4; stroke: #1f77b4"/>
     <use xlink:href="#mede67d4d82" x="272.600816" y="98.526584" style="fill: #1f77b4; stroke: #1f77b4"/>
     <use xlink:href="#mede67d4d82" x="279.226419" y="96.385699" style="fill: #1f77b4; stroke: #1f77b4"/>
     <use xlink:href="#mede67d4d82" x="285.852022" y="92.103929" style="fill: #1f77b4; stroke: #1f77b4"/>
     <use xlink:href="#mede67d4d82" x="292.477625" y="89.963044" style="fill: #1f77b4; stroke: #1f77b4"/>
     <use xlink:href="#mede67d4d82" x="299.103228" y="87.822159" style="fill: #1f77b4; stroke: #1f77b4"/>
     <use xlink:href="#mede67d4d82" x="305.728831" y="85.681274" style="fill: #1f77b4; stroke: #1f77b4"/>
     <use xlink:href="#mede67d4d82" x="312.354434" y="83.540389" style="fill: #1f77b4; stroke: #1f77b4"/>
     <use xlink:href="#mede67d4d82" x="318.980037" y="81.399504" style="fill: #1f77b4; stroke: #1f77b4"/>
     <use xlink:href="#mede67d4d82" x="325.60564" y="79.258619" style="fill: #1f77b4; stroke: #1f77b4"/>
     <use xlink:href="#mede67d4d82" x="332.231243" y="77.117735" style="fill: #1f77b4; stroke: #1f77b4"/>
     <use xlink:href="#mede67d4d82" x="338.856846" y="74.97685" style="fill: #1f77b4; stroke: #1f77b4"/>
     <use xlink:href="#mede67d4d82" x="345.482449" y="72.835965" style="fill: #1f77b4; stroke: #1f77b4"/>
     <use xlink:href="#mede67d4d82" x="352.108052" y="70.69508" style="fill: #1f77b4; stroke: #1f77b4"/>
     <use xlink:href="#mede67d4d82" x="358.733655" y="68.554195" style="fill: #1f77b4; stroke: #1f77b4"/>
     <use xlink:href="#mede67d4d82" x="365.359258" y="68.554195" style="fill: #1f77b4; stroke: #1f77b4"/>
     <use xlink:href="#mede67d4d82" x="371.984861" y="64.272425" style="fill: #1f77b4; stroke: #1f77b4"/>
     <use xlink:href="#mede67d4d82" x="378.610464" y="62.13154" style="fill: #1f77b4; stroke: #1f77b4"/>
     <use xlink:href="#mede67d4d82" x="385.236067" y="59.990655" style="fill: #1f77b4; stroke: #1f77b4"/>
     <use xlink:href="#mede67d4d82" x="391.86167" y="57.84977" style="fill: #1f77b4; stroke: #1f77b4"/>
     <use xlink:href="#mede67d4d82" x="398.487273" y="53.568" style="fill: #1f77b4; stroke: #1f77b4"/>
    </g>
   </g>
   <g id="line2d_17">
    <path d="M 73.832727 295.488 
L 80.45833 295.488 
L 87.083933 295.488 
L 93.709536 295.488 
L 100.335139 295.488 
L 106.960742 295.488 
L 113.586345 295.488 
L 120.211948 295.488 
L 126.837551 295.488 
L 133.463154 295.488 
L 140.088757 295.488 
L 146.71436 295.488 
L 153.339963 295.488 
L 159.965566 295.488 
L 166.591169 295.488 
L 173.216772 295.488 
L 179.842375 295.488 
L 186.467978 295.488 
L 193.093581 295.488 
L 199.719184 295.488 
L 206.344787 295.488 
L 212.97039 295.488 
L 219.595993 295.488 
L 226.221596 149.907823 
L 232.847199 147.766938 
L 239.472801 145.626053 
L 246.098404 143.485168 
L 252.724007 141.344283 
L 259.34961 141.344283 
L 265.975213 139.203398 
L 272.600816 137.062513 
L 279.226419 132.780743 
L 285.852022 132.780743 
L 292.477625 130.639858 
L 299.103228 130.639858 
L 305.728831 126.358088 
L 312.354434 126.358088 
L 318.980037 126.358088 
L 325.60564 124.217204 
L 332.231243 122.076319 
L 338.856846 122.076319 
L 345.482449 119.935434 
L 352.108052 117.794549 
L 358.733655 117.794549 
L 365.359258 113.512779 
L 371.984861 113.512779 
L 378.610464 113.512779 
L 385.236067 111.371894 
L 391.86167 111.371894 
L 398.487273 109.231009 
" clip-path="url(#pb5246a881e)" style="fill: none; stroke-dasharray: 5.55,2.4; stroke-dashoffset: 0; stroke: #ff7f0e; stroke-width: 1.5"/>
    <defs>
     <path id="me3171664ff" d="M 0 3 
C 0.795609 3 1.55874 2.683901 2.12132 2.12132 
C 2.683901 1.55874 3 0.795609 3 0 
C 3 -0.795609 2.683901 -1.55874 2.12132 -2.12132 
C 1.55874 -2.683901 0.795609 -3 0 -3 
C -0.795609 -3 -1.55874 -2.683901 -2.12132 -2.12132 
C -2.683901 -1.55874 -3 -0.795609 -3 0 
C -3 0.795609 -2.683901 1.55874 -2.12132 2.12132 
C -1.55874 2.683901 -0.795609 3 0 3 
z
" style="stroke: #ff7f0e"/>
    </defs>
    <g clip-path="url(#pb5246a881e)">
     <use xlink:href="#me3171664ff" x="73.832727" y="295.488" style="fill: #ff7f0e; stroke: #ff7f0e"/>
     <use xlink:href="#me3171664ff" x="80.45833" y="295.488" style="fill: #ff7f0e; stroke: #ff7f0e"/>
     <use xlink:href="#me3171664ff" x="87.083933" y="295.488" style="fill: #ff7f0e; stroke: #ff7f0e"/>
     <use xlink:href="#me3171664ff" x="93.709536" y="295.488" style="fill: #ff7f0e; stroke: #ff7f0e"/>
     <use xlink:href="#me3171664ff" x="100.335139" y="295.488" style="fill: #ff7f0e; stroke: #ff7f0e"/>
     <use xlink:href="#me3171664ff" x="106.960742" y="295.488" style="fill: #ff7f0e; stroke: #ff7f0e"/>
     <use xlink:href="#me3171664ff" x="113.586345" y="295.488" style="fill: #ff7f0e; stroke: #ff7f0e"/>
     <use xlink:href="#me3171664ff" x="120.211948" y="295.488" style="fill: #ff7f0e; stroke: #ff7f0e"/>
     <use xlink:href="#me3171664ff" x="126.837551" y="295.488" style="fill: #ff7f0e; stroke: #ff7f0e"/>
     <use xlink:href="#me3171664ff" x="133.463154" y="295.488" style="fill: #ff7f0e; stroke: #ff7f0e"/>
     <use xlink:href="#me3171664ff" x="140.088757" y="295.488" style="fill: #ff7f0e; stroke: #ff7f0e"/>
     <use xlink:href="#me3171664ff" x="146.71436" y="295.488" style="fill: #ff7f0e; stroke: #ff7f0e"/>
     <use xlink:href="#me3171664ff" x="153.339963" y="295.488" style="fill: #ff7f0e; stroke: #ff7f0e"/>
     <use xlink:href="#me3171664ff" x="159.965566" y="295.488" style="fill: #ff7f0e; stroke: #ff7f0e"/>
     <use xlink:href="#me3171664ff" x="166.591169" y="295.488" style="fill: #ff7f0e; stroke: #ff7f0e"/>
     <use xlink:href="#me3171664ff" x="173.216772" y="295.488" style="fill: #ff7f0e; stroke: #ff7f0e"/>
     <use xlink:href="#me3171664ff" x="179.842375" y="295.488" style="fill: #ff7f0e; stroke: #ff7f0e"/>
     <use xlink:href="#me3171664ff" x="186.467978" y="295.488" style="fill: #ff7f0e; stroke: #ff7f0e"/>
     <use xlink:href="#me3171664ff" x="193.093581" y="295.488" style="fill: #ff7f0e; stroke: #ff7f0e"/>
     <use xlink:href="#me3171664ff" x="199.719184" y="295.488" style="fill: #ff7f0e; stroke: #ff7f0e"/>
     <use xlink:href="#me3171664ff" x="206.344787" y="295.488" style="fill: #ff7f0e; stroke: #ff7f0e"/>
     <use xlink:href="#me3171664ff" x="212.97039" y="295.488" style="fill: #ff7f0e; stroke: #ff7f0e"/>
     <use xlink:href="#me3171664ff" x="219.595993" y="295.488" style="fill: #ff7f0e; stroke: #ff7f0e"/>
     <use xlink:href="#me3171664ff" x="226.221596" y="149.907823" style="fill: #ff7f0e; stroke: #ff7f0e"/>
     <use xlink:href="#me3171664ff" x="232.847199" y="147.766938" style="fill: #ff7f0e; stroke: #ff7f0e"/>
     <use xlink:href="#me3171664ff" x="239.472801" y="145.626053" style="fill: #ff7f0e; stroke: #ff7f0e"/>
     <use xlink:href="#me3171664ff" x="246.098404" y="143.485168" style="fill: #ff7f0e; stroke: #ff7f0e"/>
     <use xlink:href="#me3171664ff" x="252.724007" y="141.344283" style="fill: #ff7f0e; stroke: #ff7f0e"/>
     <use xlink:href="#me3171664ff" x="259.34961" y="141.344283" style="fill: #ff7f0e; stroke: #ff7f0e"/>
     <use xlink:href="#me3171664ff" x="265.975213" y="139.203398" style="fill: #ff7f0e; stroke: #ff7f0e"/>
     <use xlink:href="#me3171664ff" x="272.600816" y="137.062513" style="fill: #ff7f0e; stroke: #ff7f0e"/>
     <use xlink:href="#me3171664ff" x="279.226419" y="132.780743" style="fill: #ff7f0e; stroke: #ff7f0e"/>
     <use xlink:href="#me3171664ff" x="285.852022" y="132.780743" style="fill: #ff7f0e; stroke: #ff7f0e"/>
     <use xlink:href="#me3171664ff" x="292.477625" y="130.639858" style="fill: #ff7f0e; stroke: #ff7f0e"/>
     <use xlink:href="#me3171664ff" x="299.103228" y="130.639858" style="fill: #ff7f0e; stroke: #ff7f0e"/>
     <use xlink:href="#me3171664ff" x="305.728831" y="126.358088" style="fill: #ff7f0e; stroke: #ff7f0e"/>
     <use xlink:href="#me3171664ff" x="312.354434" y="126.358088" style="fill: #ff7f0e; stroke: #ff7f0e"/>
     <use xlink:href="#me3171664ff" x="318.980037" y="126.358088" style="fill: #ff7f0e; stroke: #ff7f0e"/>
     <use xlink:href="#me3171664ff" x="325.60564" y="124.217204" style="fill: #ff7f0e; stroke: #ff7f0e"/>
     <use xlink:href="#me3171664ff" x="332.231243" y="122.076319" style="fill: #ff7f0e; stroke: #ff7f0e"/>
     <use xlink:href="#me3171664ff" x="338.856846" y="122.076319" style="fill: #ff7f0e; stroke: #ff7f0e"/>
     <use xlink:href="#me3171664ff" x="345.482449" y="119.935434" style="fill: #ff7f0e; stroke: #ff7f0e"/>
     <use xlink:href="#me3171664ff" x="352.108052" y="117.794549" style="fill: #ff7f0e; stroke: #ff7f0e"/>
     <use xlink:href="#me3171664ff" x="358.733655" y="117.794549" style="fill: #ff7f0e; stroke: #ff7f0e"/>
     <use xlink:href="#me3171664ff" x="365.359258" y="113.512779" style="fill: #ff7f0e; stroke: #ff7f0e"/>
     <use xlink:href="#me3171664ff" x="371.984861" y="113.512779" style="fill: #ff7f0e; stroke: #ff7f0e"/>
     <use xlink:href="#me3171664ff" x="378.610464" y="113.512779" style="fill: #ff7f0e; stroke: #ff7f0e"/>
     <use xlink:href="#me3171664ff" x="385.236067" y="111.371894" style="fill: #ff7f0e; stroke: #ff7f0e"/>
     <use xlink:href="#me3171664ff" x="391.86167" y="111.371894" style="fill: #ff7f0e; stroke: #ff7f0e"/>
     <use xlink:href="#me3171664ff" x="398.487273" y="109.231009" style="fill: #ff7f0e; stroke: #ff7f0e"/>
    </g>
   </g>
   <g id="patch_3">
    <path d="M 57.6 307.584 
L 57.6 41.472 
" style="fill: none; stroke: #000000; stroke-width: 0.8; stroke-linejoin: miter; stroke-linecap: square"/>
   </g>
   <g id="patch_4">
    <path d="M 414.72 307.584 
L 414.72 41.472 
" style="fill: none; stroke: #000000; stroke-width: 0.8; stroke-linejoin: miter; stroke-linecap: square"/>
   </g>
   <g id="patch_5">
    <path d="M 57.6 307.584 
L 414.72 307.584 
" style="fill: none; stroke: #000000; stroke-width: 0.8; stroke-linejoin: miter; stroke-linecap: square"/>
   </g>
   <g id="patch_6">
    <path d="M 57.6 41.472 
L 414.72 41.472 
" style="fill: none; stroke: #000000; stroke-width: 0.8; stroke-linejoin: miter; stroke-linecap: square"/>
   </g>
   <g id="legend_1">
    <g id="patch_7">
     <path d="M 64.6 78.82825 
L 121.010937 78.82825 
Q 123.010937 78.82825 123.010937 76.82825 
L 123.010937 48.472 
Q 123.010937 46.472 121.010937 46.472 
L 64.6 46.472 
Q 62.6 46.472 62.6 48.472 
L 62.6 76.82825 
Q 62.6 78.82825 64.6 78.82825 
z
" style="fill: #ffffff; opacity: 0.8; stroke: #cccccc; stroke-linejoin: miter"/>
    </g>
    <g id="line2d_18">
     <path d="M 66.6 54.570437 
L 76.6 54.570437 
L 86.6 54.570437 
" style="fill: none; stroke-dasharray: 5.55,2.4; stroke-dashoffset: 0; stroke: #1f77b4; stroke-width: 1.5"/>
     <g>
      <use xlink:href="#mede67d4d82" x="76.6" y="54.570437" style="fill: #1f77b4; stroke: #1f77b4"/>
     </g>
    </g>
    <g id="text_16">
     <!-- nbox -->
     <g transform="translate(94.6 58.070437) scale(0.1 -0.1)">
      <defs>
       <path id="DejaVuSans-6e" d="M 3513 2113 
L 3513 0 
L 2938 0 
L 2938 2094 
Q 2938 2591 2744 2837 
Q 2550 3084 2163 3084 
Q 1697 3084 1428 2787 
Q 1159 2491 1159 1978 
L 1159 0 
L 581 0 
L 581 3500 
L 1159 3500 
L 1159 2956 
Q 1366 3272 1645 3428 
Q 1925 3584 2291 3584 
Q 2894 3584 3203 3211 
Q 3513 2838 3513 2113 
z
" transform="scale(0.015625)"/>
       <path id="DejaVuSans-62" d="M 3116 1747 
Q 3116 2381 2855 2742 
Q 2594 3103 2138 3103 
Q 1681 3103 1420 2742 
Q 1159 2381 1159 1747 
Q 1159 1113 1420 752 
Q 1681 391 2138 391 
Q 2594 391 2855 752 
Q 3116 1113 3116 1747 
z
M 1159 2969 
Q 1341 3281 1617 3432 
Q 1894 3584 2278 3584 
Q 2916 3584 3314 3078 
Q 3713 2572 3713 1747 
Q 3713 922 3314 415 
Q 2916 -91 2278 -91 
Q 1894 -91 1617 61 
Q 1341 213 1159 525 
L 1159 0 
L 581 0 
L 581 4863 
L 1159 4863 
L 1159 2969 
z
" transform="scale(0.015625)"/>
       <path id="DejaVuSans-6f" d="M 1959 3097 
Q 1497 3097 1228 2736 
Q 959 2375 959 1747 
Q 959 1119 1226 758 
Q 1494 397 1959 397 
Q 2419 397 2687 759 
Q 2956 1122 2956 1747 
Q 2956 2369 2687 2733 
Q 2419 3097 1959 3097 
z
M 1959 3584 
Q 2709 3584 3137 3096 
Q 3566 2609 3566 1747 
Q 3566 888 3137 398 
Q 2709 -91 1959 -91 
Q 1206 -91 779 398 
Q 353 888 353 1747 
Q 353 2609 779 3096 
Q 1206 3584 1959 3584 
z
" transform="scale(0.015625)"/>
       <path id="DejaVuSans-78" d="M 3513 3500 
L 2247 1797 
L 3578 0 
L 2900 0 
L 1881 1375 
L 863 0 
L 184 0 
L 1544 1831 
L 300 3500 
L 978 3500 
L 1906 2253 
L 2834 3500 
L 3513 3500 
z
" transform="scale(0.015625)"/>
      </defs>
      <use xlink:href="#DejaVuSans-6e"/>
      <use xlink:href="#DejaVuSans-62" x="63.378906"/>
      <use xlink:href="#DejaVuSans-6f" x="126.855469"/>
      <use xlink:href="#DejaVuSans-78" x="184.912109"/>
     </g>
    </g>
    <g id="line2d_19">
     <path d="M 66.6 69.248562 
L 76.6 69.248562 
L 86.6 69.248562 
" style="fill: none; stroke-dasharray: 5.55,2.4; stroke-dashoffset: 0; stroke: #ff7f0e; stroke-width: 1.5"/>
     <g>
      <use xlink:href="#me3171664ff" x="76.6" y="69.248562" style="fill: #ff7f0e; stroke: #ff7f0e"/>
     </g>
    </g>
    <g id="text_17">
     <!-- hh -->
     <g transform="translate(94.6 72.748562) scale(0.1 -0.1)">
      <defs>
       <path id="DejaVuSans-68" d="M 3513 2113 
L 3513 0 
L 2938 0 
L 2938 2094 
Q 2938 2591 2744 2837 
Q 2550 3084 2163 3084 
Q 1697 3084 1428 2787 
Q 1159 2491 1159 1978 
L 1159 0 
L 581 0 
L 581 4863 
L 1159 4863 
L 1159 2956 
Q 1366 3272 1645 3428 
Q 1925 3584 2291 3584 
Q 2894 3584 3203 3211 
Q 3513 2838 3513 2113 
z
" transform="scale(0.015625)"/>
      </defs>
      <use xlink:href="#DejaVuSans-68"/>
      <use xlink:href="#DejaVuSans-68" x="63.378906"/>
     </g>
    </g>
   </g>
  </g>
 </g>
 <defs>
  <clipPath id="pb5246a881e">
   <rect x="57.6" y="41.472" width="357.12" height="266.112"/>
  </clipPath>
 </defs>
</svg>
