<?xml version="1.0" encoding="utf-8" standalone="no"?>
<!DOCTYPE svg PUBLIC "-//W3C//DTD SVG 1.1//EN"
  "http://www.w3.org/Graphics/SVG/1.1/DTD/svg11.dtd">
<svg xmlns:xlink="http://www.w3.org/1999/xlink" width="460.8pt" height="345.6pt" viewBox="0 0 460.8 345.6" xmlns="http://www.w3.org/2000/svg" version="1.1">
 <metadata>
  <rdf:RDF xmlns:dc="http://purl.org/dc/elements/1.1/" xmlns:cc="http://creativecommons.org/ns#" xmlns:rdf="http://www.w3.org/1999/02/22-rdf-syntax-ns#">
   <cc:Work>
    <dc:type rdf:resource="http://purl.org/dc/dcmitype/StillImage"/>
    <dc:date>2025-01-27T16:23:21.681313</dc:date>
    <dc:format>image/svg+xml</dc:format>
    <dc:creator>
     <cc:Agent>
      <dc:title>Matplotlib v3.10.0, https://matplotlib.org/</dc:title>
     </cc:Agent>
    </dc:creator>
   </cc:Work>
  </rdf:RDF>
 </metadata>
 <defs>
  <style type="text/css">*{stroke-linejoin: round; stroke-linecap: butt}</style>
 </defs>
 <g id="figure_1">
  <g id="patch_1">
   <path d="M 0 345.6 
L 460.8 345.6 
L 460.8 0 
L 0 0 
z
" style="fill: #ffffff"/>
  </g>
  <g id="axes_1">
   <g id="patch_2">
    <path d="M 57.6 307.584 
L 414.72 307.584 
L 414.72 41.472 
L 57.6 41.472 
z
" style="fill: #ffffff"/>
   </g>
   <g id="matplotlib.axis_1">
    <g id="xtick_1">
     <g id="line2d_1">
      <defs>
       <path id="mb9b08b36b9" d="M 0 0 
L 0 3.5 
" style="stroke: #000000; stroke-width: 0.8"/>
      </defs>
      <g>
       <use xlink:href="#mb9b08b36b9" x="73.832727" y="307.584" style="stroke: #000000; stroke-width: 0.8"/>
      </g>
     </g>
     <g id="text_1">
      <!-- 0 -->
      <g transform="translate(70.651477 322.182437) scale(0.1 -0.1)">
       <defs>
        <path id="DejaVuSans-30" d="M 2034 4250 
Q 1547 4250 1301 3770 
Q 1056 3291 1056 2328 
Q 1056 1369 1301 889 
Q 1547 409 2034 409 
Q 2525 409 2770 889 
Q 3016 1369 3016 2328 
Q 3016 3291 2770 3770 
Q 2525 4250 2034 4250 
z
M 2034 4750 
Q 2819 4750 3233 4129 
Q 3647 3509 3647 2328 
Q 3647 1150 3233 529 
Q 2819 -91 2034 -91 
Q 1250 -91 836 529 
Q 422 1150 422 2328 
Q 422 3509 836 4129 
Q 1250 4750 2034 4750 
z
" transform="scale(0.015625)"/>
       </defs>
       <use xlink:href="#DejaVuSans-30"/>
      </g>
     </g>
    </g>
    <g id="xtick_2">
     <g id="line2d_2">
      <g>
       <use xlink:href="#mb9b08b36b9" x="145.978182" y="307.584" style="stroke: #000000; stroke-width: 0.8"/>
      </g>
     </g>
     <g id="text_2">
      <!-- 2 -->
      <g transform="translate(142.796932 322.182437) scale(0.1 -0.1)">
       <defs>
        <path id="DejaVuSans-32" d="M 1228 531 
L 3431 531 
L 3431 0 
L 469 0 
L 469 531 
Q 828 903 1448 1529 
Q 2069 2156 2228 2338 
Q 2531 2678 2651 2914 
Q 2772 3150 2772 3378 
Q 2772 3750 2511 3984 
Q 2250 4219 1831 4219 
Q 1534 4219 1204 4116 
Q 875 4013 500 3803 
L 500 4441 
Q 881 4594 1212 4672 
Q 1544 4750 1819 4750 
Q 2544 4750 2975 4387 
Q 3406 4025 3406 3419 
Q 3406 3131 3298 2873 
Q 3191 2616 2906 2266 
Q 2828 2175 2409 1742 
Q 1991 1309 1228 531 
z
" transform="scale(0.015625)"/>
       </defs>
       <use xlink:href="#DejaVuSans-32"/>
      </g>
     </g>
    </g>
    <g id="xtick_3">
     <g id="line2d_3">
      <g>
       <use xlink:href="#mb9b08b36b9" x="218.123636" y="307.584" style="stroke: #000000; stroke-width: 0.8"/>
      </g>
     </g>
     <g id="text_3">
      <!-- 4 -->
      <g transform="translate(214.942386 322.182437) scale(0.1 -0.1)">
       <defs>
        <path id="DejaVuSans-34" d="M 2419 4116 
L 825 1625 
L 2419 1625 
L 2419 4116 
z
M 2253 4666 
L 3047 4666 
L 3047 1625 
L 3713 1625 
L 3713 1100 
L 3047 1100 
L 3047 0 
L 2419 0 
L 2419 1100 
L 313 1100 
L 313 1709 
L 2253 4666 
z
" transform="scale(0.015625)"/>
       </defs>
       <use xlink:href="#DejaVuSans-34"/>
      </g>
     </g>
    </g>
    <g id="xtick_4">
     <g id="line2d_4">
      <g>
       <use xlink:href="#mb9b08b36b9" x="290.269091" y="307.584" style="stroke: #000000; stroke-width: 0.8"/>
      </g>
     </g>
     <g id="text_4">
      <!-- 6 -->
      <g transform="translate(287.087841 322.182437) scale(0.1 -0.1)">
       <defs>
        <path id="DejaVuSans-36" d="M 2113 2584 
Q 1688 2584 1439 2293 
Q 1191 2003 1191 1497 
Q 1191 994 1439 701 
Q 1688 409 2113 409 
Q 2538 409 2786 701 
Q 3034 994 3034 1497 
Q 3034 2003 2786 2293 
Q 2538 2584 2113 2584 
z
M 3366 4563 
L 3366 3988 
Q 3128 4100 2886 4159 
Q 2644 4219 2406 4219 
Q 1781 4219 1451 3797 
Q 1122 3375 1075 2522 
Q 1259 2794 1537 2939 
Q 1816 3084 2150 3084 
Q 2853 3084 3261 2657 
Q 3669 2231 3669 1497 
Q 3669 778 3244 343 
Q 2819 -91 2113 -91 
Q 1303 -91 875 529 
Q 447 1150 447 2328 
Q 447 3434 972 4092 
Q 1497 4750 2381 4750 
Q 2619 4750 2861 4703 
Q 3103 4656 3366 4563 
z
" transform="scale(0.015625)"/>
       </defs>
       <use xlink:href="#DejaVuSans-36"/>
      </g>
     </g>
    </g>
    <g id="xtick_5">
     <g id="line2d_5">
      <g>
       <use xlink:href="#mb9b08b36b9" x="362.414545" y="307.584" style="stroke: #000000; stroke-width: 0.8"/>
      </g>
     </g>
     <g id="text_5">
      <!-- 8 -->
      <g transform="translate(359.233295 322.182437) scale(0.1 -0.1)">
       <defs>
        <path id="DejaVuSans-38" d="M 2034 2216 
Q 1584 2216 1326 1975 
Q 1069 1734 1069 1313 
Q 1069 891 1326 650 
Q 1584 409 2034 409 
Q 2484 409 2743 651 
Q 3003 894 3003 1313 
Q 3003 1734 2745 1975 
Q 2488 2216 2034 2216 
z
M 1403 2484 
Q 997 2584 770 2862 
Q 544 3141 544 3541 
Q 544 4100 942 4425 
Q 1341 4750 2034 4750 
Q 2731 4750 3128 4425 
Q 3525 4100 3525 3541 
Q 3525 3141 3298 2862 
Q 3072 2584 2669 2484 
Q 3125 2378 3379 2068 
Q 3634 1759 3634 1313 
Q 3634 634 3220 271 
Q 2806 -91 2034 -91 
Q 1263 -91 848 271 
Q 434 634 434 1313 
Q 434 1759 690 2068 
Q 947 2378 1403 2484 
z
M 1172 3481 
Q 1172 3119 1398 2916 
Q 1625 2713 2034 2713 
Q 2441 2713 2670 2916 
Q 2900 3119 2900 3481 
Q 2900 3844 2670 4047 
Q 2441 4250 2034 4250 
Q 1625 4250 1398 4047 
Q 1172 3844 1172 3481 
z
" transform="scale(0.015625)"/>
       </defs>
       <use xlink:href="#DejaVuSans-38"/>
      </g>
     </g>
    </g>
   </g>
   <g id="matplotlib.axis_2">
    <g id="ytick_1">
     <g id="line2d_6">
      <defs>
       <path id="mc4df6d36f2" d="M 0 0 
L -3.5 0 
" style="stroke: #000000; stroke-width: 0.8"/>
      </defs>
      <g>
       <use xlink:href="#mc4df6d36f2" x="57.6" y="304.825808" style="stroke: #000000; stroke-width: 0.8"/>
      </g>
     </g>
     <g id="text_6">
      <!-- 0 -->
      <g transform="translate(44.2375 308.625027) scale(0.1 -0.1)">
       <use xlink:href="#DejaVuSans-30"/>
      </g>
     </g>
    </g>
    <g id="ytick_2">
     <g id="line2d_7">
      <g>
       <use xlink:href="#mc4df6d36f2" x="57.6" y="267.565671" style="stroke: #000000; stroke-width: 0.8"/>
      </g>
     </g>
     <g id="text_7">
      <!-- 20 -->
      <g transform="translate(37.875 271.36489) scale(0.1 -0.1)">
       <use xlink:href="#DejaVuSans-32"/>
       <use xlink:href="#DejaVuSans-30" transform="translate(63.623047 0)"/>
      </g>
     </g>
    </g>
    <g id="ytick_3">
     <g id="line2d_8">
      <g>
       <use xlink:href="#mc4df6d36f2" x="57.6" y="230.305535" style="stroke: #000000; stroke-width: 0.8"/>
      </g>
     </g>
     <g id="text_8">
      <!-- 40 -->
      <g transform="translate(37.875 234.104754) scale(0.1 -0.1)">
       <use xlink:href="#DejaVuSans-34"/>
       <use xlink:href="#DejaVuSans-30" transform="translate(63.623047 0)"/>
      </g>
     </g>
    </g>
    <g id="ytick_4">
     <g id="line2d_9">
      <g>
       <use xlink:href="#mc4df6d36f2" x="57.6" y="193.045399" style="stroke: #000000; stroke-width: 0.8"/>
      </g>
     </g>
     <g id="text_9">
      <!-- 60 -->
      <g transform="translate(37.875 196.844617) scale(0.1 -0.1)">
       <use xlink:href="#DejaVuSans-36"/>
       <use xlink:href="#DejaVuSans-30" transform="translate(63.623047 0)"/>
      </g>
     </g>
    </g>
    <g id="ytick_5">
     <g id="line2d_10">
      <g>
       <use xlink:href="#mc4df6d36f2" x="57.6" y="155.785262" style="stroke: #000000; stroke-width: 0.8"/>
      </g>
     </g>
     <g id="text_10">
      <!-- 80 -->
      <g transform="translate(37.875 159.584481) scale(0.1 -0.1)">
       <use xlink:href="#DejaVuSans-38"/>
       <use xlink:href="#DejaVuSans-30" transform="translate(63.623047 0)"/>
      </g>
     </g>
    </g>
    <g id="ytick_6">
     <g id="line2d_11">
      <g>
       <use xlink:href="#mc4df6d36f2" x="57.6" y="118.525126" style="stroke: #000000; stroke-width: 0.8"/>
      </g>
     </g>
     <g id="text_11">
      <!-- 100 -->
      <g transform="translate(31.5125 122.324345) scale(0.1 -0.1)">
       <defs>
        <path id="DejaVuSans-31" d="M 794 531 
L 1825 531 
L 1825 4091 
L 703 3866 
L 703 4441 
L 1819 4666 
L 2450 4666 
L 2450 531 
L 3481 531 
L 3481 0 
L 794 0 
L 794 531 
z
" transform="scale(0.015625)"/>
       </defs>
       <use xlink:href="#DejaVuSans-31"/>
       <use xlink:href="#DejaVuSans-30" transform="translate(63.623047 0)"/>
       <use xlink:href="#DejaVuSans-30" transform="translate(127.246094 0)"/>
      </g>
     </g>
    </g>
    <g id="ytick_7">
     <g id="line2d_12">
      <g>
       <use xlink:href="#mc4df6d36f2" x="57.6" y="81.264989" style="stroke: #000000; stroke-width: 0.8"/>
      </g>
     </g>
     <g id="text_12">
      <!-- 120 -->
      <g transform="translate(31.5125 85.064208) scale(0.1 -0.1)">
       <use xlink:href="#DejaVuSans-31"/>
       <use xlink:href="#DejaVuSans-32" transform="translate(63.623047 0)"/>
       <use xlink:href="#DejaVuSans-30" transform="translate(127.246094 0)"/>
      </g>
     </g>
    </g>
    <g id="ytick_8">
     <g id="line2d_13">
      <g>
       <use xlink:href="#mc4df6d36f2" x="57.6" y="44.004853" style="stroke: #000000; stroke-width: 0.8"/>
      </g>
     </g>
     <g id="text_13">
      <!-- 140 -->
      <g transform="translate(31.5125 47.804072) scale(0.1 -0.1)">
       <use xlink:href="#DejaVuSans-31"/>
       <use xlink:href="#DejaVuSans-34" transform="translate(63.623047 0)"/>
       <use xlink:href="#DejaVuSans-30" transform="translate(127.246094 0)"/>
      </g>
     </g>
    </g>
   </g>
   <g id="line2d_14">
    <path d="M 73.832727 295.488 
L 109.905455 293.447135 
L 145.978182 291.706707 
L 182.050909 290.216574 
L 218.123636 288.935245 
L 254.196364 287.828502 
L 290.269091 286.868177 
L 326.341818 286.031082 
L 362.414545 285.298118 
L 398.487273 284.653539 
" clip-path="url(#p2f0a3178d6)" style="fill: none; stroke: #000000; stroke-width: 1.5; stroke-linecap: square"/>
   </g>
   <g id="line2d_15">
    <path d="M 73.832727 293.761325 
L 109.905455 290.904114 
L 145.978182 288.465945 
L 182.050909 286.37584 
L 218.123636 284.575095 
L 254.196364 283.015342 
L 290.269091 281.656846 
L 326.341818 280.466996 
L 362.414545 279.419019 
L 398.487273 278.490916 
" clip-path="url(#p2f0a3178d6)" style="fill: none; stroke: #000000; stroke-width: 1.5; stroke-linecap: square"/>
   </g>
   <g id="line2d_16">
    <path d="M 73.832727 291.553912 
L 109.905455 287.602966 
L 145.978182 284.22918 
L 182.050909 281.333223 
L 218.123636 278.832874 
L 254.196364 276.660414 
L 290.269091 274.760283 
L 326.341818 273.086964 
L 362.414545 271.603166 
L 398.487273 270.278283 
" clip-path="url(#p2f0a3178d6)" style="fill: none; stroke: #000000; stroke-width: 1.5; stroke-linecap: square"/>
   </g>
   <g id="line2d_17">
    <path d="M 73.832727 288.719694 
L 109.905455 283.311563 
L 145.978182 278.690182 
L 182.050909 274.717735 
L 218.123636 271.279998 
L 254.196364 268.282812 
L 290.269091 265.648934 
L 326.341818 263.315058 
L 362.414545 261.229289 
L 398.487273 259.349009 
" clip-path="url(#p2f0a3178d6)" style="fill: none; stroke: #000000; stroke-width: 1.5; stroke-linecap: square"/>
   </g>
   <g id="line2d_18">
    <path d="M 73.832727 285.072178 
L 109.905455 277.731557 
L 145.978182 271.454143 
L 182.050909 266.050081 
L 218.123636 261.361589 
L 254.196364 257.258399 
L 290.269091 253.633398 
L 326.341818 250.398589 
L 362.414545 247.481479 
L 398.487273 244.82207 
" clip-path="url(#p2f0a3178d6)" style="fill: none; stroke: #000000; stroke-width: 1.5; stroke-linecap: square"/>
   </g>
   <g id="line2d_19">
    <path d="M 73.832727 280.372866 
L 109.905455 270.479224 
L 145.978182 262.011936 
L 182.050909 254.710911 
L 218.123636 248.359184 
L 254.196364 242.777015 
L 290.269091 237.815938 
L 326.341818 233.35314 
L 362.414545 229.286376 
L 398.487273 225.52959 
" clip-path="url(#p2f0a3178d6)" style="fill: none; stroke: #000000; stroke-width: 1.5; stroke-linecap: square"/>
   </g>
   <g id="line2d_20">
    <path d="M 73.832727 274.316395 
L 109.905455 261.06079 
L 145.978182 249.706916 
L 182.050909 239.899973 
L 218.123636 231.342553 
L 254.196364 223.786866 
L 290.269091 217.026694 
L 326.341818 210.889404 
L 362.414545 205.228577 
L 398.487273 199.916864 
" clip-path="url(#p2f0a3178d6)" style="fill: none; stroke: #000000; stroke-width: 1.5; stroke-linecap: square"/>
   </g>
   <g id="line2d_21">
    <path d="M 73.832727 266.511679 
L 109.905455 248.841061 
L 145.978182 233.692511 
L 182.050909 220.583707 
L 218.123636 209.107671 
L 254.196364 198.922728 
L 290.269091 189.741089 
L 326.341818 181.317476 
L 362.414545 173.437235 
L 398.487273 165.904403 
" clip-path="url(#p2f0a3178d6)" style="fill: none; stroke: #000000; stroke-width: 1.5; stroke-linecap: square"/>
   </g>
   <g id="line2d_22">
    <path d="M 73.832727 256.457682 
L 109.905455 233.002895 
L 145.978182 212.877576 
L 182.050909 195.427522 
L 218.123636 180.096469 
L 254.196364 166.41227 
L 290.269091 153.970752 
L 326.341818 142.418083 
L 362.414545 131.430689 
L 398.487273 120.691835 
" clip-path="url(#p2f0a3178d6)" style="fill: none; stroke: #000000; stroke-width: 1.5; stroke-linecap: square"/>
   </g>
   <g id="line2d_23">
    <path d="M 73.832727 243.512655 
L 109.905455 212.495763 
L 145.978182 185.856529 
L 182.050909 162.709339 
L 218.123636 142.293814 
L 254.196364 123.955508 
L 290.269091 107.121856 
L 326.341818 91.272951 
L 362.414545 75.904353 
L 398.487273 60.475703 
" clip-path="url(#p2f0a3178d6)" style="fill: none; stroke: #000000; stroke-width: 1.5; stroke-linecap: square"/>
   </g>
   <g id="line2d_24">
    <path d="M 73.832727 292.53635 
L 109.905455 291.538341 
L 145.978182 290.533894 
L 182.050909 290.658377 
L 218.123636 289.658222 
L 254.196364 289.782705 
L 290.269091 288.780404 
L 326.341818 287.780248 
L 362.414545 286.777947 
L 398.487273 286.906722 
" clip-path="url(#p2f0a3178d6)" style="fill: none; stroke: #ff0000; stroke-width: 1.5; stroke-linecap: square"/>
   </g>
   <g id="line2d_25">
    <path d="M 73.832727 290.274197 
L 109.905455 289.274042 
L 145.978182 287.142811 
L 182.050909 286.142655 
L 218.123636 285.140354 
L 254.196364 284.138053 
L 290.269091 283.137897 
L 326.341818 282.137744 
L 362.414545 281.137589 
L 398.487273 280.133141 
" clip-path="url(#p2f0a3178d6)" style="fill: none; stroke: #ff0000; stroke-width: 1.5; stroke-linecap: square"/>
   </g>
   <g id="line2d_26">
    <path d="M 73.832727 288.012044 
L 109.905455 285.882958 
L 145.978182 283.753873 
L 182.050909 281.624789 
L 218.123636 279.497849 
L 254.196364 278.495548 
L 290.269091 277.493247 
L 326.341818 276.493091 
L 362.414545 274.361861 
L 398.487273 272.237068 
" clip-path="url(#p2f0a3178d6)" style="fill: none; stroke: #ff0000; stroke-width: 1.5; stroke-linecap: square"/>
   </g>
   <g id="line2d_27">
    <path d="M 73.832727 283.49203 
L 109.905455 280.238308 
L 145.978182 276.984584 
L 182.050909 274.853354 
L 218.123636 271.59963 
L 254.196364 270.601621 
L 290.269091 267.345751 
L 326.341818 265.212373 
L 362.414545 263.085434 
L 398.487273 260.958498 
" clip-path="url(#p2f0a3178d6)" style="fill: none; stroke: #ff0000; stroke-width: 1.5; stroke-linecap: square"/>
   </g>
   <g id="line2d_28">
    <path d="M 73.832727 280.103094 
L 109.905455 274.593657 
L 145.978182 270.211003 
L 182.050909 265.830495 
L 218.123636 261.445694 
L 254.196364 259.320905 
L 290.269091 254.938251 
L 326.341818 251.684527 
L 362.414545 248.428657 
L 398.487273 245.170644 
" clip-path="url(#p2f0a3178d6)" style="fill: none; stroke: #ff0000; stroke-width: 1.5; stroke-linecap: square"/>
   </g>
   <g id="line2d_29">
    <path d="M 73.832727 274.458443 
L 109.905455 267.824366 
L 145.978182 261.188144 
L 182.050909 255.680855 
L 218.123636 250.16927 
L 254.196364 244.661982 
L 290.269091 239.152543 
L 326.341818 233.643105 
L 362.414545 229.264743 
L 398.487273 223.753158 
" clip-path="url(#p2f0a3178d6)" style="fill: none; stroke: #ff0000; stroke-width: 1.5; stroke-linecap: square"/>
   </g>
   <g id="line2d_30">
    <path d="M 73.832727 269.942721 
L 109.905455 258.801511 
L 145.978182 249.91172 
L 182.050909 241.019786 
L 218.123636 233.258925 
L 254.196364 225.498064 
L 290.269091 217.732911 
L 326.341818 209.972058 
L 362.414545 203.337981 
L 398.487273 196.701758 
" clip-path="url(#p2f0a3178d6)" style="fill: none; stroke: #ff0000; stroke-width: 1.5; stroke-linecap: square"/>
   </g>
   <g id="line2d_31">
    <path d="M 73.832727 263.171284 
L 109.905455 248.647575 
L 145.978182 234.123866 
L 182.050909 222.984799 
L 218.123636 211.8393 
L 254.196364 199.571302 
L 290.269091 189.554727 
L 326.341818 178.413521 
L 362.414545 169.521583 
L 398.487273 160.636084 
" clip-path="url(#p2f0a3178d6)" style="fill: none; stroke: #ff0000; stroke-width: 1.5; stroke-linecap: square"/>
   </g>
   <g id="line2d_32">
    <path d="M 73.832727 255.273066 
L 109.905455 233.990798 
L 145.978182 217.213524 
L 182.050909 199.311605 
L 218.123636 183.661116 
L 254.196364 168.008473 
L 290.269091 152.362269 
L 326.341818 140.092125 
L 362.414545 125.570573 
L 398.487273 109.920076 
" clip-path="url(#p2f0a3178d6)" style="fill: none; stroke: #ff0000; stroke-width: 1.5; stroke-linecap: square"/>
   </g>
   <g id="line2d_33">
    <path d="M 73.832727 245.123427 
L 109.905455 218.202941 
L 145.978182 193.54247 
L 182.050909 172.255913 
L 218.123636 150.973641 
L 254.196364 129.689237 
L 290.269091 109.53375 
L 326.341818 90.5029 
L 362.414545 72.600982 
L 398.487273 53.568 
" clip-path="url(#p2f0a3178d6)" style="fill: none; stroke: #ff0000; stroke-width: 1.5; stroke-linecap: square"/>
   </g>
   <g id="patch_3">
    <path d="M 57.6 307.584 
L 57.6 41.472 
" style="fill: none; stroke: #000000; stroke-width: 0.8; stroke-linejoin: miter; stroke-linecap: square"/>
   </g>
   <g id="patch_4">
    <path d="M 414.72 307.584 
L 414.72 41.472 
" style="fill: none; stroke: #000000; stroke-width: 0.8; stroke-linejoin: miter; stroke-linecap: square"/>
   </g>
   <g id="patch_5">
    <path d="M 57.6 307.584 
L 414.72 307.584 
" style="fill: none; stroke: #000000; stroke-width: 0.8; stroke-linejoin: miter; stroke-linecap: square"/>
   </g>
   <g id="patch_6">
    <path d="M 57.6 41.472 
L 414.72 41.472 
" style="fill: none; stroke: #000000; stroke-width: 0.8; stroke-linejoin: miter; stroke-linecap: square"/>
   </g>
  </g>
 </g>
 <defs>
  <clipPath id="p2f0a3178d6">
   <rect x="57.6" y="41.472" width="357.12" height="266.112"/>
  </clipPath>
 </defs>
</svg>
