<?xml version="1.0" encoding="utf-8" standalone="no"?>
<!DOCTYPE svg PUBLIC "-//W3C//DTD SVG 1.1//EN"
  "http://www.w3.org/Graphics/SVG/1.1/DTD/svg11.dtd">
<svg xmlns:xlink="http://www.w3.org/1999/xlink" width="460.8pt" height="345.6pt" viewBox="0 0 460.8 345.6" xmlns="http://www.w3.org/2000/svg" version="1.1">
 <metadata>
  <rdf:RDF xmlns:dc="http://purl.org/dc/elements/1.1/" xmlns:cc="http://creativecommons.org/ns#" xmlns:rdf="http://www.w3.org/1999/02/22-rdf-syntax-ns#">
   <cc:Work>
    <dc:type rdf:resource="http://purl.org/dc/dcmitype/StillImage"/>
    <dc:date>2025-01-29T20:36:31.840817</dc:date>
    <dc:format>image/svg+xml</dc:format>
    <dc:creator>
     <cc:Agent>
      <dc:title>Matplotlib v3.10.0, https://matplotlib.org/</dc:title>
     </cc:Agent>
    </dc:creator>
   </cc:Work>
  </rdf:RDF>
 </metadata>
 <defs>
  <style type="text/css">*{stroke-linejoin: round; stroke-linecap: butt}</style>
 </defs>
 <g id="figure_1">
  <g id="patch_1">
   <path d="M 0 345.6 
L 460.8 345.6 
L 460.8 0 
L 0 0 
z
" style="fill: #ffffff"/>
  </g>
  <g id="axes_1">
   <g id="line2d_1">
    <path d="M 73.832727 275.486915 
L 73.930133 275.564166 
L 75.099007 277.493113 
L 75.391225 277.350788 
L 75.650975 276.523612 
L 76.138005 276.729993 
L 76.495161 276.996784 
L 76.689973 276.360391 
L 76.852317 274.780333 
L 77.177004 270.616252 
L 77.27441 269.581395 
L 77.599097 266.627564 
L 77.793909 264.691244 
L 78.118596 261.019174 
L 78.897845 249.497746 
L 79.157594 239.595488 
L 79.384875 220.508271 
L 79.579687 182.32203 
L 79.969312 83.719091 
L 80.001781 84.190293 
L 80.164124 90.78077 
L 80.586217 120.111615 
L 81.917434 215.703827 
L 82.501871 258.766361 
L 83.02137 293.168518 
L 83.281119 296.895742 
L 83.313588 297.099131 
L 83.378525 296.952759 
L 83.475932 296.628996 
L 83.5084 296.844893 
L 83.605806 297.428927 
L 83.638275 297.281213 
L 83.703213 297.508836 
L 83.76815 297.802409 
L 83.800619 297.759754 
L 83.865556 297.542062 
L 83.898025 297.682358 
L 84.060368 297.750128 
L 84.190243 297.372802 
L 84.677274 291.096387 
L 85.099367 286.5565 
L 85.131835 286.631943 
L 85.196773 286.644184 
L 85.294179 286.87358 
L 85.326648 286.579823 
L 85.359116 286.775102 
L 85.52146 287.402843 
L 85.781209 283.552873 
L 85.878615 284.264915 
L 86.52799 291.453591 
L 86.560458 291.433122 
L 86.592927 291.522128 
L 86.75527 292.204006 
L 86.820208 292.3908 
L 86.852677 292.331864 
L 86.950083 291.607179 
L 87.079957 290.639818 
L 87.177364 290.782396 
L 87.209832 290.745245 
L 87.27477 290.834556 
L 87.307238 290.744357 
L 87.534519 289.494763 
L 87.599457 288.641324 
L 87.826738 284.336027 
L 87.989081 284.571417 
L 88.313768 282.764278 
L 88.50858 275.641494 
L 89.093017 249.794352 
L 89.157954 248.810603 
L 89.222892 248.902424 
L 89.385235 250.38042 
L 89.450173 250.236166 
L 89.709922 246.518421 
L 90.132015 233.210165 
L 90.359296 218.230186 
L 90.554109 191.064338 
L 91.00867 112.369209 
L 91.041139 112.727422 
L 91.203483 119.619594 
L 91.625576 150.783487 
L 92.534699 215.569897 
L 93.736041 290.366211 
L 93.833447 291.775065 
L 93.963322 294.094178 
L 94.02826 294.076513 
L 94.158134 294.186962 
L 94.190603 294.148464 
L 94.223072 294.360489 
L 94.288009 294.087663 
L 94.450353 292.452538 
L 94.547759 292.967531 
L 94.580227 292.992758 
L 94.807508 294.11467 
L 94.839977 294.087487 
L 94.904914 293.959694 
L 95.197133 289.415724 
L 95.229602 289.642083 
L 95.294539 290.052822 
L 95.749101 295.600077 
L 95.846507 295.935614 
L 95.878976 295.887161 
L 95.943913 295.926977 
L 95.976382 296.028807 
L 96.041319 295.968614 
L 96.203663 295.67261 
L 96.236131 295.710299 
L 96.2686 295.726648 
L 96.301069 295.633957 
L 96.430943 295.16392 
L 96.593287 292.705246 
L 96.917974 288.554765 
L 97.047849 287.595844 
L 97.27513 285.159487 
L 98.119316 292.109713 
L 98.573878 293.669908 
L 99.02844 294.078082 
L 99.580407 293.845056 
L 100.164844 293.332465 
L 100.879156 292.341588 
L 101.593467 291.079747 
L 103.346777 288.046681 
L 104.288369 286.424917 
L 104.7754 284.457138 
L 105.035149 283.713784 
L 105.26243 283.440574 
L 105.52218 283.155459 
L 105.749461 282.59895 
L 105.879336 281.90783 
L 106.26896 280.161152 
L 107.080678 276.078538 
L 107.243021 273.645636 
L 107.859926 260.499026 
L 108.217082 257.62484 
L 108.574238 251.611513 
L 108.833987 242.851149 
L 109.061268 226.91286 
L 109.256081 195.859115 
L 109.678174 81.36045 
L 109.77558 83.342018 
L 110.035329 97.156108 
L 110.847047 158.873502 
L 112.827638 298.655806 
L 113.02245 299.918903 
L 113.087387 299.978701 
L 113.152325 299.928166 
L 113.541949 300.037234 
L 114.678354 299.305672 
L 115.684883 298.299835 
L 117.373256 295.982245 
L 117.990161 294.209558 
L 118.217442 293.777243 
L 118.412254 293.367175 
L 118.672004 292.391625 
L 119.02916 291.981816 
L 119.256441 291.321648 
L 119.873346 288.591308 
L 120.035689 288.606065 
L 120.230502 288.620116 
L 120.620126 288.368902 
L 120.814938 288.059756 
L 121.042219 287.542129 
L 121.237031 287.411465 
L 121.853937 284.791177 
L 122.243561 282.809307 
L 122.568248 281.696137 
L 122.698123 280.549692 
L 123.087747 273.563967 
L 123.477372 265.023611 
L 123.866996 263.167385 
L 124.354027 262.807764 
L 124.613776 262.187551 
L 124.841057 261.285193 
L 125.555369 257.140807 
L 125.944993 252.674385 
L 126.237211 246.117456 
L 126.496961 234.076697 
L 126.724242 209.965304 
L 126.919054 163.016225 
L 127.243741 89.486138 
L 127.308679 90.471894 
L 127.503491 100.078887 
L 128.120396 146.961033 
L 129.224332 224.647379 
L 129.743831 267.475431 
L 130.133456 296.186286 
L 130.360736 299.684485 
L 130.555549 300.174616 
L 130.78283 300.185644 
L 131.01011 300.009384 
L 131.237391 299.687402 
L 131.432204 299.396305 
L 131.724422 298.113998 
L 132.114046 295.755018 
L 132.243921 295.643352 
L 132.341327 295.283951 
L 132.373796 295.332915 
L 132.471202 295.623075 
L 132.503671 295.573127 
L 132.568608 295.594614 
L 132.698483 296.052937 
L 132.925764 296.507904 
L 132.958233 296.561568 
L 132.990701 296.43027 
L 133.802419 291.281563 
L 133.834887 291.284646 
L 133.899825 291.064969 
L 133.964762 291.158895 
L 134.0297 291.16882 
L 134.127106 290.210204 
L 134.289449 289.273522 
L 134.321918 289.146281 
L 134.354387 289.285367 
L 134.386855 289.414756 
L 134.451793 289.368353 
L 134.549199 289.076186 
L 134.646605 289.21501 
L 134.841417 289.467488 
L 134.873886 289.353509 
L 135.555729 283.664642 
L 135.588197 283.700425 
L 135.653135 283.624395 
L 135.750541 283.299753 
L 135.880416 282.687134 
L 136.302509 276.633199 
L 136.334977 276.807359 
L 136.52979 277.70218 
L 136.886945 279.515583 
L 136.951883 279.289882 
L 137.049289 279.128199 
L 137.081758 279.150959 
L 137.309039 279.964416 
L 137.373976 280.050282 
L 137.536319 281.474816 
L 137.893475 283.677247 
L 138.088287 284.260496 
L 138.477912 285.942588 
L 139.02988 286.763853 
L 139.387035 287.073012 
L 139.451973 286.970322 
L 139.614316 286.96581 
L 140.166284 287.419807 
L 140.426034 287.399625 
L 140.848127 287.274051 
L 141.465032 286.88442 
L 142.244281 286.117194 
L 142.406625 285.720973 
L 142.731312 285.025418 
L 143.250811 284.275942 
L 144.224872 282.704535 
L 145.004121 281.822183 
L 145.328808 280.840587 
L 145.491151 279.361809 
L 145.750901 276.373254 
L 146.108057 275.703658 
L 146.172994 275.747405 
L 146.854837 276.200795 
L 148.802959 276.970251 
L 149.257521 276.608186 
L 149.419864 275.924265 
L 150.036769 271.282095 
L 150.296519 270.5903 
L 150.686144 270.817827 
L 151.692673 272.060857 
L 152.244641 272.812151 
L 152.439453 272.569468 
L 152.699203 271.998615 
L 152.796609 271.792972 
L 152.958953 271.358996 
L 152.991421 271.39982 
L 153.348577 271.614412 
L 153.413514 271.643556 
L 154.51745 274.807858 
L 155.134356 276.3937 
L 155.166824 276.381673 
L 155.296699 276.300326 
L 155.459043 276.162819 
L 155.588917 276.127042 
L 155.653855 276.193973 
L 155.816198 276.405376 
L 156.043479 276.05183 
L 156.108417 276.14025 
L 156.303229 276.439584 
L 156.335698 276.423997 
L 156.757791 276.588203 
L 156.985072 276.893018 
L 157.01754 276.823569 
L 157.244821 275.946547 
L 157.634446 273.761937 
L 157.731852 273.736448 
L 157.894195 274.264756 
L 158.316288 275.445442 
L 158.608507 275.834959 
L 158.673444 275.597152 
L 158.803319 273.646764 
L 159.290349 254.720215 
L 159.907255 224.129857 
L 160.102067 190.5131 
L 160.491691 79.966195 
L 160.556629 80.61628 
L 160.589097 80.809535 
L 160.718972 88.135165 
L 161.400815 137.272501 
L 162.504751 215.827122 
L 163.089187 259.369613 
L 163.576218 295.016249 
L 163.641155 296.06794 
L 163.706093 295.713791 
L 163.738561 295.468382 
L 163.77103 295.499323 
L 163.835968 296.058212 
L 163.868436 295.852586 
L 164.290529 288.544384 
L 164.322998 288.961327 
L 164.51781 287.774884 
L 164.582748 288.522981 
L 164.615216 288.254888 
L 164.647685 287.583996 
L 164.712623 287.799662 
L 164.874966 289.227917 
L 164.939903 288.811669 
L 165.03731 287.996655 
L 165.069778 288.280157 
L 165.491871 295.394654 
L 165.913964 297.279792 
L 165.946433 297.242015 
L 166.043839 296.481032 
L 166.563339 286.058075 
L 166.725682 283.242316 
L 166.758151 283.475304 
L 166.790619 283.0626 
L 167.050369 280.780733 
L 167.212713 281.273583 
L 167.245181 281.143622 
L 167.439993 282.817495 
L 167.504931 282.631517 
L 167.862087 286.572363 
L 168.02443 286.775396 
L 168.056899 286.761413 
L 168.121836 286.533888 
L 168.154305 286.617275 
L 169.355647 292.932073 
L 169.712803 293.492691 
L 169.972552 293.562466 
L 170.26477 293.494369 
L 170.52452 293.184973 
L 171.011551 292.27072 
L 171.401175 290.492595 
L 171.693393 286.331636 
L 172.440173 271.173825 
L 172.570048 270.951588 
L 172.602517 270.915496 
L 172.699923 270.43439 
L 172.76486 270.523062 
L 172.927204 271.555066 
L 173.02461 271.711039 
L 173.186954 270.969769 
L 173.219422 271.058533 
L 175.135076 282.653723 
L 175.362357 283.238242 
L 175.394825 283.171408 
L 175.654575 282.357524 
L 175.719512 282.381917 
L 175.816918 282.295069 
L 175.849387 282.253675 
L 175.914325 282.346659 
L 176.044199 282.17416 
L 176.27148 280.048972 
L 176.53123 277.270056 
L 176.596167 277.200608 
L 177.083198 275.512748 
L 177.148135 275.671452 
L 178.739102 280.705487 
L 179.388476 281.752391 
L 179.940443 282.25435 
L 180.200193 282.343734 
L 180.492411 282.053114 
L 180.687224 281.932913 
L 181.369066 281.959534 
L 182.083378 281.877574 
L 182.927564 281.558118 
L 183.674344 281.043028 
L 184.063969 280.789876 
L 185.914685 279.447331 
L 187.051089 278.662926 
L 187.375776 278.285164 
L 187.992681 278.011974 
L 188.252431 277.903902 
L 190.070678 277.825789 
L 190.427834 277.745664 
L 190.590178 277.502563 
L 190.817458 275.861936 
L 191.109677 270.990414 
L 191.434364 263.367078 
L 191.661645 261.656743 
L 192.505831 248.670104 
L 192.765581 236.445377 
L 192.960393 216.554614 
L 193.155205 170.828236 
L 193.479892 80.392624 
L 193.512361 80.501834 
L 193.642235 84.559413 
L 193.966923 104.117583 
L 196.207263 272.668943 
L 196.564419 297.018815 
L 196.7917 299.90486 
L 196.986512 300.261528 
L 197.213793 300.236857 
L 197.830698 299.853549 
L 198.057979 299.578429 
L 198.545009 297.094902 
L 198.934634 291.093431 
L 199.129446 287.552631 
L 199.161915 287.426418 
L 199.194383 287.756869 
L 199.259321 287.416397 
L 199.324258 286.855476 
L 199.454133 282.205797 
L 199.681414 273.958487 
L 199.746351 274.447749 
L 199.843757 276.653728 
L 200.071038 280.759762 
L 200.103507 280.631323 
L 200.135976 280.745688 
L 200.493131 284.48403 
L 200.558069 284.39685 
L 200.78535 281.133218 
L 200.882756 281.592598 
L 200.980162 281.158961 
L 201.110037 279.52419 
L 201.369786 273.166731 
L 201.986692 247.061193 
L 202.01916 246.40236 
L 202.084098 247.269538 
L 202.246441 248.587197 
L 202.27891 248.387006 
L 202.441254 246.460627 
L 202.636066 244.667904 
L 202.830878 241.044058 
L 203.447783 216.447705 
L 203.707533 182.706955 
L 204.129626 127.199453 
L 204.194563 126.887829 
L 204.324438 132.20044 
L 204.941344 176.917661 
L 206.662185 296.334793 
L 206.889466 298.584078 
L 207.214153 299.615446 
L 207.53884 299.73888 
L 208.02587 299.453549 
L 208.999931 298.567383 
L 209.844118 297.542258 
L 212.344208 293.9428 
L 213.220862 292.340484 
L 213.610487 291.193596 
L 213.837768 290.696208 
L 214.097517 290.157279 
L 214.29233 289.712019 
L 214.681954 287.955346 
L 215.233922 285.319538 
L 215.720952 284.965596 
L 216.175514 284.980303 
L 216.53267 284.781379 
L 216.662545 284.37946 
L 216.857357 283.888714 
L 217.182044 283.601767 
L 217.734012 283.383763 
L 218.740542 282.83607 
L 219.941884 281.938505 
L 220.266571 281.542733 
L 220.623726 281.100383 
L 221.370507 280.04585 
L 221.695194 279.329471 
L 222.149755 278.757955 
L 222.409505 278.207728 
L 222.636786 277.559484 
L 223.383566 275.785307 
L 223.77319 275.756668 
L 223.968003 275.755026 
L 224.227752 275.742619 
L 224.357627 275.397721 
L 224.649845 274.08276 
L 224.974532 271.80963 
L 225.364157 269.731793 
L 225.558969 269.164001 
L 226.370687 265.637875 
L 226.597967 263.328716 
L 226.857717 259.816873 
L 227.572028 242.427289 
L 227.799309 226.644825 
L 227.994122 195.48139 
L 228.416215 82.034797 
L 228.513621 83.991028 
L 228.77337 97.856502 
L 229.617557 161.911051 
L 231.565679 298.919167 
L 231.760491 300.09738 
L 231.955303 300.259549 
L 232.247521 300.141679 
L 233.611207 299.130929 
L 234.747611 297.962072 
L 235.981422 296.37612 
L 236.825608 294.664612 
L 237.085358 294.081454 
L 237.637326 293.415896 
L 237.994482 292.8111 
L 238.611387 291.557096 
L 239.617917 289.910708 
L 240.04001 289.181515 
L 240.202353 288.346868 
L 240.591978 286.798149 
L 241.176414 285.018588 
L 241.598507 284.859968 
L 241.955663 284.290253 
L 242.215413 283.867382 
L 242.702443 281.97104 
L 242.929724 278.90872 
L 243.838848 257.442142 
L 244.066129 254.876518 
L 244.325878 249.136903 
L 244.553159 239.810042 
L 244.78044 219.848037 
L 244.975252 178.963838 
L 245.332408 81.198347 
L 245.364877 81.422791 
L 245.52722 87.208592 
L 245.916845 112.728709 
L 247.572749 230.013419 
L 248.02731 267.74954 
L 248.449403 294.274056 
L 248.676684 296.664938 
L 248.839028 297.409908 
L 248.936434 298.037385 
L 248.968903 297.886898 
L 249.131246 296.753848 
L 249.261121 296.956077 
L 249.358527 297.53187 
L 249.520871 298.182462 
L 249.553339 298.034348 
L 249.618277 297.675277 
L 249.878026 295.347362 
L 250.105307 293.692219 
L 250.170245 294.153543 
L 250.689744 296.960273 
L 250.722213 296.837546 
L 250.917025 296.234191 
L 250.949493 296.29994 
L 251.0469 296.421288 
L 251.404055 297.580078 
L 251.631336 297.747519 
L 251.988492 297.611949 
L 252.475522 297.12312 
L 253.352177 295.986706 
L 253.969083 294.914721 
L 254.261301 294.374989 
L 254.683394 293.560202 
L 255.819799 291.311302 
L 256.176954 290.26418 
L 256.53411 289.516237 
L 257.410765 285.518466 
L 257.735452 281.663237 
L 257.832858 281.284734 
L 258.28742 279.316047 
L 258.709513 274.254968 
L 259.0342 268.000671 
L 259.196544 267.043132 
L 259.229012 267.096532 
L 259.456293 267.465623 
L 259.716043 267.865804 
L 259.975792 267.791533 
L 260.008261 267.769035 
L 260.04073 267.824218 
L 260.690104 269.130639 
L 261.404415 271.904124 
L 262.248602 275.443077 
L 262.28107 275.421077 
L 262.313539 275.440583 
L 262.346008 275.355491 
L 262.508351 274.039722 
L 262.865507 270.517392 
L 262.995382 269.540844 
L 263.125257 268.754664 
L 263.157725 268.791688 
L 263.839568 272.350672 
L 264.911035 277.862628 
L 265.52794 280.307293 
L 266.274721 282.221704 
L 266.729282 282.901648 
L 266.891626 282.897567 
L 267.183844 282.623246 
L 267.768281 280.038472 
L 268.28778 276.90318 
L 268.450124 276.700882 
L 268.612467 276.073613 
L 268.872217 273.534003 
L 269.456653 253.698091 
L 269.878746 226.458556 
L 270.04109 200.163017 
L 270.268371 124.578748 
L 270.463183 79.569544 
L 270.495652 79.184856 
L 270.52812 79.793768 
L 270.755401 89.767307 
L 271.502181 145.564214 
L 272.606117 222.498747 
L 273.125617 264.656423 
L 273.54771 296.462891 
L 273.742522 299.143904 
L 273.839928 299.329365 
L 273.872397 299.317792 
L 273.969803 299.140399 
L 274.03474 298.835931 
L 274.099678 298.981774 
L 274.164615 298.860549 
L 274.197084 298.943065 
L 274.359427 299.119377 
L 274.489302 298.834191 
L 274.586708 298.317918 
L 274.684114 298.372213 
L 274.749052 298.008907 
L 274.878926 297.399125 
L 274.911395 297.482173 
L 275.138676 298.345706 
L 275.236082 298.19298 
L 275.365957 297.880079 
L 275.723113 296.820514 
L 275.78805 296.957506 
L 275.852987 297.091399 
L 275.917925 297.044252 
L 276.177674 296.806809 
L 276.210143 296.786985 
L 276.664705 293.793669 
L 276.762111 293.254582 
L 276.924455 292.842737 
L 277.021861 292.323521 
L 277.216673 291.429495 
L 277.28161 291.36115 
L 277.80111 293.557593 
L 277.866047 293.602965 
L 278.158265 294.097107 
L 278.54789 294.505648 
L 278.905045 294.31207 
L 279.067389 293.749177 
L 279.651826 291.057421 
L 279.976513 290.499975 
L 280.073919 290.314048 
L 280.755761 286.818386 
L 280.950574 286.239437 
L 281.04798 286.009898 
L 281.177855 284.775657 
L 281.827229 274.437766 
L 281.859697 274.572908 
L 281.892166 274.633479 
L 282.022041 273.023931 
L 282.54154 264.987273 
L 282.574009 264.882484 
L 282.606477 264.974652 
L 282.963633 265.985272 
L 283.28832 267.494105 
L 284.359787 274.988338 
L 285.106567 280.503901 
L 285.691004 283.303978 
L 286.178035 284.666957 
L 286.632596 285.378167 
L 287.087158 285.695177 
L 287.54172 285.730563 
L 288.710593 285.088702 
L 289.749592 284.12507 
L 291.080808 282.64217 
L 292.152276 281.414591 
L 294.684834 279.292893 
L 295.886176 278.418109 
L 296.730362 277.600068 
L 297.347268 276.865318 
L 298.710953 276.887525 
L 300.107107 277.170831 
L 301.178575 277.358859 
L 301.568199 277.011381 
L 301.79548 276.695301 
L 301.892886 276.374431 
L 302.217573 273.297009 
L 303.126697 264.258116 
L 303.256571 263.279546 
L 303.711133 259.989852 
L 304.003352 256.783214 
L 304.392976 248.557308 
L 304.652726 236.581465 
L 304.847538 217.492132 
L 305.04235 174.183823 
L 305.399506 81.964067 
L 305.496912 84.343482 
L 305.756661 98.526152 
L 306.763191 174.330766 
L 308.224283 285.537806 
L 308.484032 297.490951 
L 308.711313 299.06272 
L 308.743782 299.108701 
L 308.776251 299.067011 
L 308.808719 298.967742 
L 308.841188 299.016026 
L 309.100938 299.629211 
L 309.360687 299.508179 
L 309.458093 299.404916 
L 309.490562 299.454688 
L 309.717843 299.63139 
L 310.010061 299.527593 
L 310.334748 299.298665 
L 310.821779 298.863371 
L 311.081529 298.57119 
L 311.308809 297.906392 
L 311.665965 296.059658 
L 311.828309 295.949752 
L 311.925715 295.940347 
L 311.958183 295.980345 
L 312.088058 296.14229 
L 312.315339 296.332173 
L 312.672495 296.140318 
L 312.867307 295.844449 
L 313.224463 295.08073 
L 313.54915 294.786511 
L 313.938774 294.349305 
L 314.198524 293.656329 
L 314.458273 292.630509 
L 314.78296 291.238218 
L 315.237522 289.549678 
L 315.78949 288.031199 
L 316.04924 287.390635 
L 316.114177 287.443405 
L 316.244052 287.367824 
L 316.308989 287.241004 
L 316.438864 287.019768 
L 316.471333 287.031467 
L 316.828489 286.952911 
L 317.088238 286.992328 
L 317.380457 287.030908 
L 317.899956 286.943597 
L 318.451924 286.621178 
L 319.263641 285.868011 
L 319.945484 284.942034 
L 321.731263 282.517322 
L 322.640386 281.546198 
L 322.80273 281.031407 
L 323.030011 279.302974 
L 323.484572 275.497774 
L 323.646916 275.008944 
L 323.939134 275.18017 
L 326.309349 276.333972 
L 326.601568 276.212375 
L 327.153536 276.462336 
L 328.452284 277.490483 
L 328.971783 277.258234 
L 329.101658 277.171785 
L 329.264001 276.993117 
L 329.848438 277.319242 
L 330.108188 276.932053 
L 330.303 276.056978 
L 330.854968 268.678189 
L 331.04978 265.781825 
L 331.277061 265.079761 
L 331.926435 261.866795 
L 332.380997 258.116651 
L 332.705684 253.577924 
L 332.997902 245.880473 
L 333.225183 233.814709 
L 333.419995 212.025096 
L 333.614807 162.734018 
L 333.907026 83.487649 
L 333.939494 83.252008 
L 333.971963 83.638315 
L 334.134307 90.009181 
L 334.621337 124.353124 
L 335.887616 215.143773 
L 336.472053 258.175737 
L 336.926615 290.609104 
L 337.186364 296.029906 
L 337.54352 297.814797 
L 337.770801 298.730736 
L 337.933145 298.418166 
L 337.998082 298.539511 
L 338.322769 299.236288 
L 338.517581 299.402124 
L 338.744862 299.353915 
L 339.29683 298.972915 
L 341.180015 296.860348 
L 342.5437 294.844888 
L 343.355418 293.367567 
L 343.55023 292.646291 
L 344.394416 288.183469 
L 344.654166 288.085129 
L 344.816509 287.906124 
L 344.913915 287.497381 
L 345.076259 287.146251 
L 345.758102 286.905904 
L 345.952914 286.655962 
L 346.732163 283.626516 
L 346.894506 283.596505 
L 347.186724 283.786925 
L 347.641286 283.93441 
L 348.81016 283.667447 
L 349.492002 283.209563 
L 349.686814 282.8057 
L 350.401126 280.205482 
L 350.855688 277.864558 
L 352.511592 263.355824 
L 352.706404 261.835708 
L 352.901216 258.738922 
L 353.29084 246.515298 
L 353.55059 221.163621 
L 353.777871 170.889195 
L 354.102558 78.47034 
L 354.135027 78.903874 
L 354.29737 84.175308 
L 354.492182 94.759072 
L 356.440304 230.21124 
L 357.089678 261.183053 
L 357.187085 260.66454 
L 357.284491 265.341278 
L 357.381897 268.349171 
L 357.414365 267.308892 
L 357.446834 267.236697 
L 357.479303 267.703355 
L 357.706584 278.38256 
L 357.739052 278.237661 
L 357.771521 277.453196 
L 357.80399 278.477494 
L 357.836459 279.69041 
L 357.901396 278.330452 
L 358.063739 280.392281 
L 358.096208 280.175022 
L 358.128677 278.520488 
L 358.193614 279.551397 
L 358.258552 279.328724 
L 358.55077 284.232967 
L 358.842988 279.269766 
L 358.940394 281.616499 
L 359.29755 290.825103 
L 359.362488 291.092714 
L 359.427425 291.06497 
L 359.459894 291.060016 
L 359.5573 289.803032 
L 359.622237 288.964783 
L 359.654706 289.313367 
L 359.719643 289.95662 
L 359.752112 289.857641 
L 360.011862 284.918068 
L 360.206674 275.866353 
L 360.336549 266.992418 
L 360.369017 267.067686 
L 360.433955 268.154396 
L 360.498892 267.610307 
L 360.661236 269.595567 
L 360.758642 269.07669 
L 360.79111 268.743225 
L 360.823579 269.077897 
L 361.31061 276.146822 
L 361.959984 284.846028 
L 362.219733 287.762167 
L 362.414545 287.3735 
L 362.54442 285.201068 
L 363.226263 271.913399 
L 363.258732 271.972555 
L 363.323669 272.582305 
L 363.648356 278.325375 
L 363.8107 280.572028 
L 363.843168 280.416135 
L 363.940574 280.819993 
L 363.973043 280.76827 
L 364.037981 280.533799 
L 364.070449 280.737575 
L 364.622417 286.369373 
L 365.012042 289.501344 
L 365.239322 290.178499 
L 365.30426 290.098086 
L 365.466603 290.048232 
L 365.758822 290.34714 
L 365.888697 290.558071 
L 365.921165 290.511223 
L 366.05104 289.540308 
L 366.862758 285.210509 
L 367.05757 285.144437 
L 367.512132 285.394049 
L 367.642006 285.271724 
L 367.674475 285.332251 
L 368.388787 286.923837 
L 368.778411 287.255956 
L 369.103098 287.282989 
L 369.752472 287.048952 
L 370.369377 286.547377 
L 370.726533 285.849488 
L 370.986283 284.682841 
L 371.505782 279.363488 
L 371.700594 277.447758 
L 372.122687 271.159347 
L 372.414905 264.420443 
L 372.739593 259.567245 
L 373.129217 252.314517 
L 373.453904 235.00262 
L 373.648716 215.553731 
L 373.843528 171.166506 
L 374.200684 80.839264 
L 374.29809 83.440471 
L 374.752652 113.03218 
L 375.596838 175.943957 
L 375.986463 202.300697 
L 377.350148 299.151198 
L 377.54496 300.14978 
L 377.739773 300.271647 
L 378.096928 300.123204 
L 378.648896 299.668044 
L 378.843708 299.071113 
L 379.038521 298.620722 
L 379.200864 298.409486 
L 379.363208 297.929218 
L 379.687895 297.609244 
L 379.980113 297.644138 
L 380.142456 297.689112 
L 380.402206 297.314173 
L 380.856768 295.720853 
L 381.376267 295.445031 
L 381.830829 295.655927 
L 382.155516 295.485074 
L 382.642546 294.959822 
L 386.214104 288.856902 
L 386.79854 286.635851 
L 387.090759 284.093886 
L 388.389507 275.065994 
L 388.421975 275.074477 
L 388.714194 274.650996 
L 389.006412 273.639236 
L 389.168755 272.918617 
L 389.201224 272.930647 
L 389.363568 272.975995 
L 389.460974 272.950679 
L 389.55838 272.10115 
L 390.175285 264.780563 
L 390.435035 262.06921 
L 391.376627 250.374994 
L 391.636377 241.512689 
L 391.863658 224.905368 
L 392.05847 192.635844 
L 392.480563 84.440197 
L 392.5455 85.56157 
L 392.772781 96.80445 
L 393.422155 145.80241 
L 394.591029 227.41532 
L 395.110528 271.671993 
L 395.467683 296.640869 
L 395.694964 299.789807 
L 395.889777 300.22191 
L 396.117058 300.215637 
L 396.701494 299.863681 
L 397.708024 299.021957 
L 398.487273 298.227984 
L 398.487273 298.227984 
" clip-path="url(#p92f369d848)" style="fill: none; stroke: #1f77b4; stroke-width: 1.5; stroke-linecap: square"/>
   </g>
   <g id="line2d_2">
    <path d="M 73.832727 268.976355 
L 73.962602 268.958798 
L 74.352226 269.248883 
L 74.969132 269.715938 
L 75.099007 269.661364 
L 75.391225 269.336934 
L 75.650975 268.375888 
L 76.300349 268.238388 
L 76.462692 268.204554 
L 76.560098 267.960248 
L 76.787379 266.668741 
L 77.858846 250.571452 
L 78.313408 236.548573 
L 78.638095 217.209982 
L 79.060188 192.186477 
L 79.417344 182.089981 
L 79.644625 180.328437 
L 79.709562 180.274956 
L 79.742031 180.315293 
L 79.839437 180.594275 
L 80.099187 182.443571 
L 80.586217 188.14336 
L 82.76162 216.234042 
L 82.794089 216.192411 
L 82.988901 217.540236 
L 83.313588 222.191982 
L 83.475932 223.285686 
L 83.898025 228.970753 
L 84.190243 232.210581 
L 84.222712 232.08754 
L 84.352587 231.461683 
L 84.417524 230.614032 
L 84.449993 231.037142 
L 84.644805 232.367209 
L 84.742211 232.257802 
L 84.839617 233.094943 
L 84.872086 232.803292 
L 84.937023 231.656059 
L 85.001961 231.885525 
L 85.294179 233.814647 
L 85.326648 233.705103 
L 85.52146 235.604751 
L 85.553928 235.370102 
L 85.748741 233.773554 
L 85.878615 235.462351 
L 86.592927 246.273763 
L 87.566988 257.624321 
L 87.599457 257.513844 
L 87.729331 255.878761 
L 87.7618 256.109525 
L 87.924144 258.07695 
L 88.248831 260.730109 
L 88.281299 260.648769 
L 88.378706 259.569212 
L 88.476112 257.163299 
L 88.833267 242.515266 
L 89.125486 239.555737 
L 89.25536 241.655003 
L 89.450173 244.622852 
L 89.51511 244.525556 
L 89.612516 244.803298 
L 89.77486 244.064611 
L 89.807328 244.146237 
L 89.872266 243.92651 
L 89.904734 244.070808 
L 90.294359 245.823826 
L 90.424234 246.559032 
L 90.456702 246.492626 
L 90.716452 244.539315 
L 90.911264 242.253301 
L 91.00867 241.908019 
L 91.041139 242.115133 
L 91.593107 245.980405 
L 91.75545 247.077281 
L 92.080137 249.869823 
L 92.112606 249.839038 
L 92.145075 249.903473 
L 92.307418 251.748204 
L 92.534699 252.972832 
L 92.599637 253.41429 
L 92.664574 253.335392 
L 93.086667 250.875462 
L 93.313948 247.999361 
L 93.346417 248.13551 
L 93.476292 249.686456 
L 93.50876 249.637264 
L 93.800979 244.957598 
L 93.898385 245.926026 
L 93.930853 246.275913 
L 93.995791 246.102016 
L 94.190603 245.61307 
L 94.223072 245.76174 
L 94.25554 245.605558 
L 94.385415 244.309299 
L 94.450353 243.372602 
L 94.51529 243.464629 
L 94.612696 243.611079 
L 94.645165 243.481171 
L 94.710102 243.674203 
L 94.807508 244.09257 
L 94.839977 244.027403 
L 94.904914 243.837445 
L 95.197133 238.780923 
L 95.26207 238.927592 
L 95.391945 239.782678 
L 95.749101 242.297022 
L 95.846507 242.520208 
L 95.878976 242.473139 
L 95.943913 242.568549 
L 96.073788 242.76549 
L 96.106256 242.702517 
L 96.138725 242.72633 
L 96.366006 243.287276 
L 96.430943 243.258741 
L 96.495881 242.558326 
L 96.788099 239.630487 
L 96.820568 239.648289 
L 97.01538 238.708637 
L 97.27513 236.342985 
L 97.340067 236.748405 
L 97.794629 238.558031 
L 97.892035 238.705263 
L 97.924504 238.604284 
L 97.989441 238.417696 
L 98.02191 238.448863 
L 99.02844 242.554398 
L 99.450533 245.646224 
L 99.937563 250.894272 
L 100.554469 260.297375 
L 101.625936 277.028851 
L 102.145435 281.758758 
L 102.632465 284.441983 
L 103.151965 286.120738 
L 103.606526 286.933601 
L 103.996151 287.246428 
L 104.223432 287.242277 
L 104.320838 287.103296 
L 105.067618 285.332888 
L 105.229962 285.294661 
L 105.489711 285.202206 
L 105.749461 284.683448 
L 105.879336 284.026569 
L 106.26896 282.369014 
L 107.048209 278.756127 
L 107.27549 275.205666 
L 107.730052 264.71102 
L 107.76252 264.758439 
L 107.892395 264.802417 
L 108.119676 265.171984 
L 108.346957 265.48489 
L 108.996331 266.415167 
L 110.165204 268.645199 
L 112.697763 274.161629 
L 113.087387 274.326531 
L 113.217262 274.24223 
L 113.249731 274.262775 
L 113.412074 274.426648 
L 114.580948 275.712962 
L 115.360196 276.219326 
L 115.847227 276.33076 
L 116.399195 276.446751 
L 116.983631 276.46988 
L 117.373256 276.295685 
L 117.892755 275.490385 
L 118.217442 274.807633 
L 118.412254 274.510724 
L 118.672004 273.631444 
L 119.061628 273.308069 
L 119.256441 272.808191 
L 119.938283 269.956454 
L 120.165564 269.935227 
L 120.327908 269.823817 
L 120.425314 269.775037 
L 120.620126 269.543668 
L 120.814938 269.252199 
L 121.00975 268.787945 
L 121.2695 268.565662 
L 121.691593 266.86039 
L 122.665654 260.680096 
L 123.02281 252.821109 
L 123.347497 240.320676 
L 123.737121 218.362914 
L 124.224152 189.445885 
L 124.548839 180.7402 
L 124.77612 179.129182 
L 124.873526 179.138436 
L 125.068338 180.067834 
L 125.944993 190.474392 
L 129.061988 233.030797 
L 129.971112 246.746788 
L 131.724422 275.549856 
L 131.756891 275.561749 
L 131.821828 275.812718 
L 131.886765 275.755491 
L 131.951703 275.581517 
L 132.049109 275.200489 
L 132.114046 275.235306 
L 132.211452 275.575701 
L 132.308859 275.418664 
L 132.341327 275.3826 
L 132.373796 275.506485 
L 132.795889 278.080131 
L 132.990701 279.164109 
L 133.055639 278.920031 
L 133.380326 277.228023 
L 133.899825 275.041231 
L 133.932294 275.097755 
L 134.0297 275.178032 
L 134.127106 274.260381 
L 134.289449 273.272393 
L 134.321918 273.135609 
L 134.354387 273.265211 
L 134.386855 273.391578 
L 134.451793 273.353184 
L 134.549199 273.084796 
L 134.614136 273.236637 
L 134.744011 273.428302 
L 134.841417 273.651852 
L 134.873886 273.570321 
L 135.685603 267.724174 
L 135.750541 267.38725 
L 135.880416 266.651759 
L 136.302509 259.866187 
L 136.367446 260.165748 
L 136.399915 260.287886 
L 136.464852 260.112206 
L 136.497321 260.032932 
L 136.52979 260.161527 
L 136.692133 260.383595 
L 136.886945 260.530358 
L 137.081758 259.449932 
L 137.146695 259.663887 
L 137.211632 259.710565 
L 137.244101 259.606165 
L 137.373976 259.326625 
L 137.406445 259.398983 
L 139.094817 266.924608 
L 140.685783 274.709653 
L 141.335158 276.777123 
L 141.919594 277.959057 
L 142.341687 278.416422 
L 142.731312 278.261372 
L 143.088467 278.356697 
L 143.965122 277.973153 
L 144.192403 277.878148 
L 144.841777 277.794751 
L 145.328808 276.876518 
L 145.458683 275.962005 
L 145.78337 272.637774 
L 145.880776 272.5267 
L 146.043119 272.216563 
L 146.140525 272.244656 
L 146.952243 273.002225 
L 147.536679 273.359086 
L 148.250991 273.800123 
L 148.77049 273.918581 
L 149.257521 273.521472 
L 149.419864 272.82937 
L 150.004301 268.27787 
L 150.328988 267.477083 
L 150.393925 267.520455 
L 150.978362 267.66917 
L 152.049829 267.937938 
L 152.179704 267.900155 
L 152.374516 267.512884 
L 153.121296 265.091503 
L 153.803139 264.082498 
L 154.582388 263.474566 
L 155.26423 261.929873 
L 156.173354 256.646872 
L 156.433104 254.185407 
L 156.887665 247.468027 
L 157.147415 239.83802 
L 157.407165 227.331278 
L 158.089007 191.580557 
L 158.413694 184.499807 
L 158.640975 183.231846 
L 158.738381 183.27581 
L 158.835788 183.080844 
L 159.095537 184.744231 
L 159.128006 184.677897 
L 159.290349 186.90601 
L 159.322818 186.817772 
L 159.51763 189.690461 
L 159.907255 195.177679 
L 159.939723 195.309501 
L 160.231942 198.996815 
L 160.459223 201.336731 
L 160.556629 202.673537 
L 160.589097 202.24845 
L 160.621566 202.341317 
L 160.881316 207.365901 
L 161.043659 208.447579 
L 161.076128 208.353607 
L 161.725502 215.555172 
L 161.790439 214.964705 
L 161.822908 214.989158 
L 163.02425 230.369493 
L 163.186594 232.584141 
L 163.413874 234.997183 
L 163.641155 237.415675 
L 163.706093 236.910265 
L 163.738561 236.667248 
L 163.77103 236.74028 
L 163.835968 237.539816 
L 163.900905 237.092627 
L 163.933374 237.089673 
L 164.128186 234.101135 
L 164.290529 231.932148 
L 164.322998 232.419284 
L 164.355467 232.13689 
L 164.387936 231.690781 
L 164.485342 231.8664 
L 164.51781 231.593641 
L 164.550279 231.936854 
L 164.582748 232.454419 
L 164.615216 232.222975 
L 164.647685 231.604372 
L 164.712623 231.965222 
L 164.874966 233.603787 
L 164.939903 233.324991 
L 165.004841 232.812427 
L 165.069778 233.244524 
L 165.52434 242.156172 
L 165.751621 245.66405 
L 166.043839 249.661025 
L 166.076308 249.640685 
L 166.108777 249.450431 
L 166.173714 249.617159 
L 166.238652 249.532463 
L 166.465932 248.145782 
L 166.53087 247.2187 
L 166.693213 245.330036 
L 166.725682 245.507964 
L 166.758151 246.016895 
L 166.823088 245.606892 
L 167.0179 245.090212 
L 167.147775 245.838458 
L 167.569868 249.631315 
L 168.056899 255.50066 
L 168.121836 255.824855 
L 168.478992 261.08931 
L 169.420584 276.036102 
L 169.972552 281.396389 
L 170.459583 284.169527 
L 170.881676 285.308861 
L 171.011551 285.495522 
L 171.044019 285.478352 
L 171.303769 285.229258 
L 171.368706 285.11357 
L 171.628456 282.412697 
L 171.985612 275.321049 
L 172.342767 268.687417 
L 172.472642 267.49714 
L 172.505111 267.695523 
L 172.634986 267.536033 
L 172.699923 267.408194 
L 172.732392 267.467067 
L 172.894735 268.562556 
L 173.02461 269.031853 
L 173.186954 268.364926 
L 173.219422 268.46526 
L 174.355827 275.342327 
L 175.135076 278.12581 
L 175.362357 278.534449 
L 175.394825 278.445646 
L 175.719512 277.449233 
L 175.979262 277.224376 
L 176.076668 276.814146 
L 176.239012 275.465025 
L 176.498761 272.14156 
L 176.661105 271.571392 
L 176.790979 271.044431 
L 177.115666 269.696461 
L 178.122196 272.333171 
L 179.161195 274.382578 
L 179.940443 275.485458 
L 180.200193 275.72093 
L 180.232662 275.68308 
L 180.589818 275.56114 
L 182.375596 276.51178 
L 183.154845 276.630853 
L 183.641875 276.556803 
L 183.836688 276.50143 
L 184.51853 276.428022 
L 184.875686 276.301709 
L 185.427654 275.995105 
L 186.27184 275.863055 
L 187.01862 275.586535 
L 187.27837 275.214226 
L 188.706993 275.002198 
L 190.395365 274.997146 
L 190.622646 274.520781 
L 190.882396 272.205376 
L 191.109677 268.199139 
L 191.401895 260.984583 
L 191.694113 258.795296 
L 192.051269 255.458422 
L 192.343487 251.3056 
L 192.668174 242.818729 
L 192.960393 228.19674 
L 193.707173 183.483261 
L 193.999391 178.420947 
L 194.03186 178.409548 
L 194.194203 177.782374 
L 194.29161 178.641423 
L 194.324078 178.022262 
L 194.356547 179.062021 
L 194.389016 178.265349 
L 194.486422 180.080079 
L 194.51889 178.817591 
L 194.551359 180.854214 
L 194.583828 179.473536 
L 194.681234 181.815676 
L 194.713703 180.856825 
L 194.876046 183.524724 
L 194.908515 183.66437 
L 195.233202 188.697527 
L 197.441074 219.874162 
L 198.480072 232.060772 
L 198.674884 232.934646 
L 198.77229 233.708639 
L 198.804759 233.367252 
L 198.837228 233.367241 
L 198.999571 231.853471 
L 199.096977 232.155879 
L 199.29179 234.032236 
L 199.356727 233.561352 
L 199.648945 227.241837 
L 199.681414 227.707101 
L 200.03857 234.645318 
L 200.071038 234.639578 
L 200.103507 234.443671 
L 200.135976 234.559782 
L 200.558069 238.683639 
L 200.752881 237.39373 
L 200.78535 237.539887 
L 200.980162 239.250455 
L 201.045099 239.228013 
L 201.174974 238.371399 
L 201.434724 233.516976 
L 201.629536 226.220419 
L 201.79188 227.541877 
L 201.824348 227.466153 
L 201.954223 225.263546 
L 202.01916 225.66224 
L 202.246441 229.902067 
L 202.311379 229.878262 
L 202.473722 229.655322 
L 202.53866 230.150203 
L 202.733472 232.431126 
L 202.798409 232.358478 
L 202.863347 231.680026 
L 202.895815 232.053387 
L 203.869876 243.768785 
L 204.162095 246.212646 
L 204.194563 245.936181 
L 204.259501 245.953961 
L 204.356907 247.180664 
L 205.006281 258.925284 
L 205.915405 274.922237 
L 206.337498 278.128565 
L 206.369966 278.252807 
L 206.434904 278.144249 
L 206.53231 277.58853 
L 206.597247 277.707526 
L 206.921934 279.064112 
L 207.831058 284.512988 
L 208.318089 285.902138 
L 208.740182 286.511825 
L 209.129806 286.731668 
L 209.389556 286.672588 
L 209.681774 286.552859 
L 210.071398 286.24811 
L 210.720772 285.620003 
L 211.727302 284.284439 
L 213.220862 281.918724 
L 213.610487 280.823453 
L 213.837768 280.362837 
L 214.097517 279.867272 
L 214.29233 279.465835 
L 214.681954 277.777906 
L 215.298859 274.922585 
L 215.52614 274.63594 
L 215.818359 274.570107 
L 216.467733 274.560297 
L 216.630076 274.278779 
L 216.889826 273.732049 
L 217.117107 273.625013 
L 218.253511 273.911303 
L 220.169165 274.502346 
L 220.753601 274.351981 
L 221.175694 274.371321 
L 221.305569 274.207513 
L 221.662725 273.665198 
L 221.825068 273.665494 
L 221.987412 273.624886 
L 222.701723 272.428531 
L 223.351097 271.13063 
L 223.383566 271.145605 
L 223.77319 271.200968 
L 223.935534 271.211 
L 224.227752 271.241015 
L 224.357627 270.908376 
L 224.649845 269.624935 
L 224.942064 267.637812 
L 225.331688 265.270903 
L 225.5265 264.664516 
L 226.305749 259.973032 
L 226.565499 256.682149 
L 226.890186 250.188483 
L 227.409685 231.452037 
L 228.383746 181.000066 
L 228.611027 179.051868 
L 228.805839 179.272744 
L 229.714963 189.178268 
L 234.163175 252.798008 
L 235.52686 277.161641 
L 236.04636 282.054371 
L 236.598327 284.889578 
L 236.858077 285.38417 
L 237.052889 285.764181 
L 237.799669 286.996331 
L 238.091888 287.034975 
L 238.351637 286.909805 
L 238.578918 286.76938 
L 238.708793 286.63651 
L 239.130886 286.31291 
L 239.682854 285.932762 
L 240.007541 285.541696 
L 240.169885 284.841684 
L 240.656915 282.981166 
L 241.208883 281.44144 
L 241.598507 281.277017 
L 241.955663 280.691792 
L 242.215413 280.256891 
L 242.702443 278.323557 
L 242.929724 275.233626 
L 243.806379 254.777891 
L 243.871317 254.567185 
L 244.163535 251.759348 
L 244.520691 244.890495 
L 244.812909 234.67305 
L 245.235002 209.193784 
L 245.624626 191.684189 
L 245.981782 184.281848 
L 246.176594 183.37101 
L 246.209063 183.434174 
L 246.241532 183.365369 
L 246.274 183.479193 
L 246.371407 183.790025 
L 246.7935 187.357135 
L 247.28053 193.362082 
L 249.910495 225.008488 
L 249.975432 225.613716 
L 250.462463 232.345662 
L 251.404055 246.413416 
L 253.352177 279.822419 
L 253.839208 283.437807 
L 254.29377 285.274053 
L 254.650925 286.147712 
L 255.397706 287.161753 
L 255.78733 287.0026 
L 256.04708 286.387056 
L 256.469173 286.145269 
L 256.663985 285.383202 
L 256.988672 284.292708 
L 257.215953 283.707268 
L 257.508171 281.110037 
L 257.897796 278.043586 
L 258.254951 276.644552 
L 258.644576 272.55392 
L 258.904325 266.974186 
L 259.164075 264.341645 
L 259.196544 264.328123 
L 259.229012 264.409851 
L 259.521231 265.154531 
L 259.683574 265.435111 
L 259.975792 265.377092 
L 260.008261 265.351612 
L 260.04073 265.402838 
L 261.144666 267.316445 
L 262.216133 269.479283 
L 262.346008 269.129545 
L 262.573289 266.532395 
L 263.157725 260.766881 
L 263.449944 260.984337 
L 264.164255 260.733634 
L 264.456473 260.324695 
L 265.755221 257.556136 
L 266.274721 255.557456 
L 266.664345 253.140946 
L 266.989032 249.755056 
L 267.346188 243.106177 
L 267.703343 231.650871 
L 268.677404 192.062936 
L 268.969623 188.362712 
L 269.03456 188.234118 
L 269.067029 187.811583 
L 269.164435 187.863575 
L 269.196904 187.935229 
L 269.229372 187.775618 
L 269.29431 187.641903 
L 269.943684 193.226424 
L 269.976153 192.861589 
L 270.008621 193.356958 
L 270.333308 198.627087 
L 270.755401 204.850202 
L 271.209963 211.597078 
L 272.411305 227.721226 
L 273.612647 244.731862 
L 275.5283 272.042306 
L 275.820519 274.289853 
L 276.210143 277.243967 
L 276.275081 277.077933 
L 276.502362 276.255259 
L 276.567299 276.379319 
L 276.599768 276.35646 
L 276.827049 275.648262 
L 276.924455 275.733346 
L 276.989392 275.569483 
L 277.216673 274.764078 
L 277.249142 274.770281 
L 277.28161 274.774171 
L 278.418015 281.581017 
L 278.840108 282.967281 
L 278.969983 283.039879 
L 279.002452 282.996596 
L 279.164795 282.626594 
L 279.457013 281.589356 
L 279.619357 281.127304 
L 279.651826 281.146696 
L 279.684294 281.089218 
L 279.814169 280.865189 
L 279.879106 280.907762 
L 280.008981 280.839743 
L 280.138856 280.491077 
L 280.560949 278.795431 
L 280.658355 278.220451 
L 280.918105 276.900875 
L 281.04798 276.600196 
L 281.177855 275.336042 
L 281.827229 264.209094 
L 281.892166 264.258238 
L 282.022041 262.315156 
L 282.606477 251.738258 
L 282.768821 250.705615 
L 283.093508 246.633035 
L 283.418195 240.039971 
L 283.775351 227.279074 
L 284.457193 198.269672 
L 284.814349 191.257645 
L 285.04163 189.95559 
L 285.139036 189.947157 
L 285.268911 190.322315 
L 285.528661 192.038388 
L 286.015691 197.221408 
L 287.509251 216.70182 
L 289.619717 245.309088 
L 290.496372 261.965631 
L 291.275621 275.485748 
L 291.79512 280.968636 
L 292.314619 284.271615 
L 292.80165 286.082859 
L 293.256211 287.014095 
L 293.645836 287.40131 
L 294.100398 287.457037 
L 294.522491 287.350283 
L 295.009521 287.023848 
L 295.626427 286.349299 
L 296.340738 285.067843 
L 296.957643 283.534007 
L 297.217393 283.035391 
L 298.126517 281.97116 
L 301.405855 277.928333 
L 301.892886 276.590944 
L 302.250042 272.784848 
L 302.672135 268.46733 
L 302.899416 266.291672 
L 303.126697 264.020736 
L 303.256571 263.193841 
L 303.54879 261.734155 
L 303.970883 259.571706 
L 304.620257 252.856973 
L 304.977413 245.676853 
L 305.269631 234.805075 
L 305.626787 211.012589 
L 306.016411 190.256328 
L 306.341098 181.90816 
L 306.568379 180.349768 
L 306.698254 180.465035 
L 306.958003 182.079367 
L 307.445034 187.549509 
L 308.386626 200.825628 
L 311.79584 246.463747 
L 313.743962 279.031969 
L 314.198524 282.204011 
L 314.458273 282.913684 
L 314.55568 282.958958 
L 314.912835 283.243102 
L 314.945304 283.178379 
L 315.140116 283.153607 
L 315.269991 283.291672 
L 315.30246 283.222314 
L 315.432335 282.845807 
L 315.464803 282.927934 
L 315.724553 283.245966 
L 315.821959 283.268853 
L 315.951834 283.025256 
L 315.984302 283.063299 
L 316.276521 283.532305 
L 316.341458 283.410011 
L 316.406396 283.395652 
L 316.438864 283.440863 
L 316.731083 283.825515 
L 316.763551 283.802877 
L 316.893426 283.901058 
L 317.412925 284.378582 
L 317.835018 284.512163 
L 318.257112 284.427727 
L 318.809079 284.065515 
L 319.523391 283.323557 
L 320.335108 282.123362 
L 321.341638 280.500371 
L 322.672855 279.048796 
L 322.80273 278.594132 
L 323.030011 276.865735 
L 323.484572 273.081819 
L 323.646916 272.60955 
L 324.03654 272.849799 
L 325.108008 273.226206 
L 326.309349 273.589436 
L 326.601568 273.382438 
L 327.186004 273.46606 
L 328.387346 274.003738 
L 328.614627 273.857964 
L 328.906846 273.605016 
L 329.101658 273.448177 
L 329.264001 273.21372 
L 329.29647 273.226226 
L 329.945844 273.196627 
L 330.140656 272.738666 
L 330.303 271.902777 
L 330.854968 264.340314 
L 331.04978 261.383489 
L 331.926435 254.743743 
L 332.283591 248.644904 
L 332.575809 239.757942 
L 332.868027 223.547408 
L 333.452464 188.233557 
L 333.744682 180.865803 
L 333.971963 179.253427 
L 334.069369 179.356244 
L 334.101838 179.263729 
L 334.329119 180.957914 
L 334.361587 180.976973 
L 334.718743 185.013909 
L 335.595398 197.203409 
L 336.699334 211.301628 
L 336.731803 210.83279 
L 336.79674 211.31491 
L 336.926615 212.907694 
L 337.478583 220.23629 
L 337.933145 226.495436 
L 339.524111 251.689261 
L 340.952734 277.337678 
L 341.472233 282.191166 
L 341.959264 284.855425 
L 342.446294 286.419892 
L 342.900856 287.198516 
L 343.193074 287.364761 
L 343.420355 287.324225 
L 343.582699 286.878826 
L 343.80998 285.865197 
L 344.491822 283.437348 
L 344.654166 283.460316 
L 344.784041 283.375217 
L 344.881447 283.221146 
L 345.04379 282.688816 
L 345.887976 282.524606 
L 346.017851 282.097162 
L 346.277601 280.932325 
L 346.862037 279.328368 
L 347.05685 279.41846 
L 347.54388 279.609152 
L 348.160786 279.589124 
L 348.907566 279.368398 
L 349.55694 278.972778 
L 350.206314 277.34445 
L 350.888156 273.581091 
L 351.115437 271.773208 
L 351.212843 270.951096 
L 351.732343 265.082605 
L 351.959624 263.308644 
L 352.316779 260.789954 
L 352.771341 256.599222 
L 353.063559 250.384035 
L 353.258372 243.811172 
L 353.518121 225.511254 
L 353.907746 199.277304 
L 354.427245 181.352784 
L 354.686995 179.600794 
L 354.784401 180.285563 
L 354.816869 180.180021 
L 354.914275 180.702169 
L 354.979213 180.555642 
L 355.498712 186.102575 
L 355.79093 189.015427 
L 355.920805 190.263501 
L 356.213023 195.232356 
L 356.31043 196.099229 
L 356.53771 198.408657 
L 356.570179 198.240924 
L 356.602648 198.439423 
L 356.635117 198.495645 
L 356.764991 200.324083 
L 356.79746 200.058514 
L 356.894866 198.991721 
L 356.959804 199.609178 
L 357.024741 199.441194 
L 357.154616 196.968725 
L 357.187085 197.627971 
L 357.349428 200.851864 
L 357.381897 200.611874 
L 357.414365 199.220789 
L 357.479303 200.418121 
L 357.641646 206.349288 
L 357.674115 205.968953 
L 357.771521 205.095187 
L 357.836459 207.883461 
L 357.901396 206.423518 
L 358.063739 209.949986 
L 358.096208 209.686923 
L 358.128677 208.250097 
L 358.161146 209.521504 
L 358.453364 215.142305 
L 358.55077 215.814338 
L 358.648176 213.733215 
L 358.680645 213.912492 
L 358.778051 215.52474 
L 358.842988 215.477686 
L 359.427425 227.639768 
L 359.524831 228.061872 
L 359.589768 227.592959 
L 359.622237 227.801082 
L 359.752112 230.137104 
L 359.784581 230.010989 
L 359.946924 229.168536 
L 360.04433 228.165358 
L 360.206674 223.577195 
L 360.30408 218.992571 
L 360.336549 220.287405 
L 360.531361 223.386272 
L 360.661236 224.98572 
L 360.726173 224.521447 
L 360.79111 224.069009 
L 360.823579 224.536692 
L 361.018391 228.07673 
L 361.083329 227.873637 
L 361.115797 227.890454 
L 361.472953 231.661897 
L 361.505422 231.54046 
L 361.635297 232.168345 
L 362.447014 243.095489 
L 363.128857 238.631813 
L 363.193794 239.066663 
L 363.453544 242.977452 
L 363.908106 249.975166 
L 364.102918 251.573197 
L 365.434135 274.016548 
L 365.953634 279.046676 
L 366.018571 278.903008 
L 366.148446 279.022659 
L 366.278321 279.379012 
L 366.31079 279.362203 
L 366.343258 279.402835 
L 366.375727 279.374863 
L 366.635477 278.348587 
L 366.700414 278.446432 
L 366.862758 278.97578 
L 367.219913 280.312895 
L 368.713474 284.98968 
L 369.070629 285.337021 
L 369.622597 285.435197 
L 370.077159 285.247066 
L 370.466783 284.871727 
L 370.759002 284.208434 
L 370.986283 283.13771 
L 371.505782 277.758996 
L 371.700594 275.821845 
L 372.122687 269.566545 
L 372.382437 263.540672 
L 373.194154 252.806454 
L 374.070809 216.87275 
L 374.525371 193.70923 
L 374.882527 185.52819 
L 375.012402 183.430954 
L 375.04487 184.023019 
L 375.174745 182.771746 
L 375.239683 182.388587 
L 375.402026 184.479616 
L 375.434495 184.41616 
L 375.596838 185.787988 
L 375.661776 185.573733 
L 376.018931 190.906453 
L 376.0514 190.765497 
L 376.083869 191.022101 
L 376.765711 202.063409 
L 377.934585 218.535262 
L 380.3048 251.017744 
L 381.960704 278.061957 
L 382.480203 282.603549 
L 382.934765 284.866441 
L 383.454264 286.40843 
L 383.941294 287.054167 
L 384.460794 287.359652 
L 384.850418 287.322936 
L 385.629667 286.777061 
L 386.149166 286.130643 
L 386.668665 284.642242 
L 386.993352 282.523135 
L 387.512852 278.139489 
L 387.577789 277.814631 
L 388.06482 273.739286 
L 388.259632 272.455879 
L 388.454444 272.22119 
L 388.55185 272.182594 
L 388.779131 271.559823 
L 388.876537 271.476768 
L 389.29863 269.843806 
L 389.331099 269.865492 
L 389.396036 269.916937 
L 389.428505 269.879838 
L 389.493442 269.685769 
L 389.688255 267.264409 
L 390.077879 262.094565 
L 390.240223 261.174841 
L 390.857128 255.694596 
L 391.149346 253.035775 
L 391.441565 249.371362 
L 391.766252 242.413483 
L 392.090939 229.704138 
L 393.000062 188.454868 
L 393.259812 185.409121 
L 393.422155 185.108862 
L 393.55203 185.455687 
L 393.844248 187.384236 
L 394.266342 192.171198 
L 395.630027 210.938132 
L 398.487273 251.177688 
L 398.487273 251.177688 
" clip-path="url(#p92f369d848)" style="fill: none; stroke: #ff7f0e; stroke-width: 1.5; stroke-linecap: square"/>
   </g>
   <g id="line2d_3">
    <path d="M 73.832727 270.20977 
L 73.962602 270.216497 
L 74.51457 270.678981 
L 74.871726 270.830514 
L 75.066538 270.832164 
L 75.423694 270.211667 
L 75.618506 269.505859 
L 75.975662 269.390752 
L 76.26788 269.566071 
L 76.495161 269.558295 
L 76.722442 268.659926 
L 76.819848 267.814049 
L 77.112066 264.172348 
L 77.144535 264.237411 
L 77.27441 263.39466 
L 77.501691 262.099307 
L 77.664034 261.700729 
L 78.053658 259.540564 
L 78.443283 258.782138 
L 78.638095 259.14308 
L 78.670564 259.103463 
L 78.800439 259.156062 
L 80.651155 260.651905 
L 81.722622 262.009176 
L 81.75509 261.954477 
L 81.884965 261.355625 
L 82.177184 260.112349 
L 82.209652 260.172341 
L 82.242121 260.186427 
L 82.404464 259.051552 
L 82.696683 256.088447 
L 82.826558 254.581591 
L 82.956432 252.381589 
L 83.02137 252.508817 
L 83.053838 252.401549 
L 83.151245 251.597853 
L 83.183713 251.744313 
L 83.281119 252.231225 
L 83.313588 252.198165 
L 83.475932 250.971787 
L 83.5084 251.087379 
L 83.540869 251.398106 
L 83.605806 251.307376 
L 83.670744 251.016738 
L 83.703213 251.105124 
L 83.735681 251.223913 
L 83.800619 251.073493 
L 83.865556 250.739209 
L 83.930493 250.817613 
L 83.995431 250.732264 
L 84.190243 250.139748 
L 84.417524 246.385222 
L 84.482461 246.858111 
L 84.872086 244.74685 
L 84.937023 243.450427 
L 85.001961 243.740869 
L 85.034429 243.834395 
L 85.066898 243.615239 
L 85.099367 243.311723 
L 85.164304 243.537141 
L 85.229241 243.612527 
L 85.294179 243.383815 
L 85.326648 243.008719 
L 85.391585 243.415799 
L 85.618866 241.965273 
L 85.748741 241.607969 
L 86.040959 243.053689 
L 86.138365 243.320441 
L 86.26824 243.76558 
L 86.300709 243.704309 
L 86.365646 243.523699 
L 86.398115 243.615292 
L 86.495521 244.133451 
L 86.560458 244.000203 
L 86.820208 244.788874 
L 86.885145 244.641995 
L 86.917614 244.705139 
L 86.982551 244.116993 
L 87.01502 244.269836 
L 87.209832 245.256307 
L 87.27477 245.527502 
L 87.339707 245.490306 
L 87.437113 245.395692 
L 87.534519 245.69535 
L 87.566988 245.646966 
L 87.696863 244.353159 
L 87.729331 244.464795 
L 87.924144 246.048852 
L 87.956612 246.03438 
L 88.086487 246.307059 
L 88.118956 246.206879 
L 88.151425 246.358892 
L 88.248831 246.381476 
L 88.443643 244.997696 
L 88.670924 241.602931 
L 88.703393 241.847309 
L 88.735861 241.498742 
L 88.76833 241.267371 
L 88.800799 241.595787 
L 88.898205 242.153243 
L 88.963142 241.841044 
L 88.995611 241.982901 
L 89.02808 242.533615 
L 89.060548 241.811246 
L 89.093017 241.945372 
L 89.125486 242.061939 
L 89.352767 244.956086 
L 89.385235 244.93831 
L 89.450173 244.993205 
L 89.51511 244.783849 
L 89.612516 245.205566 
L 89.644985 245.001979 
L 90.132015 246.578054 
L 90.391765 248.090585 
L 90.424234 248.055059 
L 90.716452 247.25111 
L 90.781389 246.426495 
L 90.846327 246.720655 
L 91.171014 248.611716 
L 91.463232 250.327425 
L 91.690513 251.592449 
L 92.080137 253.716366 
L 92.145075 253.546662 
L 92.177544 253.687684 
L 92.404824 255.028597 
L 92.437293 254.791087 
L 92.469762 254.720206 
L 92.502231 254.834932 
L 92.599637 255.099798 
L 92.632105 254.937041 
L 93.313948 250.486453 
L 93.346417 250.830661 
L 93.476292 252.392501 
L 93.50876 252.260992 
L 93.76851 249.274632 
L 93.800979 249.278446 
L 93.930853 251.194318 
L 93.995791 250.994345 
L 94.125666 250.897055 
L 94.223072 251.199549 
L 94.288009 250.993699 
L 94.385415 250.33727 
L 94.417884 249.892395 
L 94.482821 250.243508 
L 94.807508 252.02076 
L 94.872446 251.977933 
L 94.904914 251.984982 
L 95.132195 250.180809 
L 95.197133 249.132749 
L 95.229602 249.70174 
L 95.976382 256.309493 
L 96.430943 257.76458 
L 96.463412 257.656046 
L 96.723162 254.860736 
L 96.885505 254.929535 
L 97.145255 253.561702 
L 97.177724 253.337692 
L 97.210192 253.375961 
L 97.924504 259.556187 
L 98.02191 259.774788 
L 98.833627 264.902444 
L 99.51547 268.086866 
L 100.327188 270.925137 
L 100.976562 272.388685 
L 101.496061 273.148225 
L 102.697403 274.037834 
L 102.859746 274.110505 
L 103.606526 274.505179 
L 104.190963 274.619026 
L 104.320838 274.484991 
L 104.905275 273.264566 
L 105.165024 273.195317 
L 105.489711 273.399598 
L 105.716992 273.196861 
L 105.846867 272.900774 
L 106.074148 271.897057 
L 106.236491 271.702757 
L 106.691053 270.554254 
L 106.788459 270.330499 
L 107.048209 269.334225 
L 107.27549 266.388486 
L 107.632645 259.121605 
L 107.665114 259.385984 
L 108.02227 261.541057 
L 109.158674 264.621746 
L 110.976922 268.746034 
L 111.983451 270.491205 
L 112.665294 271.308997 
L 112.989981 271.346295 
L 113.119856 271.247529 
L 113.249731 271.212265 
L 113.412074 271.347151 
L 114.51601 272.354779 
L 115.425134 272.86544 
L 117.210912 273.226695 
L 117.373256 273.111375 
L 117.892755 272.479257 
L 118.184973 271.995511 
L 118.412254 271.7874 
L 118.639535 271.099266 
L 119.061628 271.047387 
L 119.223972 270.786698 
L 119.483721 269.666958 
L 119.711002 268.768603 
L 119.840877 268.718906 
L 120.425314 269.200743 
L 120.490251 269.147705 
L 120.555189 269.188874 
L 120.847407 268.987088 
L 121.042219 268.89133 
L 121.237031 269.02394 
L 121.853937 267.458166 
L 122.178624 266.299094 
L 122.308498 266.21694 
L 122.470842 265.952001 
L 122.633186 265.360092 
L 122.860466 262.807128 
L 123.477372 255.370143 
L 123.574778 255.739467 
L 123.639715 255.597074 
L 123.672184 255.426562 
L 123.704653 255.574839 
L 123.802059 255.820592 
L 123.834527 255.756765 
L 123.866996 255.736508 
L 123.899465 255.808944 
L 124.159214 256.112243 
L 124.678714 255.843492 
L 125.035869 255.477942 
L 125.26315 255.519289 
L 125.393025 255.42464 
L 125.78265 255.403699 
L 126.886585 256.131528 
L 127.503491 256.969041 
L 128.217802 258.354764 
L 129.02952 260.420101 
L 130.458143 264.793277 
L 131.172454 266.66755 
L 131.399735 267.034487 
L 131.464672 266.972945 
L 131.627016 266.651196 
L 131.886765 265.08412 
L 132.308859 262.583865 
L 132.373796 262.417829 
L 132.406265 262.548906 
L 132.471202 262.593093 
L 132.503671 262.514803 
L 132.568608 262.487605 
L 132.601077 262.533176 
L 132.958233 263.539817 
L 132.990701 263.444561 
L 133.76995 259.035569 
L 133.802419 259.057104 
L 133.834887 259.085012 
L 133.899825 258.900444 
L 133.932294 258.968612 
L 134.0297 259.008619 
L 134.127106 258.060173 
L 134.256981 257.390951 
L 134.354387 257.458621 
L 134.386855 257.593341 
L 134.451793 257.522592 
L 134.549199 257.204645 
L 134.646605 257.32837 
L 134.841417 257.459295 
L 135.231042 255.494127 
L 135.425854 253.6694 
L 135.458323 253.697077 
L 135.490791 253.6673 
L 135.620666 254.062399 
L 135.653135 254.002539 
L 135.718072 253.953474 
L 136.042759 250.968444 
L 136.140165 250.003363 
L 136.172634 250.094429 
L 136.399915 251.445307 
L 136.432384 251.340971 
L 136.497321 251.198385 
L 136.52979 251.363624 
L 136.886945 251.615886 
L 137.049289 251.033657 
L 137.081758 251.065814 
L 137.211632 251.554262 
L 137.244101 251.469281 
L 137.341507 251.368114 
L 137.373976 251.439791 
L 137.861006 253.131047 
L 137.990881 253.196094 
L 138.153225 253.85226 
L 138.477912 254.915763 
L 138.802599 255.920458 
L 140.036409 260.884616 
L 141.400095 266.681775 
L 142.244281 269.445619 
L 142.471562 269.714831 
L 142.76378 270.27625 
L 143.348217 271.275019 
L 143.737841 271.662114 
L 145.004121 272.7779 
L 145.296339 272.49939 
L 145.458683 271.637194 
L 145.685964 269.017906 
L 145.750901 269.086136 
L 145.880776 269.256509 
L 145.945713 269.172712 
L 146.075588 269.347186 
L 146.822368 270.987462 
L 147.666554 271.98115 
L 148.186054 272.415027 
L 149.062708 272.458444 
L 149.452333 271.328992 
L 149.679614 269.637114 
L 149.971832 268.025407 
L 150.199113 267.68778 
L 150.231582 267.729689 
L 151.400455 269.896535 
L 151.660205 270.19789 
L 152.114766 270.625907 
L 152.244641 270.581116 
L 152.439453 270.160646 
L 152.699203 269.415978 
L 152.829078 269.005267 
L 152.958953 268.692404 
L 152.991421 268.727058 
L 153.28364 268.822831 
L 153.445983 268.812265 
L 153.868076 269.349585 
L 154.549919 270.27566 
L 155.134356 270.563676 
L 155.621386 269.532772 
L 155.653855 269.562899 
L 155.78373 269.588071 
L 155.881136 269.364977 
L 156.043479 268.951109 
L 156.108417 268.978102 
L 156.303229 269.068618 
L 156.627916 268.733475 
L 156.985072 268.8493 
L 157.01754 268.747928 
L 157.309759 267.376845 
L 157.569508 265.846735 
L 157.731852 265.856207 
L 158.381226 267.123372 
L 158.511101 267.136061 
L 158.608507 267.197206 
L 158.705913 266.583244 
L 158.803319 264.944459 
L 159.322818 252.396793 
L 159.485162 253.107876 
L 159.615036 252.98341 
L 159.77738 250.906825 
L 159.809849 250.515159 
L 159.874786 250.955144 
L 159.907255 251.052993 
L 160.621566 243.538457 
L 160.686504 244.175303 
L 160.751441 244.855246 
L 160.816378 244.429212 
L 161.173534 241.352901 
L 161.238471 241.634249 
L 161.27094 242.03064 
L 161.335878 241.99806 
L 161.887846 238.661419 
L 161.952783 239.091649 
L 161.985252 239.117813 
L 162.01772 239.636615 
L 162.115126 239.555499 
L 162.147595 239.447027 
L 162.212533 239.564151 
L 162.374876 240.240378 
L 162.439813 239.968316 
L 162.472282 240.119246 
L 162.504751 240.227499 
L 162.53722 240.12499 
L 162.569688 239.998252 
L 162.634626 240.036603 
L 162.796969 240.335077 
L 162.991781 240.606627 
L 163.154125 241.006815 
L 163.219062 241.461362 
L 163.284 241.342176 
L 163.381406 241.350991 
L 163.576218 242.049709 
L 163.673624 241.612261 
L 163.738561 241.206337 
L 163.77103 241.44673 
L 163.835968 241.979886 
L 163.868436 241.705185 
L 164.03078 240.241305 
L 164.063249 240.431014 
L 164.128186 240.399829 
L 164.160655 239.286231 
L 164.225592 240.06699 
L 164.290529 239.899218 
L 164.322998 240.665084 
L 164.387936 239.862714 
L 164.420404 240.212048 
L 164.51781 240.103984 
L 164.582748 241.034496 
L 164.647685 240.010098 
L 164.680154 240.604154 
L 164.810029 241.71879 
L 164.907435 241.315135 
L 165.004841 240.992335 
L 165.751621 247.12152 
L 165.978902 248.180058 
L 166.011371 248.197476 
L 166.303589 247.144601 
L 166.368526 247.42317 
L 166.400995 247.043873 
L 166.595807 245.565624 
L 166.693213 245.908949 
L 166.758151 246.847748 
L 166.823088 246.329708 
L 166.888026 246.201619 
L 166.952963 246.301478 
L 167.050369 246.601231 
L 167.212713 247.447551 
L 167.245181 247.312052 
L 167.407525 248.600279 
L 167.504931 248.338524 
L 167.732212 250.844284 
L 167.894555 251.112749 
L 167.927024 251.047639 
L 167.959493 251.087083 
L 168.381586 253.393421 
L 170.26477 266.403424 
L 170.78427 268.521213 
L 171.206363 269.356321 
L 171.368706 269.391571 
L 171.595987 267.716962 
L 172.407705 258.116233 
L 172.472642 258.238394 
L 172.602517 259.113283 
L 172.634986 259.030619 
L 172.699923 259.108108 
L 172.862267 260.298459 
L 173.02461 260.911966 
L 173.154485 260.306761 
L 173.186954 260.34249 
L 173.544109 262.311751 
L 174.03114 265.083252 
L 174.77792 268.051552 
L 175.362357 269.810681 
L 175.492231 269.340253 
L 175.589638 269.087763 
L 175.654575 269.111373 
L 175.78445 269.252085 
L 175.816918 269.20635 
L 175.881856 269.290613 
L 175.979262 269.375252 
L 176.011731 269.344438 
L 176.044199 269.313795 
L 176.27148 267.519961 
L 176.498761 265.668108 
L 176.53123 265.549178 
L 176.596167 265.699499 
L 176.628636 265.659872 
L 176.661105 265.735259 
L 176.693573 265.768134 
L 176.758511 265.701856 
L 176.855917 265.316887 
L 176.953323 265.036031 
L 176.985792 265.096589 
L 177.148135 265.554813 
L 177.797509 268.223514 
L 178.641695 270.380731 
L 179.388476 271.753467 
L 180.135256 272.693626 
L 180.265131 272.659654 
L 180.752161 272.700838 
L 181.141785 273.008536 
L 181.921034 273.532745 
L 182.830158 273.881626 
L 183.706813 273.885263 
L 184.258781 273.912844 
L 184.843217 273.874163 
L 185.102967 273.742663 
L 185.427654 273.682273 
L 186.206903 273.712095 
L 186.499121 273.710874 
L 186.953683 273.635699 
L 187.408245 273.238255 
L 187.895275 273.229888 
L 188.382306 273.195545 
L 190.362897 273.312306 
L 190.557709 273.08371 
L 190.687584 272.450695 
L 190.882396 270.642757 
L 191.109677 267.083386 
L 191.369426 262.038992 
L 191.401895 261.962391 
L 191.434364 262.077459 
L 191.564239 262.620097 
L 191.596707 262.524471 
L 191.759051 262.109007 
L 191.856457 262.255018 
L 192.311019 263.253713 
L 192.895455 263.83698 
L 193.901985 264.826088 
L 193.934454 264.786308 
L 194.096797 264.80272 
L 194.194203 264.805684 
L 194.389016 264.233233 
L 194.713703 259.985935 
L 194.940984 256.793503 
L 195.460483 259.068487 
L 195.850107 259.364264 
L 195.979982 259.441248 
L 196.304669 259.735656 
L 197.051449 260.615836 
L 198.057979 262.179334 
L 198.122916 261.97447 
L 198.350197 261.418692 
L 198.415135 261.414562 
L 198.545009 260.383789 
L 198.934634 254.427741 
L 199.096977 251.773581 
L 199.161915 251.62617 
L 199.194383 251.97849 
L 199.259321 251.48395 
L 199.324258 250.783248 
L 199.616477 243.717129 
L 199.713883 244.753995 
L 199.908695 246.532995 
L 199.941164 246.507848 
L 200.135976 244.882397 
L 200.200913 245.082258 
L 200.298319 245.268158 
L 200.330788 245.249054 
L 200.428194 245.166048 
L 200.752881 242.834061 
L 200.78535 242.952725 
L 200.882756 243.448422 
L 200.915225 243.224002 
L 201.27238 240.620874 
L 201.304849 240.744591 
L 201.337318 240.884311 
L 201.564599 237.287339 
L 201.629536 237.634977 
L 201.759411 238.617473 
L 201.824348 238.348746 
L 201.921754 237.259855 
L 201.954223 237.662898 
L 202.149035 239.655764 
L 202.27891 239.404932 
L 202.408785 239.591013 
L 202.473722 239.419052 
L 202.733472 240.915959 
L 202.765941 240.667148 
L 202.798409 240.650609 
L 202.830878 240.207659 
L 202.863347 240.357154 
L 203.058159 242.218851 
L 203.090628 242.207339 
L 203.804939 245.203784 
L 203.934814 245.745209 
L 204.03222 246.167031 
L 204.064689 246.158808 
L 204.097157 246.218775 
L 204.162095 246.164942 
L 204.194563 245.790426 
L 204.259501 245.881073 
L 206.142686 258.36373 
L 206.369966 259.128874 
L 206.467373 258.865645 
L 206.53231 258.545979 
L 206.564779 258.717272 
L 206.727122 259.520175 
L 207.27909 263.072833 
L 207.993402 267.080054 
L 208.707713 269.91996 
L 209.357087 271.674473 
L 209.584368 272.102685 
L 210.168805 273.034616 
L 210.850647 273.824612 
L 211.597427 274.353165 
L 212.311739 274.607586 
L 213.090988 274.741382 
L 213.220862 274.662123 
L 213.513081 274.207463 
L 213.805299 274.155701 
L 214.000111 273.98132 
L 214.259861 273.90491 
L 214.519611 273.381223 
L 214.77936 272.317066 
L 215.071578 271.02394 
L 215.461203 271.137317 
L 216.500201 272.128744 
L 216.597607 272.05825 
L 216.857357 271.681121 
L 217.117107 271.771702 
L 217.961293 272.426614 
L 219.162635 273.064591 
L 220.169165 273.29999 
L 220.721132 273.120892 
L 221.240632 273.080288 
L 221.760131 272.452911 
L 221.987412 272.463594 
L 222.799129 271.266763 
L 223.058879 270.740209 
L 223.351097 270.581301 
L 223.740722 270.897676 
L 223.903065 270.936878 
L 224.227752 271.093781 
L 224.357627 270.805031 
L 224.714783 269.47935 
L 224.909595 268.554803 
L 225.104407 267.404099 
L 225.266751 266.72015 
L 225.331688 266.787641 
L 225.461563 266.896506 
L 225.494032 266.863738 
L 225.818719 266.31884 
L 225.851187 266.347134 
L 226.013531 266.341337 
L 226.143406 266.122212 
L 226.53303 264.706772 
L 226.890186 262.437713 
L 227.052529 261.297193 
L 227.084998 261.327435 
L 227.344748 261.717958 
L 229.7799 264.818155 
L 233.221583 270.178294 
L 234.228112 271.262715 
L 235.267111 272.064812 
L 236.078828 272.449458 
L 236.695734 272.44357 
L 237.085358 272.110679 
L 237.410045 272.23038 
L 237.897076 272.383038 
L 238.2867 272.335494 
L 238.578918 272.198945 
L 238.741262 272.121547 
L 239.195824 272.163786 
L 239.910135 272.3875 
L 240.072479 272.2796 
L 240.689384 270.825324 
L 240.949133 270.533745 
L 241.143946 270.190008 
L 241.79332 270.478974 
L 242.247882 270.331354 
L 242.5401 269.623308 
L 242.669975 269.451842 
L 242.832318 268.050067 
L 243.059599 264.047146 
L 243.481692 256.018111 
L 243.611567 255.283645 
L 243.644036 255.324678 
L 243.903785 256.534316 
L 244.098597 256.558991 
L 245.332408 254.967466 
L 245.624626 254.584436 
L 246.306469 253.476604 
L 246.598688 252.890313 
L 246.696094 252.776393 
L 246.955843 251.995232 
L 246.988312 252.014358 
L 247.020781 252.032762 
L 247.053249 251.929714 
L 247.670155 249.829319 
L 247.735092 249.910249 
L 247.767561 249.828358 
L 247.929904 249.578655 
L 248.189654 247.876631 
L 248.254591 247.337858 
L 248.319529 247.42699 
L 248.481872 246.883874 
L 248.514341 246.993662 
L 248.54681 246.891241 
L 248.77409 246.422026 
L 248.936434 246.879075 
L 249.098778 245.778623 
L 249.163715 245.939744 
L 249.326058 246.287944 
L 249.488402 246.776544 
L 249.585808 246.497815 
L 249.942964 245.208261 
L 250.007901 245.457832 
L 250.072839 244.828791 
L 250.105307 245.081371 
L 250.300119 246.1132 
L 251.176774 248.728471 
L 252.735272 255.824554 
L 254.943144 266.857889 
L 255.52758 268.891372 
L 255.917205 269.507469 
L 255.949674 269.470621 
L 255.982142 269.515405 
L 256.306829 270.285758 
L 256.53411 270.579564 
L 256.631516 270.466101 
L 256.826328 269.992016 
L 256.858797 270.009406 
L 257.215953 270.217549 
L 257.443234 269.101941 
L 257.702983 267.039004 
L 257.832858 266.941514 
L 258.060139 266.879988 
L 258.352357 265.918842 
L 258.514701 264.819194 
L 258.969263 259.854955 
L 259.0342 259.571047 
L 259.099138 259.665592 
L 259.131606 259.619839 
L 259.716043 262.652816 
L 260.430354 264.337398 
L 261.339478 267.057345 
L 261.631696 267.808444 
L 262.053789 268.659029 
L 262.086258 268.615834 
L 262.151195 268.708643 
L 262.216133 268.756323 
L 262.248602 268.698442 
L 262.410945 267.848801 
L 263.060319 262.497714 
L 263.125257 262.528478 
L 263.385006 263.916087 
L 263.872037 265.842224 
L 264.488942 267.513901 
L 265.722753 270.034124 
L 266.729282 271.585626 
L 266.924095 271.588637 
L 267.021501 271.541218 
L 267.346188 270.817276 
L 267.963093 268.303244 
L 268.157905 267.670362 
L 268.28778 267.274806 
L 268.320249 267.315768 
L 268.385186 267.426327 
L 268.450124 267.342253 
L 268.579998 267.089131 
L 268.839748 265.532611 
L 269.748872 249.918153 
L 270.073559 246.12858 
L 270.138496 246.363873 
L 270.235902 247.243545 
L 270.30084 247.15679 
L 270.365777 246.841366 
L 270.430714 246.969713 
L 270.463183 247.055295 
L 270.495652 246.859496 
L 270.625527 247.002266 
L 270.690464 246.695214 
L 270.755401 246.725813 
L 270.885276 247.303862 
L 270.950214 247.182241 
L 271.080088 247.322212 
L 271.145026 247.197095 
L 271.274901 247.259715 
L 271.53465 247.570763 
L 271.956743 247.986319 
L 272.411305 248.749588 
L 273.02821 250.17708 
L 273.774991 251.97709 
L 274.03474 251.86993 
L 274.391896 253.117467 
L 274.489302 253.207111 
L 274.521771 253.155967 
L 274.586708 253.05682 
L 274.716583 253.503361 
L 274.813989 253.095391 
L 274.846458 253.132238 
L 274.976333 253.814306 
L 275.236082 255.050626 
L 275.5283 255.765039 
L 275.560769 255.706377 
L 275.690644 255.673836 
L 275.755581 255.942262 
L 276.015331 257.013242 
L 276.210143 257.638952 
L 276.242612 257.500611 
L 276.372487 256.590762 
L 276.469893 256.707211 
L 276.729642 256.862737 
L 276.79458 256.614846 
L 276.859517 256.727846 
L 276.956923 256.928143 
L 276.989392 256.834997 
L 277.184204 256.523163 
L 277.28161 256.719662 
L 277.606297 258.542816 
L 277.995922 260.595767 
L 278.905045 264.741846 
L 279.067389 264.992064 
L 279.099858 264.973565 
L 279.229732 265.07777 
L 279.29467 265.264019 
L 279.359607 265.225104 
L 279.489482 264.843744 
L 279.586888 264.975126 
L 280.04145 266.1113 
L 280.138856 266.093314 
L 280.398606 265.756344 
L 280.496012 265.796282 
L 280.593418 265.825908 
L 280.853167 265.060678 
L 281.015511 265.44173 
L 281.04798 265.370537 
L 281.145386 264.896879 
L 281.729822 258.516279 
L 281.79476 258.709211 
L 281.892166 259.432702 
L 281.924635 259.318077 
L 282.184384 255.207785 
L 282.314259 255.791947 
L 282.444134 255.398048 
L 282.509071 255.193498 
L 282.54154 255.219632 
L 283.775351 260.554061 
L 283.807819 260.523656 
L 283.840288 260.579398 
L 284.359787 262.580539 
L 285.203973 266.056515 
L 286.080628 268.967041 
L 286.892346 270.945532 
L 287.606657 272.148593 
L 288.320969 272.972802 
L 289.132686 273.606021 
L 290.204154 274.060849 
L 291.178215 274.147538 
L 291.860057 274.096992 
L 292.931524 274.154771 
L 293.970523 274.051515 
L 294.230272 274.011432 
L 295.853708 273.767233 
L 296.080988 273.659864 
L 296.503082 273.489556 
L 296.892706 273.05221 
L 297.119987 272.805893 
L 298.418735 273.026799 
L 300.139576 273.106348 
L 301.113637 273.048134 
L 301.503262 272.564397 
L 301.730543 272.289501 
L 301.925355 271.606847 
L 302.412385 266.841435 
L 302.574729 265.87435 
L 302.672135 265.88815 
L 302.866947 264.90945 
L 303.094228 263.332911 
L 303.191634 263.543958 
L 303.224103 263.428277 
L 303.28904 263.129933 
L 303.353978 263.202203 
L 303.970883 263.634325 
L 304.165695 263.469311 
L 304.522851 263.751762 
L 304.750132 263.855732 
L 306.990472 266.399789 
L 307.315159 266.675576 
L 307.477503 266.636419 
L 307.672315 266.330463 
L 307.704784 266.365567 
L 307.932064 266.653522 
L 308.419095 267.262556 
L 308.873657 265.299934 
L 308.971063 265.278035 
L 309.003532 265.334458 
L 309.198344 265.525088 
L 309.490562 265.522296 
L 310.010061 266.483327 
L 310.464623 267.09325 
L 310.562029 267.189532 
L 311.146466 267.929031 
L 311.243872 267.971889 
L 311.276341 267.866862 
L 311.438684 267.122587 
L 311.698434 266.23546 
L 311.893246 266.261022 
L 312.05559 266.515312 
L 312.380277 267.120175 
L 312.54262 267.314883 
L 312.867307 267.58237 
L 312.932244 267.422116 
L 312.997182 267.32346 
L 313.029651 267.360467 
L 314.003712 268.472375 
L 314.101118 268.433089 
L 314.263461 268.396955 
L 314.393336 268.219314 
L 314.653086 267.629567 
L 314.912835 267.176296 
L 315.140116 266.709653 
L 315.269991 266.664957 
L 315.432335 266.050087 
L 315.529741 266.126969 
L 315.692084 266.139368 
L 315.757022 266.192525 
L 315.78949 266.17013 
L 315.951834 265.811605 
L 316.04924 265.928705 
L 316.276521 266.178539 
L 316.373927 266.00805 
L 316.438864 266.070759 
L 316.763551 266.460933 
L 316.893426 266.608727 
L 318.614267 269.302061 
L 319.588328 270.475949 
L 320.075359 270.860608 
L 320.400046 271.035381 
L 320.529921 271.009645 
L 320.854608 271.171875 
L 321.081889 271.280336 
L 322.120887 272.016342 
L 322.607918 272.201142 
L 322.770261 272.037921 
L 323.030011 270.584665 
L 323.354698 268.647805 
L 323.54951 267.821828 
L 323.614447 267.921253 
L 324.620977 269.618638 
L 325.952194 270.846164 
L 326.276881 270.999135 
L 326.634036 270.894902 
L 326.926255 270.96911 
L 328.354878 271.815243 
L 328.614627 271.678331 
L 328.874377 271.478391 
L 329.069189 271.396167 
L 329.361407 271.21527 
L 329.783501 271.409099 
L 329.913375 271.296124 
L 330.075719 271.014767 
L 330.238062 270.50342 
L 330.465343 269.066891 
L 330.984842 262.327315 
L 331.082249 262.416012 
L 331.406936 262.969885 
L 331.439404 262.931163 
L 331.569279 262.982484 
L 331.991372 263.339664 
L 332.738152 264.06114 
L 333.874557 265.314056 
L 334.069369 264.985734 
L 334.134307 264.782334 
L 334.199244 264.860692 
L 335.465523 266.76865 
L 335.757742 266.915022 
L 335.920085 266.508484 
L 336.699334 260.401013 
L 336.926615 255.473371 
L 337.088958 254.953893 
L 337.316239 253.643407 
L 337.348708 253.678415 
L 337.413645 253.82477 
L 337.446114 253.635017 
L 337.478583 253.565326 
L 337.511051 253.662287 
L 337.608458 253.974647 
L 337.640926 253.934724 
L 337.770801 254.004632 
L 337.80327 253.869786 
L 337.998082 253.371606 
L 338.063019 253.448253 
L 338.387706 253.600483 
L 339.29683 253.660823 
L 339.751392 253.902973 
L 340.335828 254.534595 
L 340.952734 255.557432 
L 341.667045 257.203999 
L 342.576169 259.926735 
L 343.55023 262.84881 
L 343.582699 262.836342 
L 343.647636 262.617361 
L 343.712573 262.715009 
L 344.134667 263.16934 
L 344.167135 263.115381 
L 344.329479 263.000661 
L 345.952914 267.324499 
L 346.05032 267.111167 
L 346.115257 266.938629 
L 346.180195 266.973043 
L 346.569819 266.941133 
L 346.7971 267.255543 
L 347.511412 269.291897 
L 348.323129 270.90793 
L 349.069909 271.967216 
L 349.589408 272.429263 
L 350.30372 271.473635 
L 350.628407 270.504528 
L 350.79075 270.006987 
L 350.920625 269.07238 
L 351.082969 268.305826 
L 351.147906 268.25667 
L 351.927155 263.744083 
L 351.992092 263.740717 
L 352.024561 263.801853 
L 352.121967 263.876729 
L 352.154436 263.848669 
L 352.446654 263.251225 
L 352.511592 263.298706 
L 352.641466 263.456072 
L 352.673935 263.417892 
L 352.836279 262.899435 
L 353.258372 259.127048 
L 353.55059 251.039877 
L 353.615527 249.649618 
L 353.680465 250.016219 
L 353.712933 250.150846 
L 353.745402 249.858534 
L 353.777871 249.843015 
L 353.81034 249.925509 
L 353.972683 250.803235 
L 354.005152 250.519445 
L 354.362308 247.870786 
L 354.589588 246.42531 
L 354.622057 246.373048 
L 354.816869 246.958033 
L 355.238962 243.527943 
L 355.368837 242.092962 
L 355.401306 242.132357 
L 355.531181 243.070027 
L 355.596118 242.89001 
L 355.79093 241.049109 
L 355.888336 239.288626 
L 355.953274 240.130191 
L 356.018211 239.787908 
L 356.115617 240.906871 
L 356.180555 240.817702 
L 356.213023 240.761002 
L 356.31043 240.164448 
L 356.375367 240.252546 
L 356.407836 240.379111 
L 356.440304 240.08749 
L 356.635117 238.08098 
L 356.667585 238.544412 
L 356.732523 238.410528 
L 356.79746 237.562885 
L 357.154616 232.895959 
L 357.252022 234.507753 
L 357.284491 234.364896 
L 357.414365 232.388511 
L 357.479303 233.136615 
L 357.576709 236.010415 
L 357.609178 235.248353 
L 357.641646 235.712443 
L 357.674115 234.789947 
L 357.706584 234.934064 
L 357.739052 234.667225 
L 357.771521 234.134853 
L 357.80399 236.046565 
L 357.868927 234.752599 
L 357.901396 234.250888 
L 358.031271 236.087406 
L 358.063739 236.05675 
L 358.128677 234.172003 
L 358.161146 236.521536 
L 358.258552 235.737221 
L 358.420895 237.470483 
L 358.55077 237.492836 
L 358.648176 236.25034 
L 358.680645 236.790555 
L 358.713113 237.522727 
L 358.778051 237.315476 
L 358.81052 236.728999 
L 358.842988 237.418126 
L 359.200144 241.221864 
L 359.459894 242.342042 
L 359.492362 242.294203 
L 359.524831 242.249691 
L 359.5573 241.864916 
L 359.622237 242.221114 
L 359.687175 243.566562 
L 359.752112 243.445427 
L 359.817049 242.708664 
L 359.881987 242.98942 
L 359.914455 243.126772 
L 360.141736 240.980188 
L 360.174205 241.051251 
L 360.239142 236.925873 
L 360.30408 238.981278 
L 360.401486 241.477957 
L 360.433955 241.383127 
L 360.498892 240.758054 
L 360.531361 241.282557 
L 360.596298 241.567557 
L 360.628767 242.174978 
L 360.693704 241.474409 
L 360.726173 241.58951 
L 360.758642 241.474268 
L 360.79111 241.332894 
L 360.985923 243.824378 
L 361.018391 243.773177 
L 361.083329 243.372366 
L 361.115797 243.440726 
L 361.343078 245.015337 
L 361.408016 245.808911 
L 361.472953 245.667555 
L 361.505422 245.440558 
L 361.570359 245.750621 
L 361.602828 245.719975 
L 361.732703 247.131415 
L 362.122327 250.871338 
L 362.317139 251.125912 
L 362.382077 251.451751 
L 362.414545 251.29041 
L 362.511952 250.559634 
L 362.771701 248.994341 
L 362.80417 249.065855 
L 362.836639 249.02648 
L 362.901576 248.24984 
L 362.934045 248.368386 
L 362.998982 248.854508 
L 363.031451 248.422237 
L 363.096388 247.569698 
L 363.128857 247.586875 
L 363.356138 250.161755 
L 363.453544 250.931165 
L 363.745762 254.114117 
L 363.8107 254.09076 
L 363.843168 253.747906 
L 363.908106 253.960664 
L 364.005512 253.63531 
L 364.037981 253.663339 
L 365.30426 263.421048 
L 365.499072 264.157388 
L 365.953634 266.308206 
L 365.986103 266.175047 
L 366.115977 265.738157 
L 366.148446 265.772908 
L 366.213384 265.928077 
L 366.278321 265.899433 
L 366.440664 265.35843 
L 366.635477 264.631547 
L 366.667945 264.700195 
L 366.765351 264.882735 
L 367.349788 266.780615 
L 367.447194 267.006212 
L 368.096568 269.384439 
L 368.713474 271.335693 
L 369.29791 272.52766 
L 369.979753 273.519227 
L 370.466783 273.92923 
L 370.726533 273.84116 
L 370.953814 273.309083 
L 371.05122 272.419109 
L 371.538251 269.109288 
L 371.668125 268.448821 
L 371.927875 265.687084 
L 372.025281 265.189684 
L 372.414905 260.098701 
L 372.447374 260.110728 
L 372.479843 260.069594 
L 372.609718 259.299066 
L 372.642186 259.309132 
L 372.674655 259.463338 
L 372.739593 259.337785 
L 372.869467 259.176547 
L 372.901936 259.195847 
L 373.06428 259.377686 
L 373.259092 256.327212 
L 373.388967 255.036786 
L 373.421435 255.221421 
L 373.518841 256.00642 
L 373.55131 255.905318 
L 373.778591 255.033618 
L 373.875997 255.136887 
L 373.908466 254.984092 
L 374.55784 249.59524 
L 374.655246 248.557925 
L 374.720183 248.592095 
L 374.785121 249.211955 
L 374.850058 249.123532 
L 374.914995 247.965352 
L 375.239683 242.530013 
L 375.272151 242.460884 
L 375.402026 244.151542 
L 375.759182 241.270147 
L 375.824119 241.845103 
L 375.856588 241.295742 
L 375.889057 241.301403 
L 376.018931 242.946457 
L 376.0514 242.448787 
L 376.116337 241.833733 
L 376.181275 242.027652 
L 376.343618 243.95171 
L 376.376087 243.834184 
L 376.408556 244.011024 
L 376.441024 244.070883 
L 376.668305 245.284821 
L 376.863118 245.987774 
L 377.674835 249.953855 
L 379.622957 259.27388 
L 379.850238 260.426639 
L 380.402206 263.261748 
L 380.532081 263.566882 
L 380.694424 264.024237 
L 380.79183 263.853477 
L 380.824299 263.958832 
L 381.603548 267.187237 
L 382.252922 269.662801 
L 382.869827 271.25375 
L 384.103638 273.115107 
L 384.817949 273.790928 
L 386.05176 274.368634 
L 386.214104 274.280693 
L 386.701134 273.601787 
L 387.415446 269.633809 
L 387.675195 268.521971 
L 387.999882 267.0461 
L 388.162226 265.576377 
L 388.227163 265.608338 
L 388.55185 266.15939 
L 388.584319 266.065977 
L 388.681725 266.107197 
L 388.779131 265.951661 
L 388.8116 266.017314 
L 388.876537 266.041572 
L 389.103818 265.080357 
L 389.233693 265.251902 
L 389.331099 265.421273 
L 389.460974 265.609322 
L 389.525911 265.289468 
L 389.883067 260.502289 
L 389.980473 260.867622 
L 390.175285 261.165206 
L 390.337629 260.752943 
L 390.499972 260.07111 
L 390.532441 260.107823 
L 390.56491 260.070946 
L 390.597378 260.1243 
L 390.727253 260.51851 
L 390.79219 260.420221 
L 390.889597 260.653539 
L 391.79872 263.003921 
L 392.123407 263.664458 
L 392.870187 265.341972 
L 393.032531 265.435168 
L 393.129937 265.385611 
L 393.259812 265.470692 
L 393.779311 266.26395 
L 393.81178 266.149559 
L 394.071529 265.425053 
L 394.266342 265.283304 
L 394.29881 265.351465 
L 396.181995 269.682845 
L 397.123587 271.135877 
L 397.967774 272.019538 
L 398.259992 272.230487 
L 398.487273 272.418293 
L 398.487273 272.418293 
" clip-path="url(#p92f369d848)" style="fill: none; stroke: #2ca02c; stroke-width: 1.5; stroke-linecap: square"/>
   </g>
   <g id="line2d_4">
    <path d="M 73.832727 98.496 
L 203.707533 98.496 
" clip-path="url(#p92f369d848)" style="fill: none; stroke: #000000; stroke-width: 3; stroke-linecap: square"/>
   </g>
   <g id="line2d_5">
    <path d="M 203.707533 307.584 
L 203.707533 79.488 
" clip-path="url(#p92f369d848)" style="fill: none; stroke: #000000; stroke-width: 3; stroke-linecap: square"/>
   </g>
   <g id="line2d_6">
    <path d="M 190.720052 307.584 
L 203.707533 307.584 
" clip-path="url(#p92f369d848)" style="fill: none; stroke: #000000; stroke-width: 3; stroke-linecap: square"/>
   </g>
   <g id="line2d_7">
    <path d="M 190.720052 231.552 
L 203.707533 231.552 
" clip-path="url(#p92f369d848)" style="fill: none; stroke: #000000; stroke-width: 3; stroke-linecap: square"/>
   </g>
   <g id="line2d_8">
    <path d="M 190.720052 155.52 
L 203.707533 155.52 
" clip-path="url(#p92f369d848)" style="fill: none; stroke: #000000; stroke-width: 3; stroke-linecap: square"/>
   </g>
   <g id="line2d_9">
    <path d="M 190.720052 79.488 
L 203.707533 79.488 
" clip-path="url(#p92f369d848)" style="fill: none; stroke: #000000; stroke-width: 3; stroke-linecap: square"/>
   </g>
   <g id="line2d_10">
    <path d="M 57.6 301.8816 
L 414.72 301.8816 
" clip-path="url(#p92f369d848)" style="fill: none; stroke: #1f77b4; stroke-width: 1.5; stroke-linecap: square"/>
   </g>
   <g id="line2d_11">
    <path d="M 57.6 60.48 
L 414.72 60.48 
" clip-path="url(#p92f369d848)" style="fill: none; stroke: #1f77b4; stroke-width: 1.5; stroke-linecap: square"/>
   </g>
   <g id="line2d_12">
    <path d="M 57.6 256.2624 
L 414.72 256.2624 
" clip-path="url(#p92f369d848)" style="fill: none; stroke: #1f77b4; stroke-width: 1.5; stroke-linecap: square"/>
   </g>
   <g id="text_1">
    <text style="font-size: 10px; font-family: 'DejaVu Sans', 'Bitstream Vera Sans', 'Computer Modern Sans Serif', 'Lucida Grande', 'Verdana', 'Geneva', 'Lucid', 'Arial', 'Helvetica', 'Avant Garde', sans-serif; text-anchor: start" x="151.757611" y="310.343375" transform="rotate(-0 151.757611 310.343375)">-80 mV</text>
   </g>
   <g id="text_2">
    <text style="font-size: 10px; font-family: 'DejaVu Sans', 'Bitstream Vera Sans', 'Computer Modern Sans Serif', 'Lucida Grande', 'Verdana', 'Geneva', 'Lucid', 'Arial', 'Helvetica', 'Avant Garde', sans-serif; text-anchor: start" x="203.707533" y="310.343375" transform="rotate(-0 203.707533 310.343375)">NbOx -8.9V</text>
   </g>
   <g id="text_3">
    <text style="font-size: 10px; font-family: 'DejaVu Sans', 'Bitstream Vera Sans', 'Computer Modern Sans Serif', 'Lucida Grande', 'Verdana', 'Geneva', 'Lucid', 'Arial', 'Helvetica', 'Avant Garde', sans-serif; text-anchor: start" x="255.657455" y="310.343375" transform="rotate(-0 255.657455 310.343375)">WOx -4.0V</text>
   </g>
   <g id="text_4">
    <text style="font-size: 10px; font-family: 'DejaVu Sans', 'Bitstream Vera Sans', 'Computer Modern Sans Serif', 'Lucida Grande', 'Verdana', 'Geneva', 'Lucid', 'Arial', 'Helvetica', 'Avant Garde', sans-serif; text-anchor: start" x="151.757611" y="234.311375" transform="rotate(-0 151.757611 234.311375)">-40 mV</text>
   </g>
   <g id="text_5">
    <text style="font-size: 10px; font-family: 'DejaVu Sans', 'Bitstream Vera Sans', 'Computer Modern Sans Serif', 'Lucida Grande', 'Verdana', 'Geneva', 'Lucid', 'Arial', 'Helvetica', 'Avant Garde', sans-serif; text-anchor: start" x="203.707533" y="234.311375" transform="rotate(-0 203.707533 234.311375)">NbOx -4.4V</text>
   </g>
   <g id="text_6">
    <text style="font-size: 10px; font-family: 'DejaVu Sans', 'Bitstream Vera Sans', 'Computer Modern Sans Serif', 'Lucida Grande', 'Verdana', 'Geneva', 'Lucid', 'Arial', 'Helvetica', 'Avant Garde', sans-serif; text-anchor: start" x="255.657455" y="234.311375" transform="rotate(-0 255.657455 234.311375)">WOx -2.0V</text>
   </g>
   <g id="text_7">
    <text style="font-size: 10px; font-family: 'DejaVu Sans', 'Bitstream Vera Sans', 'Computer Modern Sans Serif', 'Lucida Grande', 'Verdana', 'Geneva', 'Lucid', 'Arial', 'Helvetica', 'Avant Garde', sans-serif; text-anchor: start" x="151.757611" y="158.279375" transform="rotate(-0 151.757611 158.279375)">0 mV</text>
   </g>
   <g id="text_8">
    <text style="font-size: 10px; font-family: 'DejaVu Sans', 'Bitstream Vera Sans', 'Computer Modern Sans Serif', 'Lucida Grande', 'Verdana', 'Geneva', 'Lucid', 'Arial', 'Helvetica', 'Avant Garde', sans-serif; text-anchor: start" x="203.707533" y="158.279375" transform="rotate(-0 203.707533 158.279375)">NbOx 0.0V</text>
   </g>
   <g id="text_9">
    <text style="font-size: 10px; font-family: 'DejaVu Sans', 'Bitstream Vera Sans', 'Computer Modern Sans Serif', 'Lucida Grande', 'Verdana', 'Geneva', 'Lucid', 'Arial', 'Helvetica', 'Avant Garde', sans-serif; text-anchor: start" x="255.657455" y="158.279375" transform="rotate(-0 255.657455 158.279375)">WOx 0.0V</text>
   </g>
   <g id="text_10">
    <text style="font-size: 10px; font-family: 'DejaVu Sans', 'Bitstream Vera Sans', 'Computer Modern Sans Serif', 'Lucida Grande', 'Verdana', 'Geneva', 'Lucid', 'Arial', 'Helvetica', 'Avant Garde', sans-serif; text-anchor: start" x="151.757611" y="82.247375" transform="rotate(-0 151.757611 82.247375)">40 mV</text>
   </g>
   <g id="text_11">
    <text style="font-size: 10px; font-family: 'DejaVu Sans', 'Bitstream Vera Sans', 'Computer Modern Sans Serif', 'Lucida Grande', 'Verdana', 'Geneva', 'Lucid', 'Arial', 'Helvetica', 'Avant Garde', sans-serif; text-anchor: start" x="203.707533" y="82.247375" transform="rotate(-0 203.707533 82.247375)">NbOx 4.4V</text>
   </g>
   <g id="text_12">
    <text style="font-size: 10px; font-family: 'DejaVu Sans', 'Bitstream Vera Sans', 'Computer Modern Sans Serif', 'Lucida Grande', 'Verdana', 'Geneva', 'Lucid', 'Arial', 'Helvetica', 'Avant Garde', sans-serif; text-anchor: start" x="255.657455" y="82.247375" transform="rotate(-0 255.657455 82.247375)">WOx 2.0V</text>
   </g>
   <g id="text_13">
    <text style="font-size: 10px; font-family: 'DejaVu Sans', 'Bitstream Vera Sans', 'Computer Modern Sans Serif', 'Lucida Grande', 'Verdana', 'Geneva', 'Lucid', 'Arial', 'Helvetica', 'Avant Garde', sans-serif" transform="translate(73.832727 144.322188)">NbOx 14.4ms</text>
    <text style="font-size: 10px; font-family: 'DejaVu Sans', 'Bitstream Vera Sans', 'Computer Modern Sans Serif', 'Lucida Grande', 'Verdana', 'Geneva', 'Lucid', 'Arial', 'Helvetica', 'Avant Garde', sans-serif" transform="translate(73.832727 155.52)">WOx 4.9ms</text>
   </g>
   <g id="legend_1">
    <g id="patch_2">
     <path d="M 64.6 78.82825 
L 121.010937 78.82825 
Q 123.010937 78.82825 123.010937 76.82825 
L 123.010937 48.472 
Q 123.010937 46.472 121.010937 46.472 
L 64.6 46.472 
Q 62.6 46.472 62.6 48.472 
L 62.6 76.82825 
Q 62.6 78.82825 64.6 78.82825 
z
" style="fill: #ffffff; opacity: 0.8; stroke: #cccccc; stroke-linejoin: miter"/>
    </g>
    <g id="line2d_13">
     <path d="M 66.6 54.570437 
L 76.6 54.570437 
L 86.6 54.570437 
" style="fill: none; stroke: #ff7f0e; stroke-width: 1.5; stroke-linecap: square"/>
    </g>
    <g id="text_14">
     <text style="font-size: 10px; font-family: 'DejaVu Sans', 'Bitstream Vera Sans', 'Computer Modern Sans Serif', 'Lucida Grande', 'Verdana', 'Geneva', 'Lucid', 'Arial', 'Helvetica', 'Avant Garde', sans-serif; text-anchor: start" x="94.6" y="58.070437" transform="rotate(-0 94.6 58.070437)">nbox</text>
    </g>
    <g id="line2d_14">
     <path d="M 66.6 69.248562 
L 76.6 69.248562 
L 86.6 69.248562 
" style="fill: none; stroke: #2ca02c; stroke-width: 1.5; stroke-linecap: square"/>
    </g>
    <g id="text_15">
     <text style="font-size: 10px; font-family: 'DejaVu Sans', 'Bitstream Vera Sans', 'Computer Modern Sans Serif', 'Lucida Grande', 'Verdana', 'Geneva', 'Lucid', 'Arial', 'Helvetica', 'Avant Garde', sans-serif; text-anchor: start" x="94.6" y="72.748562" transform="rotate(-0 94.6 72.748562)">wox</text>
    </g>
   </g>
  </g>
 </g>
 <defs>
  <clipPath id="p92f369d848">
   <rect x="57.6" y="41.472" width="357.12" height="266.112"/>
  </clipPath>
 </defs>
</svg>
